<?xml version="1.0" encoding="utf-8"?>
<!-- Generator: Adobe Illustrator 27.3.1, SVG Export Plug-In . SVG Version: 6.00 Build 0)  -->
<svg version="1.1" id="Calque_1" xmlns="http://www.w3.org/2000/svg" xmlns:xlink="http://www.w3.org/1999/xlink" x="0px" y="0px"
	 viewBox="0 0 566.9 566.9" style="enable-background:new 0 0 566.9 566.9;" xml:space="preserve">
<style type="text/css">
	.st0{fill:#FFFFFF;}
</style>
<g>
	<path class="st0" d="M0,389.8h566.9V499c0,24.5-19.8,44.3-44.3,44.3H44.3C19.8,543.3,0,523.5,0,499V389.8z"/>
	<path class="st0" d="M0,342.5V150.6c0-24.5,19.8-44.3,44.3-44.3h478.3c24.5,0,44.3,19.8,44.3,44.3v191.9H330.7v-47.2h-94.5v47.2H0z
		"/>
	<path class="st0" d="M223.9,23.6H343c19.3,0,34.9,15.6,34.9,34.9v47.7h-51.2V70.9h-90.6v35.4H189V58.6
		C189,39.3,204.6,23.6,223.9,23.6z"/>
	<rect x="71.9" y="342.5" class="st0" width="34.4" height="47.2"/>
	<path class="st0" d="M456.7,342.5v47.2c0,0,29.5,0,34.4,0s0-47.2,0-47.2H456.7z"/>
</g>
</svg>
