<?xml version="1.0" encoding="utf-8"?>
<!-- Generator: Adobe Illustrator 27.3.1, SVG Export Plug-In . SVG Version: 6.00 Build 0)  -->
<svg version="1.1" id="Calque_1" xmlns="http://www.w3.org/2000/svg" xmlns:xlink="http://www.w3.org/1999/xlink" x="0px" y="0px"
	 viewBox="0 0 566.9 566.9" style="enable-background:new 0 0 566.9 566.9;" xml:space="preserve">
<style type="text/css">
	.st0{fill:#FFFFFF;}
</style>
<g>
	<path class="st0" d="M283.5,0C134.1,0,12.9,126.9,12.9,283.5s121.1,283.5,270.5,283.5S554,440,554,283.5S432.8,0,283.5,0z
		 M330.5,471.7h-94.1v-94.1h94.1V471.7z M330.5,342.3h-94.1c0,0,0-11.8,0-35.3s23.5-35.3,35.3-35.3c11.8,0,53.5-17.1,23.5-47
		c-23.5-23.5-47,11.8-47,11.8h-82.3c0-82.3,117.6-164.7,200-70.6C449.5,261.6,330.5,342.3,330.5,342.3z"/>
</g>
</svg>
