<?xml version="1.0" encoding="utf-8"?>
<!-- Generator: Adobe Illustrator 27.3.1, SVG Export Plug-In . SVG Version: 6.00 Build 0)  -->
<svg version="1.1" id="Calque_1" xmlns="http://www.w3.org/2000/svg" xmlns:xlink="http://www.w3.org/1999/xlink" x="0px" y="0px"
	 viewBox="0 0 566.9 566.9" style="enable-background:new 0 0 566.9 566.9;" xml:space="preserve">
<style type="text/css">
	.st0{fill:#FFFFFF;}
</style>
<g>
	<path class="st0" d="M283.5,0C126.9,0,0,126.9,0,283.5C0,440,126.9,566.9,283.5,566.9S566.9,440,566.9,283.5
		C566.9,126.9,440,0,283.5,0z M398.1,506.6c-48.2,48.2-84.4,36.2-72.4,24.1c12.1-12.1-36.2-24.1-48.2-48.2
		c-12.1-24.1,24.1-48.2,24.1-48.2L241.1,394l-11.9-8c-24.1-24.1-84.4-24.1-120.6-96.5s24.1-108.6,24.1-144.7s12.1-72.4,72.4-72.4
		s36.2-36.2,96.5-24.1s84.4,48.2,48.2,48.2s-36.2,24.1-12.1,36.2c24.1,12.1,72.4,48.2,48.2,48.2c-24.1,0-60.3,48.2-72.4,60.3
		c-12.1,12.1-24.1,84.4-24.1,84.4c-31.2-10.4-44.5,6.2-32.1,26.3l0.1,0.1c52.3,50.3,68.2,21.8,92.3,21.8s72.4,24.1,108.6,24.1
		S446.3,458.4,398.1,506.6z"/>
</g>
</svg>
