<?xml version="1.0" encoding="utf-8"?>
<!-- Generator: Adobe Illustrator 22.1.0, SVG Export Plug-In . SVG Version: 6.00 Build 0)  -->
<svg version="1.1" id="Calque_1" xmlns="http://www.w3.org/2000/svg" xmlns:xlink="http://www.w3.org/1999/xlink" x="0px" y="0px"
	 viewBox="0 0 35.4 35.2" style="enable-background:new 0 0 35.4 35.2;" xml:space="preserve">
<style type="text/css">
	.st0{display:none;}
	.st1{display:inline;fill:#435264;}
	.st2{display:inline;fill:none;}
	.st3{display:inline;fill:#7F98C2;}
	.st4{display:inline;fill:#FEFEFE;}
	.st5{display:inline;}
	.st6{fill:#435264;}
	.st7{display:inline;fill:none;stroke:#435264;stroke-width:1.1533;stroke-miterlimit:10;}
</style>
<g id="Calque_1_1_" class="st0">
	<path class="st1" d="M32.2,54c-2.6,0-5.1,0.2-7.5,0c-4.2,0-8.2-0.2-12.4-0.5c-1.4,0-2.8-0.2-4.4-0.5c-0.7-0.2-1.2,0.2-1.4,0.9
		c-0.2,0.7-0.2,0.7-0.9,0.7c-1.9,0-3.5,0-5.4,0c-1.2,0-1.6-0.2-1.6-1.4c0-0.7-0.5-1.4-1.2-1.6c-1.4-0.2-1.9-1.4-2.3-2.6
		c-0.7-1.9-0.7-4-0.9-5.8C-6,40.9-6,38.6-5.8,36c0.5-3.7,1.4-7.5,2.8-11c0.5-1.2,0.9-2.1,1.4-3.3c0.5,0.2,0.9,0.7,1.2,1.2
		c0,0.2,0,0.2,0,0.5c-0.2,0.2-0.2,0.2-0.5,0c-0.2-0.2-0.5-0.5-0.2-0.7c0,0,0.2-0.2,0-0.2s-0.2,0-0.2,0.2c-0.2,0.2-0.2,0.7,0.2,0.9
		c0.2,0.2,0.7,0.5,0.9,0.2C0,23.7,0.3,23.4,0,23c-0.2-0.5-0.7-0.9-1.4-1.2c0.7-1.9,1.9-3.7,2.8-5.8C3,12.7,4.9,9.5,6.8,6.4
		C7.5,5,7.7,3.6,8.2,2.2C8.4,1.3,8.6,0.1,9.1-1c0.5-0.9,1.2-1.4,2.3-1.6c0.9,0,2.1-0.2,3,0C15.4-2.4,15.9-2,16.1-1
		c0.2,1.2,0.5,2.6,0.7,3.7c0,0.5,0.2,0.5,0.7,0.5c5.6-0.2,11-0.2,16.6-0.2c0.9,0,1.9,0,2.8,0.2c0.2,0,0.5,0,0.5-0.5
		c0.2-1.4,0.5-2.6,0.9-4c0.2-0.7,0.7-1.4,1.4-1.4c1.2-0.2,2.6-0.2,3.7,0s1.6,1.2,2.1,2.1c0.5,1.4,0.7,2.8,1.2,4.2
		C46.9,4.8,47.3,6,48,7.1c3.5,5.8,6.8,11.7,9.1,17.9c2.1,5.4,3.3,10.7,2.8,16.6c-0.2,2.6-0.2,5.1-1.2,7.7c-0.5,1.2-0.9,2.1-2.3,2.6
		c-0.7,0.2-1.2,0.7-1.2,1.4c-0.2,1.4-0.5,1.6-1.9,1.6c-1.6,0-3.5,0-5.1,0c-0.9,0-0.9,0-1.2-0.9c-0.2-0.7-0.5-0.9-1.4-0.9
		c-3.7,0.5-7.5,0.7-11.2,0.7c-0.5,0-0.7,0-1.2,0c0-0.2-0.2-0.5,0.2-0.7c0.2,0,0,0.5,0.2,0.5s0.2-0.5,0-0.7c0-0.2-0.2-0.2-0.5,0
		c-0.5,0.2-0.5,0.7-0.2,1.2c-0.2,0-0.5,0-0.5,0C32.4,54,32.4,54,32.2,54z M1.4,52.1c0.5,1.4,2.6,2.1,4.2,1.4c1.2-0.7,1.9-1.6,1.9-3
		c0.2,0,0.5,0,0.7,0c0,0.9-0.2,1.6-0.7,2.3c0,0,0,0.2,0,0.5c0.2,0,0.2,0,0.5-0.2c0.7-0.7,0.9-1.4,0.9-2.3c0.2,0,0.5,0,0.7,0
		c4.4,0.5,8.9,0.7,13.1,0.7c5.4,0.2,10.5,0,15.9-0.2c2.1-0.2,4.4-0.2,6.5-0.7c1.2-0.2,2.3,0,3.3,0.9c0.7,0.9,1.4,0.9,2.3,0.9
		c0.5,0,0.9,0,1.2,0s0.5,0,0.5-0.5c0.5-0.9,0.9-1.9,1.9-2.1c1.2-0.5,1.4-1.2,1.6-2.1c0-0.2,0-0.5,0.2-0.7c0.2-1.4,0.2-2.8,0.5-4.2
		c0.2-2.6,0.2-5.1-0.2-7.7c-0.7-4-1.9-7.7-3.5-11.4c-2.1-4.9-4.9-9.8-7.5-14.5c-0.7-1.2-1.4-2.3-1.9-3.7c-0.2-1.4-0.7-2.6-0.9-4
		c-0.5-1.4,0-1.2-1.6-1.2c-0.2,0-0.5,0-0.5,0.5c-0.2,1.6-0.7,3.5-1.2,5.1c0,0.5-0.2,0.7-0.7,0.5c-3-0.2-6.3-0.2-9.3-0.5
		c-4.9,0-9.6,0-14.5,0.5c-0.5,0-0.5,0-0.5-0.5c-0.2-1.6-0.7-3-0.9-4.7c-0.2-1.2-0.2-1.2-1.4-1.2c-0.5,0-0.7,0.2-0.7,0.7
		c-0.2,1.4-0.7,3-1.2,4.4C9.8,6,9.6,6.7,9.3,7.4c-0.9,1.6-2.1,3.5-3,5.1C5.1,14.6,4,16.9,2.8,19c-0.9,0-1.2,0.2-1.2,0.9
		c0,0.2,0.2,0.5,0.5,0.5c-0.2,0.5-0.5,0.7-0.5,1.2c-0.2,0-0.7,0-0.7-0.2s-0.2-0.5,0.2-0.5c0.2,0,0,0.2,0.2,0.5c0,0.2,0.2,0.2,0.2,0
		s0.2-0.5,0-0.7c-0.2-0.2-0.5,0-0.7,0.2s-0.2,0.5-0.2,0.9c0,0,0.2,0,0.7,0c0,0.5-0.5,0.9-0.7,1.4c-0.7,1.6-1.4,3.3-2.1,5.1
		C-3,33-3.7,37.7-3.2,42.6c0.2,2.1,0.2,4.2,0.9,6.1c0,0.2,0.2,0.5,0.7,0.7c1.2,0.5,2.1,0.9,2.6,2.1C1.2,51.6,1.2,51.9,1.4,52.1z
		 M35.7,52.6c-0.2,0-0.2,0-0.5,0c-0.2,0-0.5,0-0.7-0.2c0-0.2,0-0.5,0-0.5c0.2-0.2,0.5,0,0.7,0c0.2,0.2,0.2,0.2,0.5,0.5h0.2
		c0,0,0,0,0-0.2c-0.2-0.2-0.5-0.7-0.9-0.7s-0.7,0.2-0.7,0.5c0,0.5,0.2,0.9,0.7,0.9C35.2,53,35.7,53,35.7,52.6z M0.5,23
		c0-0.2-0.2-0.5-0.5-0.7C-0.2,22-0.2,22-0.2,21.8s0.2-0.2,0-0.2s-0.2,0.2-0.2,0.2C-0.4,22.3,0,22.7,0.5,23z"/>
	<path class="st1" d="M2.3-16.2c1.2-0.5,2.6-0.7,3.7-0.9C6.5-16.6,7-16.4,7.5-16c0.2,0.5,0.5,0.9,0.7,1.2c-0.2,0-0.5,0.2-0.9,0.2
		c-0.7-1.9-2.6-2.6-4-1.4c-0.7,0.7-0.7,1.6-0.2,2.3c-0.2,0.2-0.7,0.2-0.9,0.2c-0.2-0.5-0.2-1.2-0.2-1.6C1.9-15.5,2.3-16,2.3-16.2z"
		/>
	<path class="st1" d="M2.3-16.2c0,0.5-0.5,0.9-0.5,1.4c0,0.5,0,1.2,0.2,1.6c-0.2,0-0.7,0-0.9,0.2c-0.5-0.9-0.5-1.9-0.2-2.8
		C1.4-16.2,1.9-16.2,2.3-16.2z"/>
	<path class="st1" d="M8.2-14.8c-0.5-0.5-0.5-0.9-0.7-1.2c-0.5-0.5-0.9-0.7-1.4-1.2c0.5-0.2,0.9-0.2,1.4-0.2
		c0.7,0.7,1.4,1.4,1.4,2.6C8.4-14.8,8.4-14.8,8.2-14.8z"/>
	<path class="st1" d="M-1.6,21.8c0.5,0.2,0.9,0.7,1.4,1.2c0.2,0.5,0,0.7-0.2,0.9c-0.5,0.2-0.7,0-0.9-0.2c-0.2-0.2-0.5-0.5-0.2-0.9
		l0.2-0.2c0.2,0,0,0.2,0,0.2c-0.2,0.5,0,0.5,0.2,0.7c0.2,0,0.2,0,0.5,0c0.2-0.2,0.2-0.2,0-0.5c-0.2-0.5-0.7-0.9-1.2-1.2
		C-1.8,22-1.8,22-1.6,21.8z"/>
	<path class="st1" d="M33.1,54c-0.2-0.5-0.2-0.9,0.2-1.2c0.2,0,0.5-0.2,0.5,0s0.2,0.7,0,0.7c-0.2,0.2-0.2-0.2-0.2-0.5
		c-0.2,0.2,0,0.5-0.2,0.7C33.4,54.2,33.1,54,33.1,54z"/>
	<path class="st1" d="M32.2,54h0.2C32.4,54,32.4,54,32.2,54z"/>
	<path class="st1" d="M1.4,52.1c0.5,0,0.9,0,1.4,0c0.5,0.7,1.4,0.9,2.3,0.7s1.4-0.9,1.4-1.6c0-0.2,0-0.5,0-0.7
		c0.2-0.2,0.5-0.2,0.9-0.2c0.2,1.4-0.5,2.6-1.9,3C4,54.2,1.9,53.5,1.4,52.1z"/>
	<path class="st1" d="M7.9,50.3c0.2,0,0.5,0,0.7,0c0,0.9-0.5,1.6-0.9,2.3c0,0-0.2,0.2-0.5,0.2c0,0,0-0.2,0-0.5
		C7.7,51.9,8.2,51.2,7.9,50.3z"/>
	<path class="st1" d="M35.7,52.6c0,0.5-0.2,0.5-0.7,0.5s-0.7-0.5-0.7-0.9c0-0.5,0.2-0.7,0.7-0.5c0.5,0,0.7,0.5,0.9,0.7
		c0,0,0,0,0,0.2H35.7c-0.2-0.2-0.2-0.2-0.5-0.5c-0.2-0.2-0.5-0.2-0.7,0s-0.2,0.5,0,0.5c0,0.2,0.5,0.2,0.7,0.2
		C35.4,52.6,35.4,52.6,35.7,52.6z"/>
	<path class="st1" d="M1.6,21.6c0,0.2,0,0.2,0,0.2c-0.5,0-0.7,0-0.9-0.5c-0.2-0.2-0.2-0.7,0.2-0.9c0.2-0.2,0.5-0.5,0.7-0.2
		s0.2,0.5,0,0.7c0,0.2-0.2,0-0.2,0s0-0.2-0.2-0.5c-0.2,0.2-0.2,0.5-0.2,0.5C0.9,21.6,1.2,21.6,1.6,21.6z"/>
	<path class="st1" d="M2.1,20.2v0.2c0-0.2-0.2-0.2-0.5-0.5c0-0.7,0.2-0.9,1.2-0.9c0,0,0,0.2-0.2,0.2C2.1,19.2,1.9,19.5,2.1,20.2z"/>
	<path class="st1" d="M0.5,23c-0.5-0.2-1.2-0.7-0.9-1.2c0-0.2,0-0.5,0.2-0.2c0.2,0,0,0.2,0,0.2c0,0.2,0,0.5,0.2,0.5
		C0.3,22.5,0.5,22.5,0.5,23z"/>
	<path class="st2" d="M39.9-17.3c-0.2,0,0,0.2,0,0.2c0,0.2,0,0.2,0,0.5c-0.2,0-0.2,0-0.5-0.2c-0.2-0.2-0.2-0.5,0-0.7
		c0,0,0.2-0.2,0.2-0.5c-0.2-0.2-0.2,0-0.5,0c-0.2,0.2-0.2,0.5-0.7,0.2c0,0-0.2,0-0.2,0.2c0,0.2,1.2,1.2,1.2,1.2c0.2,0,0.5,0,0.7-0.2
		s0-0.5,0-0.7H39.9z"/>
	<path class="st2" d="M38.2-16C38.2-16.2,38.2-16.2,38.2-16c0-0.2,0.2-0.7,0-0.7s-0.2,0.2-0.5,0.5l0,0c-1.2,0-2.3-0.2-3.3-0.2
		c1.2,0,2.3,0.2,3.3,0.2C37.8-16.2,38-16,38.2-16z"/>
	<path class="st1" d="M33.6-12c-0.2,0.2-0.7,0.5-0.7,0.7s0.2,0.5,0.5,0.7c0.2,0.2,0.7,0.2,0.9-0.2c0.2-0.2,0.5-0.2,0.2-0.5
		c-0.2-0.2-0.2,0.2-0.5,0.2l0,0c-0.2,0.2-0.5,0.2-0.7,0c-0.2-0.2-0.2-0.5,0-0.7c0.2,0.2,0,0.5,0.2,0.5s0.2-0.2,0.2-0.5
		c0-0.2,0-0.2,0-0.5C33.8-12,33.6-12,33.6-12z"/>
	<path class="st2" d="M39.9-18.5c0,0.2,0.7,1.2,0.9,1.2H41v-0.2C40.6-17.8,40.3-18.3,39.9-18.5z"/>
	<path class="st1" d="M70.6-1.7c-1.2-4.2-3.7-7.5-7.2-9.8c-2.6-1.6-5.4-2.8-8.4-3.7c-4.9-1.6-10-2.8-15.2-3.5
		c-3.7-0.5-7.5-0.9-11.4-0.9c-4.9,0-9.8,0.2-14.7,0.9c-2.1,0.2-4.2,0.7-6.5,1.2c0.7,0.7,1.4,1.4,1.4,2.6h0.2l0,0
		c3-0.5,6.1-0.9,8.9-1.4c5.6-0.5,11-0.5,16.6,0c1.2,0,2.3,0.2,3.3,0.2l0,0c0-0.2,0.2-0.7,0.5-0.5c0.2,0,0,0.5,0,0.5l0,0
		c1.9,0.2,3.5,0.5,5.4,0.9c4,0.7,7.9,1.9,11.7,3.3c2.1,0.7,4.2,1.6,6.3,3c4,2.3,6.1,5.8,6.8,10.3c0,0.5,0,1.2,0,1.6
		c0,1.2-0.9,1.4-1.6,1.6C64.8,5,63,5,61.3,5c-2.8,0-5.8-0.5-8.4-1.6c-0.5-0.2-0.9-0.5-1.2-0.9c-0.7-1.2-1.2-2.6-1.4-4
		c-0.9-2.6-2.3-4.7-4.7-6.3c-2.6-1.9-5.6-3-8.9-3.7c-0.2,0-0.7-0.2-0.9-0.2C35.2-12,34.5-12,33.8-12l0,0c0,0.2,0,0.2,0,0.5
		c0,0.2,0.2,0.5-0.2,0.5c-0.2,0,0-0.2-0.2-0.5c-0.2,0.2-0.2,0.5,0,0.7c0.2,0.2,0.5,0,0.7,0l0,0c0.2,0,0.2-0.5,0.5-0.2
		c0.2,0.2-0.2,0.5-0.2,0.5c-0.2,0.2-0.5,0.2-0.9,0.2c-0.2-0.2-0.5-0.5-0.5-0.7c0-0.5,0.2-0.7,0.7-0.7c-2.8-0.5-5.4-0.2-8.2-0.2
		c-2.3,0-4.7,0-6.8,0.5c-3,0.5-5.8,1.2-8.6,2.6S5.1-5.5,3.7-2.7C3.3-1.5,2.8-0.3,2.6,0.8C1.6,3.6,1.6,3.4-0.9,4.1
		C-4.4,5-7.9,5.3-11.4,5c-0.9,0-1.6-0.2-2.3-0.7c-0.5-0.2-0.7-0.5-0.7-1.2c-0.2-1.4,0-2.8,0.5-4C-13-4.5-10.7-7.1-7.4-9
		c2.3-1.4,5.1-2.3,7.7-3.3c0.5-0.2,0.9-0.2,1.2-0.5c-0.5-0.9-0.5-1.9-0.2-2.8c-3.7,1.2-7.5,2.6-10.7,4.7s-5.8,4.9-7,8.9
		c-0.5,1.9-0.9,3.5-0.7,5.4c0.2,1.9,0.9,3,2.8,3.7c0.9,0.5,1.9,0.7,2.8,0.7C-7,8.3-2.5,8.1,1.9,6.4C3.3,6,4.4,5,4.9,3.6
		c0.7-1.4,1.2-2.8,1.6-4.2C7.2-2.9,8.9-4.8,11-5.9c2.3-1.4,4.7-2.1,7.2-2.6C20.3-9,22.4-9,24.5-9c2.8,0,5.8-0.2,8.6,0.2
		c0-0.2-0.2-0.5-0.5-0.7c-0.2-0.2-0.2-0.2-0.2-0.5s0-0.5,0.2-0.5c0.2,0,0,0.2,0,0.5s0.2,0.5,0.5,0.7C33.4-9,33.6-9,33.4-8.5
		c3,0.2,6.1,0.9,8.9,2.3C44.5-5,46.4-3.6,47.3-1c0.2,0.5,0.7,1.9,1.2,3.3c0.2,0.9,0.7,1.6,1.2,2.3c0.9,1.2,2.3,1.6,3.5,1.9
		c3.3,0.9,6.8,1.4,10.3,1.2c1.4,0,2.8-0.2,4-0.7c2.3-0.7,3.3-2.1,3.5-4.4C71.1,1.1,70.9-0.3,70.6-1.7z M40.1-16.6
		c-0.2,0.2-0.2,0.2-0.7,0.2c-0.2,0-1.2-0.9-1.2-1.2c0,0,0-0.2,0.2-0.2c0.2,0.2,0.5,0,0.7-0.2c0,0,0.2-0.2,0.5,0
		c0.2,0.2,0,0.2-0.2,0.5c-0.2,0.2-0.2,0.5,0,0.7c0.2,0.2,0.2,0.2,0.5,0.2c0.2,0,0.2-0.2,0-0.5c0,0-0.2-0.2,0-0.2s0.2,0,0.2,0.2
		C40.1-16.9,40.3-16.9,40.1-16.6z M41-17.3C41-17.3,40.8-17.3,41-17.3c-0.2,0-0.9-0.9-1.2-1.2C40.3-18.3,40.6-17.8,41-17.3
		C41-17.6,41-17.3,41-17.3z"/>
	<path class="st1" d="M32.7-9.9c-0.2-0.2-0.5-0.2-0.5-0.7c0-0.2,0.2-0.2,0-0.5c-0.2,0-0.2,0.2-0.2,0.5s0.2,0.5,0.2,0.5
		c0.2,0.2,0.5,0.2,0.5,0.7l0,0C33.1-9.4,32.9-9.7,32.7-9.9z"/>
	<path class="st1" d="M33.6-12h0.2c0,0.2,0,0.2,0,0.5c0,0.2,0.2,0.5-0.2,0.5c-0.2,0,0-0.2-0.2-0.5c-0.2,0.2-0.2,0.5,0,0.7
		c0.2,0.2,0.5,0,0.7,0l0,0c0.2,0,0.2-0.5,0.5-0.2c0.2,0.2-0.2,0.5-0.2,0.5c-0.2,0.2-0.5,0.2-0.9,0.2c-0.2-0.2-0.5-0.5-0.5-0.7
		C32.9-11.8,33.1-12,33.6-12z"/>
	<path class="st1" d="M39.6-16.2c-0.2,0-1.2-0.9-1.2-1.2c0,0,0-0.2,0.2-0.2c0.2,0.2,0.5,0,0.7-0.2c0,0,0.2-0.2,0.5,0
		c0.2,0.2,0,0.2-0.2,0.5s-0.2,0.5,0,0.7s0.2,0.2,0.5,0.2c0.2,0,0.2-0.2,0-0.5c0,0-0.2-0.2,0-0.2s0.2,0,0.2,0.2
		c0.2,0.2,0.2,0.5,0,0.7C40.1-16.4,39.9-16.2,39.6-16.2z"/>
	<path class="st1" d="M39.9-18.5c0.5,0.2,0.7,0.7,1.2,0.9v0.2c0,0,0,0-0.2,0C40.6-17.3,39.9-18.3,39.9-18.5z"/>
	<path class="st1" d="M38.2-16c-0.2,0-0.2,0-0.5,0l0,0c0-0.2,0.2-0.7,0.5-0.5C38.5-16.6,38-16.4,38.2-16
		C38.2-16.2,38.2-16.2,38.2-16z"/>
	<path class="st3" d="M9.1-15L9.1-15L9.1-15z"/>
	<path class="st1" d="M3.7-13.9c-0.2,0-0.5,0.2-0.7,0.2c-0.5-0.5-0.5-1.6,0.2-2.3c1.4-1.2,3.3-0.7,4,1.4c-0.2,0-0.5,0.2-0.7,0.2
		c-0.5-0.5-0.5-0.9-0.9-1.2c-0.5-0.2-0.9-0.2-1.4,0.2C3.5-15,3.7-14.3,3.7-13.9z"/>
	<path class="st1" d="M35.7,14.4c-1.4-0.5-2.6-0.9-4-1.2C25.4,12,19.4,13,14,16.9c-3.3,2.3-5.4,5.4-6.1,9.3
		c-0.5,2.8-0.2,5.6,1.2,8.2c1.9,3.7,4.7,6.3,8.4,8.2c2.3,1.2,4.7,1.9,7.2,2.1c3.7,0.5,7.5-0.2,11-1.6c0.5-0.2,0.5-0.2,0.7,0.2
		c0.2,0.7,0.5,1.2,0.7,1.6c0.2,0.2,0,0.5-0.2,0.7c-1.6,0.7-3.3,1.2-4.9,1.6c-4.4,0.9-8.6,0.7-12.8-0.7c-5.6-1.9-10-5.4-12.6-10.5
		c-2.8-5.6-2.3-11,0.7-16.1c2.3-4,6.1-6.5,10.3-8.2c4.4-1.9,9.1-2.1,14-1.4c5.6,0.9,10.3,3.5,14,7.9c4.7,5.6,4.9,13.3,0.9,19.3
		c-0.5,0.7-0.5,0.7-1.2,0.2c-0.5-0.2-0.9-0.5-1.4-0.7c-0.5-0.2-0.5-0.5-0.2-0.7c0.9-1.4,1.6-2.8,2.1-4.4c1.4-5.4-0.2-9.8-4-13.8
		c-0.2-0.2-0.2-0.2-0.5-0.5c0.2-2.3-1.9-4.4-4.7-4C36.4,14.1,35.9,13.9,35.7,14.4z"/>
	<path class="st1" d="M26.8,38.8c-3.7,0-7-1.2-9.6-4.2c-3.3-3.5-3.3-8.9,0-12.1c2.8-3,6.5-4.2,10.7-4c3,0.2,5.6,1.4,7.7,3.5
		c3.7,3.5,4,9.1,0.5,12.8C33.6,37.4,30.6,38.6,26.8,38.8z M26.8,35.8c2.6,0,4.9-0.7,6.8-2.3c3-2.6,3.3-6.8,0.2-9.6
		c-1.9-1.9-4-2.6-6.5-2.8c-3-0.2-5.6,0.7-7.7,2.8c-2.6,2.6-2.6,6.3,0,8.9C21.7,35.1,24,35.8,26.8,35.8z"/>
	<path class="st1" d="M35.7,37.4c0-1.2,1.2-1.9,2.3-1.4c2.1,1.2,4.2,2.1,6.3,3.3c1.2,0.7,1.4,1.9,0.2,2.8c-1.2,0.9-2.3,2.1-3.3,3
		c-0.7,0.7-1.9,0.5-2.3-0.5c-0.7-1.2-1.2-2.3-1.6-3.7c-0.5-0.9-0.9-1.9-1.4-3C35.7,38.1,35.7,37.9,35.7,37.4z M40.6,42.8
		c0.5-0.5,1.2-0.9,1.6-1.4c0.2,0,0.2-0.2,0-0.2c-0.9-0.5-1.9-0.9-3-1.6c0.5,0.9,0.7,1.6,1.2,2.6C40.1,42.3,40.3,42.6,40.6,42.8z"/>
	<path class="st1" d="M19.1,38.1c1.2,0,2.3,0.9,2.3,2.1s-0.9,2.1-2.3,2.1c-1.2,0-2.1-0.9-2.1-2.1C16.8,39.1,18,38.1,19.1,38.1z"/>
	<path class="st1" d="M40.8,21.1c1.2,0,2.1,0.9,2.3,2.1c0,1.2-0.9,2.1-2.1,2.3c-1.2,0-2.3-0.9-2.3-2.1
		C38.7,22.3,39.6,21.1,40.8,21.1z"/>
	<path class="st1" d="M42.2,28.3c1.2,0,2.1,0.9,2.1,2.1s-0.9,2.1-2.3,2.1c-1.2,0-2.1-0.9-2.1-2.1C39.9,29.3,41,28.3,42.2,28.3z"/>
	<path class="st1" d="M15.6,35.3c0,1.2-0.9,2.3-2.3,2.1c-1.2,0-2.1-0.9-2.1-2.1c0-1.2,0.9-2.3,2.1-2.3
		C14.7,33.2,15.6,34.2,15.6,35.3z"/>
	<path class="st1" d="M27.1,39.8c1.2,0,2.3,0.9,2.1,2.1c0,1.2-0.9,2.1-2.3,2.1c-1.2,0-2.1-0.9-2.1-2.1S25.9,39.8,27.1,39.8z"/>
	<path class="st1" d="M8.9,28.6c0-1.2,0.9-2.3,2.1-2.1c1.2,0,2.1,0.9,2.1,2.1c0,1.2-0.9,2.1-2.3,2.1C10,30.7,8.9,29.7,8.9,28.6z"/>
	<path class="st1" d="M11.4,21.6c0-1.2,0.9-2.1,2.1-2.1s2.1,0.9,2.1,2.1s-0.9,2.1-2.1,2.1S11.4,22.7,11.4,21.6z"/>
	<path class="st1" d="M20.1,14.6c1.2,0,2.3,0.9,2.3,2.3c0,1.2-0.9,2.1-2.3,2.1c-1.2,0-2.1-0.9-2.1-2.3C18,15.5,18.9,14.6,20.1,14.6z
		"/>
	<path class="st1" d="M28,17.8c-1.2,0-2.1-0.9-2.1-2.1s0.9-2.1,2.1-2.3c1.2,0,2.1,0.9,2.1,2.1C30.3,16.7,29.2,17.8,28,17.8z"/>
	<path class="st1" d="M35.7,14.4c0.2-0.5,0.7-0.5,1.2-0.5c2.8-0.5,4.7,1.6,4.7,4c-0.2-0.2-0.7-0.5-0.9-0.7c0.2-0.2,0-0.5,0-0.5
		c-0.7-1.4-1.9-1.9-3.5-1.6C36.4,14.8,35.9,14.6,35.7,14.4z"/>
	<path class="st1" d="M35,15.8c0.5-0.2,0.9-0.2,1.4,0c0,0.2-0.2,0.2-0.5,0.5c-0.7,0.5-0.7,1.2-0.7,1.9c0.2,0.7,0.7,1.2,1.4,1.2
		c0.2,0,0.2,0,0.5,0.2c-0.5,0.2-0.9,0.5-1.6,0.5v-0.2c-0.7-0.7-0.9-1.4-0.9-2.3C34.5,16.9,35,16.5,35,15.8z"/>
	<path class="st1" d="M37.1,19.7c0-0.2-0.2-0.2-0.5-0.2c-0.7,0-1.2-0.5-1.4-1.2c-0.2-0.7,0-1.4,0.7-1.9c0.2-0.2,0.5-0.2,0.5-0.5
		c0.5,0.2,0.7,0.5,0.9,0.7c-0.2,0-0.5,0.2-0.7,0.2c-0.7,0.5-0.7,1.4-0.2,1.9c0.2,0.2,0.5,0.2,0.7,0.2s0.2-0.2,0.2-0.5
		c0-0.5,0-0.7,0.5-0.5C38,18.5,37.8,19.2,37.1,19.7z"/>
	<path class="st1" d="M35,15.8c-0.2,0.5-0.5,0.9-0.5,1.6c0,0.9,0.2,1.6,0.9,2.3v0.2c-0.7,0-1.6-0.5-1.9-1.2
		c-0.5-0.9-0.2-1.9,0.5-2.6C34.5,16.2,34.7,16,35,15.8z"/>
	<path class="st1" d="M6.5,50.5c0,0.2,0,0.5,0,0.7c0,0.7-0.7,1.4-1.4,1.6c-0.9,0.2-1.9,0-2.3-0.7c0.5,0.2,0.9,0,1.6,0
		c0.2,0,0.2-0.2,0.5-0.2C5.1,51.2,5.6,50.7,6.5,50.5z"/>
	<path class="st1" d="M37.8,17.8c-0.5,0-0.7,0.2-0.5,0.5c0,0.2,0.2,0.5-0.2,0.5c-0.2,0-0.5,0-0.7-0.2c-0.5-0.5-0.5-1.4,0.2-1.9
		c0.2,0,0.5-0.2,0.7-0.2C37.8,16.9,37.8,17.4,37.8,17.8z"/>
	<path class="st1" d="M36.8,15.1c1.4-0.2,2.8,0.5,3.5,1.6c0,0.2,0.2,0.2,0,0.5C39.2,16.5,38,15.8,36.8,15.1z"/>
	<path class="st1" d="M2.1,20.2c-0.2-0.7-0.2-0.9,0.5-0.9C2.6,19.7,2.6,19.9,2.1,20.2z"/>
	<path class="st1" d="M3.7-13.9C3.5-14.3,3.5-15,4-15.5c0.5-0.2,0.9-0.2,1.6,0c0.5,0.2,0.7,0.7,0.9,0.9c-0.2,0.2-0.5,0.2-0.7,0.2
		l0,0H5.6c0-0.2-0.2-0.2-0.5-0.2c-0.2,0-0.2,0.2-0.2,0.5C4.4-14.1,4.2-13.9,3.7-13.9z"/>
	<path class="st1" d="M4.9-14.1c0-0.2,0-0.5,0.2-0.5c0.2,0,0.5,0,0.5,0.2C5.4-14.1,5.1-14.1,4.9-14.1z"/>
	<path class="st1" d="M5.8-14.3L5.8-14.3L5.8-14.3z"/>
	<path class="st4" d="M40.6,42.8c-0.2-0.2-0.2-0.5-0.5-0.7c-0.5-0.7-0.7-1.6-1.2-2.6c1.2,0.5,2.1,1.2,3,1.6c0.2,0,0.2,0.2,0,0.2
		C41.5,41.9,41,42.3,40.6,42.8z"/>
</g>
<g id="Calque_2_1_" class="st0">
	<g class="st5">
		<path class="st6" d="M64.4-1c0-0.2,0-0.5,0-0.7V-2h-0.2h0.2c0-0.7,0-1.2,0-1.9s0-1.2,0-1.9c-0.7-3-2.8-4.7-6.1-4.7
			c-12.8,0-25.6,0-38.5,0c-0.2,0-0.2,0-0.5,0c-0.2,0-0.2,0-0.2-0.2c0-0.7,0-1.2,0-1.9c0-3.5-2.8-6.5-6.5-6.5c-2.6,0-5.1,0-7.7,0
			c-3,0-5.8,2.3-6.3,5.4c-0.2,0.9,0,1.9,0,2.8c0,0.5,0,0.5-0.5,0.5C-3.7-10.1-5.1-9.2-6-7.6c0,0,0,0,0,0.2C-6.7-6.2-6.7-5-6.7-3.8
			c0,0.2,0,0.5,0,0.7c0,0.5,0,0.9,0,1.4c0,0.2,0,0.2,0,0.5c0,0.2,0,0.2,0,0.5c-0.2,0.2,0,0.5,0,0.7s0,0.5,0,0.5c0,4.4,0,8.9,0,13.3
			c0,0.5,0,0.7-0.5,0.7s-0.7,0.2-1.2,0.2c-2.8,1.2-4.7,4-4.7,7c0,6.1,0,12.4,0,18.4c0,0.9,0,1.6,0,2.6c0,1.2,0,2.1,0.2,3.3
			c1.2,4.9,5.4,8.6,10.5,9.1c4.7,0.5,9.6-2.3,11.4-7c0.2-0.5,0.5-0.5,0.9-0.5c16.1,0,32.2,0,48.3,0c0.7,0,1.4,0,2.1-0.2
			c1.9-0.7,3.3-1.9,3.7-3.7l0.2-0.2c0-0.2,0.2-0.5,0-0.7l0,0c0.2-0.7,0-1.4,0.2-2.1c0-0.5,0-1.2,0-1.6c0-13.1,0-26.3,0-39.4
			C64.4-0.8,64.4-0.8,64.4-1z M18.4-0.8c0,0.2-0.2,0.2-0.5,0.2C18-0.6,18.2-0.8,18.4-0.8z M18-1.7c0.2,0,0.5,0,0.5,0.2l0,0l0,0
			c0,0.2,0,0.5,0,0.5c0-0.2,0-0.2,0-0.5C18.4-1.7,18.2-1.7,18-1.7z M18.4-1.7L18.4-1.7L18.4-1.7L18.4-1.7z M0.9,14.1
			c0-8.9,0-17.7,0-26.6c0-2.3,1.4-4.2,3.7-4.4c3-0.2,5.8-0.2,8.9,0c2.1,0.2,3.5,2.1,3.5,4.2c0,14.5,0,29.1,0,43.6
			c0,2.3-1.9,4.2-4.2,4.2c-2.6,0-5.1,0-7.7,0c-2.3,0-4.2-1.9-4.2-4.4c0-3.3,0-6.5,0-9.8c0-0.2,0-0.5,0-0.7c0-0.5,0-0.7,0-1.2
			c0.2-0.2,0-0.5,0-0.7c0-0.5,0-0.9,0-1.2c0.2-0.7,0.2-1.6,0-2.3C0.9,14.6,0.9,14.4,0.9,14.1z M-0.2,21.3h-0.2
			C-0.2,21.3-0.2,21.3-0.2,21.3s0.2-0.2,0-0.7c-0.2,0-0.5-0.2-0.7-0.2c0.2,0,0.5,0.2,0.7,0.2l0,0l0,0C0,20.9,0,21.1-0.2,21.3z
			 M0,20.4L0,20.4L0,20.4L0,20.4z M6.5,47.9c-1.9,3.3-5.8,5.1-9.3,4.7c-4-0.7-7.2-3.5-7.9-7.5c-0.2-1.2-0.2-2.1-0.2-3.3
			c0-0.2,0-0.5,0-0.7c0.2-0.2,0-0.5,0-0.7c0-0.5,0-1.2,0-1.6c0-0.2,0-0.5,0-0.9c0-5.4,0-10.7,0-16.1c0-2.6,1.4-4.4,3.7-5.1
			c0.5-0.2,0.5,0,0.5,0.5c0,6.8,0,13.8,0,20.5c0,0.2,0,0.5,0,0.7c0.2,0,0.2,0,0.2,0.2c0,0-0.2,0-0.2-0.2c0,0.2,0,0.5,0,0.7
			c0,0.5,0,0.9,0,1.2c0,0,0.2,0,0.2,0.2c0,0-0.2,0-0.2-0.2c0,0.2,0,0.5,0,0.7c-0.2,0.5,0,0.9,0,1.4c0,0.2,0,0.2,0,0.2
			c0,0.2,0,0.5,0.2,0.7c0,0.2,0,0.5,0.2,0.5c0.7,2.1,2.8,3.5,5.1,3.5c2.6,0,4.9,0,7.5,0C6.8,47.2,6.8,47.5,6.5,47.9z M7.7,44.7
			c0,0.2-0.2,0.5-0.5,0.5c-2.8,0-5.6,0-8.4,0c-1.4,0-2.3-0.9-3-1.9V43c0-0.2,0-0.2-0.2-0.5c-0.2-0.7,0-1.4-0.2-2.3
			c0,0-0.2,0-0.2-0.2c0,0,0.2,0,0.2,0.2c0-0.7,0-1.2,0-1.9c0-0.2,0-0.5,0-0.7c0-12.8,0-25.6,0-38.5c0-0.2,0-0.7,0-0.9
			c0-0.7,0-1.4,0-2.1s0-1.2,0.2-1.9C-3.9-6.9-3.2-7.6-1.8-8c0.5-0.2,0.5,0,0.5,0.5c0,7.2,0,14.7,0,21.9v0.2c0,0.5,0,0.7,0,1.2V16
			c0,0.9,0,2.1,0,3l0,0c0,0.2,0,0.5,0,0.9l0,0c0,0.5-0.2,0.9,0,1.6c0,3.3,0,6.5,0,9.6c0,2.8,1.9,5.1,4.7,6.1C3.7,37.4,4,37.4,4,38.1
			c0,1.2,0.2,2.3,1.4,3c0.7,0.5,1.4,0.5,2.1,0.5c0.5,0,0.7,0,0.5,0.5C7.7,42.8,7.9,43.7,7.7,44.7z M62,42.8c-0.5,1.4-1.6,2.1-3,2.3
			c-0.2,0-0.5,0-0.7,0c-15.9,0-31.7,0-47.8,0c-0.7,0-0.7,0-0.7-0.7c0-0.9,0-1.6,0-2.6c0-0.2,0-0.5,0.5-0.5c2.8,0,3.5-0.9,3.5-3.5
			c0-0.5,0-0.5,0.5-0.7c2.8-0.9,4.7-3.3,4.7-6.3c0-10.5,0-20.7,0-31.2c0-0.2,0.2-0.5,0-0.7c0.2-0.7,0-1.4,0-2.1c0-0.2,0-0.7,0-0.9
			c0-0.5,0-0.7,0-1.2c0-0.7,0-1.4,0-2.1s0-0.7,0.9-0.7c12.8,0,25.4,0,38.2,0c1.6,0,2.8,0.7,3.5,2.1c0,0.2,0.2,0.7,0.2,0.9
			c0-0.2,0.2-0.2,0.5-0.2C62-5.2,62-5,61.8-5c0,0.5,0,0.7,0,1.2H62h-0.2c0,0.2,0,0.7,0,0.9c0,0.5-0.2,0.9,0.2,1.4l0,0
			c-0.2,0.5-0.2,0.9-0.2,1.4c0,12.6,0,24.9,0,37.5c0,0.2,0,0.5,0,0.7c0,0.2,0,0.7,0,0.9l0,0c-0.2,0.5,0,0.9,0,1.2s0,0.7,0,0.9
			C62,41.6,62.3,42.3,62,42.8z"/>
		<path class="st6" d="M32,6.2c7,0,14,0,21,0c1.4,0,2.8,0,4.4,0c1.4,0,2.6-1.2,2.6-2.6c0-1.6,0-3,0-4.7c0-0.5,0-0.7,0-1.2
			c0-1.2-0.5-1.9-1.4-2.3c-0.2-0.2-0.5-0.2-0.9-0.2c-0.9,0-1.6,0-2.6,0c-0.2,0-0.7,0-0.9,0c-0.7,0-1.6,0-2.3,0c-6.3,0-12.4,0-18.6,0
			c-0.7,0-1.4-0.2-1.9,0c-0.2,0-0.5,0-0.7,0.2c-0.5,0.2-0.9,0.5-0.9,1.2c-0.2,0.2-0.2,0.7-0.2,0.9c0,1.9,0,3.7,0,5.6
			C29.2,5.3,30.3,6.2,32,6.2z M57.4-2.2c0.2,0,0.2,0,0.5,0C57.6-2.2,57.6-2.2,57.4-2.2s-0.5,0-0.5,0C57.1-2.2,57.1-2.2,57.4-2.2z"/>
		<path class="st6" d="M58.8,10.4c0.7,0,1.2-0.7,0.9-1.4c-0.2-0.5-0.7-0.9-1.4-0.9c-6.8,0-13.8,0-20.5,0c-2.1,0-4.4,0-6.5,0
			c-0.2,0-0.7,0-0.9,0.2c-0.5,0.2-0.5,0.7-0.5,1.2c0.2,0.5,0.7,0.7,1.2,0.7c4.4,0,9.1,0,13.5,0c4.2,0,8.6,0,12.8,0
			C58.1,10.4,58.3,10.4,58.8,10.4z"/>
		<path class="st6" d="M46.4,35.3c-1.4,0-2.6,0-4,0c-1.6,0-2.8,1.4-2.8,3.3c0,1.6,1.2,2.8,2.8,3c0.7,0,1.2,0,1.9,0s1.2,0,1.9,0
			c1.6,0,2.8-1.2,2.8-2.8C49.2,36.7,48.3,35.3,46.4,35.3z"/>
		<path class="st6" d="M53.4,33.7c0.7,0,1.2,0,1.9,0s1.2,0,1.9,0c1.6,0,2.8-1.2,2.8-2.8c0-1.9-0.9-3.3-2.6-3.5c-1.4,0-2.8,0-4.2,0
			c-1.6,0-2.6,1.4-2.6,3.3C50.6,32.5,51.8,33.7,53.4,33.7z M55,29.7c0.2,0,0.5,0,0.9,0C55.7,29.7,55.3,29.7,55,29.7
			c-0.5,0-1.2,0-1.6,0C54.1,29.7,54.6,29.7,55,29.7z"/>
		<path class="st6" d="M42.7,33.7c0.5,0,1.2,0,1.6,0s1.2,0,1.6,0c1.6,0,2.8-1.2,3-2.8c0-1.9-0.9-3.3-2.8-3.3c-1.2,0-2.6,0-3.7,0
			c-1.6,0-2.8,1.4-2.8,3.3C39.9,32.5,41,33.7,42.7,33.7z M44.5,29.7c0.5,0,1.2,0,1.6,0C45.7,29.7,45,29.7,44.5,29.7
			c-0.5,0-1.2,0-1.6,0C43.4,29.7,43.8,29.7,44.5,29.7z"/>
		<path class="st6" d="M32,33.7c0.7,0,1.2,0,1.9,0c0.5,0,1.2,0,1.6,0c1.9,0,3-1.2,3-3s-1.2-3-3-3c-0.9,0-2.1,0-3,0
			c-2.1,0-3.5,1.4-3.3,3.5C29.4,32.5,30.6,33.7,32,33.7z M34.1,29.7c0.5,0,1.2,0,1.6,0C35,29.7,34.5,29.7,34.1,29.7
			c-0.5,0-1.2,0-1.6,0C32.9,29.7,33.4,29.7,34.1,29.7z"/>
		<path class="st6" d="M52.7,26c0.5,0,0.9,0,1.4,0c0.9,0,2.1,0,3,0c1.6-0.2,2.6-1.4,2.3-3.3c0-1.4-1.2-2.8-2.6-2.8
			c-1.2,0-2.1,0-3.3,0c-0.9,0-1.9,0.2-2.6,0.7c0,0-0.2,0-0.2,0.2c0,0-0.2,0,0,0.2l0,0c-0.2,0-0.2,0.2-0.2,0.5
			C50.1,23,50.6,25.5,52.7,26z M55,22c0.5,0,1.2,0,1.6,0C56.2,22,55.7,22,55,22c-0.5,0-1.2,0-1.6,0C54.1,22,54.6,22,55,22z"/>
		<path class="st6" d="M32,18.3c1.2,0,2.3,0,3.7,0c0.2,0,0.7,0,0.9,0c0.7-0.2,1.2-0.5,1.4-0.9c0.2-0.2,0.5-0.5,0.5-0.7
			c0.2-0.2,0.2-0.7,0.2-0.9c0-0.2,0-0.5,0-0.7c-0.2-1.4-1.2-2.6-2.8-2.6c-1.2,0-2.6,0-3.7,0c-0.2,0-0.5,0-0.7,0
			c-1.4,0.5-2.3,1.6-2.1,3.5C29.4,17.1,30.6,18.3,32,18.3z"/>
		<path class="st6" d="M35.9,35.3c-1.2,0-2.6,0-3.7,0c-1.4,0-2.6,1.2-2.8,2.6c0,0.2,0,0.5,0,0.9c0,0.5,0.2,0.9,0.5,1.4
			c0.2,0.2,0.5,0.7,0.7,0.7c0.5,0.2,0.9,0.5,1.6,0.5c1.2,0,2.3,0,3.7,0c1.6,0,2.8-1.2,2.8-2.8C38.5,36.5,37.5,35.3,35.9,35.3z"/>
		<path class="st6" d="M57.1,35.3c-1.2,0-2.6,0-3.7,0c-1.6,0-2.8,1.4-2.8,3.3c0,1.6,1.2,2.8,2.8,2.8c1.2,0,2.3,0,3.7,0
			c0.9,0,1.9-0.5,2.3-1.2c0.7-0.9,0.7-2.1,0.2-3C59,35.8,58.3,35.3,57.1,35.3z M54.1,37.4L54.1,37.4c-0.2,0-0.5,0-0.7,0
			C53.6,37.4,53.9,37.4,54.1,37.4z"/>
		<path class="st6" d="M42.7,12c-0.5,0-0.9,0.2-1.4,0.5c-1.2,0.7-1.6,1.9-1.4,3.5c0.2,0.9,0.7,1.4,1.4,1.9c0.5,0.2,0.7,0.2,1.2,0.2
			c0.2,0,0.7,0,0.9,0c0.5,0,0.9,0,1.4,0c0.2,0.2,0.7,0,0.9,0h0.2c0.2,0,0.7,0,0.9-0.2c0.7,0,1.2-0.5,1.4-0.9
			c0.2-0.2,0.5-0.5,0.5-0.9c0-0.2,0-0.2,0-0.5c0.5-1.9-0.9-3.7-2.8-3.7C45,12,43.8,12,42.7,12z M42.4,16c-0.2,0-0.2,0-0.5,0
			C42.2,16,42.2,16,42.4,16L42.4,16z M42,16h-0.2C42,16,42,16,42,16z M41.5,16L41.5,16L41.5,16z"/>
		<path class="st6" d="M51.3,17.4c0.5,0.7,1.2,0.9,2.1,0.9c1.2,0,2.3,0,3.5,0c1.6,0,3-1.2,3-3s-1.2-3-2.8-3c-1.2,0-2.3,0-3.5,0
			c-0.5,0-0.9,0-1.4,0.2c-1.4,0.7-2.1,2.6-1.4,4.2C50.8,16.9,50.8,17.1,51.3,17.4z"/>
		<path class="st6" d="M37.1,20.2c-0.5-0.2-0.9-0.5-1.6-0.5c-0.9,0-2.1,0-3,0c-2.1,0-3.3,1.4-3,3.5c0.2,1.6,1.4,2.6,2.8,2.6
			c1.2,0,2.3,0,3.7,0c0.2,0,0.5,0,0.5,0c2.6-0.5,2.8-3.5,1.6-4.9C37.8,20.6,37.5,20.4,37.1,20.2z M37.1,20.4
			C36.8,20.4,36.8,20.4,37.1,20.4C36.8,20.6,36.8,20.6,37.1,20.4C36.8,20.4,36.8,20.4,37.1,20.4z"/>
		<path class="st6" d="M47.8,20.2c-0.5-0.2-0.9-0.5-1.6-0.5c-1.2,0-2.1,0-3.3,0c-0.5,0-0.7,0-1.2,0.2c-0.2,0-0.2,0-0.2,0
			c-0.5,0.2-0.9,0.5-1.2,0.9l0,0c-0.7,0.9-0.7,2.1-0.2,3c0.5,1.2,1.2,1.6,2.3,1.6c0.5,0,0.9,0,1.2,0c0.7,0,1.6,0,2.3,0
			c1.4,0,2.3-0.5,2.8-1.6s0.5-2.6-0.5-3.5C48.3,20.4,48,20.4,47.8,20.2z"/>
		<path class="st6" d="M4,26c3.3,0,6.8,0,10,0c0.5,0,0.7-0.2,0.9-0.5c0.5-0.7,0-1.6-0.9-1.6c-1.6,0-3.3,0-4.9,0l0,0
			c-1.6,0-3.3,0-4.9,0c-0.7,0-1.2,0.5-1.2,1.2C2.8,25.5,3.3,26,4,26z"/>
		<path class="st6" d="M4,31.1c3.3,0,6.5,0,9.8,0c0.2,0,0.5,0,0.5,0c0.5-0.2,0.7-0.7,0.7-1.2c0-0.7-0.5-1.2-0.9-1.2
			c-1.6,0-3.3,0-4.9,0c-1.6,0-3.3,0-4.9,0C3.5,28.8,3,29.3,3,30C2.8,30.7,3.3,31.1,4,31.1z"/>
	</g>
</g>
<g id="Calque_3" class="st0">
	<path class="st1" d="M6.3,6c0-0.2,0-0.5-0.2-0.9c0,0,0,0,0-0.2c-0.2-0.2,0-0.7,0-0.9c0-0.7-0.2-1.2-0.2-1.9l0,0c0,0,0,0,0-0.2
		c0,0,0,0,0-0.2s0-0.2,0-0.5c0,0,0,0,0-0.2c0-2.1,0.2-4.2,0.9-6.1c1.4-5.4,4.2-9.3,9.1-12.1c2.8-1.6,6.1-2.6,9.3-2.8
		c0.7,0,1.4,0,1.9,0l0,0c0.2,0,0.2,0,0.5,0c0,0,0,0,0.2,0c0.9,0,1.9,0.2,2.8,0.2c0.2,0,0.5,0,0.5,0c0.2,0,0.7,0.2,0.9,0.2h0.2l0,0
		c0,0,0,0,0.2,0c2.8,0.7,5.4,1.9,7.7,3.7c1.9,1.4,3.5,3.3,4.7,5.4c1.4,2.6,2.3,5.4,2.8,8.4c0.2,1.4,0.2,3,0.2,4.4
		c0,1.6-0.5,3.3-0.9,4.9c-1.2,3.5-2.8,6.5-4.9,9.3c-1.9,2.6-3.7,5.6-4.7,8.6c-0.7,1.9-1.2,3.5-0.9,5.6c0,0.2,0,0.5-0.5,0.5
		c-1.9,0-3.5,0-5.4,0c-4.2,0-8.4,0-12.6,0c-0.2,0-0.5,0-0.2-0.2c0-2.8-0.7-5.4-1.9-7.7c-1.2-2.6-2.8-4.9-4.4-7.2
		C9.6,13.2,7.9,10.4,7,7.1c0,0,0,0,0-0.2C6.5,6.9,6.5,6.4,6.3,6z M31.5,30.2c0.7,0,1.6,0,2.3,0h0.2c0.2,0,0.5,0.2,0.5-0.2
		c0-1.6,0.5-3.5,1.2-5.1c1.2-3,2.8-5.8,4.7-8.4c2.1-2.8,3.7-5.8,4.9-9.1c0.7-1.9,0.9-3.7,0.9-5.8c0-1.4-0.2-2.8-0.5-4.2
		c-0.5-2.3-1.2-4.7-2.3-6.8c-1.6-2.8-3.7-4.9-6.5-6.3c-1.4-0.7-2.8-1.4-4.4-1.9c-0.5,0-0.9-0.2-1.4-0.2C30.3-18,29.4-18,28.7-18
		c-0.5,0-0.9,0-1.2,0c-2.6,0-5.1,0.5-7.5,1.2c-2.8,0.9-5.4,2.3-7.2,4.4c-2.1,1.6-3.3,3.7-4.2,6.3C7.9-4.1,7.5-2,7.5,0.1
		c0,1.2-0.2,2.1,0,3.3c0.2,2.3,0.9,4.4,1.9,6.8c0.9,2.1,1.9,4,3.3,5.6c1.6,2.3,3.3,4.7,4.4,7c1.2,2.3,1.9,4.7,2.1,7
		c0,0.2,0,0.2,0.2,0.2c2.6,0,4.9,0,7.5,0C28.2,30.2,29.9,30.2,31.5,30.2L31.5,30.2z"/>
	<path class="st1" d="M26.8,49.1c-2.3,0-4.9,0-7.2,0c-1.2,0-2.1-0.5-2.6-1.6c-0.5-0.9-0.5-1.9,0.2-2.8c0.5-0.7,1.4-0.9,2.1-0.9
		c1.6,0,3.3,0,5.1,0c3.3,0,6.3,0,9.6,0c1.4,0,2.6,0.9,2.8,2.3c0.2,1.4-0.9,2.8-2.6,2.8C31.7,49.1,29.4,49.1,26.8,49.1L26.8,49.1z
		 M26.8,47.7c2.3,0,4.7,0,7.2,0c0.2,0,0.5,0,0.7,0c0.5-0.2,0.9-0.7,0.7-1.4c0-0.7-0.7-1.2-1.2-1.2c-2.3,0-4.7,0-6.8,0
		c-2.6,0-5.1,0-7.7,0c-0.5,0-0.7,0-0.9,0.5c-0.2,0.5-0.5,0.9-0.2,1.4c0.2,0.5,0.7,0.7,1.2,0.7C21.9,47.5,24.3,47.7,26.8,47.7z"/>
	<path class="st1" d="M26.8,37.4c-2.6,0-5.1,0-7.7,0c-0.7,0-1.2-0.5-1.6-0.9c-0.7-0.7-0.9-1.9-0.5-2.8c0.5-1.2,1.4-1.6,2.6-1.6
		c2.6,0,5.1,0,7.7,0c2.3,0,4.7,0,6.8,0c1.4,0,2.6,0.9,2.8,2.3c0.2,1.2-0.5,2.3-1.6,2.8c-0.2,0.2-0.7,0.2-0.9,0.2
		C31.7,37.4,29.2,37.4,26.8,37.4L26.8,37.4z M35,33.9c-0.2-0.5-0.7-0.5-0.9-0.5c-2.1,0-4.2,0-6.3,0c-2.8,0-5.4,0-8.2,0
		c-0.5,0-0.7,0-0.9,0.5c-0.5,0.5-0.5,1.2,0,1.6c0.2,0.2,0.7,0.5,1.2,0.5c4.4,0,9.1,0,13.5,0c0.5,0,0.7,0,1.2,0s0.9-0.2,0.9-0.7
		C35.4,34.6,35.4,34.4,35,33.9L35,33.9z"/>
	<path class="st1" d="M35.4,38.1c0.7,0.5,1.2,1.2,1.4,2.1c0.2,1.6-0.9,3-2.6,3c-2.3,0-4.9,0-7.2,0c-2.6,0-4.9,0-7.5,0
		c-1.9,0-3-1.6-2.6-3.5c0.2-0.9,1.2-1.6,2.1-1.9c0.2,0,0.5,0,0.7,0c4.7,0,9.3,0,14.2,0C34.3,37.9,35,37.9,35.4,38.1z M26.8,39.3
		c-2.3,0-4.9,0-7.2,0c-0.7,0-1.4,0.5-1.4,1.2s0.7,1.4,1.4,1.4c4.9,0,9.6,0,14.5,0c0.2,0,0.2,0,0.5,0c0.7-0.2,1.2-0.7,0.9-1.4
		c0-0.7-0.5-1.2-1.2-1.2C31.7,39.3,29.2,39.3,26.8,39.3z"/>
	<path class="st1" d="M31,54.7L31,54.7c-0.2,0-0.5,0-0.7,0.2c-2.3,0-4.7,0-7,0c-1.2,0-2.3-0.9-2.6-2.1c-0.2-1.2,0.2-2.3,1.4-3
		c0.5-0.2,0.7-0.2,1.2-0.2c2.1,0,4.4,0,6.5,0c1.6,0,2.8,1.2,2.8,2.8v0.2c0,0.2,0,0.2-0.2,0.5c0,0,0,0.2-0.2,0.2
		c0,0.2-0.2,0.2-0.2,0.5l0,0c0,0,0,0-0.2,0.2c0,0.2-0.2,0.5-0.5,0.5C31.3,54.4,31.3,54.7,31,54.7z M26.8,53.3L26.8,53.3
		c1.2,0,2.1,0,3.3,0c0.7,0,1.4-0.5,1.4-1.2s-0.5-1.4-1.4-1.4c-2.1,0-4.2,0-6.5,0c-0.7,0-1.4,0.5-1.4,1.2s0.5,1.2,1.4,1.2
		C24.7,53.3,25.7,53.3,26.8,53.3z"/>
	<path class="st1" d="M18.7,3.2c0-0.5,0.2-0.7,0.7-0.7s0.7,0.2,0.7,0.7c0.2,1.6,0.7,3,0.9,4.7c0.5,2.3,0.9,4.4,1.4,6.8
		C23.3,19,24,23.4,25,27.6c0,0.2,0,0.5,0.2,0.7c0,0.5-0.2,0.7-0.5,0.9c-0.5,0-0.7-0.2-0.9-0.7c-0.5-2.3-0.9-4.4-1.4-6.8
		c-0.7-3.3-1.2-6.3-1.9-9.6C19.8,9.2,19.4,6.4,18.7,3.2C18.7,3.4,18.7,3.4,18.7,3.2z"/>
	<path class="st1" d="M30.1,27.9c0,0.5-0.2,0.7-0.2,1.2c0,0-0.2,0-0.2,0.2c-0.7,0.2-1.2-0.2-0.9-0.9c0.7-3,1.2-6.3,1.9-9.3
		c0.7-3.7,1.4-7.5,2.1-11c0.2-1.4,0.5-2.6,0.7-4c0.2-0.2,0-0.7,0.2-0.9c0,0,0.2,0,0.2-0.2c0.2-0.2,0.5-0.2,0.7,0s0.5,0.5,0.2,0.9
		c-0.7,3.7-1.4,7.5-2.3,11.2c-0.7,4-1.6,7.9-2.3,11.9v0.2l0,0c0,0,0,0,0,0.2v0.2C30.1,27.6,30.1,27.6,30.1,27.9L30.1,27.9z"/>
	<path class="st1" d="M19.6,33.7C19.6,33.9,19.6,33.9,19.6,33.7C19.6,33.9,19.6,33.9,19.6,33.7L19.6,33.7L19.6,33.7z"/>
	<path class="st1" d="M-0.7,9.2h-23.1c-0.7,0-1.4-0.7-1.4-1.4l0,0c0-0.7,0.7-1.4,1.4-1.4h23.1c0.7,0,1.4,0.7,1.4,1.4l0,0
		C0.7,8.8,0,9.2-0.7,9.2z"/>
	<path class="st1" d="M77.2,9.2H54.1c-0.7,0-1.4-0.7-1.4-1.4l0,0c0-0.7,0.7-1.4,1.4-1.4h23.1c0.7,0,1.4,0.7,1.4,1.4l0,0
		C78.6,8.8,77.9,9.2,77.2,9.2z"/>
	<path class="st1" d="M0.3-0.1l-16.3-16.3c-0.5-0.5-0.5-1.4,0-1.9l0,0c0.5-0.5,1.4-0.5,1.9,0L2.1-2c0.5,0.5,0.5,1.4,0,1.9l0,0
		C1.6,0.4,0.7,0.4,0.3-0.1z"/>
	<path class="st1" d="M53.2-0.1l16.3-16.3c0.5-0.5,0.5-1.4,0-1.9l0,0c-0.5-0.5-1.4-0.5-1.9,0L51.3-2c-0.5,0.5-0.5,1.4,0,1.9l0,0
		C51.8,0.4,52.7,0.4,53.2-0.1z"/>
	<path class="st1" d="M2.6,14.4l-16.3,16.3c-0.5,0.5-0.5,1.4,0,1.9l0,0c0.5,0.5,1.4,0.5,1.9,0L4.4,16.2c0.5-0.5,0.5-1.4,0-1.9l0,0
		C4,13.9,3,13.9,2.6,14.4z"/>
	<path class="st1" d="M50.8,14.4l16.3,16.3c0.5,0.5,0.5,1.4,0,1.9l0,0c-0.5,0.5-1.4,0.5-1.9,0L49,16.2c-0.5-0.5-0.5-1.4,0-1.9l0,0
		C49.4,13.9,50.4,13.9,50.8,14.4z"/>
</g>
<g id="Calque_4" class="st0">
	<path class="st1" d="M-15.4,9.5c1.6,0,3.5,0,5.1,0c0.5,0,0.7,0,0.7-0.5c0.2-0.7,0.7-1.6,1.2-2.3c0.9-2.1,2.3-3.7,4-5.4
		C0.3-2.9,5.6-5,11.7-4.5c5.4,0.2,10,2.1,14,5.8c0.2,0.2,0.5,0.2,0.7,0c3-2.8,6.3-4.7,10.3-5.4c7-1.4,13.5,0,19.1,4.7
		c2.6,2.1,4.7,4.9,5.8,8.2c0.2,0.5,0.5,0.7,0.9,0.7c2.1,0,4.2,0,6.3,0c1.2,0,1.4,0.5,1.4,1.4c0,3,0,5.8,0,8.9c0,0.7-0.5,1.2-1.2,1.2
		c-2.3,0-4.7,0-7,0c-0.2,0-0.5,0-0.7,0.5c-2.1,5.8-6.1,9.6-11.7,11.9c-3,1.4-6.3,1.9-9.8,1.6c-5.4-0.5-10-2.1-13.8-5.8
		c-0.2-0.2-0.2-0.2-0.5,0c-4.9,4.4-10.7,6.3-17.2,5.8c-2.3-0.2-4.4-0.7-6.5-1.6c-5.1-2.3-9.1-6.1-11.2-11.4
		c-0.5-0.9-0.2-0.9-1.4-0.9c-3,0-5.8,0-8.9,0c-0.5,0-0.7,0-1.2,0c-0.7,0-1.2-0.5-1.2-1.2s0-1.2,0-1.9c0-2.3,0-4.4,0-6.8v-0.2
		c0-1.2,0.5-1.6,1.6-1.6C-18.6,9.5-17,9.5-15.4,9.5z M11.4-2.4c-2.3,0-4.2,0.2-5.8,0.7C-0.2-0.1-4.6,3.4-7.2,9.2
		c-2.6,6.3-0.9,13.3,4,18.4c3.5,3.3,7.5,5.1,12.1,5.6c5.8,0.5,11-1.4,15.2-5.4c0.2-0.2,0.2-0.5,0-0.7c-1.4-1.6-2.3-3.5-3-5.4
		c0-0.2,0-0.5-0.2-0.5c-0.2,0-0.5,0.2-0.7,0.5c-1.6,1.9-3.5,3.3-6.1,4c-4.9,1.4-9.3,0.5-12.8-3.3c-2.8-3-3.5-7.5-1.6-11
		C1.6,7.8,4.9,6,9.1,5.5c4.2-0.5,7.7,0.9,10.7,4c0.2,0.2,0.5,0.2,0.5,0C21,9,21.5,8.5,21.7,7.8c0.7-1.4,1.4-2.6,2.3-3.7
		c0.2-0.2,0.2-0.5,0-0.7C20.5-0.6,15.9-2.4,11.4-2.4z M55.3,9.5L55.3,9.5c1.2,0,2.3,0,3.5,0c0.5,0,0.5-0.2,0.2-0.5
		c-0.7-1.6-1.6-3.3-2.8-4.7c-3.5-4-7.9-6.3-13.3-6.8C38.7-2.9,34.7-2,31,0.1c-3.3,1.9-5.6,4.4-7.2,7.9c-0.2,0.7-0.7,1.4-1.2,1.9
		c-0.2,0.2-0.2,0.5-0.2,0.7c0.2,0.7,0.5,1.6,0.7,2.6c0.2,0.7-0.2,1.2-0.7,1.4c-0.7,0.2-1.2-0.2-1.4-0.7c-0.2-0.5-0.2-1.2-0.5-1.6
		c0-0.5-0.2-0.7-0.7-0.5c-0.2,0-0.7,0-0.9,0c-1.2,0-2.3,0-3.7,0c-0.5,0-0.5,0-0.5,0.5c0.7,2.1,1.2,4.2,1.6,6.3
		c0,0.2,0.2,0.5,0.5,0.2c1.2,0,2.3,0,3.3,0c4-0.5,6.8-2.3,9.1-5.6c0.7-0.9,1.2-2.1,1.9-3c0.9-1.4,2.1-2.6,3.3-3.5
		c2.6-1.6,5.4-2.1,8.4-1.9c3.3,0.5,6.1,1.6,8.2,4.2c0.2,0.2,0.5,0.2,0.7,0.2C52.9,9.5,54.1,9.5,55.3,9.5z M29.9,16.2
		c-0.2,0-0.2,0.2-0.2,0.2c-1.6,1.9-3.5,3-5.8,3.7c-0.5,0.2-0.2,0.2-0.2,0.7c1.2,3.5,3.3,6.3,6.3,8.4c6.8,4.9,15.6,5.1,22.6,0.5
		c3-2.1,5.4-4.7,6.8-8.2c0-0.2,0.2-0.5-0.2-0.5c-2.6,0-4.9,0-7.5,0c-0.2,0-0.5,0-0.5,0.2c-2.1,2.6-4.7,4-7.9,4.4
		c-4.2,0.5-7.9-0.7-11-3.7C30.8,20.4,30.1,18.5,29.9,16.2z M62.3,11.6L62.3,11.6c-1.9,0-3.7,0-5.6,0c-0.2,0-0.5,0-0.5,0.5
		c0.7,2.1,1.2,4.4,1.6,6.5c0,0.2,0.2,0.5,0.5,0.5c3,0,6.1,0,9.1,0c0.2,0,0.5,0,0.5-0.5c0-2.1,0-4.2,0-6.3c0-0.5,0-0.5-0.5-0.5
		C65.8,11.6,64.1,11.6,62.3,11.6z M36.4,18.8c0.9,0,2.1,0,3,0c0.2,0,0.5,0,0.5-0.5c-0.7-2.1-1.2-4.4-1.6-6.5c0-0.2-0.2-0.5-0.5-0.2
		c-1.4,0-2.8,0-4.2,0c-0.2,0-0.5,0-0.7,0.2c-0.5,0.7-0.7,1.4-1.2,1.9c-0.2,0.2-0.2,0.5,0,0.7c0.5,1.2,0.9,2.6,1.4,4
		c0,0.2,0.2,0.5,0.7,0.5S35.4,18.8,36.4,18.8z M14.5,18.8c-0.7-2.3-1.2-4.7-1.9-7c0-0.2-0.2-0.2-0.2-0.2c-1.9,0-3.7,0-5.6,0
		c0.7,2.3,1.2,4.7,1.9,7c0,0.2,0.2,0.2,0.2,0.2C10.7,18.8,12.6,18.8,14.5,18.8z M47.8,18.8c-0.7-2.3-1.2-4.7-1.9-7
		c0-0.2-0.2-0.2-0.5-0.2c-1.6,0-3.3,0-5.1,0c-0.5,0-0.5,0-0.2,0.5c0.5,1.6,0.9,3.5,1.4,5.1c0.2,0.5,0,1.2,0.5,1.4
		c0.5,0.2,1.2,0,1.6,0C45,18.8,46.4,18.8,47.8,18.8z M56,18.8c-0.7-2.3-1.2-4.7-1.9-7c0-0.2-0.2-0.2-0.5-0.2c-1.6,0-3.5,0-5.1,0
		c-0.2,0-0.5,0-0.2,0.5c0.7,2.1,1.2,4.4,1.6,6.5c0,0.2,0.2,0.2,0.5,0.2c1.4,0,3,0,4.4,0C55.3,18.8,55.5,18.8,56,18.8z M4.2,18.8
		c0.7,0,1.2,0,1.9,0c0.2,0,0.5,0,0.2-0.5c-0.7-2.1-1.2-4.4-1.6-6.5c0-0.2-0.2-0.2-0.5-0.2c-0.5,0-1.2,0-1.6,0S2.1,11.8,1.9,12
		c-0.9,2.1-0.9,4.4,0,6.5c0,0.2,0.2,0.2,0.5,0.2C3,18.8,3.5,18.8,4.2,18.8z M-19.6,15.3c0,0.9,0,2.1,0,3c0,0.2,0,0.5,0.5,0.5
		c1.2,0,2.6,0,3.7,0c0.2,0,0.5,0,0.2-0.5c-0.7-2.1-1.2-4.4-1.6-6.5c0-0.2-0.2-0.5-0.5-0.5c-0.7,0-1.2,0-1.9,0
		c-0.5,0-0.5,0.2-0.5,0.5C-19.6,13.2-19.6,14.1-19.6,15.3z M3.7,9.5c4.7,0,9.1,0,13.8,0C14.2,6.2,7.5,6,3.7,9.5z M-12.3,11.6
		c-0.7,0-1.2,0-1.9,0c-0.2,0-0.5,0-0.2,0.5c0.7,2.1,1.2,4.4,1.6,6.5c0,0.2,0.2,0.2,0.5,0.2c0.7,0,1.4,0,2.1,0c0.2,0,0.2,0,0.2-0.2
		c-0.5-2.1-0.5-4.4,0-6.5c0-0.2,0-0.2-0.2-0.2C-11.2,11.6-11.9,11.6-12.3,11.6z M34.7,9.5c4.4,0,9.1,0,13.5,0
		C44.3,5.7,37.5,6.4,34.7,9.5z M17.5,21.1c-0.7,0-13.3,0-13.5,0C7.7,24.4,14,24.1,17.5,21.1z M48.3,21.1c-4.7,0-9.1,0-13.5,0
		C38.5,24.4,44.8,24.4,48.3,21.1z"/>
</g>
<g id="Calque_5" class="st0">
	<path class="st1" d="M4.2-19.9c2.8,0.7,5.6,2.1,8.4,3c4,1.4,7.7,2.8,11.7,4.4c0.7,0.2,1.2,0.5,0.9,1.4c-0.2,0.7,0.2,0.9,0.9,0.9
		c0.7,0,1.2-0.2,1.2,0.7C27.3-9,27.8-9,28-9c5.8,0.5,9.3,4,11.4,9.1c1.2,2.8,1.4,5.6,1.6,8.4c0,0.7,0.2,1.2,0.9,1.6
		c1.2,0.7,1.9,2.1,2.3,3.3c1.4,3.5,1.9,7.2,2.3,11c0.5,4.4,0.7,9.1,0.7,13.5c0,1.9-0.7,2.6-2.3,2.8c-2.6,0.2-5.4,0.2-7.9,0
		c-1.9-0.2-2.6-0.9-2.6-3c0.2-6.3,0-12.6,0.9-18.9c0.2-1.9,0.7-4,1.2-5.8c0.2-0.9,0.7-1.9,1.4-2.3c0.9-0.7,1.2-1.6,0.9-2.6
		c-0.5-4.2-1.2-8.4-4.2-11.7c-1.6-1.9-3.7-2.8-6.3-3c-0.7,0-1.4,0-1.2,0.9c0.2,1.2-0.2,1.4-1.4,1.4c-0.5,0-0.9-0.2-0.9,0.5
		c0,0.5-0.2,1.2,0.7,1.4c5.4,2.1,7.7,5.8,7.7,11.7c0,13.1,0,25.9,0,38.9c0,0.7,0,1.6-0.2,2.3c-0.2,2.1-1.6,3.5-3.5,4
		c-0.7,0-1.6,0-2.6,0c-3.7,0.2-7.5,0.2-11.4,0c-4-0.2-5.6-2.1-5.6-6.1c0-13.5,0-26.8,0-40.3c0-5.1,2.6-8.6,7-10.5
		c0.9-0.5,1.2-0.7,1.2-1.6c0-2.8,0-2.8-2.8-2.8c-2.6,0-5.1,0-7.7,0C6.8-6.9,6.5-7.1,6.5-8c0-0.9,0.2-1.2,1.2-1.2c2.6,0,5.1,0,7.7,0
		c0.2-0.2,0-0.2-0.2-0.5c-3.5-1.4-6.8-3-10.3-4.4c-0.2,0-0.5,0-0.7,0C4.2-16,4.2-18,4.2-19.9z M12.6,27.9c0,3.5,0,7,0,10.5
		c0,0.9,0.2,1.2,1.2,1.2c5.4,0,11,0,16.3,0c0.9,0,1.2-0.2,1.2-1.2c0-7,0-13.8,0-20.7c0-0.9-0.2-1.2-1.2-1.2c-5.4,0-11,0-16.3,0
		c-0.9,0-1.2,0.2-1.2,1.2C12.6,20.9,12.6,24.4,12.6,27.9z M21.7,14.1c2.8,0,5.6,0,8.2,0c0.5,0,1.2,0.2,1.2-0.5
		c0-2.8,0.5-5.8-0.5-8.6c-1.2-3-3.3-4.7-6.3-5.6c-0.9-0.2-1.6-0.7-1.4-1.9c0.2-1.2,0-2.3,0-3.5c0-0.9-0.5-0.7-1.2-0.7
		c-0.5,0-1.2-0.2-1.2,0.7c0,1.2,0,2.3,0,3.5c0.2,1.2-0.5,1.6-1.6,1.9c-4,1.2-6.3,4.4-6.3,8.6c0,1.6,0,3.3,0,4.7
		c0,0.9,0.2,1.2,1.2,1.2C16.3,13.9,19.1,14.1,21.7,14.1z M21.9,52.3c2.1,0,4.2,0,6.3-0.2c2.3-0.2,3-1.2,3-3.3s0-4,0-6.1
		c0-0.7-0.2-0.9-0.9-0.9c-5.6,0-11.2,0-16.6,0c-0.7,0-0.9,0.2-0.9,0.9c0,2.1,0,4.2,0,6.3c0,2.1,0.7,3,3,3.3
		C17.7,52.3,19.8,52.3,21.9,52.3z M36.6,31.6c0,1.9,0,3.5,0,5.4c0,0.5,0,0.9,0.7,1.2c2.1,0.2,4.4,0.2,6.5,0c0.7,0,0.9-0.2,0.9-0.9
		c0-6.8-0.2-13.3-1.6-19.8c-0.2-1.4-0.7-3-1.4-4.2c-0.5-0.7-0.7-1.6-1.6-1.4c-0.9,0-0.9,0.9-1.4,1.6c-0.2,0.7-0.5,1.6-0.7,2.3
		C37.1,20.9,36.8,26.2,36.6,31.6z M22.9-9.9c0.2-0.7-0.2-0.7-0.7-0.9c-1.6-0.7-3-1.2-4.7-1.9c-3.3-1.2-6.8-2.6-10-3.7
		c-0.2,0-0.7-0.5-0.9,0c-0.2,0.5,0,0.7,0.5,0.7c0.2,0,0.2,0.2,0.5,0.2c4.4,1.9,9.1,4,13.5,5.8c0.2,0.2,0.7,0.2,0.9,0.2
		C22.6-9,23.1-9.2,22.9-9.9z"/>
</g>
<g id="Calque_6" class="st0">
	<path class="st1" d="M41-5L1.2,44.4c-4,4.9-11,6.3-15.2,2.8s-4.4-10.5-0.5-15.4l39.9-49.4l0,0l-1.2-0.9c-0.7,0.5-1.2,0.9-1.6,1.6
		l-41.7,51.5c-4.2,5.1-3.5,12.8,1.9,17.2C-12.1,56.1-4.4,55.4,0,50L41.5-1.5c0.5-0.7,0.9-1.2,1.4-1.9L41-5L41-5z"/>
	<circle class="st1" cx="29.6" cy="-9.2" r="2.1"/>
	<circle class="st1" cx="22.6" cy="-1.3" r="2.1"/>
	<circle class="st1" cx="33.1" cy="-15.7" r="2.1"/>
	<circle class="st1" cx="38.7" cy="-10.8" r="2.1"/>
	<circle class="st1" cx="40.6" cy="-17.8" r="2.1"/>
	<circle class="st1" cx="30.6" cy="-2.9" r="2.1"/>
	<circle class="st1" cx="36.1" cy="-5.9" r="2.1"/>
	<line class="st7" x1="4.4" y1="6.9" x2="33.1" y2="6.7"/>
</g>
<g id="Calque_7" class="st0">
	<path class="st1" d="M-23.5,17.4c0-20.5,16.8-37.3,37.3-37.3S51.1-3.1,50.8,17.4c0,20.5-16.8,37.3-37.3,37.3S-23.8,37.9-23.5,17.4z
		 M13.8-17.3c-9.6,0-17.9,3.5-24.7,10.3S-21,8.1-21,17.8c0,18.6,15.6,34.3,34.7,34.3s35-15.9,34.7-34.7C48.3,5,43.1-4.5,33.1-11.5
		C27.3-15.5,20.8-17.6,13.8-17.3z"/>
	<path class="st1" d="M-1.8,22.7c0-1.2,0-2.1,0-3.3c0-0.2,0.2-0.5,0.5-0.7c0.5-0.5,1.2-0.7,1.6-1.2c0.7-0.5,1.4-0.9,2.1-1.6
		c0.5-0.2,0.9-0.7,1.4-0.9c0.5-0.5,0.9-0.7,1.4-1.2c0.5-0.2,0.9-0.7,1.4-0.9C7,12.5,7.7,12,8.2,11.8c0.5-0.2,0.9-0.5,1.2-0.9
		c0.5-0.5,0.9-0.7,1.4-0.9c0.5-0.5,1.2-0.9,1.6-1.2c0.5-0.2,0.7-0.5,1.2-0.9c0.2,0,0.2,0,0.2,0c0.5,0.2,0.7,0.5,1.2,0.7
		c0.5,0.5,1.2,0.9,1.6,1.2c0.7,0.5,1.4,0.9,1.9,1.4c0.5,0.5,1.2,0.7,1.6,1.2c0.5,0.5,0.9,0.7,1.6,1.2s1.2,0.9,1.9,1.4
		c0.9,0.7,1.6,1.2,2.6,1.9c0.7,0.5,1.6,1.2,2.3,1.6c0.2,0.2,0.5,0.5,0.7,0.5s0.2,0.2,0.2,0.5c0,2.1,0,4.4,0,6.5c0,0.2,0,0.2-0.2,0.5
		c-0.2,0-0.5,0-0.5,0c-0.5-0.2-0.7-0.5-1.2-0.7c-0.5-0.2-0.9-0.7-1.4-0.9c-0.5-0.5-1.2-0.9-1.6-1.2s-0.7-0.5-1.2-0.9
		c-0.5-0.2-0.9-0.7-1.4-0.9c-0.5-0.2-0.7-0.5-1.2-0.9c-0.7-0.5-1.2-0.9-1.9-1.4c-0.2-0.2-0.5-0.2-0.7-0.5c-0.5-0.5-1.2-0.9-1.9-1.4
		c-0.5-0.2-0.7-0.5-1.2-0.9c-0.5-0.2-0.9-0.7-1.2-0.9c-0.2-0.2-0.5-0.2-0.5-0.5c0,0,0,0-0.2,0c-0.7,0.5-1.2,0.9-1.9,1.4
		c-0.9,0.7-1.9,1.4-2.6,2.1c-0.5,0.5-1.2,0.7-1.6,1.2c-0.7,0.5-1.6,1.2-2.3,1.6c-0.7,0.5-1.2,0.9-1.6,1.2c-0.7,0.5-1.6,1.2-2.3,1.6
		c-0.5,0.2-0.7,0.5-1.2,0.9c-0.5,0.2-0.9,0.7-1.4,0.9c0,0-0.2,0.2-0.5,0.2c-0.2,0,0-0.2,0-0.2C-1.8,25.1-1.8,23.9-1.8,22.7z"/>
	<path class="st1" d="M-1.8,13.4c0-0.2,0-0.2,0-0.5c0-2.1,0-4.4,0-6.5c0-0.2,0.2-0.5,0.5-0.7C-0.9,5.3-0.2,5,0.3,4.6
		c0.7-0.5,1.4-1.2,2.1-1.6C2.8,2.7,3.3,2.2,3.7,2c0.5-0.5,1.2-0.7,1.6-1.2c0.5-0.2,0.9-0.7,1.2-0.9C7-0.3,7.5-0.8,7.9-1
		C8.4-1.3,8.9-1.7,9.1-2c0.5-0.5,1.2-0.9,1.6-1.2c0.2-0.2,0.5-0.2,0.7-0.5c0.7-0.5,1.2-0.9,1.9-1.4c0,0,0.2-0.2,0.2,0
		c0.5,0.5,0.9,0.7,1.4,1.2c0.5,0.5,0.9,0.7,1.4,1.2C17-2.2,17.7-1.5,18.4-1c0.5,0.5,1.2,0.7,1.6,1.2s1.2,0.9,1.9,1.4
		c0.5,0.5,0.9,0.7,1.4,0.9c0.7,0.5,1.4,0.9,2.1,1.6c0.2,0.2,0.5,0.5,0.9,0.5C26.8,5,27.5,5.5,28,5.7c0.2,0.2,0.5,0.5,0.7,0.5
		c0.2,0.2,0.2,0.2,0.2,0.5c0,2.1,0,4.4,0,6.5c0,0.2-0.2,0.5-0.5,0.2c-0.5-0.2-0.9-0.7-1.4-0.9c-0.5-0.5-1.2-0.7-1.6-1.2
		c-0.7-0.7-1.6-1.2-2.3-1.6c-0.5-0.2-0.7-0.5-1.2-0.9c-0.7-0.5-1.4-1.2-2.3-1.6c-0.7-0.5-1.2-0.9-1.9-1.4c-0.5-0.5-1.2-0.7-1.6-1.2
		c-0.5-0.2-0.9-0.7-1.2-0.9c0-0.5-0.7-0.9-1.2-1.4h-0.2c-0.7,0.7-1.6,1.2-2.3,1.6S10,4.8,9.3,5.3C8.9,5.7,8.2,6.2,7.7,6.4
		C7,6.9,6.3,7.6,5.6,8.1C4.9,8.5,4.4,9,3.7,9.5c-0.9,0.7-1.9,1.2-2.6,1.9c-0.5,0.2-0.9,0.7-1.4,0.9c-0.5,0.2-0.9,0.7-1.4,0.9
		C-1.6,13.4-1.6,13.4-1.8,13.4z"/>
	<path class="st1" d="M-1.8,36.3c0-1.2,0-2.3,0-3.3c0-0.2,0-0.5,0.2-0.5c0.7-0.5,1.2-0.9,1.9-1.4c0.5-0.2,0.9-0.7,1.4-0.9
		c0.7-0.5,1.4-0.9,2.1-1.6c0.5-0.5,1.2-0.9,1.9-1.4s1.2-0.9,1.9-1.4c0.5-0.5,1.2-0.7,1.6-1.2c0.5-0.5,1.2-0.7,1.6-1.2
		c0.2-0.2,0.7-0.5,1.2-0.7c0.5-0.5,1.2-0.9,1.6-1.2c0.2,0,0.2,0,0.5,0c0.7,0.5,1.2,0.9,1.9,1.4c0.5,0.2,0.9,0.5,1.2,0.9
		c0.7,0.5,1.2,0.9,1.9,1.4c0.5,0.2,0.7,0.7,1.2,0.9s0.7,0.7,1.2,0.9c0.5,0.2,0.9,0.5,1.2,0.9c0.5,0.5,1.2,0.9,1.6,1.2
		c0.5,0.2,0.9,0.5,1.2,0.9c0.7,0.5,1.6,1.2,2.3,1.6c0.5,0.2,0.9,0.7,1.4,0.9c0.5,0.2,0.7,0.5,0.5,0.9c0,2.1,0,4,0,6.1
		c0,0.2,0,0.5-0.2,0.5c-0.2,0.2-0.2,0-0.5-0.2c-0.9-0.7-1.9-1.4-2.8-2.1c-0.9-0.7-1.9-1.4-2.8-2.1c-0.7-0.5-1.6-1.2-2.3-1.6
		c-0.5-0.5-1.2-0.7-1.6-1.2c-0.7-0.5-1.4-0.9-2.1-1.4c-0.7-0.7-1.6-1.2-2.3-1.9c-0.2-0.2-0.7-0.5-1.2-0.7h-0.2
		c-0.5,0.5-1.2,0.7-1.6,1.2s-1.2,0.9-1.9,1.4c-0.5,0.5-1.2,0.9-1.6,1.2c-0.5,0.2-0.9,0.5-1.4,0.9c-0.5,0.5-1.2,0.7-1.6,1.2
		c-0.5,0.2-0.7,0.5-1.2,0.9C3.5,36,3,36.5,2.6,36.7c-0.5,0.2-0.9,0.7-1.2,0.9c-0.5,0.2-0.9,0.7-1.4,0.9c-0.2,0.2-0.7,0.5-0.9,0.7
		c-0.2,0.2-0.7,0.5-0.9,0.7h-0.2v-0.2C-1.8,38.4-1.8,37.4-1.8,36.3z"/>
</g>
<g id="Calque_8" class="st0">
	<path class="st1" d="M75.8,39.3c-4.4-3.5-8.9-7-13.3-10.7c-2.6-2.1-4.4-5.6-4.2-8.4c0.5-5.4-8.2-11.2-9.6-12.4c0,0-2.1-1.6-3.7-3
		c-1.9-1.4-3.7-1.4-5.4,0.5c-0.2,0-0.5,0.2-0.5,0.2C37.3,7.6,35,6.7,34.3,5C33.4,2.5,20.3-8.3,17-10.1c-1.4-0.7-3-3-4.4-1.9
		c-2.1,1.6-2.8-0.9-2.8-2.8c0-2.8,0.9-3-0.5-4c-1.2-0.7-1.9,1.4-1.9,1.4S6.3-16,5.8-15.7C5.4-16,5.1-16,4.9-16l0,0
		c0.9-0.9-2.1-2.6-3.3-3.7c-0.7-0.7-1.6-0.7-2.3,0.2c-0.9,0.9-0.5,1.6,0.2,2.3c1.4,1.2,3.3,3.7,4.7,2.8c0.2,0,0.5,0,0.5,0
		c0.5,0.5,1.6,1.4,1.9,1.6c1.4,1.4,3,2.6,2.8,4.9c-0.2,2.6,17.5,15.9,21,19.3c-3,3.3-12.1,12.8-11,13.5c-0.7,0.9,4,6.1,4.2,6.3
		c2.1,1.9,4.9-2.8,7.5-4.9c1.6-1.4,3.3-4.9,6.5-1.9c1.2,1.4-2.1,4.7,1.4,4.7c0.2-0.7,0.7-1.9,1.6-2.1c0.5,0,1.2,1.9,1.6,2.1
		c0.2,0,0.5,0.2,0.7,0.2c-0.2,0.2-1.4,0.5-1.9,0.9c2.1,1.9,1.4,9.1,1.4,10.3c0.2,2.6,0.2,3.7,4.2,4c2.6,0.2,2.3-0.9,2.6-4
		c0-1.9-0.2-3.7,0.5-5.6c0.9-2.8,3.7-4.7,6.1-3c3,2.1,6.3,4.4,6.8,8.9c0.2,2.6,0.7,4.9,0.9,7.5c0.2,2.8,2.8,4,4.7,4.9
		c2.1,1.2,2.8-1.4,3.7-2.6c1.9-1.9,3.3-4.2,5.1-6.1C78.6,43,78.3,41.2,75.8,39.3z M8.9-16c-0.2,0.2-0.2,0.2-0.5,0.5
		c0-0.2,0-0.7,0.2-0.9C8.6-16.2,8.9-16.2,8.9-16z M53.2,18.3C49,14.8,45,11.8,41,8.5c-1.2-0.9-0.2-0.9-0.2-1.6
		c1.6-1.6,2.1-1.2,7.2,2.6C53.2,13.7,54.3,15.1,53.2,18.3z"/>
	<path class="st1" d="M-40.8,45.4c1.9,1.9,3.3,4.2,5.1,6.1c1.2,1.2,1.6,3.7,3.7,2.6c1.9-1.2,4.4-2.1,4.7-4.9
		c0.2-2.6,0.7-4.9,0.9-7.5c0.5-4.4,3.7-6.5,6.8-8.9c2.3-1.6,5.1,0,6.1,3c0.5,1.9,0.5,3.7,0.5,5.6c0,3-0.2,4.2,2.6,4
		c4-0.2,4-1.6,4.2-4c0-0.9-0.7-8.2,1.4-10.3c-0.2-0.5-1.6-0.7-1.9-0.9C-6.5,30-6.3,30-6,30c0.5-0.2,1.2-2.1,1.6-2.1
		c0.9,0.2,1.4,1.4,1.6,2.1c3.5-0.2,0.2-3.3,1.4-4.7c3-3,4.7,0.5,6.5,1.9c2.3,2.1,5.4,6.8,7.5,4.9c0.2-0.2,4.9-5.4,4.2-6.3
		c0.9-0.7-8.2-10.3-11-13.5c3.5-3.5,21.2-16.8,21-19.3c-0.2-2.3,1.4-3.5,2.8-4.9c0.2-0.2,1.4-1.4,1.9-1.6c0-0.2,0.2-0.2,0.5,0
		c1.2,0.7,3.3-1.6,4.7-2.8c0.7-0.7,1.2-1.4,0.2-2.3c-0.9-1.4-1.9-1.4-2.6-0.7c-1.2,1.2-4.4,2.6-3.3,3.7l0,0c-0.2,0-0.5,0-0.9,0.2
		c-0.5-0.5-1.6-1.6-1.6-1.6s-0.7-2.1-1.9-1.4c-1.4,0.9-0.5,1.2-0.5,4c0,1.9-0.7,4.4-2.8,2.8c-1.6-1.4-3.3,0.9-4.7,1.6
		C15.4-8.3,2.3,2.5,1.4,5c-0.5,1.6-3,2.6-4.9,0.5c-0.2,0-0.5,0-0.5-0.2c-1.9-2.1-3.5-1.9-5.4-0.5s-3.7,3-3.7,3
		c-1.4,1.2-10,7-9.6,12.4c0.2,2.8-1.6,6.3-4.2,8.4c-4.4,3.7-8.9,7.2-13.3,10.7C-42.6,41.2-42.9,43-40.8,45.4z M27.1-16.4
		c0,0.2,0.2,0.5,0.2,0.9c-0.2-0.2-0.2-0.2-0.5-0.5C26.8-16.2,27.1-16.2,27.1-16.4z M-12.6,9.2C-7.7,5.5-7,5-5.3,6.7
		c0,0.7,0.9,0.7-0.2,1.6c-4,3.3-7.9,6.3-12.1,9.8C-18.6,15.1-17.5,13.7-12.6,9.2z"/>
</g>
<g id="Calque_9">
	<path class="st6" d="M1.4,16.3c0.1-0.2,0.1-0.4,0.2-0.7c4.6,0,9.4,0,14.2,0c0-0.3,0-0.6,0-0.8c0-3,0-6,0-9c0-1.5,0.1-1.5,1.5-1.5
		c1.7,0,1.5,0,1.6,1.6c0.1,2.9,0.1,5.9,0,8.8c0,0.7,0.1,0.9,0.9,0.9c4.2,0,8.5,0,12.7,0c0.2,0,0.4,0,0.6,0c0.1,0.3,0.2,0.5,0.2,0.8
		c0,0.8,0,1.6,0,2.4c-0.1,0.2-0.2,0.5-0.2,0.8c-4.7,0-9.4,0-14.2,0c0,0.3,0,0.6,0,0.9c0,4.1,0,8.2,0,12.3c0,0.3,0,0.6-0.4,0.8
		c-0.8,0-1.6,0-2.4,0c-0.4-0.1-0.4-0.4-0.4-0.8c0-4.1,0-8.1,0-12.2c0-0.3,0-0.6,0-1c-4.8,0-9.6,0-14.2,0c-0.1-0.3-0.2-0.5-0.2-0.7
		C1.4,17.9,1.4,17.1,1.4,16.3z"/>
	<path class="st6" d="M18.6,1.6c0.2,0.2,0.3,0.4,0.5,0.6c0,0.1-0.1,0.1-0.1,0.2c-1,0-2,0-3.1,0c-0.1-0.4-0.1-0.7,0.3-0.8
		C17,1.6,17.8,1.6,18.6,1.6z"/>
	<path class="st6" d="M14.4,1.8c0.2,0.6,0.1,0.8-0.5,0.9c-2.1,0.5-4,1.4-5.7,2.7C8,5.6,7.8,5.8,7.8,6c0.5-0.1,1.1-0.2,1.5-0.4
		c1.4-0.7,2.9-0.9,4.5-1.1c0.5-0.1,0.7,0.1,0.7,0.6c0,2.7,0,5.5,0,8.3c-3.2-2-6.3-3.9-9.7-5.9C7.4,4.4,10.6,2.6,14.4,1.8z"/>
	<path class="st6" d="M27.2,6.1c-0.2-0.2-0.3-0.3-0.5-0.5c-1.8-1.4-3.8-2.4-6-2.9c-0.5-0.1-0.6-0.4-0.5-0.9c3.8,0.7,7,2.6,9.7,5.7
		c-3.2,2-6.3,3.9-9.6,5.9c-0.1-0.1-0.1-0.2-0.1-0.2c0-2.7,0-5.3,0-8c0-0.7,0.3-0.8,0.9-0.7c1.5,0.3,3,0.6,4.5,1
		C26.1,5.6,26.5,6,27,6.3c0,0,0.1,0,0.2,0C27.1,6.2,27.2,6.2,27.2,6.1z"/>
	<path class="st6" d="M20.9,13.9c3.1-1.9,6.2-3.8,9.4-5.8c0.2,0.3,0.5,0.6,0.7,1c-2.4,1.5-4.8,2.9-7.1,4.4
		C22.8,14.2,21.9,14,20.9,13.9z"/>
	<path class="st6" d="M2.8,10.8C4.5,11.9,6.2,12.9,8,14c-2.2,0-4.1,0-6.2,0C2.1,12.9,2.4,11.9,2.8,10.8z"/>
	<path class="st6" d="M27,13.9c1.6-1,3.2-2,4.9-3.1c0.4,1.1,0.7,2.1,1.1,3.2C31,14,29,14,27,13.9C27,14,27,13.9,27,13.9z"/>
	<path class="st6" d="M3.2,10.2c0.2-0.4,0.4-0.7,0.6-1.1c2.6,1.6,5.1,3.2,7.7,4.8c-1,0.1-1.9,0.3-2.8-0.3C6.9,12.4,5,11.4,3.2,10.2z
		"/>
	<path class="st6" d="M20.2,21.6c3.2,2,6.4,3.9,9.7,5.9c-2.5,3.1-5.7,4.9-9.7,5.7C20.2,29.3,20.2,25.5,20.2,21.6z"/>
	<path class="st6" d="M26.9,20.9c2,0,3.9,0,6,0c-0.4,1.1-0.7,2.1-1.1,3.2c-1.7-1.1-3.4-2.1-5-3.1C26.9,21,26.9,20.9,26.9,20.9z"/>
	<path class="st6" d="M31.6,24.8c-0.2,0.4-0.4,0.7-0.6,1c-2.6-1.6-5.1-3.2-7.7-4.8c1-0.1,1.9-0.3,2.8,0.3c1.6,1.1,3.2,2,4.8,3
		C31.2,24.5,31.4,24.6,31.6,24.8z"/>
	<path class="st6" d="M14.5,21.5c0,3.9,0,7.7,0,11.5c-3.1-0.3-7.2-2.5-9.7-5.6C8.1,25.5,11.2,23.5,14.5,21.5z"/>
	<path class="st6" d="M13.8,21.1c-3.1,1.9-6.2,3.8-9.4,5.8c-0.2-0.3-0.5-0.6-0.7-1c2-1.2,3.9-2.4,5.9-3.6c0.4-0.3,0.9-0.5,1.3-0.8
		C11.8,20.7,12.7,20.9,13.8,21.1z"/>
	<path class="st6" d="M1.7,20.9c2.1,0,4.1,0,6.2,0C6.1,22,4.5,23,2.8,24.1C2.4,23,2.1,22,1.7,20.9z"/>
</g>
<g id="Calque_10" class="st0">
	<path class="st1" d="M43.6,16.5c-2.3,0.2-4.7,0-7,0.2c-1.6,0.2-3,0-4.2-1.4c-0.7-0.7-0.9-1.6-1.2-2.3c-0.7-1.6-1.4-3.3-2.1-4.7
		c-0.2-0.7-0.5-0.2-0.7,0c-0.9,1.4-1.6,2.6-2.6,4c-1.4,2.3-2.8,4.7-4.2,6.8c-0.2,0.5-0.5,0.7,0.2,1.2c3.5,2.3,6.8,4.7,10,7
		c1.9,1.2,2.6,3.5,1.4,5.6c-1.6,3.3-3.5,6.5-5.1,9.8c-1.4,2.6-2.8,5.4-4.4,7.9c-0.9,1.4-1.6,2.8-3.3,3.3c-1.4,0.7-3.3,0-3.5-2.1
		c0-2.1,0.5-3.7,1.4-5.6c1.9-4.4,3.5-8.9,5.4-13.3c0.2-0.5,0.2-0.7-0.5-1.2c-2.8-1.9-5.6-3.7-8.4-5.8c-1.4-0.9-3-1.6-4.4-2.8
		c-2.1-1.6-3.3-4-2.3-6.8c0.7-2.1,1.9-4,3.3-5.8c2.6-3.5,4.9-7.2,7.2-10.7C18.9-0.8,18.9-1,18.4-1c-2.1,0-4-0.5-5.8-0.9
		c-0.7-0.2-0.9,0.2-1.4,0.5C9.8-0.8,8.4-0.1,7,0.8C4.9,2,2.8,2.9,0.9,4.1C0,4.6-0.9,4.8-1.8,4.6C-3.2,4.6-3.5,2.9-3,2
		c0.5-1.4,1.6-2.3,2.8-3.3C1.9-2.9,4-4.5,6.1-6.2C7.2-7.1,8.6-8.3,9.8-9c0.9-0.5,1.9-0.5,2.6-0.5c3.7,0.7,7.7,1.6,11.4,2.3
		c1.4,0.2,2.6,1.2,4,2.1c1.4,0.9,3,1.9,4.4,3c0.7,0.5,0.9,1.4,1.4,2.3c0.9,1.9,1.6,3.7,2.3,5.6c0.7,1.4,1.4,3,1.9,4.4
		c0,0.2,0,0.2,0.2,0.2c1.2,0,2.3,0.2,3.5,0.2c2.1,0.2,4.2,0.2,6.1,0.5c0.9,0,1.6,0.2,2.6,0.7c1.2,0.9,1.2,2.6,0,3.5
		c-0.9,0.7-2.1,0.7-3,0.9C45.9,16.5,44.8,16.7,43.6,16.5z"/>
	<path class="st1" d="M5.4,23.2c1.2,2.3,3.3,4,5.4,5.4C11,28.8,11,29,11.2,29c0.2,0.2,0.2,0.2,0,0.5c-1.4,1.9-2.6,4-4,5.8
		c-0.9,1.2-2.1,1.9-3.5,1.9C1.4,37.2-0.7,37-3,37c-1.4,0-2.8-0.2-4-0.2c-2.6-0.2-5.1-0.2-7.7-0.7c-0.9-0.2-1.6-0.5-2.3-1.2
		c-1.2-1.2-0.9-3.3,0.5-4c0.9-0.5,1.9-0.9,3-0.9c2.3-0.2,4.7-0.2,6.8-0.5c1.4,0,2.8-0.2,4.2-0.2c1.2,0,2.3-0.2,3.7-0.2
		c0.5,0,0.7-0.5,0.9-0.9c0.9-1.4,2.1-2.8,3-4.2C4.9,23.4,5.1,23.2,5.4,23.2z"/>
	<path class="st1" d="M35.2-6.2c-3.7,0.2-7-3-6.8-7c0.2-3.7,3-6.8,7-6.8c3.7,0,7,3,6.8,7.2C42-9.2,38.9-6.2,35.2-6.2z"/>
</g>
</svg>
