<?xml version="1.0" encoding="utf-8"?>
<!-- Generator: Adobe Illustrator 22.1.0, SVG Export Plug-In . SVG Version: 6.00 Build 0)  -->
<svg version="1.1" id="Calque_1" xmlns="http://www.w3.org/2000/svg" xmlns:xlink="http://www.w3.org/1999/xlink" x="0px" y="0px"
	 viewBox="0 0 42 39.6" style="enable-background:new 0 0 42 39.6;" xml:space="preserve">
<style type="text/css">
	.st0{display:none;}
	.st1{display:inline;fill:#435264;}
	.st2{display:inline;fill:none;}
	.st3{display:inline;fill:#7F98C2;}
	.st4{display:inline;fill:#FEFEFE;}
	.st5{display:inline;}
	.st6{fill:#435264;}
	.st7{fill:none;stroke:#435264;stroke-width:1.1533;stroke-miterlimit:10;}
</style>
<g id="Calque_1_1_" class="st0">
	<path class="st1" d="M31.4,39.4c-1.1,0-2.2,0.1-3.2,0c-1.8,0-3.5-0.1-5.3-0.2c-0.6,0-1.2-0.1-1.9-0.2c-0.3-0.1-0.5,0.1-0.6,0.4
		c-0.1,0.3-0.1,0.3-0.4,0.3c-0.8,0-1.5,0-2.3,0c-0.5,0-0.7-0.1-0.7-0.6c0-0.3-0.2-0.6-0.5-0.7c-0.6-0.1-0.8-0.6-1-1.1
		c-0.3-0.8-0.3-1.7-0.4-2.5c-0.1-1-0.1-2,0-3.1c0.2-1.6,0.6-3.2,1.2-4.7c0.2-0.5,0.4-0.9,0.6-1.4c0.2,0.1,0.4,0.3,0.5,0.5
		c0,0.1,0,0.1,0,0.2c-0.1,0.1-0.1,0.1-0.2,0c-0.1-0.1-0.2-0.2-0.1-0.3c0,0,0.1-0.1,0-0.1S17,25.9,17,26c-0.1,0.1-0.1,0.3,0.1,0.4
		c0.1,0.1,0.3,0.2,0.4,0.1c0.1-0.1,0.2-0.2,0.1-0.4c-0.1-0.2-0.3-0.4-0.6-0.5c0.3-0.8,0.8-1.6,1.2-2.5c0.7-1.4,1.5-2.8,2.3-4.1
		c0.3-0.6,0.4-1.2,0.6-1.8c0.1-0.4,0.2-0.9,0.4-1.4c0.2-0.4,0.5-0.6,1-0.7c0.4,0,0.9-0.1,1.3,0c0.4,0.1,0.6,0.3,0.7,0.7
		c0.1,0.5,0.2,1.1,0.3,1.6c0,0.2,0.1,0.2,0.3,0.2c2.4-0.1,4.7-0.1,7.1-0.1c0.4,0,0.8,0,1.2,0.1c0.1,0,0.2,0,0.2-0.2
		c0.1-0.6,0.2-1.1,0.4-1.7c0.1-0.3,0.3-0.6,0.6-0.6c0.5-0.1,1.1-0.1,1.6,0c0.5,0.1,0.7,0.5,0.9,0.9c0.2,0.6,0.3,1.2,0.5,1.8
		c0.1,0.5,0.3,1,0.6,1.5c1.5,2.5,2.9,5,3.9,7.7c0.9,2.3,1.4,4.6,1.2,7.1c-0.1,1.1-0.1,2.2-0.5,3.3c-0.2,0.5-0.4,0.9-1,1.1
		c-0.3,0.1-0.5,0.3-0.5,0.6c-0.1,0.6-0.2,0.7-0.8,0.7c-0.7,0-1.5,0-2.2,0c-0.4,0-0.4,0-0.5-0.4c-0.1-0.3-0.2-0.4-0.6-0.4
		c-1.6,0.2-3.2,0.3-4.8,0.3c-0.2,0-0.3,0-0.5,0c0-0.1-0.1-0.2,0.1-0.3c0.1,0,0,0.2,0.1,0.2s0.1-0.2,0-0.3c0-0.1-0.1-0.1-0.2,0
		c-0.2,0.1-0.2,0.3-0.1,0.5c-0.1,0-0.2,0-0.2,0C31.5,39.4,31.5,39.4,31.4,39.4z M18.2,38.6c0.2,0.6,1.1,0.9,1.8,0.6
		c0.5-0.3,0.8-0.7,0.8-1.3c0.1,0,0.2,0,0.3,0c0,0.4-0.1,0.7-0.3,1c0,0,0,0.1,0,0.2c0.1,0,0.1,0,0.2-0.1c0.3-0.3,0.4-0.6,0.4-1
		c0.1,0,0.2,0,0.3,0c1.9,0.2,3.8,0.3,5.6,0.3c2.3,0.1,4.5,0,6.8-0.1c0.9-0.1,1.9-0.1,2.8-0.3c0.5-0.1,1,0,1.4,0.4
		c0.3,0.4,0.6,0.4,1,0.4c0.2,0,0.4,0,0.5,0s0.2,0,0.2-0.2c0.2-0.4,0.4-0.8,0.8-0.9c0.5-0.2,0.6-0.5,0.7-0.9c0-0.1,0-0.2,0.1-0.3
		c0.1-0.6,0.1-1.2,0.2-1.8c0.1-1.1,0.1-2.2-0.1-3.3c-0.3-1.7-0.8-3.3-1.5-4.9c-0.9-2.1-2.1-4.2-3.2-6.2c-0.3-0.5-0.6-1-0.8-1.6
		c-0.1-0.6-0.3-1.1-0.4-1.7c-0.2-0.6,0-0.5-0.7-0.5c-0.1,0-0.2,0-0.2,0.2c-0.1,0.7-0.3,1.5-0.5,2.2c0,0.2-0.1,0.3-0.3,0.2
		c-1.3-0.1-2.7-0.1-4-0.2c-2.1,0-4.1,0-6.2,0.2c-0.2,0-0.2,0-0.2-0.2c-0.1-0.7-0.3-1.3-0.4-2c-0.1-0.5-0.1-0.5-0.6-0.5
		c-0.2,0-0.3,0.1-0.3,0.3c-0.1,0.6-0.3,1.3-0.5,1.9c-0.1,0.3-0.2,0.6-0.3,0.9c-0.4,0.7-0.9,1.5-1.3,2.2c-0.5,0.9-1,1.9-1.5,2.8
		c-0.4,0-0.5,0.1-0.5,0.4c0,0.1,0.1,0.2,0.2,0.2c-0.1,0.2-0.2,0.3-0.2,0.5c-0.1,0-0.3,0-0.3-0.1s-0.1-0.2,0.1-0.2
		c0.1,0,0,0.1,0.1,0.2c0,0.1,0.1,0.1,0.1,0s0.1-0.2,0-0.3c-0.1-0.1-0.2,0-0.3,0.1s-0.1,0.2-0.1,0.4c0,0,0.1,0,0.3,0
		c0,0.2-0.2,0.4-0.3,0.6c-0.3,0.7-0.6,1.4-0.9,2.2c-0.7,2-1,4-0.8,6.1c0.1,0.9,0.1,1.8,0.4,2.6c0,0.1,0.1,0.2,0.3,0.3
		c0.5,0.2,0.9,0.4,1.1,0.9C18.1,38.4,18.1,38.5,18.2,38.6z M32.9,38.8c-0.1,0-0.1,0-0.2,0c-0.1,0-0.2,0-0.3-0.1c0-0.1,0-0.2,0-0.2
		c0.1-0.1,0.2,0,0.3,0c0.1,0.1,0.1,0.1,0.2,0.2H33c0,0,0,0,0-0.1c-0.1-0.1-0.2-0.3-0.4-0.3s-0.3,0.1-0.3,0.2c0,0.2,0.1,0.4,0.3,0.4
		C32.7,39,32.9,39,32.9,38.8z M17.8,26.1c0-0.1-0.1-0.2-0.2-0.3c-0.1-0.1-0.1-0.1-0.1-0.2s0.1-0.1,0-0.1s-0.1,0.1-0.1,0.1
		C17.4,25.8,17.6,26,17.8,26.1z"/>
	<path class="st1" d="M18.6,9.3c0.5-0.2,1.1-0.3,1.6-0.4c0.2,0.2,0.4,0.3,0.6,0.5c0.1,0.2,0.2,0.4,0.3,0.5c-0.1,0-0.2,0.1-0.4,0.1
		c-0.3-0.8-1.1-1.1-1.7-0.6c-0.3,0.3-0.3,0.7-0.1,1c-0.1,0.1-0.3,0.1-0.4,0.1c-0.1-0.2-0.1-0.5-0.1-0.7C18.4,9.6,18.6,9.4,18.6,9.3z
		"/>
	<path class="st1" d="M18.6,9.3c0,0.2-0.2,0.4-0.2,0.6c0,0.2,0,0.5,0.1,0.7c-0.1,0-0.3,0-0.4,0.1c-0.2-0.4-0.2-0.8-0.1-1.2
		C18.2,9.3,18.4,9.3,18.6,9.3z"/>
	<path class="st1" d="M21.1,9.9c-0.2-0.2-0.2-0.4-0.3-0.5c-0.2-0.2-0.4-0.3-0.6-0.5c0.2-0.1,0.4-0.1,0.6-0.1
		c0.3,0.3,0.6,0.6,0.6,1.1C21.2,9.9,21.2,9.9,21.1,9.9z"/>
	<path class="st1" d="M16.9,25.6c0.2,0.1,0.4,0.3,0.6,0.5c0.1,0.2,0,0.3-0.1,0.4c-0.2,0.1-0.3,0-0.4-0.1c-0.1-0.1-0.2-0.2-0.1-0.4
		l0.1-0.1c0.1,0,0,0.1,0,0.1c-0.1,0.2,0,0.2,0.1,0.3c0.1,0,0.1,0,0.2,0c0.1-0.1,0.1-0.1,0-0.2c-0.1-0.2-0.3-0.4-0.5-0.5
		C16.8,25.7,16.8,25.7,16.9,25.6z"/>
	<path class="st1" d="M31.8,39.4c-0.1-0.2-0.1-0.4,0.1-0.5c0.1,0,0.2-0.1,0.2,0c0,0.1,0.1,0.3,0,0.3C32,39.3,32,39.1,32,39
		c-0.1,0.1,0,0.2-0.1,0.3C31.9,39.5,31.8,39.4,31.8,39.4z"/>
	<path class="st1" d="M31.4,39.4L31.4,39.4C31.5,39.4,31.5,39.4,31.4,39.4z"/>
	<path class="st1" d="M18.2,38.6c0.2,0,0.4,0,0.6,0c0.2,0.3,0.6,0.4,1,0.3c0.4-0.1,0.6-0.4,0.6-0.7c0-0.1,0-0.2,0-0.3
		c0.1-0.1,0.2-0.1,0.4-0.1c0.1,0.6-0.2,1.1-0.8,1.3C19.3,39.5,18.4,39.2,18.2,38.6z"/>
	<path class="st1" d="M21,37.8c0.1,0,0.2,0,0.3,0c0,0.4-0.2,0.7-0.4,1c0,0-0.1,0.1-0.2,0.1c0,0,0-0.1,0-0.2
		C20.9,38.5,21.1,38.2,21,37.8z"/>
	<path class="st1" d="M32.9,38.8c0,0.2-0.1,0.2-0.3,0.2s-0.3-0.2-0.3-0.4s0.1-0.3,0.3-0.2c0.2,0,0.3,0.2,0.4,0.3c0,0,0,0,0,0.1H32.9
		c-0.1-0.1-0.1-0.1-0.2-0.2c-0.1-0.1-0.2-0.1-0.3,0c-0.1,0.1-0.1,0.2,0,0.2c0,0.1,0.2,0.1,0.3,0.1C32.8,38.8,32.8,38.8,32.9,38.8z"
		/>
	<path class="st1" d="M18.3,25.5c0,0.1,0,0.1,0,0.1c-0.2,0-0.3,0-0.4-0.2c-0.1-0.1-0.1-0.3,0.1-0.4c0.1-0.1,0.2-0.2,0.3-0.1
		s0.1,0.2,0,0.3c0,0.1-0.1,0-0.1,0s0-0.1-0.1-0.2C18,25.1,18,25.2,18,25.2C18,25.5,18.1,25.5,18.3,25.5z"/>
	<path class="st1" d="M18.5,24.9V25c0-0.1-0.1-0.1-0.2-0.2c0-0.3,0.1-0.4,0.5-0.4c0,0,0,0.1-0.1,0.1C18.5,24.5,18.4,24.6,18.5,24.9z
		"/>
	<path class="st1" d="M17.8,26.1c-0.2-0.1-0.5-0.3-0.4-0.5c0-0.1,0-0.2,0.1-0.1c0.1,0,0,0.1,0,0.1c0,0.1,0,0.2,0.1,0.2
		C17.7,25.9,17.8,25.9,17.8,26.1z"/>
	<path class="st2" d="M34.7,8.8C34.6,8.8,34.7,8.9,34.7,8.8c0,0.2,0,0.2,0,0.3c-0.1,0-0.1,0-0.2-0.1c-0.1-0.1-0.1-0.2,0-0.3
		c0,0,0.1-0.1,0.1-0.2c-0.1-0.1-0.1,0-0.2,0c-0.1,0.1-0.1,0.2-0.3,0.1c0,0-0.1,0-0.1,0.1c0,0.1,0.5,0.5,0.5,0.5c0.1,0,0.2,0,0.3-0.1
		C34.9,9,34.8,8.9,34.7,8.8L34.7,8.8z"/>
	<path class="st2" d="M34,9.4C34,9.3,34,9.3,34,9.4c0-0.1,0.1-0.3,0-0.3s-0.1,0.1-0.2,0.2l0,0c-0.5,0-1-0.1-1.4-0.1
		c0.5,0,1,0.1,1.4,0.1C33.8,9.3,33.9,9.4,34,9.4z"/>
	<path class="st1" d="M32,11.1c-0.1,0.1-0.3,0.2-0.3,0.3c0,0.1,0.1,0.2,0.2,0.3c0.1,0.1,0.3,0.1,0.4-0.1c0.1-0.1,0.2-0.1,0.1-0.2
		c-0.1-0.1-0.1,0.1-0.2,0.1l0,0c-0.1,0.1-0.2,0.1-0.3,0c-0.1-0.1-0.1-0.2,0-0.3c0.1,0.1,0,0.2,0.1,0.2s0.1-0.1,0.1-0.2
		S32.1,11.1,32,11.1C32.1,11.1,32,11.1,32,11.1z"/>
	<path class="st2" d="M34.7,8.3c0,0.1,0.3,0.5,0.4,0.5h0.1V8.7C35,8.6,34.9,8.4,34.7,8.3z"/>
	<path class="st1" d="M47.9,15.5c-0.5-1.8-1.6-3.2-3.1-4.2c-1.1-0.7-2.3-1.2-3.6-1.6c-2.1-0.7-4.3-1.2-6.5-1.5
		c-1.6-0.2-3.2-0.4-4.9-0.4c-2.1,0-4.2,0.1-6.3,0.4c-0.9,0.1-1.8,0.3-2.8,0.5C21,9,21.3,9.3,21.3,9.8h0.1l0,0
		c1.3-0.2,2.6-0.4,3.8-0.6c2.4-0.2,4.7-0.2,7.1,0c0.5,0,1,0.1,1.4,0.1l0,0c0-0.1,0.1-0.3,0.2-0.2c0.1,0,0,0.2,0,0.2l0,0
		c0.8,0.1,1.5,0.2,2.3,0.4c1.7,0.3,3.4,0.8,5,1.4c0.9,0.3,1.8,0.7,2.7,1.3c1.7,1,2.6,2.5,2.9,4.4c0,0.2,0,0.5,0,0.7
		c0,0.5-0.4,0.6-0.7,0.7c-0.7,0.2-1.5,0.2-2.2,0.2c-1.2,0-2.5-0.2-3.6-0.7c-0.2-0.1-0.4-0.2-0.5-0.4c-0.3-0.5-0.5-1.1-0.6-1.7
		c-0.4-1.1-1-2-2-2.7c-1.1-0.8-2.4-1.3-3.8-1.6c-0.1,0-0.3-0.1-0.4-0.1c-0.3-0.1-0.6-0.1-0.9-0.1l0,0c0,0.1,0,0.1,0,0.2
		s0.1,0.2-0.1,0.2c-0.1,0,0-0.1-0.1-0.2c-0.1,0.1-0.1,0.2,0,0.3c0.1,0.1,0.2,0,0.3,0l0,0c0.1,0,0.1-0.2,0.2-0.1
		c0.1,0.1-0.1,0.2-0.1,0.2c-0.1,0.1-0.2,0.1-0.4,0.1c-0.1-0.1-0.2-0.2-0.2-0.3c0-0.2,0.1-0.3,0.3-0.3c-1.2-0.2-2.3-0.1-3.5-0.1
		c-1,0-2,0-2.9,0.2c-1.3,0.2-2.5,0.5-3.7,1.1s-2.1,1.5-2.7,2.7c-0.2,0.5-0.4,1-0.5,1.5c-0.4,1.2-0.4,1.1-1.5,1.4
		c-1.5,0.4-3,0.5-4.5,0.4c-0.4,0-0.7-0.1-1-0.3c-0.2-0.1-0.3-0.2-0.3-0.5c-0.1-0.6,0-1.2,0.2-1.7c0.4-1.6,1.4-2.7,2.8-3.5
		c1-0.6,2.2-1,3.3-1.4c0.2-0.1,0.4-0.1,0.5-0.2C18,10.4,18,10,18.1,9.6c-1.6,0.5-3.2,1.1-4.6,2c-1.4,0.9-2.5,2.1-3,3.8
		c-0.2,0.8-0.4,1.5-0.3,2.3c0.1,0.8,0.4,1.3,1.2,1.6c0.4,0.2,0.8,0.3,1.2,0.3c2,0.2,3.9,0.1,5.8-0.6c0.6-0.2,1.1-0.6,1.3-1.2
		c0.3-0.6,0.5-1.2,0.7-1.8c0.3-1,1-1.8,1.9-2.3c1-0.6,2-0.9,3.1-1.1c0.9-0.2,1.8-0.2,2.7-0.2c1.2,0,2.5-0.1,3.7,0.1
		c0-0.1-0.1-0.2-0.2-0.3c-0.1-0.1-0.1-0.1-0.1-0.2c0-0.1,0-0.2,0.1-0.2s0,0.1,0,0.2c0,0.1,0.1,0.2,0.2,0.3c0.1,0.1,0.2,0.1,0.1,0.3
		c1.3,0.1,2.6,0.4,3.8,1c1,0.5,1.8,1.1,2.2,2.2c0.1,0.2,0.3,0.8,0.5,1.4c0.1,0.4,0.3,0.7,0.5,1c0.4,0.5,1,0.7,1.5,0.8
		c1.4,0.4,2.9,0.6,4.4,0.5c0.6,0,1.2-0.1,1.7-0.3c1-0.3,1.4-0.9,1.5-1.9C48.1,16.7,48,16.1,47.9,15.5z M34.8,9.1
		c-0.1,0.1-0.1,0.1-0.3,0.1c-0.1,0-0.5-0.4-0.5-0.5c0,0,0-0.1,0.1-0.1c0.1,0.1,0.2,0,0.3-0.1c0,0,0.1-0.1,0.2,0
		c0.1,0.1,0,0.1-0.1,0.2s-0.1,0.2,0,0.3S34.6,9.1,34.8,9.1c0,0,0-0.1-0.1-0.2c0,0-0.1-0.1,0-0.1s0.1,0,0.1,0.1
		C34.8,9,34.9,9,34.8,9.1z M35.2,8.8C35.2,8.8,35.1,8.8,35.2,8.8c-0.1,0-0.4-0.4-0.5-0.5C34.9,8.4,35,8.6,35.2,8.8
		C35.2,8.7,35.2,8.8,35.2,8.8z"/>
	<path class="st1" d="M31.6,12c-0.1-0.1-0.2-0.1-0.2-0.3c0-0.1,0.1-0.1,0-0.2c-0.1,0-0.1,0.1-0.1,0.2c0,0.1,0.1,0.2,0.1,0.2
		c0.1,0.1,0.2,0.1,0.2,0.3l0,0C31.8,12.2,31.7,12.1,31.6,12z"/>
	<path class="st1" d="M32,11.1L32,11.1c0.1,0.1,0.1,0.1,0.1,0.2c0,0.1,0.1,0.2-0.1,0.2c-0.1,0,0-0.1-0.1-0.2c-0.1,0.1-0.1,0.2,0,0.3
		c0.1,0.1,0.2,0,0.3,0l0,0c0.1,0,0.1-0.2,0.2-0.1c0.1,0.1-0.1,0.2-0.1,0.2c-0.1,0.1-0.2,0.1-0.4,0.1c-0.1-0.1-0.2-0.2-0.2-0.3
		C31.7,11.2,31.8,11.1,32,11.1z"/>
	<path class="st1" d="M34.6,9.3c-0.1,0-0.5-0.4-0.5-0.5c0,0,0-0.1,0.1-0.1c0.1,0.1,0.2,0,0.3-0.1c0,0,0.1-0.1,0.2,0
		c0.1,0.1,0,0.1-0.1,0.2c-0.1,0.1-0.1,0.2,0,0.3c0.1,0.1,0.1,0.1,0.2,0.1c0.1,0,0.1-0.1,0-0.2c0,0-0.1-0.1,0-0.1s0.1,0,0.1,0.1
		c0.1,0.1,0.1,0.2,0,0.3C34.8,9.2,34.7,9.3,34.6,9.3z"/>
	<path class="st1" d="M34.7,8.3c0.2,0.1,0.3,0.3,0.5,0.4v0.1c0,0,0,0-0.1,0C35,8.8,34.7,8.4,34.7,8.3z"/>
	<path class="st1" d="M34,9.4c-0.1,0-0.1,0-0.2,0l0,0c0-0.1,0.1-0.3,0.2-0.2C34.1,9.1,33.9,9.2,34,9.4C34,9.3,34,9.3,34,9.4z"/>
	<path class="st3" d="M21.5,9.8L21.5,9.8L21.5,9.8z"/>
	<path class="st1" d="M19.2,10.3c-0.1,0-0.2,0.1-0.3,0.1c-0.2-0.2-0.2-0.7,0.1-1c0.6-0.5,1.4-0.3,1.7,0.6c-0.1,0-0.2,0.1-0.3,0.1
		c-0.2-0.2-0.2-0.4-0.4-0.5c-0.2-0.1-0.4-0.1-0.6,0.1C19.1,9.8,19.2,10.1,19.2,10.3z"/>
	<path class="st1" d="M32.9,22.4c-0.6-0.2-1.1-0.4-1.7-0.5c-2.7-0.5-5.3-0.1-7.6,1.6c-1.4,1-2.3,2.3-2.6,4c-0.2,1.2-0.1,2.4,0.5,3.5
		c0.8,1.6,2,2.7,3.6,3.5c1,0.5,2,0.8,3.1,0.9c1.6,0.2,3.2-0.1,4.7-0.7c0.2-0.1,0.2-0.1,0.3,0.1c0.1,0.3,0.2,0.5,0.3,0.7
		c0.1,0.1,0,0.2-0.1,0.3c-0.7,0.3-1.4,0.5-2.1,0.7c-1.9,0.4-3.7,0.3-5.5-0.3c-2.4-0.8-4.3-2.3-5.4-4.5c-1.2-2.4-1-4.7,0.3-6.9
		c1-1.7,2.6-2.8,4.4-3.5c1.9-0.8,3.9-0.9,6-0.6c2.4,0.4,4.4,1.5,6,3.4c2,2.4,2.1,5.7,0.4,8.3c-0.2,0.3-0.2,0.3-0.5,0.1
		c-0.2-0.1-0.4-0.2-0.6-0.3c-0.2-0.1-0.2-0.2-0.1-0.3c0.4-0.6,0.7-1.2,0.9-1.9c0.6-2.3-0.1-4.2-1.7-5.9c-0.1-0.1-0.1-0.1-0.2-0.2
		c0.1-1-0.8-1.9-2-1.7C33.2,22.3,33,22.2,32.9,22.4z"/>
	<path class="st1" d="M29.1,32.9c-1.6,0-3-0.5-4.1-1.8c-1.4-1.5-1.4-3.8,0-5.2c1.2-1.3,2.8-1.8,4.6-1.7c1.3,0.1,2.4,0.6,3.3,1.5
		c1.6,1.5,1.7,3.9,0.2,5.5C32,32.3,30.7,32.8,29.1,32.9z M29.1,31.6c1.1,0,2.1-0.3,2.9-1c1.3-1.1,1.4-2.9,0.1-4.1
		c-0.8-0.8-1.7-1.1-2.8-1.2c-1.3-0.1-2.4,0.3-3.3,1.2c-1.1,1.1-1.1,2.7,0,3.8C26.9,31.3,27.9,31.6,29.1,31.6z"/>
	<path class="st1" d="M32.9,32.3c0-0.5,0.5-0.8,1-0.6c0.9,0.5,1.8,0.9,2.7,1.4c0.5,0.3,0.6,0.8,0.1,1.2c-0.5,0.4-1,0.9-1.4,1.3
		c-0.3,0.3-0.8,0.2-1-0.2c-0.3-0.5-0.5-1-0.7-1.6c-0.2-0.4-0.4-0.8-0.6-1.3C32.9,32.6,32.9,32.5,32.9,32.3z M35,34.6
		c0.2-0.2,0.5-0.4,0.7-0.6c0.1,0,0.1-0.1,0-0.1c-0.4-0.2-0.8-0.4-1.3-0.7c0.2,0.4,0.3,0.7,0.5,1.1C34.8,34.4,34.9,34.5,35,34.6z"/>
	<path class="st1" d="M25.8,32.6c0.5,0,1,0.4,1,0.9s-0.4,0.9-1,0.9c-0.5,0-0.9-0.4-0.9-0.9C24.8,33,25.3,32.6,25.8,32.6z"/>
	<path class="st1" d="M35.1,25.3c0.5,0,0.9,0.4,1,0.9c0,0.5-0.4,0.9-0.9,1c-0.5,0-1-0.4-1-0.9C34.2,25.8,34.6,25.3,35.1,25.3z"/>
	<path class="st1" d="M35.7,28.4c0.5,0,0.9,0.4,0.9,0.9s-0.4,0.9-1,0.9c-0.5,0-0.9-0.4-0.9-0.9C34.7,28.8,35.2,28.4,35.7,28.4z"/>
	<path class="st1" d="M24.3,31.4c0,0.5-0.4,1-1,0.9c-0.5,0-0.9-0.4-0.9-0.9s0.4-1,0.9-1C23.9,30.5,24.3,30.9,24.3,31.4z"/>
	<path class="st1" d="M29.2,33.3c0.5,0,1,0.4,0.9,0.9c0,0.5-0.4,0.9-1,0.9c-0.5,0-0.9-0.4-0.9-0.9S28.7,33.3,29.2,33.3z"/>
	<path class="st1" d="M21.4,28.5c0-0.5,0.4-1,0.9-0.9c0.5,0,0.9,0.4,0.9,0.9s-0.4,0.9-1,0.9C21.9,29.4,21.4,29,21.4,28.5z"/>
	<path class="st1" d="M22.5,25.5c0-0.5,0.4-0.9,0.9-0.9s0.9,0.4,0.9,0.9s-0.4,0.9-0.9,0.9S22.5,26,22.5,25.5z"/>
	<path class="st1" d="M26.2,22.5c0.5,0,1,0.4,1,1c0,0.5-0.4,0.9-1,0.9c-0.5,0-0.9-0.4-0.9-1C25.3,22.9,25.7,22.5,26.2,22.5z"/>
	<path class="st1" d="M29.6,23.9c-0.5,0-0.9-0.4-0.9-0.9s0.4-0.9,0.9-1c0.5,0,0.9,0.4,0.9,0.9C30.6,23.4,30.1,23.9,29.6,23.9z"/>
	<path class="st1" d="M32.9,22.4c0.1-0.2,0.3-0.2,0.5-0.2c1.2-0.2,2,0.7,2,1.7c-0.1-0.1-0.3-0.2-0.4-0.3c0.1-0.1,0-0.2,0-0.2
		c-0.3-0.6-0.8-0.8-1.5-0.7C33.2,22.6,33,22.5,32.9,22.4z"/>
	<path class="st1" d="M32.6,23c0.2-0.1,0.4-0.1,0.6,0c0,0.1-0.1,0.1-0.2,0.2c-0.3,0.2-0.3,0.5-0.3,0.8c0.1,0.3,0.3,0.5,0.6,0.5
		c0.1,0,0.1,0,0.2,0.1c-0.2,0.1-0.4,0.2-0.7,0.2v-0.1c-0.3-0.3-0.4-0.6-0.4-1C32.4,23.5,32.6,23.3,32.6,23z"/>
	<path class="st1" d="M33.5,24.7c0-0.1-0.1-0.1-0.2-0.1c-0.3,0-0.5-0.2-0.6-0.5s0-0.6,0.3-0.8c0.1-0.1,0.2-0.1,0.2-0.2
		c0.2,0.1,0.3,0.2,0.4,0.3c-0.1,0-0.2,0.1-0.3,0.1c-0.3,0.2-0.3,0.6-0.1,0.8c0.1,0.1,0.2,0.1,0.3,0.1s0.1-0.1,0.1-0.2
		c0-0.2,0-0.3,0.2-0.2C33.9,24.2,33.8,24.5,33.5,24.7z"/>
	<path class="st1" d="M32.6,23c-0.1,0.2-0.2,0.4-0.2,0.7c0,0.4,0.1,0.7,0.4,1v0.1c-0.3,0-0.7-0.2-0.8-0.5c-0.2-0.4-0.1-0.8,0.2-1.1
		C32.4,23.2,32.5,23.1,32.6,23z"/>
	<path class="st1" d="M20.4,37.9c0,0.1,0,0.2,0,0.3c0,0.3-0.3,0.6-0.6,0.7c-0.4,0.1-0.8,0-1-0.3c0.2,0.1,0.4,0,0.7,0
		c0.1,0,0.1-0.1,0.2-0.1C19.8,38.2,20,38,20.4,37.9z"/>
	<path class="st1" d="M33.8,23.9c-0.2,0-0.3,0.1-0.2,0.2c0,0.1,0.1,0.2-0.1,0.2c-0.1,0-0.2,0-0.3-0.1C33,24,33,23.6,33.3,23.4
		c0.1,0,0.2-0.1,0.3-0.1C33.8,23.5,33.8,23.7,33.8,23.9z"/>
	<path class="st1" d="M33.4,22.7c0.6-0.1,1.2,0.2,1.5,0.7c0,0.1,0.1,0.1,0,0.2C34.4,23.3,33.9,23,33.4,22.7z"/>
	<path class="st1" d="M18.5,24.9c-0.1-0.3-0.1-0.4,0.2-0.4C18.7,24.7,18.7,24.8,18.5,24.9z"/>
	<path class="st1" d="M19.2,10.3c-0.1-0.2-0.1-0.5,0.1-0.7c0.2-0.1,0.4-0.1,0.7,0c0.2,0.1,0.3,0.3,0.4,0.4c-0.1,0.1-0.2,0.1-0.3,0.1
		l0,0H20c0-0.1-0.1-0.1-0.2-0.1c-0.1,0-0.1,0.1-0.1,0.2C19.5,10.2,19.4,10.3,19.2,10.3z"/>
	<path class="st1" d="M19.7,10.2c0-0.1,0-0.2,0.1-0.2s0.2,0,0.2,0.1C19.9,10.2,19.8,10.2,19.7,10.2z"/>
	<path class="st1" d="M20.1,10.1L20.1,10.1L20.1,10.1z"/>
	<path class="st4" d="M35,34.6c-0.1-0.1-0.1-0.2-0.2-0.3c-0.2-0.3-0.3-0.7-0.5-1.1c0.5,0.2,0.9,0.5,1.3,0.7c0.1,0,0.1,0.1,0,0.1
		C35.4,34.2,35.2,34.4,35,34.6z"/>
</g>
<g id="Calque_2_1_" class="st0">
	<g class="st5">
		<path class="st6" d="M45.2,15.8c0-0.1,0-0.2,0-0.3v-0.1h-0.1h0.1c0-0.3,0-0.5,0-0.8s0-0.5,0-0.8c-0.3-1.3-1.2-2-2.6-2
			c-5.5,0-11,0-16.5,0c-0.1,0-0.1,0-0.2,0c-0.1,0-0.1,0-0.1-0.1c0-0.3,0-0.5,0-0.8c0-1.5-1.2-2.8-2.8-2.8c-1.1,0-2.2,0-3.3,0
			c-1.3,0-2.5,1-2.7,2.3c-0.1,0.4,0,0.8,0,1.2c0,0.2,0,0.2-0.2,0.2C16,11.9,15.4,12.3,15,13c0,0,0,0,0,0.1c-0.3,0.5-0.3,1-0.3,1.5
			c0,0.1,0,0.2,0,0.3c0,0.2,0,0.4,0,0.6c0,0.1,0,0.1,0,0.2c0,0.1,0,0.1,0,0.2c-0.1,0.1,0,0.2,0,0.3s0,0.2,0,0.2c0,1.9,0,3.8,0,5.7
			c0,0.2,0,0.3-0.2,0.3s-0.3,0.1-0.5,0.1c-1.2,0.5-2,1.7-2,3c0,2.6,0,5.3,0,7.9c0,0.4,0,0.7,0,1.1c0,0.5,0,0.9,0.1,1.4
			c0.5,2.1,2.3,3.7,4.5,3.9c2,0.2,4.1-1,4.9-3c0.1-0.2,0.2-0.2,0.4-0.2c6.9,0,13.8,0,20.7,0c0.3,0,0.6,0,0.9-0.1
			c0.8-0.3,1.4-0.8,1.6-1.6l0.1-0.1c0-0.1,0.1-0.2,0-0.3l0,0c0.1-0.3,0-0.6,0.1-0.9c0-0.2,0-0.5,0-0.7c0-5.6,0-11.3,0-16.9
			C45.2,15.9,45.2,15.9,45.2,15.8z M25.5,15.9c0,0.1-0.1,0.1-0.2,0.1C25.3,16,25.4,15.9,25.5,15.9z M25.3,15.5c0.1,0,0.2,0,0.2,0.1
			l0,0l0,0c0,0.1,0,0.2,0,0.2c0-0.1,0-0.1,0-0.2S25.4,15.5,25.3,15.5z M25.5,15.5L25.5,15.5L25.5,15.5L25.5,15.5z M18,22.3
			c0-3.8,0-7.6,0-11.4c0-1,0.6-1.8,1.6-1.9c1.3-0.1,2.5-0.1,3.8,0c0.9,0.1,1.5,0.9,1.5,1.8c0,6.2,0,12.5,0,18.7c0,1-0.8,1.8-1.8,1.8
			c-1.1,0-2.2,0-3.3,0c-1,0-1.8-0.8-1.8-1.9c0-1.4,0-2.8,0-4.2c0-0.1,0-0.2,0-0.3c0-0.2,0-0.3,0-0.5c0.1-0.1,0-0.2,0-0.3
			c0-0.2,0-0.4,0-0.5c0.1-0.3,0.1-0.7,0-1C18,22.5,18,22.4,18,22.3z M17.5,25.4L17.5,25.4C17.5,25.4,17.5,25.4,17.5,25.4
			s0.1-0.1,0-0.3c-0.1,0-0.2-0.1-0.3-0.1c0.1,0,0.2,0.1,0.3,0.1l0,0l0,0C17.6,25.2,17.6,25.3,17.5,25.4z M17.6,25L17.6,25L17.6,25
			L17.6,25z M20.4,36.8c-0.8,1.4-2.5,2.2-4,2c-1.7-0.3-3.1-1.5-3.4-3.2c-0.1-0.5-0.1-0.9-0.1-1.4c0-0.1,0-0.2,0-0.3
			c0.1-0.1,0-0.2,0-0.3c0-0.2,0-0.5,0-0.7c0-0.1,0-0.2,0-0.4c0-2.3,0-4.6,0-6.9c0-1.1,0.6-1.9,1.6-2.2c0.2-0.1,0.2,0,0.2,0.2
			c0,2.9,0,5.9,0,8.8c0,0.1,0,0.2,0,0.3c0.1,0,0.1,0,0.1,0.1c0,0-0.1,0-0.1-0.1c0,0.1,0,0.2,0,0.3c0,0.2,0,0.4,0,0.5
			c0,0,0.1,0,0.1,0.1c0,0-0.1,0-0.1-0.1c0,0.1,0,0.2,0,0.3c-0.1,0.2,0,0.4,0,0.6c0,0.1,0,0.1,0,0.1c0,0.1,0,0.2,0.1,0.3
			c0,0.1,0,0.2,0.1,0.2c0.3,0.9,1.2,1.5,2.2,1.5c1.1,0,2.1,0,3.2,0C20.5,36.5,20.5,36.6,20.4,36.8z M20.9,35.4
			c0,0.1-0.1,0.2-0.2,0.2c-1.2,0-2.4,0-3.6,0c-0.6,0-1-0.4-1.3-0.8v-0.1c0-0.1,0-0.1-0.1-0.2c-0.1-0.3,0-0.6-0.1-1
			c0,0-0.1,0-0.1-0.1c0,0,0.1,0,0.1,0.1c0-0.3,0-0.5,0-0.8c0-0.1,0-0.2,0-0.3c0-5.5,0-11,0-16.5c0-0.1,0-0.3,0-0.4
			c0-0.3,0-0.6,0-0.9s0-0.5,0.1-0.8c0.2-0.5,0.5-0.8,1.1-1c0.2-0.1,0.2,0,0.2,0.2c0,3.1,0,6.3,0,9.4v0.1c0,0.2,0,0.3,0,0.5v0.1
			c0,0.4,0,0.9,0,1.3l0,0c0,0.1,0,0.2,0,0.4l0,0c0,0.2-0.1,0.4,0,0.7c0,1.4,0,2.8,0,4.1c0,1.2,0.8,2.2,2,2.6
			c0.2,0.1,0.3,0.1,0.3,0.4c0,0.5,0.1,1,0.6,1.3c0.3,0.2,0.6,0.2,0.9,0.2c0.2,0,0.3,0,0.2,0.2C20.9,34.6,21,35,20.9,35.4z
			 M44.2,34.6c-0.2,0.6-0.7,0.9-1.3,1c-0.1,0-0.2,0-0.3,0c-6.8,0-13.6,0-20.5,0c-0.3,0-0.3,0-0.3-0.3c0-0.4,0-0.7,0-1.1
			c0-0.1,0-0.2,0.2-0.2c1.2,0,1.5-0.4,1.5-1.5c0-0.2,0-0.2,0.2-0.3c1.2-0.4,2-1.4,2-2.7c0-4.5,0-8.9,0-13.4c0-0.1,0.1-0.2,0-0.3
			c0.1-0.3,0-0.6,0-0.9c0-0.1,0-0.3,0-0.4c0-0.2,0-0.3,0-0.5c0-0.3,0-0.6,0-0.9s0-0.3,0.4-0.3c5.5,0,10.9,0,16.4,0
			c0.7,0,1.2,0.3,1.5,0.9c0,0.1,0.1,0.3,0.1,0.4c0-0.1,0.1-0.1,0.2-0.1c-0.1,0-0.1,0.1-0.2,0.1c0,0.2,0,0.3,0,0.5h0.1h-0.1
			c0,0.1,0,0.3,0,0.4c0,0.2-0.1,0.4,0.1,0.6l0,0c-0.1,0.2-0.1,0.4-0.1,0.6c0,5.4,0,10.7,0,16.1c0,0.1,0,0.2,0,0.3s0,0.3,0,0.4l0,0
			c-0.1,0.2,0,0.4,0,0.5c0,0.1,0,0.3,0,0.4C44.2,34.1,44.3,34.4,44.2,34.6z"/>
		<path class="st6" d="M31.3,18.9c3,0,6,0,9,0c0.6,0,1.2,0,1.9,0c0.6,0,1.1-0.5,1.1-1.1c0-0.7,0-1.3,0-2c0-0.2,0-0.3,0-0.5
			c0-0.5-0.2-0.8-0.6-1c-0.1-0.1-0.2-0.1-0.4-0.1c-0.4,0-0.7,0-1.1,0c-0.1,0-0.3,0-0.4,0c-0.3,0-0.7,0-1,0c-2.7,0-5.3,0-8,0
			c-0.3,0-0.6-0.1-0.8,0c-0.1,0-0.2,0-0.3,0.1c-0.2,0.1-0.4,0.2-0.4,0.5c-0.1,0.1-0.1,0.3-0.1,0.4c0,0.8,0,1.6,0,2.4
			C30.1,18.5,30.6,18.9,31.3,18.9z M42.2,15.3c0.1,0,0.1,0,0.2,0C42.3,15.3,42.3,15.3,42.2,15.3s-0.2,0-0.2,0
			C42.1,15.3,42.1,15.3,42.2,15.3z"/>
		<path class="st6" d="M42.8,20.7c0.3,0,0.5-0.3,0.4-0.6c-0.1-0.2-0.3-0.4-0.6-0.4c-2.9,0-5.9,0-8.8,0c-0.9,0-1.9,0-2.8,0
			c-0.1,0-0.3,0-0.4,0.1c-0.2,0.1-0.2,0.3-0.2,0.5c0.1,0.2,0.3,0.3,0.5,0.3c1.9,0,3.9,0,5.8,0c1.8,0,3.7,0,5.5,0
			C42.5,20.7,42.6,20.7,42.8,20.7z"/>
		<path class="st6" d="M37.5,31.4c-0.6,0-1.1,0-1.7,0c-0.7,0-1.2,0.6-1.2,1.4c0,0.7,0.5,1.2,1.2,1.3c0.3,0,0.5,0,0.8,0s0.5,0,0.8,0
			c0.7,0,1.2-0.5,1.2-1.2C38.7,32,38.3,31.4,37.5,31.4z"/>
		<path class="st6" d="M40.5,30.7c0.3,0,0.5,0,0.8,0s0.5,0,0.8,0c0.7,0,1.2-0.5,1.2-1.2c0-0.8-0.4-1.4-1.1-1.5c-0.6,0-1.2,0-1.8,0
			c-0.7,0-1.1,0.6-1.1,1.4C39.3,30.2,39.8,30.7,40.5,30.7z M41.2,29c0.1,0,0.2,0,0.4,0C41.5,29,41.3,29,41.2,29c-0.2,0-0.5,0-0.7,0
			C40.8,29,41,29,41.2,29z"/>
		<path class="st6" d="M35.9,30.7c0.2,0,0.5,0,0.7,0s0.5,0,0.7,0c0.7,0,1.2-0.5,1.3-1.2c0-0.8-0.4-1.4-1.2-1.4c-0.5,0-1.1,0-1.6,0
			c-0.7,0-1.2,0.6-1.2,1.4C34.7,30.2,35.2,30.7,35.9,30.7z M36.7,29c0.2,0,0.5,0,0.7,0C37.2,29,36.9,29,36.7,29s-0.5,0-0.7,0
			C36.2,29,36.4,29,36.7,29z"/>
		<path class="st6" d="M31.3,30.7c0.3,0,0.5,0,0.8,0c0.2,0,0.5,0,0.7,0c0.8,0,1.3-0.5,1.3-1.3s-0.5-1.3-1.3-1.3c-0.4,0-0.9,0-1.3,0
			c-0.9,0-1.5,0.6-1.4,1.5C30.2,30.2,30.7,30.7,31.3,30.7z M32.2,29c0.2,0,0.5,0,0.7,0C32.6,29,32.4,29,32.2,29s-0.5,0-0.7,0
			C31.7,29,31.9,29,32.2,29z"/>
		<path class="st6" d="M40.2,27.4c0.2,0,0.4,0,0.6,0c0.4,0,0.9,0,1.3,0c0.7-0.1,1.1-0.6,1-1.4c0-0.6-0.5-1.2-1.1-1.2
			c-0.5,0-0.9,0-1.4,0c-0.4,0-0.8,0.1-1.1,0.3c0,0-0.1,0-0.1,0.1c0,0-0.1,0,0,0.1l0,0c-0.1,0-0.1,0.1-0.1,0.2
			C39.1,26.1,39.3,27.2,40.2,27.4z M41.2,25.7c0.2,0,0.5,0,0.7,0C41.7,25.7,41.5,25.7,41.2,25.7c-0.2,0-0.5,0-0.7,0
			C40.8,25.7,41,25.7,41.2,25.7z"/>
		<path class="st6" d="M31.3,24.1c0.5,0,1,0,1.6,0c0.1,0,0.3,0,0.4,0c0.3-0.1,0.5-0.2,0.6-0.4c0.1-0.1,0.2-0.2,0.2-0.3
			c0.1-0.1,0.1-0.3,0.1-0.4s0-0.2,0-0.3c-0.1-0.6-0.5-1.1-1.2-1.1c-0.5,0-1.1,0-1.6,0c-0.1,0-0.2,0-0.3,0c-0.6,0.2-1,0.7-0.9,1.5
			C30.2,23.6,30.7,24.1,31.3,24.1z"/>
		<path class="st6" d="M33,31.4c-0.5,0-1.1,0-1.6,0c-0.6,0-1.1,0.5-1.2,1.1c0,0.1,0,0.2,0,0.4s0.1,0.4,0.2,0.6
			c0.1,0.1,0.2,0.3,0.3,0.3c0.2,0.1,0.4,0.2,0.7,0.2c0.5,0,1,0,1.6,0c0.7,0,1.2-0.5,1.2-1.2C34.1,31.9,33.7,31.4,33,31.4z"/>
		<path class="st6" d="M42.1,31.4c-0.5,0-1.1,0-1.6,0c-0.7,0-1.2,0.6-1.2,1.4c0,0.7,0.5,1.2,1.2,1.2c0.5,0,1,0,1.6,0
			c0.4,0,0.8-0.2,1-0.5c0.3-0.4,0.3-0.9,0.1-1.3C42.9,31.6,42.6,31.4,42.1,31.4z M40.8,32.3L40.8,32.3c-0.1,0-0.2,0-0.3,0
			C40.6,32.3,40.7,32.3,40.8,32.3z"/>
		<path class="st6" d="M35.9,21.4c-0.2,0-0.4,0.1-0.6,0.2c-0.5,0.3-0.7,0.8-0.6,1.5c0.1,0.4,0.3,0.6,0.6,0.8
			c0.2,0.1,0.3,0.1,0.5,0.1c0.1,0,0.3,0,0.4,0c0.2,0,0.4,0,0.6,0c0.1,0.1,0.3,0,0.4,0h0.1c0.1,0,0.3,0,0.4-0.1
			c0.3,0,0.5-0.2,0.6-0.4c0.1-0.1,0.2-0.2,0.2-0.4c0-0.1,0-0.1,0-0.2c0.2-0.8-0.4-1.6-1.2-1.6C36.9,21.4,36.4,21.4,35.9,21.4z
			 M35.8,23.1c-0.1,0-0.1,0-0.2,0C35.7,23.1,35.7,23.1,35.8,23.1L35.8,23.1z M35.6,23.1L35.6,23.1C35.6,23.1,35.6,23.1,35.6,23.1z
			 M35.4,23.1L35.4,23.1L35.4,23.1z"/>
		<path class="st6" d="M39.6,23.7c0.2,0.3,0.5,0.4,0.9,0.4c0.5,0,1,0,1.5,0c0.7,0,1.3-0.5,1.3-1.3c0-0.8-0.5-1.3-1.2-1.3
			c-0.5,0-1,0-1.5,0c-0.2,0-0.4,0-0.6,0.1c-0.6,0.3-0.9,1.1-0.6,1.8C39.4,23.5,39.4,23.6,39.6,23.7z"/>
		<path class="st6" d="M33.5,24.9c-0.2-0.1-0.4-0.2-0.7-0.2c-0.4,0-0.9,0-1.3,0c-0.9,0-1.4,0.6-1.3,1.5c0.1,0.7,0.6,1.1,1.2,1.1
			c0.5,0,1,0,1.6,0c0.1,0,0.2,0,0.2,0c1.1-0.2,1.2-1.5,0.7-2.1C33.8,25.1,33.7,25,33.5,24.9z M33.5,25C33.4,25,33.4,25,33.5,25
			C33.4,25.1,33.4,25.1,33.5,25C33.4,25,33.4,25,33.5,25z"/>
		<path class="st6" d="M38.1,24.9c-0.2-0.1-0.4-0.2-0.7-0.2c-0.5,0-0.9,0-1.4,0c-0.2,0-0.3,0-0.5,0.1c-0.1,0-0.1,0-0.1,0
			c-0.2,0.1-0.4,0.2-0.5,0.4l0,0c-0.3,0.4-0.3,0.9-0.1,1.3c0.2,0.5,0.5,0.7,1,0.7c0.2,0,0.4,0,0.5,0c0.3,0,0.7,0,1,0
			c0.6,0,1-0.2,1.2-0.7s0.2-1.1-0.2-1.5C38.3,25,38.2,25,38.1,24.9z"/>
		<path class="st6" d="M19.3,27.4c1.4,0,2.9,0,4.3,0c0.2,0,0.3-0.1,0.4-0.2c0.2-0.3,0-0.7-0.4-0.7c-0.7,0-1.4,0-2.1,0l0,0
			c-0.7,0-1.4,0-2.1,0c-0.3,0-0.5,0.2-0.5,0.5C18.8,27.2,19,27.4,19.3,27.4z"/>
		<path class="st6" d="M19.3,29.6c1.4,0,2.8,0,4.2,0c0.1,0,0.2,0,0.2,0c0.2-0.1,0.3-0.3,0.3-0.5c0-0.3-0.2-0.5-0.4-0.5
			c-0.7,0-1.4,0-2.1,0c-0.7,0-1.4,0-2.1,0c-0.3,0-0.5,0.2-0.5,0.5C18.8,29.4,19,29.6,19.3,29.6z"/>
	</g>
</g>
<g id="Calque_3" class="st0">
	<path class="st1" d="M20.3,18.8c0-0.1,0-0.2-0.1-0.4c0,0,0,0,0-0.1c-0.1-0.1,0-0.3,0-0.4c0-0.3-0.1-0.5-0.1-0.8l0,0c0,0,0,0,0-0.1
		c0,0,0,0,0-0.1s0-0.1,0-0.2c0,0,0,0,0-0.1c0-0.9,0.1-1.8,0.4-2.6c0.6-2.3,1.8-4,3.9-5.2c1.2-0.7,2.6-1.1,4-1.2c0.3,0,0.6,0,0.8,0
		l0,0c0.1,0,0.1,0,0.2,0c0,0,0,0,0.1,0c0.4,0,0.8,0.1,1.2,0.1c0.1,0,0.2,0,0.2,0c0.1,0,0.3,0.1,0.4,0.1h0.1l0,0c0,0,0,0,0.1,0
		c1.2,0.3,2.3,0.8,3.3,1.6c0.8,0.6,1.5,1.4,2,2.3c0.6,1.1,1,2.3,1.2,3.6c0.1,0.6,0.1,1.3,0.1,1.9c0,0.7-0.2,1.4-0.4,2.1
		c-0.5,1.5-1.2,2.8-2.1,4c-0.8,1.1-1.6,2.4-2,3.7c-0.3,0.8-0.5,1.5-0.4,2.4c0,0.1,0,0.2-0.2,0.2c-0.8,0-1.5,0-2.3,0
		c-1.8,0-3.6,0-5.4,0c-0.1,0-0.2,0-0.1-0.1c0-1.2-0.3-2.3-0.8-3.3c-0.5-1.1-1.2-2.1-1.9-3.1c-0.8-1.2-1.5-2.4-1.9-3.8c0,0,0,0,0-0.1
		C20.4,19.2,20.4,19,20.3,18.8z M31.1,29.2c0.3,0,0.7,0,1,0h0.1c0.1,0,0.2,0.1,0.2-0.1c0-0.7,0.2-1.5,0.5-2.2c0.5-1.3,1.2-2.5,2-3.6
		c0.9-1.2,1.6-2.5,2.1-3.9c0.3-0.8,0.4-1.6,0.4-2.5c0-0.6-0.1-1.2-0.2-1.8c-0.2-1-0.5-2-1-2.9c-0.7-1.2-1.6-2.1-2.8-2.7
		c-0.6-0.3-1.2-0.6-1.9-0.8c-0.2,0-0.4-0.1-0.6-0.1c-0.3-0.1-0.7-0.1-1-0.1c-0.2,0-0.4,0-0.5,0c-1.1,0-2.2,0.2-3.2,0.5
		c-1.2,0.4-2.3,1-3.1,1.9c-0.9,0.7-1.4,1.6-1.8,2.7c-0.3,0.9-0.5,1.8-0.5,2.7c0,0.5-0.1,0.9,0,1.4c0.1,1,0.4,1.9,0.8,2.9
		c0.4,0.9,0.8,1.7,1.4,2.4c0.7,1,1.4,2,1.9,3s0.8,2,0.9,3c0,0.1,0,0.1,0.1,0.1c1.1,0,2.1,0,3.2,0C29.7,29.2,30.4,29.2,31.1,29.2
		L31.1,29.2z"/>
	<path class="st1" d="M29.1,37.3c-1,0-2.1,0-3.1,0c-0.5,0-0.9-0.2-1.1-0.7c-0.2-0.4-0.2-0.8,0.1-1.2c0.2-0.3,0.6-0.4,0.9-0.4
		c0.7,0,1.4,0,2.2,0c1.4,0,2.7,0,4.1,0c0.6,0,1.1,0.4,1.2,1c0.1,0.6-0.4,1.2-1.1,1.2C31.2,37.3,30.2,37.3,29.1,37.3L29.1,37.3z
		 M29.1,36.7c1,0,2,0,3.1,0c0.1,0,0.2,0,0.3,0c0.2-0.1,0.4-0.3,0.3-0.6c0-0.3-0.3-0.5-0.5-0.5c-1,0-2,0-2.9,0c-1.1,0-2.2,0-3.3,0
		c-0.2,0-0.3,0-0.4,0.2c-0.1,0.2-0.2,0.4-0.1,0.6c0.1,0.2,0.3,0.3,0.5,0.3C27,36.6,28,36.7,29.1,36.7z"/>
	<path class="st1" d="M29.1,32.3c-1.1,0-2.2,0-3.3,0c-0.3,0-0.5-0.2-0.7-0.4c-0.3-0.3-0.4-0.8-0.2-1.2c0.2-0.5,0.6-0.7,1.1-0.7
		c1.1,0,2.2,0,3.3,0c1,0,2,0,2.9,0c0.6,0,1.1,0.4,1.2,1c0.1,0.5-0.2,1-0.7,1.2c-0.1,0.1-0.3,0.1-0.4,0.1
		C31.2,32.3,30.1,32.3,29.1,32.3L29.1,32.3z M32.6,30.8c-0.1-0.2-0.3-0.2-0.4-0.2c-0.9,0-1.8,0-2.7,0c-1.2,0-2.3,0-3.5,0
		c-0.2,0-0.3,0-0.4,0.2c-0.2,0.2-0.2,0.5,0,0.7c0.1,0.1,0.3,0.2,0.5,0.2c1.9,0,3.9,0,5.8,0c0.2,0,0.3,0,0.5,0s0.4-0.1,0.4-0.3
		C32.8,31.1,32.8,31,32.6,30.8L32.6,30.8z"/>
	<path class="st1" d="M32.8,32.6c0.3,0.2,0.5,0.5,0.6,0.9c0.1,0.7-0.4,1.3-1.1,1.3c-1,0-2.1,0-3.1,0c-1.1,0-2.1,0-3.2,0
		c-0.8,0-1.3-0.7-1.1-1.5c0.1-0.4,0.5-0.7,0.9-0.8c0.1,0,0.2,0,0.3,0c2,0,4,0,6.1,0C32.3,32.5,32.6,32.5,32.8,32.6z M29.1,33.1
		c-1,0-2.1,0-3.1,0c-0.3,0-0.6,0.2-0.6,0.5s0.3,0.6,0.6,0.6c2.1,0,4.1,0,6.2,0c0.1,0,0.1,0,0.2,0c0.3-0.1,0.5-0.3,0.4-0.6
		c0-0.3-0.2-0.5-0.5-0.5C31.2,33.1,30.1,33.1,29.1,33.1z"/>
	<path class="st1" d="M30.9,39.7L30.9,39.7c-0.1,0-0.2,0-0.3,0.1c-1,0-2,0-3,0c-0.5,0-1-0.4-1.1-0.9s0.1-1,0.6-1.3
		c0.2-0.1,0.3-0.1,0.5-0.1c0.9,0,1.9,0,2.8,0c0.7,0,1.2,0.5,1.2,1.2v0.1c0,0.1,0,0.1-0.1,0.2c0,0,0,0.1-0.1,0.1
		c0,0.1-0.1,0.1-0.1,0.2l0,0c0,0,0,0-0.1,0.1C31.2,39.5,31.1,39.6,30.9,39.7C31,39.6,31,39.7,30.9,39.7z M29.1,39.1L29.1,39.1
		c0.5,0,0.9,0,1.4,0c0.3,0,0.6-0.2,0.6-0.5S30.9,38,30.5,38c-0.9,0-1.8,0-2.8,0c-0.3,0-0.6,0.2-0.6,0.5s0.2,0.5,0.6,0.5
		C28.2,39.1,28.6,39.1,29.1,39.1z"/>
	<path class="st1" d="M25.6,17.6c0-0.2,0.1-0.3,0.3-0.3s0.3,0.1,0.3,0.3c0.1,0.7,0.3,1.3,0.4,2c0.2,1,0.4,1.9,0.6,2.9
		c0.4,1.9,0.7,3.8,1.1,5.6c0,0.1,0,0.2,0.1,0.3c0,0.2-0.1,0.3-0.2,0.4c-0.2,0-0.3-0.1-0.4-0.3c-0.2-1-0.4-1.9-0.6-2.9
		c-0.3-1.4-0.5-2.7-0.8-4.1C26.1,20.2,25.9,19,25.6,17.6C25.6,17.7,25.6,17.7,25.6,17.6z"/>
	<path class="st1" d="M30.5,28.2c0,0.2-0.1,0.3-0.1,0.5c0,0-0.1,0-0.1,0.1c-0.3,0.1-0.5-0.1-0.4-0.4c0.3-1.3,0.5-2.7,0.8-4
		c0.3-1.6,0.6-3.2,0.9-4.7c0.1-0.6,0.2-1.1,0.3-1.7c0.1-0.1,0-0.3,0.1-0.4c0,0,0.1,0,0.1-0.1c0.1-0.1,0.2-0.1,0.3,0s0.2,0.2,0.1,0.4
		c-0.3,1.6-0.6,3.2-1,4.8c-0.3,1.7-0.7,3.4-1,5.1v0.1l0,0c0,0,0,0,0,0.1L30.5,28.2C30.5,28.1,30.5,28.1,30.5,28.2L30.5,28.2z"/>
	<path class="st1" d="M26,30.7C26,30.8,26,30.8,26,30.7C26,30.8,26,30.8,26,30.7L26,30.7L26,30.7z"/>
	<path class="st1" d="M17.3,20.2H7.4c-0.3,0-0.6-0.3-0.6-0.6l0,0c0-0.3,0.3-0.6,0.6-0.6h9.9c0.3,0,0.6,0.3,0.6,0.6l0,0
		C17.9,20,17.6,20.2,17.3,20.2z"/>
	<path class="st1" d="M50.7,20.2h-9.9c-0.3,0-0.6-0.3-0.6-0.6l0,0c0-0.3,0.3-0.6,0.6-0.6h9.9c0.3,0,0.6,0.3,0.6,0.6l0,0
		C51.3,20,51,20.2,50.7,20.2z"/>
	<path class="st1" d="M17.7,16.2l-7-7c-0.2-0.2-0.2-0.6,0-0.8l0,0c0.2-0.2,0.6-0.2,0.8,0l7,7c0.2,0.2,0.2,0.6,0,0.8l0,0
		C18.3,16.4,17.9,16.4,17.7,16.2z"/>
	<path class="st1" d="M40.4,16.2l7-7c0.2-0.2,0.2-0.6,0-0.8l0,0c-0.2-0.2-0.6-0.2-0.8,0l-7,7c-0.2,0.2-0.2,0.6,0,0.8l0,0
		C39.8,16.4,40.2,16.4,40.4,16.2z"/>
	<path class="st1" d="M18.7,22.4l-7,7c-0.2,0.2-0.2,0.6,0,0.8l0,0c0.2,0.2,0.6,0.2,0.8,0l7-7c0.2-0.2,0.2-0.6,0-0.8l0,0
		C19.3,22.2,18.9,22.2,18.7,22.4z"/>
	<path class="st1" d="M39.4,22.4l7,7c0.2,0.2,0.2,0.6,0,0.8l0,0c-0.2,0.2-0.6,0.2-0.8,0l-7-7c-0.2-0.2-0.2-0.6,0-0.8l0,0
		C38.8,22.2,39.2,22.2,39.4,22.4z"/>
</g>
<g id="Calque_4" class="st0">
	<path class="st1" d="M11,20.3c0.7,0,1.5,0,2.2,0c0.2,0,0.3,0,0.3-0.2c0.1-0.3,0.3-0.7,0.5-1c0.4-0.9,1-1.6,1.7-2.3
		c2-1.8,4.3-2.7,6.9-2.5c2.3,0.1,4.3,0.9,6,2.5c0.1,0.1,0.2,0.1,0.3,0c1.3-1.2,2.7-2,4.4-2.3c3-0.6,5.8,0,8.2,2
		c1.1,0.9,2,2.1,2.5,3.5c0.1,0.2,0.2,0.3,0.4,0.3c0.9,0,1.8,0,2.7,0c0.5,0,0.6,0.2,0.6,0.6c0,1.3,0,2.5,0,3.8c0,0.3-0.2,0.5-0.5,0.5
		c-1,0-2,0-3,0c-0.1,0-0.2,0-0.3,0.2c-0.9,2.5-2.6,4.1-5,5.1c-1.3,0.6-2.7,0.8-4.2,0.7c-2.3-0.2-4.3-0.9-5.9-2.5
		c-0.1-0.1-0.1-0.1-0.2,0c-2.1,1.9-4.6,2.7-7.4,2.5c-1-0.1-1.9-0.3-2.8-0.7c-2.2-1-3.9-2.6-4.8-4.9c-0.2-0.4-0.1-0.4-0.6-0.4
		c-1.3,0-2.5,0-3.8,0c-0.2,0-0.3,0-0.5,0c-0.3,0-0.5-0.2-0.5-0.5s0-0.5,0-0.8c0-1,0-1.9,0-2.9v-0.1c0-0.5,0.2-0.7,0.7-0.7
		C9.6,20.3,10.3,20.3,11,20.3z M22.5,15.2c-1,0-1.8,0.1-2.5,0.3c-2.5,0.7-4.4,2.2-5.5,4.7c-1.1,2.7-0.4,5.7,1.7,7.9
		c1.5,1.4,3.2,2.2,5.2,2.4c2.5,0.2,4.7-0.6,6.5-2.3c0.1-0.1,0.1-0.2,0-0.3c-0.6-0.7-1-1.5-1.3-2.3c0-0.1,0-0.2-0.1-0.2
		s-0.2,0.1-0.3,0.2c-0.7,0.8-1.5,1.4-2.6,1.7c-2.1,0.6-4,0.2-5.5-1.4c-1.2-1.3-1.5-3.2-0.7-4.7c0.9-1.6,2.3-2.4,4.1-2.6
		c1.8-0.2,3.3,0.4,4.6,1.7c0.1,0.1,0.2,0.1,0.2,0c0.3-0.2,0.5-0.4,0.6-0.7c0.3-0.6,0.6-1.1,1-1.6c0.1-0.1,0.1-0.2,0-0.3
		C26.4,16,24.4,15.2,22.5,15.2z M41.3,20.3L41.3,20.3c0.5,0,1,0,1.5,0c0.2,0,0.2-0.1,0.1-0.2c-0.3-0.7-0.7-1.4-1.2-2
		c-1.5-1.7-3.4-2.7-5.7-2.9c-1.8-0.2-3.5,0.2-5.1,1.1c-1.4,0.8-2.4,1.9-3.1,3.4c-0.1,0.3-0.3,0.6-0.5,0.8c-0.1,0.1-0.1,0.2-0.1,0.3
		c0.1,0.3,0.2,0.7,0.3,1.1c0.1,0.3-0.1,0.5-0.3,0.6c-0.3,0.1-0.5-0.1-0.6-0.3c-0.1-0.2-0.1-0.5-0.2-0.7c0-0.2-0.1-0.3-0.3-0.2
		c-0.1,0-0.3,0-0.4,0c-0.5,0-1,0-1.6,0c-0.2,0-0.2,0-0.2,0.2c0.3,0.9,0.5,1.8,0.7,2.7c0,0.1,0.1,0.2,0.2,0.1c0.5,0,1,0,1.4,0
		c1.7-0.2,2.9-1,3.9-2.4c0.3-0.4,0.5-0.9,0.8-1.3c0.4-0.6,0.9-1.1,1.4-1.5c1.1-0.7,2.3-0.9,3.6-0.8c1.4,0.2,2.6,0.7,3.5,1.8
		c0.1,0.1,0.2,0.1,0.3,0.1C40.3,20.3,40.8,20.3,41.3,20.3z M30.4,23.2c-0.1,0-0.1,0.1-0.1,0.1c-0.7,0.8-1.5,1.3-2.5,1.6
		c-0.2,0.1-0.1,0.1-0.1,0.3c0.5,1.5,1.4,2.7,2.7,3.6c2.9,2.1,6.7,2.2,9.7,0.2c1.3-0.9,2.3-2,2.9-3.5c0-0.1,0.1-0.2-0.1-0.2
		c-1.1,0-2.1,0-3.2,0c-0.1,0-0.2,0-0.2,0.1c-0.9,1.1-2,1.7-3.4,1.9c-1.8,0.2-3.4-0.3-4.7-1.6C30.8,25,30.5,24.2,30.4,23.2z
		 M44.3,21.2L44.3,21.2c-0.8,0-1.6,0-2.4,0c-0.1,0-0.2,0-0.2,0.2c0.3,0.9,0.5,1.9,0.7,2.8c0,0.1,0.1,0.2,0.2,0.2c1.3,0,2.6,0,3.9,0
		c0.1,0,0.2,0,0.2-0.2c0-0.9,0-1.8,0-2.7c0-0.2,0-0.2-0.2-0.2C45.8,21.2,45.1,21.2,44.3,21.2z M33.2,24.3c0.4,0,0.9,0,1.3,0
		c0.1,0,0.2,0,0.2-0.2c-0.3-0.9-0.5-1.9-0.7-2.8c0-0.1-0.1-0.2-0.2-0.1c-0.6,0-1.2,0-1.8,0c-0.1,0-0.2,0-0.3,0.1
		c-0.2,0.3-0.3,0.6-0.5,0.8c-0.1,0.1-0.1,0.2,0,0.3c0.2,0.5,0.4,1.1,0.6,1.7c0,0.1,0.1,0.2,0.3,0.2S32.8,24.3,33.2,24.3z M23.8,24.3
		c-0.3-1-0.5-2-0.8-3c0-0.1-0.1-0.1-0.1-0.1c-0.8,0-1.6,0-2.4,0c0.3,1,0.5,2,0.8,3c0,0.1,0.1,0.1,0.1,0.1
		C22.2,24.3,23,24.3,23.8,24.3z M38.1,24.3c-0.3-1-0.5-2-0.8-3c0-0.1-0.1-0.1-0.2-0.1c-0.7,0-1.4,0-2.2,0c-0.2,0-0.2,0-0.1,0.2
		c0.2,0.7,0.4,1.5,0.6,2.2c0.1,0.2,0,0.5,0.2,0.6s0.5,0,0.7,0C36.9,24.3,37.5,24.3,38.1,24.3z M41.6,24.3c-0.3-1-0.5-2-0.8-3
		c0-0.1-0.1-0.1-0.2-0.1c-0.7,0-1.5,0-2.2,0c-0.1,0-0.2,0-0.1,0.2c0.3,0.9,0.5,1.9,0.7,2.8c0,0.1,0.1,0.1,0.2,0.1c0.6,0,1.3,0,1.9,0
		C41.3,24.3,41.4,24.3,41.6,24.3z M19.4,24.3c0.3,0,0.5,0,0.8,0c0.1,0,0.2,0,0.1-0.2c-0.3-0.9-0.5-1.9-0.7-2.8
		c0-0.1-0.1-0.1-0.2-0.1c-0.2,0-0.5,0-0.7,0s-0.2,0.1-0.3,0.2c-0.4,0.9-0.4,1.9,0,2.8c0,0.1,0.1,0.1,0.2,0.1
		C18.9,24.3,19.1,24.3,19.4,24.3z M9.2,22.8c0,0.4,0,0.9,0,1.3c0,0.1,0,0.2,0.2,0.2c0.5,0,1.1,0,1.6,0c0.1,0,0.2,0,0.1-0.2
		c-0.3-0.9-0.5-1.9-0.7-2.8c0-0.1-0.1-0.2-0.2-0.2c-0.3,0-0.5,0-0.8,0c-0.2,0-0.2,0.1-0.2,0.2C9.2,21.9,9.2,22.3,9.2,22.8z
		 M19.2,20.3c2,0,3.9,0,5.9,0C23.7,18.9,20.8,18.8,19.2,20.3z M12.3,21.2c-0.3,0-0.5,0-0.8,0c-0.1,0-0.2,0-0.1,0.2
		c0.3,0.9,0.5,1.9,0.7,2.8c0,0.1,0.1,0.1,0.2,0.1c0.3,0,0.6,0,0.9,0c0.1,0,0.1,0,0.1-0.1c-0.2-0.9-0.2-1.9,0-2.8
		c0-0.1,0-0.1-0.1-0.1C12.8,21.2,12.5,21.2,12.3,21.2z M32.5,20.3c1.9,0,3.9,0,5.8,0C36.6,18.7,33.7,19,32.5,20.3z M25.1,25.3
		c-0.3,0-5.7,0-5.8,0C20.9,26.7,23.6,26.6,25.1,25.3z M38.3,25.3c-2,0-3.9,0-5.8,0C34.1,26.7,36.8,26.7,38.3,25.3z"/>
</g>
<g id="Calque_5" class="st0">
	<path class="st1" d="M19.4,7.7C20.6,8,21.8,8.6,23,9c1.7,0.6,3.3,1.2,5,1.9c0.3,0.1,0.5,0.2,0.4,0.6c-0.1,0.3,0.1,0.4,0.4,0.4
		c0.3,0,0.5-0.1,0.5,0.3c0,0.2,0.2,0.2,0.3,0.2c2.5,0.2,4,1.7,4.9,3.9c0.5,1.2,0.6,2.4,0.7,3.6c0,0.3,0.1,0.5,0.4,0.7
		c0.5,0.3,0.8,0.9,1,1.4c0.6,1.5,0.8,3.1,1,4.7c0.2,1.9,0.3,3.9,0.3,5.8c0,0.8-0.3,1.1-1,1.2c-1.1,0.1-2.3,0.1-3.4,0
		c-0.8-0.1-1.1-0.4-1.1-1.3c0.1-2.7,0-5.4,0.4-8.1c0.1-0.8,0.3-1.7,0.5-2.5c0.1-0.4,0.3-0.8,0.6-1c0.4-0.3,0.5-0.7,0.4-1.1
		c-0.2-1.8-0.5-3.6-1.8-5c-0.7-0.8-1.6-1.2-2.7-1.3c-0.3,0-0.6,0-0.5,0.4c0.1,0.5-0.1,0.6-0.6,0.6c-0.2,0-0.4-0.1-0.4,0.2
		c0,0.2-0.1,0.5,0.3,0.6c2.3,0.9,3.3,2.5,3.3,5c0,5.6,0,11.1,0,16.7c0,0.3,0,0.7-0.1,1c-0.1,0.9-0.7,1.5-1.5,1.7c-0.3,0-0.7,0-1.1,0
		c-1.6,0.1-3.2,0.1-4.9,0c-1.7-0.1-2.4-0.9-2.4-2.6c0-5.8,0-11.5,0-17.3c0-2.2,1.1-3.7,3-4.5c0.4-0.2,0.5-0.3,0.5-0.7
		c0-1.2,0-1.2-1.2-1.2c-1.1,0-2.2,0-3.3,0c-0.4,0-0.5-0.1-0.5-0.5c0-0.4,0.1-0.5,0.5-0.5c1.1,0,2.2,0,3.3,0c0.1-0.1,0-0.1-0.1-0.2
		c-1.5-0.6-2.9-1.3-4.4-1.9c-0.1,0-0.2,0-0.3,0C19.4,9.4,19.4,8.5,19.4,7.7z M23,28.2c0,1.5,0,3,0,4.5c0,0.4,0.1,0.5,0.5,0.5
		c2.3,0,4.7,0,7,0c0.4,0,0.5-0.1,0.5-0.5c0-3,0-5.9,0-8.9c0-0.4-0.1-0.5-0.5-0.5c-2.3,0-4.7,0-7,0c-0.4,0-0.5,0.1-0.5,0.5
		C23,25.2,23,26.7,23,28.2z M26.9,22.3c1.2,0,2.4,0,3.5,0c0.2,0,0.5,0.1,0.5-0.2c0-1.2,0.2-2.5-0.2-3.7c-0.5-1.3-1.4-2-2.7-2.4
		c-0.4-0.1-0.7-0.3-0.6-0.8c0.1-0.5,0-1,0-1.5c0-0.4-0.2-0.3-0.5-0.3c-0.2,0-0.5-0.1-0.5,0.3c0,0.5,0,1,0,1.5
		c0.1,0.5-0.2,0.7-0.7,0.8C24,16.5,23,17.9,23,19.7c0,0.7,0,1.4,0,2c0,0.4,0.1,0.5,0.5,0.5C24.6,22.2,25.8,22.3,26.9,22.3z M27,38.7
		c0.9,0,1.8,0,2.7-0.1c1-0.1,1.3-0.5,1.3-1.4c0-0.9,0-1.7,0-2.6c0-0.3-0.1-0.4-0.4-0.4c-2.4,0-4.8,0-7.1,0c-0.3,0-0.4,0.1-0.4,0.4
		c0,0.9,0,1.8,0,2.7c0,0.9,0.3,1.3,1.3,1.4C25.2,38.7,26.1,38.7,27,38.7z M33.3,29.8c0,0.8,0,1.5,0,2.3c0,0.2,0,0.4,0.3,0.5
		c0.9,0.1,1.9,0.1,2.8,0c0.3,0,0.4-0.1,0.4-0.4c0-2.9-0.1-5.7-0.7-8.5c-0.1-0.6-0.3-1.3-0.6-1.8c-0.2-0.3-0.3-0.7-0.7-0.6
		c-0.4,0-0.4,0.4-0.6,0.7c-0.1,0.3-0.2,0.7-0.3,1C33.5,25.2,33.4,27.5,33.3,29.8z M27.4,12c0.1-0.3-0.1-0.3-0.3-0.4
		c-0.7-0.3-1.3-0.5-2-0.8c-1.4-0.5-2.9-1.1-4.3-1.6c-0.1,0-0.3-0.2-0.4,0c-0.1,0.2,0,0.3,0.2,0.3c0.1,0,0.1,0.1,0.2,0.1
		c1.9,0.8,3.9,1.7,5.8,2.5c0.1,0.1,0.3,0.1,0.4,0.1C27.3,12.4,27.5,12.3,27.4,12z"/>
</g>
<g id="Calque_6">
	<path class="st6" d="M37.2,14.1L17.5,35.3c-2,2.1-5.4,2.7-7.5,1.2C7.9,35,7.8,32,9.8,29.9L29.5,8.7l0,0l-0.6-0.4
		c-0.3,0.2-0.6,0.4-0.8,0.7L7.5,31.1c-2.1,2.2-1.7,5.5,0.9,7.4c2.5,1.8,6.3,1.5,8.5-0.8l20.5-22.1c0.2-0.3,0.5-0.5,0.7-0.8
		L37.2,14.1L37.2,14.1z"/>
	<ellipse class="st6" cx="31.5" cy="12.3" rx="1" ry="0.9"/>
	<ellipse class="st6" cx="28.1" cy="15.7" rx="1" ry="0.9"/>
	<ellipse class="st6" cx="33.3" cy="9.5" rx="1" ry="0.9"/>
	<ellipse class="st6" cx="36" cy="11.6" rx="1" ry="0.9"/>
	<ellipse class="st6" cx="37" cy="8.6" rx="1" ry="0.9"/>
	<ellipse class="st6" cx="32" cy="15" rx="1" ry="0.9"/>
	<ellipse class="st6" cx="34.8" cy="13.7" rx="1" ry="0.9"/>
	<line class="st7" x1="19.1" y1="19.2" x2="33.3" y2="19.1"/>
</g>
<g id="Calque_7" class="st0">
	<path class="st1" d="M7.5,23.7c0-8.8,7.2-16,16-16s16,7.2,15.9,16c0,8.8-7.2,16-16,16S7.4,32.5,7.5,23.7z M23.5,8.8
		c-4.1,0-7.7,1.5-10.6,4.4s-4.3,6.5-4.3,10.7c0,8,6.7,14.7,14.9,14.7s15-6.8,14.9-14.9c-0.1-5.3-2.3-9.4-6.6-12.4
		C29.3,9.6,26.5,8.7,23.5,8.8z"/>
	<path class="st1" d="M16.8,26c0-0.5,0-0.9,0-1.4c0-0.1,0.1-0.2,0.2-0.3c0.2-0.2,0.5-0.3,0.7-0.5c0.3-0.2,0.6-0.4,0.9-0.7
		c0.2-0.1,0.4-0.3,0.6-0.4c0.2-0.2,0.4-0.3,0.6-0.5c0.2-0.1,0.4-0.3,0.6-0.4c0.2-0.2,0.5-0.4,0.7-0.5s0.4-0.2,0.5-0.4
		c0.2-0.2,0.4-0.3,0.6-0.4c0.2-0.2,0.5-0.4,0.7-0.5s0.3-0.2,0.5-0.4c0.1,0,0.1,0,0.1,0c0.2,0.1,0.3,0.2,0.5,0.3
		c0.2,0.2,0.5,0.4,0.7,0.5c0.3,0.2,0.6,0.4,0.8,0.6c0.2,0.2,0.5,0.3,0.7,0.5c0.2,0.2,0.4,0.3,0.7,0.5c0.3,0.2,0.5,0.4,0.8,0.6
		c0.4,0.3,0.7,0.5,1.1,0.8c0.3,0.2,0.7,0.5,1,0.7c0.1,0.1,0.2,0.2,0.3,0.2s0.1,0.1,0.1,0.2c0,0.9,0,1.9,0,2.8c0,0.1,0,0.1-0.1,0.2
		c-0.1,0-0.2,0-0.2,0c-0.2-0.1-0.3-0.2-0.5-0.3c-0.2-0.1-0.4-0.3-0.6-0.4c-0.2-0.2-0.5-0.4-0.7-0.5s-0.3-0.2-0.5-0.4
		c-0.2-0.1-0.4-0.3-0.6-0.4c-0.2-0.1-0.3-0.2-0.5-0.4c-0.3-0.2-0.5-0.4-0.8-0.6c-0.1-0.1-0.2-0.1-0.3-0.2c-0.2-0.2-0.5-0.4-0.8-0.6
		c-0.2-0.1-0.3-0.2-0.5-0.4c-0.2-0.1-0.4-0.3-0.5-0.4c-0.1-0.1-0.2-0.1-0.2-0.2c0,0,0,0-0.1,0c-0.3,0.2-0.5,0.4-0.8,0.6
		c-0.4,0.3-0.8,0.6-1.1,0.9c-0.2,0.2-0.5,0.3-0.7,0.5c-0.3,0.2-0.7,0.5-1,0.7s-0.5,0.4-0.7,0.5c-0.3,0.2-0.7,0.5-1,0.7
		c-0.2,0.1-0.3,0.2-0.5,0.4c-0.2,0.1-0.4,0.3-0.6,0.4c0,0-0.1,0.1-0.2,0.1c-0.1,0,0-0.1,0-0.1C16.8,27,16.8,26.5,16.8,26z"/>
	<path class="st1" d="M16.8,22c0-0.1,0-0.1,0-0.2c0-0.9,0-1.9,0-2.8c0-0.1,0.1-0.2,0.2-0.3c0.2-0.2,0.5-0.3,0.7-0.5
		c0.3-0.2,0.6-0.5,0.9-0.7c0.2-0.1,0.4-0.3,0.6-0.4c0.2-0.2,0.5-0.3,0.7-0.5c0.2-0.1,0.4-0.3,0.5-0.4c0.2-0.1,0.4-0.3,0.6-0.4
		c0.2-0.1,0.4-0.3,0.5-0.4c0.2-0.2,0.5-0.4,0.7-0.5c0.1-0.1,0.2-0.1,0.3-0.2c0.3-0.2,0.5-0.4,0.8-0.6c0,0,0.1-0.1,0.1,0
		c0.2,0.2,0.4,0.3,0.6,0.5c0.2,0.2,0.4,0.3,0.6,0.5c0.3,0.2,0.6,0.5,0.9,0.7c0.2,0.2,0.5,0.3,0.7,0.5c0.2,0.2,0.5,0.4,0.8,0.6
		c0.2,0.2,0.4,0.3,0.6,0.4c0.3,0.2,0.6,0.4,0.9,0.7c0.1,0.1,0.2,0.2,0.4,0.2c0.2,0.2,0.5,0.4,0.7,0.5c0.1,0.1,0.2,0.2,0.3,0.2
		C30,19,30,19,30,19.1c0,0.9,0,1.9,0,2.8c0,0.1-0.1,0.2-0.2,0.1c-0.2-0.1-0.4-0.3-0.6-0.4c-0.2-0.2-0.5-0.3-0.7-0.5
		c-0.3-0.3-0.7-0.5-1-0.7c-0.2-0.1-0.3-0.2-0.5-0.4c-0.3-0.2-0.6-0.5-1-0.7c-0.3-0.2-0.5-0.4-0.8-0.6c-0.2-0.2-0.5-0.3-0.7-0.5
		c-0.2-0.1-0.4-0.3-0.5-0.4c0-0.2-0.3-0.4-0.5-0.6h-0.1c-0.3,0.3-0.7,0.5-1,0.7c-0.3,0.2-0.5,0.4-0.8,0.6c-0.2,0.2-0.5,0.4-0.7,0.5
		c-0.3,0.2-0.6,0.5-0.9,0.7c-0.3,0.2-0.5,0.4-0.8,0.6c-0.4,0.3-0.8,0.5-1.1,0.8c-0.2,0.1-0.4,0.3-0.6,0.4c-0.2,0.1-0.4,0.3-0.6,0.4
		C16.9,22,16.9,22,16.8,22z"/>
	<path class="st1" d="M16.8,31.8c0-0.5,0-1,0-1.4c0-0.1,0-0.2,0.1-0.2c0.3-0.2,0.5-0.4,0.8-0.6c0.2-0.1,0.4-0.3,0.6-0.4
		c0.3-0.2,0.6-0.4,0.9-0.7c0.2-0.2,0.5-0.4,0.8-0.6s0.5-0.4,0.8-0.6c0.2-0.2,0.5-0.3,0.7-0.5s0.5-0.3,0.7-0.5
		c0.1-0.1,0.3-0.2,0.5-0.3c0.2-0.2,0.5-0.4,0.7-0.5c0.1,0,0.1,0,0.2,0c0.3,0.2,0.5,0.4,0.8,0.6c0.2,0.1,0.4,0.2,0.5,0.4
		c0.3,0.2,0.5,0.4,0.8,0.6c0.2,0.1,0.3,0.3,0.5,0.4s0.3,0.3,0.5,0.4s0.4,0.2,0.5,0.4c0.2,0.2,0.5,0.4,0.7,0.5s0.4,0.2,0.5,0.4
		c0.3,0.2,0.7,0.5,1,0.7c0.2,0.1,0.4,0.3,0.6,0.4c0.2,0.1,0.3,0.2,0.2,0.4c0,0.9,0,1.7,0,2.6c0,0.1,0,0.2-0.1,0.2
		c-0.1,0.1-0.1,0-0.2-0.1c-0.4-0.3-0.8-0.6-1.2-0.9s-0.8-0.6-1.2-0.9c-0.3-0.2-0.7-0.5-1-0.7c-0.2-0.2-0.5-0.3-0.7-0.5
		c-0.3-0.2-0.6-0.4-0.9-0.6c-0.3-0.3-0.7-0.5-1-0.8c-0.1-0.1-0.3-0.2-0.5-0.3h-0.1c-0.2,0.2-0.5,0.3-0.7,0.5s-0.5,0.4-0.8,0.6
		c-0.2,0.2-0.5,0.4-0.7,0.5s-0.4,0.2-0.6,0.4c-0.2,0.2-0.5,0.3-0.7,0.5c-0.2,0.1-0.3,0.2-0.5,0.4c-0.2,0.1-0.4,0.3-0.6,0.4
		c-0.2,0.1-0.4,0.3-0.5,0.4c-0.2,0.1-0.4,0.3-0.6,0.4c-0.1,0.1-0.3,0.2-0.4,0.3c-0.1,0.1-0.3,0.2-0.4,0.3h-0.1v-0.1
		C16.8,32.7,16.8,32.3,16.8,31.8z"/>
</g>
<g id="Calque_8" class="st0">
	<path class="st1" d="M50.1,33.1c-1.9-1.5-3.8-3-5.7-4.6c-1.1-0.9-1.9-2.4-1.8-3.6c0.2-2.3-3.5-4.8-4.1-5.3c0,0-0.9-0.7-1.6-1.3
		c-0.8-0.6-1.6-0.6-2.3,0.2c-0.1,0-0.2,0.1-0.2,0.1c-0.8,0.9-1.8,0.5-2.1-0.2c-0.4-1.1-6-5.7-7.4-6.5c-0.6-0.3-1.3-1.3-1.9-0.8
		c-0.9,0.7-1.2-0.4-1.2-1.2c0-1.2,0.4-1.3-0.2-1.7c-0.5-0.3-0.8,0.6-0.8,0.6s-0.5,0.6-0.7,0.7c-0.2-0.1-0.3-0.1-0.4-0.1l0,0
		c0.4-0.4-0.9-1.1-1.4-1.6c-0.3-0.3-0.7-0.3-1,0.1c-0.4,0.4-0.2,0.7,0.1,1c0.6,0.5,1.4,1.6,2,1.2c0.1,0,0.2,0,0.2,0
		c0.2,0.2,0.7,0.6,0.8,0.7c0.6,0.6,1.3,1.1,1.2,2.1c-0.1,1.1,7.5,6.8,9,8.3c-1.3,1.4-5.2,5.5-4.7,5.8c-0.3,0.4,1.7,2.6,1.8,2.7
		c0.9,0.8,2.1-1.2,3.2-2.1c0.7-0.6,1.4-2.1,2.8-0.8c0.5,0.6-0.9,2,0.6,2c0.1-0.3,0.3-0.8,0.7-0.9c0.2,0,0.5,0.8,0.7,0.9
		c0.1,0,0.2,0.1,0.3,0.1c-0.1,0.1-0.6,0.2-0.8,0.4c0.9,0.8,0.6,3.9,0.6,4.4c0.1,1.1,0.1,1.6,1.8,1.7c1.1,0.1,1-0.4,1.1-1.7
		c0-0.8-0.1-1.6,0.2-2.4c0.4-1.2,1.6-2,2.6-1.3c1.3,0.9,2.7,1.9,2.9,3.8c0.1,1.1,0.3,2.1,0.4,3.2c0.1,1.2,1.2,1.7,2,2.1
		c0.9,0.5,1.2-0.6,1.6-1.1c0.8-0.8,1.4-1.8,2.2-2.6C51.3,34.7,51.2,33.9,50.1,33.1z M21.4,9.4c-0.1,0.1-0.1,0.1-0.2,0.2
		c0-0.1,0-0.3,0.1-0.4C21.3,9.3,21.4,9.3,21.4,9.4z M40.4,24.1c-1.8-1.5-3.5-2.8-5.2-4.2c-0.5-0.4-0.1-0.4-0.1-0.7
		c0.7-0.7,0.9-0.5,3.1,1.1C40.4,22.1,40.9,22.7,40.4,24.1z"/>
	<path class="st1" d="M0.1,35.7c0.8,0.8,1.4,1.8,2.2,2.6c0.5,0.5,0.7,1.6,1.6,1.1c0.8-0.5,1.9-0.9,2-2.1c0.1-1.1,0.3-2.1,0.4-3.2
		c0.2-1.9,1.6-2.8,2.9-3.8c1-0.7,2.2,0,2.6,1.3C12,32.4,12,33.2,12,34c0,1.3-0.1,1.8,1.1,1.7c1.7-0.1,1.7-0.7,1.8-1.7
		c0-0.4-0.3-3.5,0.6-4.4c-0.1-0.2-0.7-0.3-0.8-0.4c0.1-0.1,0.2-0.1,0.3-0.1c0.2-0.1,0.5-0.9,0.7-0.9c0.4,0.1,0.6,0.6,0.7,0.9
		c1.5-0.1,0.1-1.4,0.6-2c1.3-1.3,2,0.2,2.8,0.8c1,0.9,2.3,2.9,3.2,2.1c0.1-0.1,2.1-2.3,1.8-2.7c0.4-0.3-3.5-4.4-4.7-5.8
		c1.5-1.5,9.1-7.2,9-8.3c-0.1-1,0.6-1.5,1.2-2.1c0.1-0.1,0.6-0.6,0.8-0.7c0-0.1,0.1-0.1,0.2,0c0.5,0.3,1.4-0.7,2-1.2
		c0.3-0.3,0.5-0.6,0.1-1c-0.4-0.6-0.8-0.6-1.1-0.3c-0.5,0.5-1.9,1.1-1.4,1.6l0,0c-0.1,0-0.2,0-0.4,0.1c-0.2-0.2-0.7-0.7-0.7-0.7
		S29.5,8,29,8.3c-0.6,0.4-0.2,0.5-0.2,1.7c0,0.8-0.3,1.9-1.2,1.2c-0.7-0.6-1.4,0.4-2,0.7c-1.4,0.8-7,5.4-7.4,6.5
		c-0.2,0.7-1.3,1.1-2.1,0.2c-0.1,0-0.2,0-0.2-0.1c-0.8-0.9-1.5-0.8-2.3-0.2S12,19.6,12,19.6c-0.6,0.5-4.3,3-4.1,5.3
		c0.1,1.2-0.7,2.7-1.8,3.6c-1.9,1.6-3.8,3.1-5.7,4.6C-0.7,33.9-0.8,34.7,0.1,35.7z M29.2,9.2c0,0.1,0.1,0.2,0.1,0.4
		c-0.1-0.1-0.1-0.1-0.2-0.2C29.1,9.3,29.2,9.3,29.2,9.2z M12.2,20.2c2.1-1.6,2.4-1.8,3.1-1.1c0,0.3,0.4,0.3-0.1,0.7
		c-1.7,1.4-3.4,2.7-5.2,4.2C9.6,22.7,10.1,22.1,12.2,20.2z"/>
</g>
</svg>
