<?xml version="1.0" encoding="utf-8"?>
<!-- Generator: Adobe Illustrator 22.1.0, SVG Export Plug-In . SVG Version: 6.00 Build 0)  -->
<svg version="1.1" id="Calque_1" xmlns="http://www.w3.org/2000/svg" xmlns:xlink="http://www.w3.org/1999/xlink" x="0px" y="0px"
	 viewBox="0 0 38 32" style="enable-background:new 0 0 38 32;" xml:space="preserve">
<style type="text/css">
	.st0{fill:#435264;}
	.st1{fill:none;}
	.st2{fill:#7F98C2;}
	.st3{fill:#FEFEFE;}
	.st4{display:none;}
	.st5{display:inline;}
	.st6{display:inline;fill:#435264;}
	.st7{display:inline;fill:none;stroke:#435264;stroke-width:1.1533;stroke-miterlimit:10;}
</style>
<g id="Calque_1_1_">
	<path class="st0" d="M21.2,31.8c-1,0-2,0.1-3,0c-1.7,0-3.2-0.1-4.9-0.2c-0.6,0-1.1-0.1-1.8-0.2c-0.3-0.1-0.5,0.1-0.6,0.4
		c-0.1,0.3-0.1,0.3-0.4,0.3c-0.7,0-1.4,0-2.1,0c-0.5,0-0.6-0.1-0.6-0.6c0-0.3-0.2-0.6-0.5-0.7c-0.6-0.1-0.7-0.6-0.9-1.1
		c-0.3-0.8-0.3-1.7-0.4-2.5c-0.1-1-0.1-2,0-3.1c0.2-1.6,0.6-3.2,1.1-4.7c0.2-0.5,0.4-0.9,0.6-1.4c0.2,0.1,0.4,0.3,0.5,0.5
		c0,0.1,0,0.1,0,0.2c-0.1,0.1-0.1,0.1-0.2,0C8,18.6,7.9,18.5,8,18.4c0,0,0.1-0.1,0-0.1c-0.1,0-0.1,0-0.1,0.1
		c-0.1,0.1-0.1,0.3,0.1,0.4c0.1,0.1,0.3,0.2,0.4,0.1c0.1-0.1,0.2-0.2,0.1-0.4c-0.1-0.2-0.3-0.4-0.6-0.5c0.3-0.8,0.7-1.6,1.1-2.5
		c0.6-1.4,1.4-2.8,2.1-4.1c0.3-0.6,0.4-1.2,0.6-1.8c0.1-0.4,0.2-0.9,0.4-1.4c0.2-0.4,0.5-0.6,0.9-0.7c0.4,0,0.8-0.1,1.2,0
		c0.4,0.1,0.6,0.3,0.6,0.7c0.1,0.5,0.2,1.1,0.3,1.6c0,0.2,0.1,0.2,0.3,0.2c2.2-0.1,4.3-0.1,6.6-0.1c0.4,0,0.7,0,1.1,0.1
		c0.1,0,0.2,0,0.2-0.2c0.1-0.6,0.2-1.1,0.4-1.7c0.1-0.3,0.3-0.6,0.6-0.6c0.5-0.1,1-0.1,1.5,0c0.5,0.1,0.6,0.5,0.8,0.9
		c0.2,0.6,0.3,1.2,0.5,1.8c0.1,0.5,0.3,1,0.6,1.5c1.4,2.5,2.7,5,3.6,7.7c0.8,2.3,1.3,4.6,1.1,7.1c-0.1,1.1-0.1,2.2-0.5,3.3
		c-0.2,0.5-0.4,0.9-0.9,1.1c-0.3,0.1-0.5,0.3-0.5,0.6c-0.1,0.6-0.2,0.7-0.7,0.7c-0.6,0-1.4,0-2,0c-0.4,0-0.4,0-0.5-0.4
		c-0.1-0.3-0.2-0.4-0.6-0.4c-1.5,0.2-3,0.3-4.4,0.3c-0.2,0-0.3,0-0.5,0c0-0.1-0.1-0.2,0.1-0.3c0.1,0,0,0.2,0.1,0.2s0.1-0.2,0-0.3
		c0-0.1-0.1-0.1-0.2,0c-0.2,0.1-0.2,0.3-0.1,0.5c-0.1,0-0.2,0-0.2,0C21.3,31.8,21.3,31.8,21.2,31.8z M9,31c0.2,0.6,1,0.9,1.7,0.6
		c0.5-0.3,0.7-0.7,0.7-1.3c0.1,0,0.2,0,0.3,0c0,0.4-0.1,0.7-0.3,1c0,0,0,0.1,0,0.2c0.1,0,0.1,0,0.2-0.1c0.3-0.3,0.4-0.6,0.4-1
		c0.1,0,0.2,0,0.3,0c1.8,0.2,3.5,0.3,5.2,0.3c2.1,0.1,4.2,0,6.3-0.1c0.8-0.1,1.8-0.1,2.6-0.3c0.5-0.1,0.9,0,1.3,0.4
		c0.3,0.4,0.6,0.4,0.9,0.4c0.2,0,0.4,0,0.5,0s0.2,0,0.2-0.2c0.2-0.4,0.4-0.8,0.7-0.9c0.5-0.2,0.6-0.5,0.6-0.9c0-0.1,0-0.2,0.1-0.3
		c0.1-0.6,0.1-1.2,0.2-1.8c0.1-1.1,0.1-2.2-0.1-3.3c-0.3-1.7-0.7-3.3-1.4-4.9c-0.8-2.1-1.9-4.2-3-6.2c-0.3-0.5-0.6-1-0.7-1.6
		c-0.1-0.6-0.3-1.1-0.4-1.7c-0.2-0.6,0-0.5-0.6-0.5c-0.1,0-0.2,0-0.2,0.2c-0.1,0.7-0.3,1.5-0.5,2.2c0,0.2-0.1,0.3-0.3,0.2
		c-1.2-0.1-2.5-0.1-3.7-0.2c-1.9,0-3.8,0-5.7,0.2c-0.2,0-0.2,0-0.2-0.2c-0.1-0.7-0.3-1.3-0.4-2c-0.1-0.5-0.1-0.5-0.6-0.5
		c-0.2,0-0.3,0.1-0.3,0.3c-0.1,0.6-0.3,1.3-0.5,1.9c-0.1,0.3-0.2,0.6-0.3,0.9c-0.4,0.7-0.8,1.5-1.2,2.2c-0.5,0.9-0.9,1.9-1.4,2.8
		c-0.4,0-0.5,0.1-0.5,0.4c0,0.1,0.1,0.2,0.2,0.2c-0.1,0.2-0.2,0.3-0.2,0.5c-0.1,0-0.3,0-0.3-0.1s-0.1-0.2,0.1-0.2
		c0.1,0,0,0.1,0.1,0.2c0,0.1,0.1,0.1,0.1,0s0.1-0.2,0-0.3c-0.1-0.1-0.2,0-0.3,0.1c-0.1,0.1-0.1,0.2-0.1,0.4c0,0,0.1,0,0.3,0
		c0,0.2-0.2,0.4-0.3,0.6c-0.3,0.7-0.6,1.4-0.8,2.2c-0.6,2-0.9,4-0.7,6.1c0.1,0.9,0.1,1.8,0.4,2.6c0,0.1,0.1,0.2,0.3,0.3
		c0.5,0.2,0.8,0.4,1,0.9C8.9,30.8,8.9,30.9,9,31z M22.6,31.2c-0.1,0-0.1,0-0.2,0c-0.1,0-0.2,0-0.3-0.1c0-0.1,0-0.2,0-0.2
		c0.1-0.1,0.2,0,0.3,0c0.1,0.1,0.1,0.1,0.2,0.2h0.1c0,0,0,0,0-0.1c-0.1-0.1-0.2-0.3-0.4-0.3c-0.2,0-0.3,0.1-0.3,0.2
		c0,0.2,0.1,0.4,0.3,0.4C22.4,31.4,22.6,31.4,22.6,31.2z M8.7,18.5c0-0.1-0.1-0.2-0.2-0.3c-0.1-0.1-0.1-0.1-0.1-0.2s0.1-0.1,0-0.1
		c-0.1,0-0.1,0.1-0.1,0.1C8.3,18.2,8.5,18.4,8.7,18.5z"/>
	<path class="st0" d="M9.4,1.7c0.5-0.2,1-0.3,1.5-0.4c0.2,0.2,0.4,0.3,0.6,0.5c0.1,0.2,0.2,0.4,0.3,0.5c-0.1,0-0.2,0.1-0.4,0.1
		c-0.3-0.8-1-1.1-1.6-0.6c-0.3,0.3-0.3,0.7-0.1,1C9.6,2.9,9.4,2.9,9.3,2.9C9.2,2.7,9.2,2.4,9.2,2.2C9.2,2,9.4,1.8,9.4,1.7z"/>
	<path class="st0" d="M9.4,1.7c0,0.2-0.2,0.4-0.2,0.6s0,0.5,0.1,0.7C9.2,3,9,3,8.9,3.1C8.7,2.7,8.7,2.3,8.8,1.9
		C9,1.7,9.2,1.7,9.4,1.7z"/>
	<path class="st0" d="M11.7,2.3c-0.2-0.2-0.2-0.4-0.3-0.5c-0.2-0.2-0.4-0.3-0.6-0.5c0.2-0.1,0.4-0.1,0.6-0.1C11.7,1.5,12,1.8,12,2.3
		C11.8,2.3,11.8,2.3,11.7,2.3z"/>
	<path class="st0" d="M7.8,18c0.2,0.1,0.4,0.3,0.6,0.5c0.1,0.2,0,0.3-0.1,0.4c-0.2,0.1-0.3,0-0.4-0.1c-0.1-0.1-0.2-0.2-0.1-0.4
		l0.1-0.1c0.1,0,0,0.1,0,0.1c-0.1,0.2,0,0.2,0.1,0.3c0.1,0,0.1,0,0.2,0c0.1-0.1,0.1-0.1,0-0.2C8.1,18.3,7.9,18.1,7.8,18
		C7.7,18.1,7.7,18.1,7.8,18z"/>
	<path class="st0" d="M21.6,31.8c-0.1-0.2-0.1-0.4,0.1-0.5c0.1,0,0.2-0.1,0.2,0s0.1,0.3,0,0.3c-0.1,0.1-0.1-0.1-0.1-0.2
		c-0.1,0.1,0,0.2-0.1,0.3C21.7,31.9,21.6,31.8,21.6,31.8z"/>
	<path class="st0" d="M21.2,31.8L21.2,31.8C21.3,31.8,21.3,31.8,21.2,31.8z"/>
	<path class="st0" d="M9,31c0.2,0,0.4,0,0.6,0c0.2,0.3,0.6,0.4,0.9,0.3s0.6-0.4,0.6-0.7c0-0.1,0-0.2,0-0.3c0.1-0.1,0.2-0.1,0.4-0.1
		c0.1,0.6-0.2,1.1-0.7,1.3C10,31.9,9.2,31.6,9,31z"/>
	<path class="st0" d="M11.6,30.2c0.1,0,0.2,0,0.3,0c0,0.4-0.2,0.7-0.4,1c0,0-0.1,0.1-0.2,0.1c0,0,0-0.1,0-0.2
		C11.5,30.9,11.7,30.6,11.6,30.2z"/>
	<path class="st0" d="M22.6,31.2c0,0.2-0.1,0.2-0.3,0.2c-0.2,0-0.3-0.2-0.3-0.4c0-0.2,0.1-0.3,0.3-0.2c0.2,0,0.3,0.2,0.4,0.3
		C22.7,31.1,22.7,31.1,22.6,31.2L22.6,31.2c-0.1-0.1-0.1-0.1-0.2-0.2c-0.1-0.1-0.2-0.1-0.3,0s-0.1,0.2,0,0.2c0,0.1,0.2,0.1,0.3,0.1
		C22.5,31.2,22.5,31.2,22.6,31.2z"/>
	<path class="st0" d="M9.1,17.9c0,0.1,0,0.1,0,0.1c-0.2,0-0.3,0-0.4-0.2c-0.1-0.1-0.1-0.3,0.1-0.4c0.1-0.1,0.2-0.2,0.3-0.1
		c0.1,0.1,0.1,0.2,0,0.3c0,0.1-0.1,0-0.1,0s0-0.1-0.1-0.2c-0.1,0.1-0.1,0.2-0.1,0.2C8.8,17.9,8.9,17.9,9.1,17.9z"/>
	<path class="st0" d="M9.3,17.3v0.1c0-0.1-0.1-0.1-0.2-0.2c0-0.3,0.1-0.4,0.5-0.4c0,0,0,0.1-0.1,0.1C9.3,16.9,9.2,17,9.3,17.3z"/>
	<path class="st0" d="M8.7,18.5c-0.2-0.1-0.5-0.3-0.4-0.5c0-0.1,0-0.2,0.1-0.1c0.1,0,0,0.1,0,0.1c0,0.1,0,0.2,0.1,0.2
		C8.6,18.3,8.7,18.3,8.7,18.5z"/>
	<path class="st1" d="M24.3,1.2c-0.1,0,0,0.1,0,0.1c0,0.1,0,0.1,0,0.2c-0.1,0-0.1,0-0.2-0.1c-0.1-0.1-0.1-0.2,0-0.3
		c0,0,0.1-0.1,0.1-0.2c-0.1-0.1-0.1,0-0.2,0C23.9,1,23.9,1.1,23.7,1c0,0-0.1,0-0.1,0.1s0.5,0.5,0.5,0.5c0.1,0,0.2,0,0.3-0.1
		S24.4,1.3,24.3,1.2L24.3,1.2z"/>
	<path class="st1" d="M23.6,1.8C23.6,1.7,23.6,1.7,23.6,1.8c0-0.1,0.1-0.3,0-0.3c-0.1,0-0.1,0.1-0.2,0.2l0,0c-0.5,0-0.9-0.1-1.3-0.1
		c0.5,0,0.9,0.1,1.3,0.1C23.4,1.7,23.5,1.8,23.6,1.8z"/>
	<path class="st0" d="M21.8,3.5c-0.1,0.1-0.3,0.2-0.3,0.3s0.1,0.2,0.2,0.3C21.8,4.2,22,4.2,22.1,4c0.1-0.1,0.2-0.1,0.1-0.2
		c-0.1-0.1-0.1,0.1-0.2,0.1l0,0c-0.1,0.1-0.2,0.1-0.3,0C21.6,3.8,21.6,3.7,21.8,3.5c0,0.2-0.1,0.3,0,0.3C21.9,3.8,21.9,3.7,21.8,3.5
		c0.1,0,0.1,0,0.1-0.1C21.9,3.5,21.8,3.5,21.8,3.5z"/>
	<path class="st1" d="M24.3,0.7c0,0.1,0.3,0.5,0.4,0.5h0.1V1.1C24.6,1,24.5,0.8,24.3,0.7z"/>
	<path class="st0" d="M36.5,7.9C36,6.1,35,4.7,33.6,3.7c-1-0.7-2.1-1.2-3.3-1.6c-1.9-0.7-4-1.2-6-1.5c-1.5-0.2-3-0.4-4.5-0.4
		c-1.9,0-3.9,0.1-5.8,0.4c-0.8,0.1-1.7,0.3-2.6,0.5c0.3,0.3,0.6,0.6,0.6,1.1H12l0,0c1.2-0.2,2.4-0.4,3.5-0.6c2.2-0.2,4.3-0.2,6.6,0
		c0.5,0,0.9,0.1,1.3,0.1l0,0c0-0.1,0.1-0.3,0.2-0.2c0.1,0,0,0.2,0,0.2l0,0c0.7,0.1,1.4,0.2,2.1,0.4c1.6,0.3,3.1,0.8,4.6,1.4
		c0.8,0.3,1.7,0.7,2.5,1.3c1.6,1,2.4,2.5,2.7,4.4c0,0.2,0,0.5,0,0.7c0,0.5-0.4,0.6-0.6,0.7c-0.6,0.2-1.4,0.2-2,0.2
		c-1.1,0-2.3-0.2-3.3-0.7C29.3,10,29.1,9.9,29,9.7c-0.3-0.5-0.5-1.1-0.6-1.7c-0.4-1.1-0.9-2-1.8-2.7c-1-0.8-2.2-1.3-3.5-1.6
		c-0.1,0-0.3-0.1-0.4-0.1c-0.3-0.1-0.6-0.1-0.8-0.1l0,0c0,0.1,0,0.1,0,0.2c0,0.1,0.1,0.2-0.1,0.2c-0.1,0,0-0.1-0.1-0.2
		c-0.1,0.1-0.1,0.2,0,0.3c0.1,0.1,0.2,0,0.3,0l0,0c0.1,0,0.1-0.2,0.2-0.1c0.1,0.1-0.1,0.2-0.1,0.2c-0.1,0.1-0.2,0.1-0.4,0.1
		c-0.1-0.1-0.2-0.2-0.2-0.3c0-0.2,0.1-0.3,0.3-0.3c-1.1-0.2-2.1-0.1-3.2-0.1c-0.9,0-1.8,0-2.7,0.2c-1.2,0.2-2.3,0.5-3.4,1.1
		S10.5,6.3,10,7.5C9.8,8,9.6,8.5,9.5,9c-0.4,1.2-0.4,1.1-1.4,1.4c-1.4,0.4-2.8,0.5-4.2,0.4c-0.4,0-0.6-0.1-0.9-0.3
		c-0.2-0.1-0.3-0.2-0.3-0.5c-0.1-0.6,0-1.2,0.2-1.7c0.4-1.6,1.3-2.7,2.6-3.5c0.9-0.6,2-1,3.1-1.4C8.7,3.3,8.9,3.3,9,3.2
		C8.8,2.8,8.8,2.4,8.9,2C7.5,2.5,6,3.1,4.7,4S2.4,6.1,1.9,7.8c-0.2,0.8-0.4,1.5-0.3,2.3s0.4,1.3,1.1,1.6C3.1,11.9,3.5,12,3.9,12
		c1.8,0.2,3.6,0.1,5.4-0.6c0.6-0.2,1-0.6,1.2-1.2c0.3-0.6,0.5-1.2,0.6-1.8c0.3-1,0.9-1.8,1.8-2.3c0.9-0.6,1.8-0.9,2.9-1.1
		c0.8-0.2,1.7-0.2,2.5-0.2c1.1,0,2.3-0.1,3.4,0.1c0-0.1-0.1-0.2-0.2-0.3c-0.1-0.1-0.1-0.1-0.1-0.2s0-0.2,0.1-0.2s0,0.1,0,0.2
		s0.1,0.2,0.2,0.3c0.1,0.1,0.2,0.1,0.1,0.3c1.2,0.1,2.4,0.4,3.5,1c0.9,0.5,1.7,1.1,2,2.2c0.1,0.2,0.3,0.8,0.5,1.4
		c0.1,0.4,0.3,0.7,0.5,1c0.4,0.5,0.9,0.7,1.4,0.8c1.3,0.4,2.7,0.6,4.1,0.5c0.6,0,1.1-0.1,1.6-0.3c0.9-0.3,1.3-0.9,1.4-1.9
		C36.7,9.1,36.6,8.5,36.5,7.9z M24.4,1.5c-0.1,0.1-0.1,0.1-0.3,0.1c-0.1,0-0.5-0.4-0.5-0.5c0,0,0-0.1,0.1-0.1c0.1,0.1,0.2,0,0.3-0.1
		c0,0,0.1-0.1,0.2,0c0.1,0.1,0,0.1-0.1,0.2c-0.1,0.1-0.1,0.2,0,0.3C24.2,1.5,24.2,1.5,24.4,1.5c0,0,0-0.1-0.1-0.2c0,0-0.1-0.1,0-0.1
		c0.1,0,0.1,0,0.1,0.1C24.4,1.4,24.5,1.4,24.4,1.5z M24.7,1.2C24.7,1.2,24.6,1.2,24.7,1.2c-0.1,0-0.4-0.4-0.5-0.5
		C24.5,0.8,24.6,1,24.7,1.2C24.7,1.1,24.7,1.2,24.7,1.2z"/>
	<path class="st0" d="M21.4,4.4c-0.1-0.1-0.2-0.1-0.2-0.3c0-0.1,0.1-0.1,0-0.2c-0.1,0-0.1,0.1-0.1,0.2c0,0.1,0.1,0.2,0.1,0.2
		c0.1,0.1,0.2,0.1,0.2,0.3l0,0C21.6,4.6,21.5,4.5,21.4,4.4z"/>
	<path class="st0" d="M21.8,3.5L21.8,3.5c0.1,0.1,0.1,0.1,0.1,0.2c0,0.1,0.1,0.2-0.1,0.2c-0.1,0,0-0.1-0.1-0.2
		c-0.1,0.1-0.1,0.2,0,0.3c0.1,0.1,0.2,0,0.3,0l0,0c0.1,0,0.1-0.2,0.2-0.1c0.1,0.1-0.1,0.2-0.1,0.2c-0.1,0.1-0.2,0.1-0.4,0.1
		c-0.1-0.1-0.2-0.2-0.2-0.3C21.5,3.6,21.6,3.5,21.8,3.5z"/>
	<path class="st0" d="M24.2,1.7c-0.1,0-0.5-0.4-0.5-0.5c0,0,0-0.1,0.1-0.1c0.1,0.1,0.2,0,0.3-0.1c0,0,0.1-0.1,0.2,0
		c0.1,0.1,0,0.1-0.1,0.2c-0.1,0.1-0.1,0.2,0,0.3c0.1,0.1,0.1,0.1,0.2,0.1c0.1,0,0.1-0.1,0-0.2c0,0-0.1-0.1,0-0.1s0.1,0,0.1,0.1
		c0.1,0.1,0.1,0.2,0,0.3C24.4,1.6,24.3,1.7,24.2,1.7z"/>
	<path class="st0" d="M24.3,0.7c0.2,0.1,0.3,0.3,0.5,0.4v0.1c0,0,0,0-0.1,0C24.6,1.2,24.3,0.8,24.3,0.7z"/>
	<path class="st0" d="M23.6,1.8c-0.1,0-0.1,0-0.2,0l0,0c0-0.1,0.1-0.3,0.2-0.2C23.7,1.5,23.5,1.6,23.6,1.8
		C23.6,1.7,23.6,1.7,23.6,1.8z"/>
	<path class="st2" d="M12.1,2.2L12.1,2.2L12.1,2.2z"/>
	<path class="st0" d="M10,2.7c-0.1,0-0.2,0.1-0.3,0.1c-0.2-0.2-0.2-0.7,0.1-1c0.6-0.5,1.3-0.3,1.6,0.6c-0.1,0-0.2,0.1-0.3,0.1
		c-0.2-0.2-0.2-0.4-0.4-0.5c-0.2-0.1-0.4-0.1-0.6,0.1C9.9,2.2,10,2.5,10,2.7z"/>
	<path class="st0" d="M22.6,14.8c-0.6-0.2-1-0.4-1.6-0.5c-2.5-0.5-4.9-0.1-7,1.6c-1.3,1-2.1,2.3-2.4,4c-0.2,1.2-0.1,2.4,0.5,3.5
		c0.7,1.6,1.8,2.7,3.3,3.5c0.9,0.5,1.8,0.8,2.9,0.9c1.5,0.2,3-0.1,4.3-0.7c0.2-0.1,0.2-0.1,0.3,0.1c0.1,0.3,0.2,0.5,0.3,0.7
		c0.1,0.1,0,0.2-0.1,0.3c-0.6,0.3-1.3,0.5-1.9,0.7c-1.8,0.4-3.4,0.3-5.1-0.3c-2.2-0.8-4-2.3-5-4.5c-1.1-2.4-0.9-4.7,0.3-6.9
		c0.9-1.7,2.4-2.8,4.1-3.5c1.8-0.8,3.6-0.9,5.5-0.6c2.2,0.4,4.1,1.5,5.5,3.4c1.8,2.4,1.9,5.7,0.4,8.3c-0.2,0.3-0.2,0.3-0.5,0.1
		c-0.2-0.1-0.4-0.2-0.6-0.3c-0.2-0.1-0.2-0.2-0.1-0.3c0.4-0.6,0.6-1.2,0.8-1.9c0.6-2.3-0.1-4.2-1.6-5.9c-0.1-0.1-0.1-0.1-0.2-0.2
		c0.1-1-0.7-1.9-1.8-1.7C22.9,14.7,22.7,14.6,22.6,14.8z"/>
	<path class="st0" d="M19.1,25.3c-1.5,0-2.8-0.5-3.8-1.8c-1.3-1.5-1.3-3.8,0-5.2c1.1-1.3,2.6-1.8,4.3-1.7c1.2,0.1,2.2,0.6,3.1,1.5
		c1.5,1.5,1.6,3.9,0.2,5.5C21.8,24.7,20.6,25.2,19.1,25.3z M19.1,24c1,0,1.9-0.3,2.7-1c1.2-1.1,1.3-2.9,0.1-4.1
		c-0.7-0.8-1.6-1.1-2.6-1.2c-1.2-0.1-2.2,0.3-3.1,1.2c-1,1.1-1,2.7,0,3.8C17.1,23.7,18,24,19.1,24z"/>
	<path class="st0" d="M22.6,24.7c0-0.5,0.5-0.8,0.9-0.6c0.8,0.5,1.7,0.9,2.5,1.4c0.5,0.3,0.6,0.8,0.1,1.2c-0.5,0.4-0.9,0.9-1.3,1.3
		c-0.3,0.3-0.7,0.2-0.9-0.2c-0.3-0.5-0.5-1-0.6-1.6c-0.2-0.4-0.4-0.8-0.6-1.3C22.6,25,22.6,24.9,22.6,24.7z M24.6,27
		c0.2-0.2,0.5-0.4,0.6-0.6c0.1,0,0.1-0.1,0-0.1c-0.4-0.2-0.7-0.4-1.2-0.7c0.2,0.4,0.3,0.7,0.5,1.1C24.4,26.8,24.5,26.9,24.6,27z"/>
	<path class="st0" d="M16.1,25c0.5,0,0.9,0.4,0.9,0.9s-0.4,0.9-0.9,0.9c-0.5,0-0.8-0.4-0.8-0.9C15.1,25.4,15.6,25,16.1,25z"/>
	<path class="st0" d="M24.6,17.7c0.5,0,0.8,0.4,0.9,0.9c0,0.5-0.4,0.9-0.8,1c-0.5,0-0.9-0.4-0.9-0.9C23.8,18.2,24.2,17.7,24.6,17.7z
		"/>
	<path class="st0" d="M25.2,20.8c0.5,0,0.8,0.4,0.8,0.9s-0.4,0.9-0.9,0.9c-0.5,0-0.8-0.4-0.8-0.9C24.3,21.2,24.7,20.8,25.2,20.8z"/>
	<path class="st0" d="M14.7,23.8c0,0.5-0.4,1-0.9,0.9c-0.5,0-0.8-0.4-0.8-0.9s0.4-1,0.8-1C14.3,22.9,14.7,23.3,14.7,23.8z"/>
	<path class="st0" d="M19.2,25.7c0.5,0,0.9,0.4,0.8,0.9c0,0.5-0.4,0.9-0.9,0.9c-0.5,0-0.8-0.4-0.8-0.9S18.7,25.7,19.2,25.7z"/>
	<path class="st0" d="M12,20.9c0-0.5,0.4-1,0.8-0.9c0.5,0,0.8,0.4,0.8,0.9s-0.4,0.9-0.9,0.9C12.4,21.8,12,21.4,12,20.9z"/>
	<path class="st0" d="M13,17.9c0-0.5,0.4-0.9,0.8-0.9s0.8,0.4,0.8,0.9s-0.4,0.9-0.8,0.9S13,18.4,13,17.9z"/>
	<path class="st0" d="M16.4,14.9c0.5,0,0.9,0.4,0.9,1c0,0.5-0.4,0.9-0.9,0.9c-0.5,0-0.8-0.4-0.8-1C15.6,15.3,16,14.9,16.4,14.9z"/>
	<path class="st0" d="M19.6,16.3c-0.5,0-0.8-0.4-0.8-0.9s0.4-0.9,0.8-1c0.5,0,0.8,0.4,0.8,0.9C20.5,15.8,20,16.3,19.6,16.3z"/>
	<path class="st0" d="M22.6,14.8c0.1-0.2,0.3-0.2,0.5-0.2c1.1-0.2,1.8,0.7,1.8,1.7c-0.1-0.1-0.3-0.2-0.4-0.3c0.1-0.1,0-0.2,0-0.2
		c-0.3-0.6-0.7-0.8-1.4-0.7C22.9,15,22.7,14.9,22.6,14.8z"/>
	<path class="st0" d="M22.3,15.4c0.2-0.1,0.4-0.1,0.6,0c0,0.1-0.1,0.1-0.2,0.2c-0.3,0.2-0.3,0.5-0.3,0.8c0.1,0.3,0.3,0.5,0.6,0.5
		c0.1,0,0.1,0,0.2,0.1c-0.2,0.1-0.4,0.2-0.6,0.2v-0.1c-0.3-0.3-0.4-0.6-0.4-1C22.2,15.9,22.3,15.7,22.3,15.4z"/>
	<path class="st0" d="M23.2,17.1c0-0.1-0.1-0.1-0.2-0.1c-0.3,0-0.5-0.2-0.6-0.5s0-0.6,0.3-0.8c0.1-0.1,0.2-0.1,0.2-0.2
		c0.2,0.1,0.3,0.2,0.4,0.3c-0.1,0-0.2,0.1-0.3,0.1c-0.3,0.2-0.3,0.6-0.1,0.8c0.1,0.1,0.2,0.1,0.3,0.1c0.1,0,0.1-0.1,0.1-0.2
		c0-0.2,0-0.3,0.2-0.2C23.5,16.6,23.4,16.9,23.2,17.1z"/>
	<path class="st0" d="M22.3,15.4c-0.1,0.2-0.2,0.4-0.2,0.7c0,0.4,0.1,0.7,0.4,1v0.1c-0.3,0-0.6-0.2-0.7-0.5
		c-0.2-0.4-0.1-0.8,0.2-1.1C22.2,15.6,22.2,15.5,22.3,15.4z"/>
	<path class="st0" d="M11.1,30.3c0,0.1,0,0.2,0,0.3c0,0.3-0.3,0.6-0.6,0.7c-0.4,0.1-0.7,0-0.9-0.3c0.2,0.1,0.4,0,0.6,0
		c0.1,0,0.1-0.1,0.2-0.1C10.5,30.6,10.7,30.4,11.1,30.3z"/>
	<path class="st0" d="M23.4,16.3c-0.2,0-0.3,0.1-0.2,0.2c0,0.1,0.1,0.2-0.1,0.2c-0.1,0-0.2,0-0.3-0.1c-0.2-0.2-0.2-0.6,0.1-0.8
		c0.1,0,0.2-0.1,0.3-0.1C23.4,15.9,23.4,16.1,23.4,16.3z"/>
	<path class="st0" d="M23.1,15.1c0.6-0.1,1.1,0.2,1.4,0.7c0,0.1,0.1,0.1,0,0.2C24,15.7,23.5,15.4,23.1,15.1z"/>
	<path class="st0" d="M9.3,17.3c-0.1-0.3-0.1-0.4,0.2-0.4C9.5,17.1,9.5,17.2,9.3,17.3z"/>
	<path class="st0" d="M10,2.7C9.9,2.5,9.9,2.2,10,2c0.2-0.1,0.4-0.1,0.6,0c0.2,0.1,0.3,0.3,0.4,0.4c-0.1,0.1-0.2,0.1-0.3,0.1l0,0
		h-0.1c0-0.1-0.1-0.1-0.2-0.1c-0.1,0-0.1,0.1-0.1,0.2C10.2,2.6,10.1,2.7,10,2.7z"/>
	<path class="st0" d="M10.4,2.6c0-0.1,0-0.2,0.1-0.2c0.1,0,0.2,0,0.2,0.1C10.6,2.6,10.5,2.6,10.4,2.6z"/>
	<path class="st0" d="M10.8,2.5L10.8,2.5L10.8,2.5z"/>
	<path class="st3" d="M24.6,27c-0.1-0.1-0.1-0.2-0.2-0.3c-0.2-0.3-0.3-0.7-0.5-1.1c0.5,0.2,0.8,0.5,1.2,0.7c0.1,0,0.1,0.1,0,0.1
		C24.9,26.6,24.7,26.8,24.6,27z"/>
</g>
<g id="Calque_2_1_" class="st4">
	<g class="st5">
		<path class="st0" d="M35.2,8.2c0-0.1,0-0.2,0-0.3V7.8h-0.1h0.1c0-0.3,0-0.5,0-0.8s0-0.5,0-0.8c-0.3-1.3-1.2-2-2.6-2
			c-5.5,0-11,0-16.5,0c-0.1,0-0.1,0-0.2,0c-0.1,0-0.1,0-0.1-0.1c0-0.3,0-0.5,0-0.8c0-1.5-1.2-2.8-2.8-2.8c-1.1,0-2.2,0-3.3,0
			c-1.3,0-2.5,1-2.7,2.3C6.9,3.2,7,3.6,7,4c0,0.2,0,0.2-0.2,0.2C6,4.3,5.4,4.7,5,5.4c0,0,0,0,0,0.1C4.7,6,4.7,6.5,4.7,7
			c0,0.1,0,0.2,0,0.3c0,0.2,0,0.4,0,0.6c0,0.1,0,0.1,0,0.2c0,0.1,0,0.1,0,0.2c-0.1,0.1,0,0.2,0,0.3s0,0.2,0,0.2c0,1.9,0,3.8,0,5.7
			c0,0.2,0,0.3-0.2,0.3S4.2,14.9,4,14.9c-1.2,0.5-2,1.7-2,3c0,2.6,0,5.3,0,7.9c0,0.4,0,0.7,0,1.1c0,0.5,0,0.9,0.1,1.4
			c0.5,2.1,2.3,3.7,4.5,3.9c2,0.2,4.1-1,4.9-3c0.1-0.2,0.2-0.2,0.4-0.2c6.9,0,13.8,0,20.7,0c0.3,0,0.6,0,0.9-0.1
			c0.8-0.3,1.4-0.8,1.6-1.6l0.1-0.1c0-0.1,0.1-0.2,0-0.3l0,0c0.1-0.3,0-0.6,0.1-0.9c0-0.2,0-0.5,0-0.7c0-5.6,0-11.3,0-16.9
			C35.2,8.3,35.2,8.3,35.2,8.2z M15.5,8.3c0,0.1-0.1,0.1-0.2,0.1C15.3,8.4,15.4,8.3,15.5,8.3z M15.3,7.9c0.1,0,0.2,0,0.2,0.1l0,0
			l0,0c0,0.1,0,0.2,0,0.2c0-0.1,0-0.1,0-0.2C15.5,7.9,15.4,7.9,15.3,7.9z M15.5,7.9L15.5,7.9L15.5,7.9L15.5,7.9z M8,14.7
			c0-3.8,0-7.6,0-11.4c0-1,0.6-1.8,1.6-1.9c1.3-0.1,2.5-0.1,3.8,0c0.9,0.1,1.5,0.9,1.5,1.8c0,6.2,0,12.5,0,18.7c0,1-0.8,1.8-1.8,1.8
			c-1.1,0-2.2,0-3.3,0c-1,0-1.8-0.8-1.8-1.9c0-1.4,0-2.8,0-4.2c0-0.1,0-0.2,0-0.3c0-0.2,0-0.3,0-0.5c0.1-0.1,0-0.2,0-0.3
			c0-0.2,0-0.4,0-0.5c0.1-0.3,0.1-0.7,0-1C8,14.9,8,14.8,8,14.7z M7.5,17.8L7.5,17.8C7.5,17.8,7.5,17.8,7.5,17.8s0.1-0.1,0-0.3
			c-0.1,0-0.2-0.1-0.3-0.1c0.1,0,0.2,0.1,0.3,0.1l0,0l0,0C7.6,17.6,7.6,17.7,7.5,17.8z M7.6,17.4L7.6,17.4L7.6,17.4L7.6,17.4z
			 M10.4,29.2c-0.8,1.4-2.5,2.2-4,2C4.7,30.9,3.3,29.7,3,28c-0.1-0.5-0.1-0.9-0.1-1.4c0-0.1,0-0.2,0-0.3c0.1-0.1,0-0.2,0-0.3
			c0-0.2,0-0.5,0-0.7c0-0.1,0-0.2,0-0.4c0-2.3,0-4.6,0-6.9c0-1.1,0.6-1.9,1.6-2.2c0.2-0.1,0.2,0,0.2,0.2c0,2.9,0,5.9,0,8.8
			c0,0.1,0,0.2,0,0.3c0.1,0,0.1,0,0.1,0.1c0,0-0.1,0-0.1-0.1c0,0.1,0,0.2,0,0.3c0,0.2,0,0.4,0,0.5c0,0,0.1,0,0.1,0.1
			c0,0-0.1,0-0.1-0.1c0,0.1,0,0.2,0,0.3c-0.1,0.2,0,0.4,0,0.6c0,0.1,0,0.1,0,0.1c0,0.1,0,0.2,0.1,0.3c0,0.1,0,0.2,0.1,0.2
			c0.3,0.9,1.2,1.5,2.2,1.5c1.1,0,2.1,0,3.2,0C10.5,28.9,10.5,29,10.4,29.2z M10.9,27.8c0,0.1-0.1,0.2-0.2,0.2c-1.2,0-2.4,0-3.6,0
			c-0.6,0-1-0.4-1.3-0.8v-0.1c0-0.1,0-0.1-0.1-0.2c-0.1-0.3,0-0.6-0.1-1c0,0-0.1,0-0.1-0.1c0,0,0.1,0,0.1,0.1c0-0.3,0-0.5,0-0.8
			c0-0.1,0-0.2,0-0.3c0-5.5,0-11,0-16.5c0-0.1,0-0.3,0-0.4c0-0.3,0-0.6,0-0.9s0-0.5,0.1-0.8c0.2-0.5,0.5-0.8,1.1-1
			C7,5.1,7,5.2,7,5.4c0,3.1,0,6.3,0,9.4v0.1c0,0.2,0,0.3,0,0.5v0.1c0,0.4,0,0.9,0,1.3l0,0c0,0.1,0,0.2,0,0.4l0,0
			c0,0.2-0.1,0.4,0,0.7c0,1.4,0,2.8,0,4.1c0,1.2,0.8,2.2,2,2.6c0.2,0.1,0.3,0.1,0.3,0.4c0,0.5,0.1,1,0.6,1.3
			c0.3,0.2,0.6,0.2,0.9,0.2c0.2,0,0.3,0,0.2,0.2C10.9,27,11,27.4,10.9,27.8z M34.2,27c-0.2,0.6-0.7,0.9-1.3,1c-0.1,0-0.2,0-0.3,0
			c-6.8,0-13.6,0-20.5,0c-0.3,0-0.3,0-0.3-0.3c0-0.4,0-0.7,0-1.1c0-0.1,0-0.2,0.2-0.2c1.2,0,1.5-0.4,1.5-1.5c0-0.2,0-0.2,0.2-0.3
			c1.2-0.4,2-1.4,2-2.7c0-4.5,0-8.9,0-13.4c0-0.1,0.1-0.2,0-0.3c0.1-0.3,0-0.6,0-0.9c0-0.1,0-0.3,0-0.4c0-0.2,0-0.3,0-0.5
			c0-0.3,0-0.6,0-0.9s0-0.3,0.4-0.3c5.5,0,10.9,0,16.4,0c0.7,0,1.2,0.3,1.5,0.9c0,0.1,0.1,0.3,0.1,0.4c0-0.1,0.1-0.1,0.2-0.1
			c-0.1,0-0.1,0.1-0.2,0.1c0,0.2,0,0.3,0,0.5h0.1h-0.1c0,0.1,0,0.3,0,0.4c0,0.2-0.1,0.4,0.1,0.6l0,0c-0.1,0.2-0.1,0.4-0.1,0.6
			c0,5.4,0,10.7,0,16.1c0,0.1,0,0.2,0,0.3c0,0.1,0,0.3,0,0.4l0,0c-0.1,0.2,0,0.4,0,0.5s0,0.3,0,0.4C34.2,26.5,34.3,26.8,34.2,27z"/>
		<path class="st0" d="M21.3,11.3c3,0,6,0,9,0c0.6,0,1.2,0,1.9,0c0.6,0,1.1-0.5,1.1-1.1c0-0.7,0-1.3,0-2c0-0.2,0-0.3,0-0.5
			c0-0.5-0.2-0.8-0.6-1c-0.1-0.1-0.2-0.1-0.4-0.1c-0.4,0-0.7,0-1.1,0c-0.1,0-0.3,0-0.4,0c-0.3,0-0.7,0-1,0c-2.7,0-5.3,0-8,0
			c-0.3,0-0.6-0.1-0.8,0c-0.1,0-0.2,0-0.3,0.1c-0.2,0.1-0.4,0.2-0.4,0.5c-0.1,0.1-0.1,0.3-0.1,0.4c0,0.8,0,1.6,0,2.4
			C20.1,10.9,20.6,11.3,21.3,11.3z M32.2,7.7c0.1,0,0.1,0,0.2,0C32.3,7.7,32.3,7.7,32.2,7.7s-0.2,0-0.2,0
			C32.1,7.7,32.1,7.7,32.2,7.7z"/>
		<path class="st0" d="M32.8,13.1c0.3,0,0.5-0.3,0.4-0.6c-0.1-0.2-0.3-0.4-0.6-0.4c-2.9,0-5.9,0-8.8,0c-0.9,0-1.9,0-2.8,0
			c-0.1,0-0.3,0-0.4,0.1c-0.2,0.1-0.2,0.3-0.2,0.5c0.1,0.2,0.3,0.3,0.5,0.3c1.9,0,3.9,0,5.8,0c1.8,0,3.7,0,5.5,0
			C32.5,13.1,32.6,13.1,32.8,13.1z"/>
		<path class="st0" d="M27.5,23.8c-0.6,0-1.1,0-1.7,0c-0.7,0-1.2,0.6-1.2,1.4c0,0.7,0.5,1.2,1.2,1.3c0.3,0,0.5,0,0.8,0s0.5,0,0.8,0
			c0.7,0,1.2-0.5,1.2-1.2C28.7,24.4,28.3,23.8,27.5,23.8z"/>
		<path class="st0" d="M30.5,23.1c0.3,0,0.5,0,0.8,0s0.5,0,0.8,0c0.7,0,1.2-0.5,1.2-1.2c0-0.8-0.4-1.4-1.1-1.5c-0.6,0-1.2,0-1.8,0
			c-0.7,0-1.1,0.6-1.1,1.4C29.3,22.6,29.8,23.1,30.5,23.1z M31.2,21.4c0.1,0,0.2,0,0.4,0C31.5,21.4,31.3,21.4,31.2,21.4
			c-0.2,0-0.5,0-0.7,0C30.8,21.4,31,21.4,31.2,21.4z"/>
		<path class="st0" d="M25.9,23.1c0.2,0,0.5,0,0.7,0s0.5,0,0.7,0c0.7,0,1.2-0.5,1.3-1.2c0-0.8-0.4-1.4-1.2-1.4c-0.5,0-1.1,0-1.6,0
			c-0.7,0-1.2,0.6-1.2,1.4C24.7,22.6,25.2,23.1,25.9,23.1z M26.7,21.4c0.2,0,0.5,0,0.7,0C27.2,21.4,26.9,21.4,26.7,21.4
			s-0.5,0-0.7,0C26.2,21.4,26.4,21.4,26.7,21.4z"/>
		<path class="st0" d="M21.3,23.1c0.3,0,0.5,0,0.8,0c0.2,0,0.5,0,0.7,0c0.8,0,1.3-0.5,1.3-1.3s-0.5-1.3-1.3-1.3c-0.4,0-0.9,0-1.3,0
			c-0.9,0-1.5,0.6-1.4,1.5C20.2,22.6,20.7,23.1,21.3,23.1z M22.2,21.4c0.2,0,0.5,0,0.7,0C22.6,21.4,22.4,21.4,22.2,21.4
			s-0.5,0-0.7,0C21.7,21.4,21.9,21.4,22.2,21.4z"/>
		<path class="st0" d="M30.2,19.8c0.2,0,0.4,0,0.6,0c0.4,0,0.9,0,1.3,0c0.7-0.1,1.1-0.6,1-1.4c0-0.6-0.5-1.2-1.1-1.2
			c-0.5,0-0.9,0-1.4,0c-0.4,0-0.8,0.1-1.1,0.3c0,0-0.1,0-0.1,0.1c0,0-0.1,0,0,0.1l0,0c-0.1,0-0.1,0.1-0.1,0.2
			C29.1,18.5,29.3,19.6,30.2,19.8z M31.2,18.1c0.2,0,0.5,0,0.7,0C31.7,18.1,31.5,18.1,31.2,18.1c-0.2,0-0.5,0-0.7,0
			C30.8,18.1,31,18.1,31.2,18.1z"/>
		<path class="st0" d="M21.3,16.5c0.5,0,1,0,1.6,0c0.1,0,0.3,0,0.4,0c0.3-0.1,0.5-0.2,0.6-0.4c0.1-0.1,0.2-0.2,0.2-0.3
			c0.1-0.1,0.1-0.3,0.1-0.4c0-0.1,0-0.2,0-0.3C24.1,14.5,23.7,14,23,14c-0.5,0-1.1,0-1.6,0c-0.1,0-0.2,0-0.3,0
			c-0.6,0.2-1,0.7-0.9,1.5C20.2,16,20.7,16.5,21.3,16.5z"/>
		<path class="st0" d="M23,23.8c-0.5,0-1.1,0-1.6,0c-0.6,0-1.1,0.5-1.2,1.1c0,0.1,0,0.2,0,0.4c0,0.2,0.1,0.4,0.2,0.6
			c0.1,0.1,0.2,0.3,0.3,0.3c0.2,0.1,0.4,0.2,0.7,0.2c0.5,0,1,0,1.6,0c0.7,0,1.2-0.5,1.2-1.2C24.1,24.3,23.7,23.8,23,23.8z"/>
		<path class="st0" d="M32.1,23.8c-0.5,0-1.1,0-1.6,0c-0.7,0-1.2,0.6-1.2,1.4c0,0.7,0.5,1.2,1.2,1.2c0.5,0,1,0,1.6,0
			c0.4,0,0.8-0.2,1-0.5c0.3-0.4,0.3-0.9,0.1-1.3C32.9,24,32.6,23.8,32.1,23.8z M30.8,24.7L30.8,24.7c-0.1,0-0.2,0-0.3,0
			C30.6,24.7,30.7,24.7,30.8,24.7z"/>
		<path class="st0" d="M25.9,13.8c-0.2,0-0.4,0.1-0.6,0.2c-0.5,0.3-0.7,0.8-0.6,1.5c0.1,0.4,0.3,0.6,0.6,0.8
			c0.2,0.1,0.3,0.1,0.5,0.1c0.1,0,0.3,0,0.4,0c0.2,0,0.4,0,0.6,0c0.1,0.1,0.3,0,0.4,0h0.1c0.1,0,0.3,0,0.4-0.1
			c0.3,0,0.5-0.2,0.6-0.4c0.1-0.1,0.2-0.2,0.2-0.4c0-0.1,0-0.1,0-0.2c0.2-0.8-0.4-1.6-1.2-1.6C26.9,13.8,26.4,13.8,25.9,13.8z
			 M25.8,15.5c-0.1,0-0.1,0-0.2,0C25.7,15.5,25.7,15.5,25.8,15.5L25.8,15.5z M25.6,15.5L25.6,15.5C25.6,15.5,25.6,15.5,25.6,15.5z
			 M25.4,15.5L25.4,15.5L25.4,15.5z"/>
		<path class="st0" d="M29.6,16.1c0.2,0.3,0.5,0.4,0.9,0.4c0.5,0,1,0,1.5,0c0.7,0,1.3-0.5,1.3-1.3s-0.5-1.3-1.2-1.3
			c-0.5,0-1,0-1.5,0c-0.2,0-0.4,0-0.6,0.1c-0.6,0.3-0.9,1.1-0.6,1.8C29.4,15.9,29.4,16,29.6,16.1z"/>
		<path class="st0" d="M23.5,17.3c-0.2-0.1-0.4-0.2-0.7-0.2c-0.4,0-0.9,0-1.3,0c-0.9,0-1.4,0.6-1.3,1.5c0.1,0.7,0.6,1.1,1.2,1.1
			c0.5,0,1,0,1.6,0c0.1,0,0.2,0,0.2,0c1.1-0.2,1.2-1.5,0.7-2.1C23.8,17.5,23.7,17.4,23.5,17.3z M23.5,17.4
			C23.4,17.4,23.4,17.4,23.5,17.4C23.4,17.5,23.4,17.5,23.5,17.4C23.4,17.4,23.4,17.4,23.5,17.4z"/>
		<path class="st0" d="M28.1,17.3c-0.2-0.1-0.4-0.2-0.7-0.2c-0.5,0-0.9,0-1.4,0c-0.2,0-0.3,0-0.5,0.1c-0.1,0-0.1,0-0.1,0
			c-0.2,0.1-0.4,0.2-0.5,0.4l0,0c-0.3,0.4-0.3,0.9-0.1,1.3c0.2,0.5,0.5,0.7,1,0.7c0.2,0,0.4,0,0.5,0c0.3,0,0.7,0,1,0
			c0.6,0,1-0.2,1.2-0.7s0.2-1.1-0.2-1.5C28.3,17.4,28.2,17.4,28.1,17.3z"/>
		<path class="st0" d="M9.3,19.8c1.4,0,2.9,0,4.3,0c0.2,0,0.3-0.1,0.4-0.2c0.2-0.3,0-0.7-0.4-0.7c-0.7,0-1.4,0-2.1,0l0,0
			c-0.7,0-1.4,0-2.1,0c-0.3,0-0.5,0.2-0.5,0.5C8.8,19.6,9,19.8,9.3,19.8z"/>
		<path class="st0" d="M9.3,22c1.4,0,2.8,0,4.2,0c0.1,0,0.2,0,0.2,0c0.2-0.1,0.3-0.3,0.3-0.5c0-0.3-0.2-0.5-0.4-0.5
			c-0.7,0-1.4,0-2.1,0c-0.7,0-1.4,0-2.1,0c-0.3,0-0.5,0.2-0.5,0.5C8.8,21.8,9,22,9.3,22z"/>
	</g>
</g>
<g id="Calque_3" class="st4">
	<path class="st6" d="M10.3,11.2c0-0.1,0-0.2-0.1-0.4c0,0,0,0,0-0.1c-0.1-0.1,0-0.3,0-0.4c0-0.3-0.1-0.5-0.1-0.8l0,0c0,0,0,0,0-0.1
		c0,0,0,0,0-0.1s0-0.1,0-0.2c0,0,0,0,0-0.1c0-0.9,0.1-1.8,0.4-2.6c0.6-2.3,1.8-4,3.9-5.2c1.2-0.7,2.6-1.1,4-1.2c0.3,0,0.6,0,0.8,0
		l0,0c0.1,0,0.1,0,0.2,0c0,0,0,0,0.1,0c0.4,0,0.8,0.1,1.2,0.1c0.1,0,0.2,0,0.2,0c0.1,0,0.3,0.1,0.4,0.1h0.1l0,0c0,0,0,0,0.1,0
		c1.2,0.3,2.3,0.8,3.3,1.6c0.8,0.6,1.5,1.4,2,2.3c0.6,1.1,1,2.3,1.2,3.6c0.1,0.6,0.1,1.3,0.1,1.9c0,0.7-0.2,1.4-0.4,2.1
		c-0.5,1.5-1.2,2.8-2.1,4c-0.8,1.1-1.6,2.4-2,3.7c-0.3,0.8-0.5,1.5-0.4,2.4c0,0.1,0,0.2-0.2,0.2c-0.8,0-1.5,0-2.3,0
		c-1.8,0-3.6,0-5.4,0c-0.1,0-0.2,0-0.1-0.1c0-1.2-0.3-2.3-0.8-3.3c-0.5-1.1-1.2-2.1-1.9-3.1c-0.8-1.2-1.5-2.4-1.9-3.8c0,0,0,0,0-0.1
		C10.4,11.6,10.4,11.4,10.3,11.2z M21.1,21.6c0.3,0,0.7,0,1,0h0.1c0.1,0,0.2,0.1,0.2-0.1c0-0.7,0.2-1.5,0.5-2.2
		c0.5-1.3,1.2-2.5,2-3.6c0.9-1.2,1.6-2.5,2.1-3.9c0.3-0.8,0.4-1.6,0.4-2.5c0-0.6-0.1-1.2-0.2-1.8c-0.2-1-0.5-2-1-2.9
		c-0.7-1.2-1.6-2.1-2.8-2.7c-0.6-0.3-1.2-0.6-1.9-0.8c-0.2,0-0.4-0.1-0.6-0.1c-0.3-0.1-0.7-0.1-1-0.1c-0.2,0-0.4,0-0.5,0
		c-1.1,0-2.2,0.2-3.2,0.5c-1.2,0.4-2.3,1-3.1,1.9C12.2,4,11.7,4.9,11.3,6c-0.3,0.9-0.5,1.8-0.5,2.7c0,0.5-0.1,0.9,0,1.4
		c0.1,1,0.4,1.9,0.8,2.9c0.4,0.9,0.8,1.7,1.4,2.4c0.7,1,1.4,2,1.9,3s0.8,2,0.9,3c0,0.1,0,0.1,0.1,0.1c1.1,0,2.1,0,3.2,0
		C19.7,21.6,20.4,21.6,21.1,21.6L21.1,21.6z"/>
	<path class="st6" d="M19.1,29.7c-1,0-2.1,0-3.1,0c-0.5,0-0.9-0.2-1.1-0.7c-0.2-0.4-0.2-0.8,0.1-1.2c0.2-0.3,0.6-0.4,0.9-0.4
		c0.7,0,1.4,0,2.2,0c1.4,0,2.7,0,4.1,0c0.6,0,1.1,0.4,1.2,1c0.1,0.6-0.4,1.2-1.1,1.2C21.2,29.7,20.2,29.7,19.1,29.7L19.1,29.7z
		 M19.1,29.1c1,0,2,0,3.1,0c0.1,0,0.2,0,0.3,0c0.2-0.1,0.4-0.3,0.3-0.6c0-0.3-0.3-0.5-0.5-0.5c-1,0-2,0-2.9,0c-1.1,0-2.2,0-3.3,0
		c-0.2,0-0.3,0-0.4,0.2c-0.1,0.2-0.2,0.4-0.1,0.6c0.1,0.2,0.3,0.3,0.5,0.3C17,29,18,29.1,19.1,29.1z"/>
	<path class="st6" d="M19.1,24.7c-1.1,0-2.2,0-3.3,0c-0.3,0-0.5-0.2-0.7-0.4c-0.3-0.3-0.4-0.8-0.2-1.2c0.2-0.5,0.6-0.7,1.1-0.7
		c1.1,0,2.2,0,3.3,0c1,0,2,0,2.9,0c0.6,0,1.1,0.4,1.2,1c0.1,0.5-0.2,1-0.7,1.2c-0.1,0.1-0.3,0.1-0.4,0.1
		C21.2,24.7,20.1,24.7,19.1,24.7L19.1,24.7z M22.6,23.2C22.5,23,22.3,23,22.2,23c-0.9,0-1.8,0-2.7,0c-1.2,0-2.3,0-3.5,0
		c-0.2,0-0.3,0-0.4,0.2c-0.2,0.2-0.2,0.5,0,0.7c0.1,0.1,0.3,0.2,0.5,0.2c1.9,0,3.9,0,5.8,0c0.2,0,0.3,0,0.5,0s0.4-0.1,0.4-0.3
		C22.8,23.5,22.8,23.4,22.6,23.2L22.6,23.2z"/>
	<path class="st6" d="M22.8,25c0.3,0.2,0.5,0.5,0.6,0.9c0.1,0.7-0.4,1.3-1.1,1.3c-1,0-2.1,0-3.1,0c-1.1,0-2.1,0-3.2,0
		c-0.8,0-1.3-0.7-1.1-1.5c0.1-0.4,0.5-0.7,0.9-0.8c0.1,0,0.2,0,0.3,0c2,0,4,0,6.1,0C22.3,24.9,22.6,24.9,22.8,25z M19.1,25.5
		c-1,0-2.1,0-3.1,0c-0.3,0-0.6,0.2-0.6,0.5s0.3,0.6,0.6,0.6c2.1,0,4.1,0,6.2,0c0.1,0,0.1,0,0.2,0c0.3-0.1,0.5-0.3,0.4-0.6
		c0-0.3-0.2-0.5-0.5-0.5C21.2,25.5,20.1,25.5,19.1,25.5z"/>
	<path class="st6" d="M20.9,32.1L20.9,32.1c-0.1,0-0.2,0-0.3,0.1c-1,0-2,0-3,0c-0.5,0-1-0.4-1.1-0.9s0.1-1,0.6-1.3
		c0.2-0.1,0.3-0.1,0.5-0.1c0.9,0,1.9,0,2.8,0c0.7,0,1.2,0.5,1.2,1.2v0.1c0,0.1,0,0.1-0.1,0.2c0,0,0,0.1-0.1,0.1
		c0,0.1-0.1,0.1-0.1,0.2l0,0c0,0,0,0-0.1,0.1C21.2,31.9,21.1,32,20.9,32.1C21,32,21,32.1,20.9,32.1z M19.1,31.5L19.1,31.5
		c0.5,0,0.9,0,1.4,0c0.3,0,0.6-0.2,0.6-0.5s-0.2-0.6-0.6-0.6c-0.9,0-1.8,0-2.8,0c-0.3,0-0.6,0.2-0.6,0.5s0.2,0.5,0.6,0.5
		C18.2,31.5,18.6,31.5,19.1,31.5z"/>
	<path class="st6" d="M15.6,10c0-0.2,0.1-0.3,0.3-0.3s0.3,0.1,0.3,0.3c0.1,0.7,0.3,1.3,0.4,2c0.2,1,0.4,1.9,0.6,2.9
		c0.4,1.9,0.7,3.8,1.1,5.6c0,0.1,0,0.2,0.1,0.3c0,0.2-0.1,0.3-0.2,0.4c-0.2,0-0.3-0.1-0.4-0.3c-0.2-1-0.4-1.9-0.6-2.9
		c-0.3-1.4-0.5-2.7-0.8-4.1C16.1,12.6,15.9,11.4,15.6,10C15.6,10.1,15.6,10.1,15.6,10z"/>
	<path class="st6" d="M20.5,20.6c0,0.2-0.1,0.3-0.1,0.5c0,0-0.1,0-0.1,0.1c-0.3,0.1-0.5-0.1-0.4-0.4c0.3-1.3,0.5-2.7,0.8-4
		c0.3-1.6,0.6-3.2,0.9-4.7c0.1-0.6,0.2-1.1,0.3-1.7c0.1-0.1,0-0.3,0.1-0.4c0,0,0.1,0,0.1-0.1c0.1-0.1,0.2-0.1,0.3,0s0.2,0.2,0.1,0.4
		c-0.3,1.6-0.6,3.2-1,4.8c-0.3,1.7-0.7,3.4-1,5.1v0.1l0,0c0,0,0,0,0,0.1L20.5,20.6C20.5,20.5,20.5,20.5,20.5,20.6L20.5,20.6z"/>
	<path class="st6" d="M16,23.1C16,23.2,16,23.2,16,23.1C16,23.2,16,23.2,16,23.1L16,23.1L16,23.1z"/>
	<path class="st6" d="M7.3,12.6h-9.9c-0.3,0-0.6-0.3-0.6-0.6l0,0c0-0.3,0.3-0.6,0.6-0.6h9.9c0.3,0,0.6,0.3,0.6,0.6l0,0
		C7.9,12.4,7.6,12.6,7.3,12.6z"/>
	<path class="st6" d="M40.7,12.6h-9.9c-0.3,0-0.6-0.3-0.6-0.6l0,0c0-0.3,0.3-0.6,0.6-0.6h9.9c0.3,0,0.6,0.3,0.6,0.6l0,0
		C41.3,12.4,41,12.6,40.7,12.6z"/>
	<path class="st6" d="M7.7,8.6l-7-7C0.5,1.4,0.5,1,0.7,0.8l0,0c0.2-0.2,0.6-0.2,0.8,0l7,7c0.2,0.2,0.2,0.6,0,0.8l0,0
		C8.3,8.8,7.9,8.8,7.7,8.6z"/>
	<path class="st6" d="M30.4,8.6l7-7c0.2-0.2,0.2-0.6,0-0.8l0,0c-0.2-0.2-0.6-0.2-0.8,0l-7,7c-0.2,0.2-0.2,0.6,0,0.8l0,0
		C29.8,8.8,30.2,8.8,30.4,8.6z"/>
	<path class="st6" d="M8.7,14.8l-7,7c-0.2,0.2-0.2,0.6,0,0.8l0,0c0.2,0.2,0.6,0.2,0.8,0l7-7c0.2-0.2,0.2-0.6,0-0.8l0,0
		C9.3,14.6,8.9,14.6,8.7,14.8z"/>
	<path class="st6" d="M29.4,14.8l7,7c0.2,0.2,0.2,0.6,0,0.8l0,0c-0.2,0.2-0.6,0.2-0.8,0l-7-7c-0.2-0.2-0.2-0.6,0-0.8l0,0
		C28.8,14.6,29.2,14.6,29.4,14.8z"/>
</g>
<g id="Calque_4" class="st4">
	<path class="st6" d="M1,12.7c0.7,0,1.5,0,2.2,0c0.2,0,0.3,0,0.3-0.2c0.1-0.3,0.3-0.7,0.5-1c0.4-0.9,1-1.6,1.7-2.3
		c2-1.8,4.3-2.7,6.9-2.5c2.3,0.1,4.3,0.9,6,2.5c0.1,0.1,0.2,0.1,0.3,0c1.3-1.2,2.7-2,4.4-2.3c3-0.6,5.8,0,8.2,2
		c1.1,0.9,2,2.1,2.5,3.5c0.1,0.2,0.2,0.3,0.4,0.3c0.9,0,1.8,0,2.7,0c0.5,0,0.6,0.2,0.6,0.6c0,1.3,0,2.5,0,3.8c0,0.3-0.2,0.5-0.5,0.5
		c-1,0-2,0-3,0c-0.1,0-0.2,0-0.3,0.2c-0.9,2.5-2.6,4.1-5,5.1c-1.3,0.6-2.7,0.8-4.2,0.7c-2.3-0.2-4.3-0.9-5.9-2.5
		c-0.1-0.1-0.1-0.1-0.2,0c-2.1,1.9-4.6,2.7-7.4,2.5c-1-0.1-1.9-0.3-2.8-0.7c-2.2-1-3.9-2.6-4.8-4.9c-0.2-0.4-0.1-0.4-0.6-0.4
		c-1.3,0-2.5,0-3.8,0c-0.2,0-0.3,0-0.5,0c-0.3,0-0.5-0.2-0.5-0.5s0-0.5,0-0.8c0-1,0-1.9,0-2.9v-0.1c0-0.5,0.2-0.7,0.7-0.7
		C-0.4,12.7,0.3,12.7,1,12.7z M12.5,7.6c-1,0-1.8,0.1-2.5,0.3c-2.5,0.7-4.4,2.2-5.5,4.7c-1.1,2.7-0.4,5.7,1.7,7.9
		c1.5,1.4,3.2,2.2,5.2,2.4c2.5,0.2,4.7-0.6,6.5-2.3c0.1-0.1,0.1-0.2,0-0.3c-0.6-0.7-1-1.5-1.3-2.3c0-0.1,0-0.2-0.1-0.2
		s-0.2,0.1-0.3,0.2c-0.7,0.8-1.5,1.4-2.6,1.7c-2.1,0.6-4,0.2-5.5-1.4c-1.2-1.3-1.5-3.2-0.7-4.7c0.9-1.6,2.3-2.4,4.1-2.6
		c1.8-0.2,3.3,0.4,4.6,1.7c0.1,0.1,0.2,0.1,0.2,0c0.3-0.2,0.5-0.4,0.6-0.7c0.3-0.6,0.6-1.1,1-1.6c0.1-0.1,0.1-0.2,0-0.3
		C16.4,8.4,14.4,7.6,12.5,7.6z M31.3,12.7L31.3,12.7c0.5,0,1,0,1.5,0c0.2,0,0.2-0.1,0.1-0.2c-0.3-0.7-0.7-1.4-1.2-2
		c-1.5-1.7-3.4-2.7-5.7-2.9c-1.8-0.2-3.5,0.2-5.1,1.1c-1.4,0.8-2.4,1.9-3.1,3.4c-0.1,0.3-0.3,0.6-0.5,0.8c-0.1,0.1-0.1,0.2-0.1,0.3
		c0.1,0.3,0.2,0.7,0.3,1.1c0.1,0.3-0.1,0.5-0.3,0.6c-0.3,0.1-0.5-0.1-0.6-0.3s-0.1-0.5-0.2-0.7c0-0.2-0.1-0.3-0.3-0.2
		c-0.1,0-0.3,0-0.4,0c-0.5,0-1,0-1.6,0c-0.2,0-0.2,0-0.2,0.2c0.3,0.9,0.5,1.8,0.7,2.7c0,0.1,0.1,0.2,0.2,0.1c0.5,0,1,0,1.4,0
		c1.7-0.2,2.9-1,3.9-2.4c0.3-0.4,0.5-0.9,0.8-1.3c0.4-0.6,0.9-1.1,1.4-1.5c1.1-0.7,2.3-0.9,3.6-0.8c1.4,0.2,2.6,0.7,3.5,1.8
		c0.1,0.1,0.2,0.1,0.3,0.1C30.3,12.7,30.8,12.7,31.3,12.7z M20.4,15.6c-0.1,0-0.1,0.1-0.1,0.1c-0.7,0.8-1.5,1.3-2.5,1.6
		c-0.2,0.1-0.1,0.1-0.1,0.3c0.5,1.5,1.4,2.7,2.7,3.6c2.9,2.1,6.7,2.2,9.7,0.2c1.3-0.9,2.3-2,2.9-3.5c0-0.1,0.1-0.2-0.1-0.2
		c-1.1,0-2.1,0-3.2,0c-0.1,0-0.2,0-0.2,0.1c-0.9,1.1-2,1.7-3.4,1.9c-1.8,0.2-3.4-0.3-4.7-1.6C20.8,17.4,20.5,16.6,20.4,15.6z
		 M34.3,13.6L34.3,13.6c-0.8,0-1.6,0-2.4,0c-0.1,0-0.2,0-0.2,0.2c0.3,0.9,0.5,1.9,0.7,2.8c0,0.1,0.1,0.2,0.2,0.2c1.3,0,2.6,0,3.9,0
		c0.1,0,0.2,0,0.2-0.2c0-0.9,0-1.8,0-2.7c0-0.2,0-0.2-0.2-0.2C35.8,13.6,35.1,13.6,34.3,13.6z M23.2,16.7c0.4,0,0.9,0,1.3,0
		c0.1,0,0.2,0,0.2-0.2c-0.3-0.9-0.5-1.9-0.7-2.8c0-0.1-0.1-0.2-0.2-0.1c-0.6,0-1.2,0-1.8,0c-0.1,0-0.2,0-0.3,0.1
		c-0.2,0.3-0.3,0.6-0.5,0.8c-0.1,0.1-0.1,0.2,0,0.3c0.2,0.5,0.4,1.1,0.6,1.7c0,0.1,0.1,0.2,0.3,0.2S22.8,16.7,23.2,16.7z M13.8,16.7
		c-0.3-1-0.5-2-0.8-3c0-0.1-0.1-0.1-0.1-0.1c-0.8,0-1.6,0-2.4,0c0.3,1,0.5,2,0.8,3c0,0.1,0.1,0.1,0.1,0.1
		C12.2,16.7,13,16.7,13.8,16.7z M28.1,16.7c-0.3-1-0.5-2-0.8-3c0-0.1-0.1-0.1-0.2-0.1c-0.7,0-1.4,0-2.2,0c-0.2,0-0.2,0-0.1,0.2
		c0.2,0.7,0.4,1.5,0.6,2.2c0.1,0.2,0,0.5,0.2,0.6s0.5,0,0.7,0C26.9,16.7,27.5,16.7,28.1,16.7z M31.6,16.7c-0.3-1-0.5-2-0.8-3
		c0-0.1-0.1-0.1-0.2-0.1c-0.7,0-1.5,0-2.2,0c-0.1,0-0.2,0-0.1,0.2c0.3,0.9,0.5,1.9,0.7,2.8c0,0.1,0.1,0.1,0.2,0.1c0.6,0,1.3,0,1.9,0
		C31.3,16.7,31.4,16.7,31.6,16.7z M9.4,16.7c0.3,0,0.5,0,0.8,0c0.1,0,0.2,0,0.1-0.2c-0.3-0.9-0.5-1.9-0.7-2.8c0-0.1-0.1-0.1-0.2-0.1
		c-0.2,0-0.5,0-0.7,0s-0.2,0.1-0.3,0.2c-0.4,0.9-0.4,1.9,0,2.8c0,0.1,0.1,0.1,0.2,0.1C8.9,16.7,9.1,16.7,9.4,16.7z M-0.8,15.2
		c0,0.4,0,0.9,0,1.3c0,0.1,0,0.2,0.2,0.2c0.5,0,1.1,0,1.6,0c0.1,0,0.2,0,0.1-0.2c-0.3-0.9-0.5-1.9-0.7-2.8c0-0.1-0.1-0.2-0.2-0.2
		c-0.3,0-0.5,0-0.8,0c-0.2,0-0.2,0.1-0.2,0.2C-0.8,14.3-0.8,14.7-0.8,15.2z M9.2,12.7c2,0,3.9,0,5.9,0C13.7,11.3,10.8,11.2,9.2,12.7
		z M2.3,13.6c-0.3,0-0.5,0-0.8,0c-0.1,0-0.2,0-0.1,0.2c0.3,0.9,0.5,1.9,0.7,2.8c0,0.1,0.1,0.1,0.2,0.1c0.3,0,0.6,0,0.9,0
		c0.1,0,0.1,0,0.1-0.1c-0.2-0.9-0.2-1.9,0-2.8c0-0.1,0-0.1-0.1-0.1C2.8,13.6,2.5,13.6,2.3,13.6z M22.5,12.7c1.9,0,3.9,0,5.8,0
		C26.6,11.1,23.7,11.4,22.5,12.7z M15.1,17.7c-0.3,0-5.7,0-5.8,0C10.9,19.1,13.6,19,15.1,17.7z M28.3,17.7c-2,0-3.9,0-5.8,0
		C24.1,19.1,26.8,19.1,28.3,17.7z"/>
</g>
<g id="Calque_5" class="st4">
	<path class="st6" d="M9.4,0.1C10.6,0.4,11.8,1,13,1.4c1.7,0.6,3.3,1.2,5,1.9c0.3,0.1,0.5,0.2,0.4,0.6c-0.1,0.3,0.1,0.4,0.4,0.4
		c0.3,0,0.5-0.1,0.5,0.3c0,0.2,0.2,0.2,0.3,0.2c2.5,0.2,4,1.7,4.9,3.9c0.5,1.2,0.6,2.4,0.7,3.6c0,0.3,0.1,0.5,0.4,0.7
		c0.5,0.3,0.8,0.9,1,1.4c0.6,1.5,0.8,3.1,1,4.7c0.2,1.9,0.3,3.9,0.3,5.8c0,0.8-0.3,1.1-1,1.2c-1.1,0.1-2.3,0.1-3.4,0
		c-0.8-0.1-1.1-0.4-1.1-1.3c0.1-2.7,0-5.4,0.4-8.1c0.1-0.8,0.3-1.7,0.5-2.5c0.1-0.4,0.3-0.8,0.6-1c0.4-0.3,0.5-0.7,0.4-1.1
		c-0.2-1.8-0.5-3.6-1.8-5c-0.7-0.8-1.6-1.2-2.7-1.3c-0.3,0-0.6,0-0.5,0.4c0.1,0.5-0.1,0.6-0.6,0.6c-0.2,0-0.4-0.1-0.4,0.2
		c0,0.2-0.1,0.5,0.3,0.6c2.3,0.9,3.3,2.5,3.3,5c0,5.6,0,11.1,0,16.7c0,0.3,0,0.7-0.1,1c-0.1,0.9-0.7,1.5-1.5,1.7c-0.3,0-0.7,0-1.1,0
		c-1.6,0.1-3.2,0.1-4.9,0c-1.7-0.1-2.4-0.9-2.4-2.6c0-5.8,0-11.5,0-17.3c0-2.2,1.1-3.7,3-4.5c0.4-0.2,0.5-0.3,0.5-0.7
		c0-1.2,0-1.2-1.2-1.2c-1.1,0-2.2,0-3.3,0c-0.4,0-0.5-0.1-0.5-0.5s0.1-0.5,0.5-0.5c1.1,0,2.2,0,3.3,0c0.1-0.1,0-0.1-0.1-0.2
		c-1.5-0.6-2.9-1.3-4.4-1.9c-0.1,0-0.2,0-0.3,0C9.4,1.8,9.4,0.9,9.4,0.1z M13,20.6c0,1.5,0,3,0,4.5c0,0.4,0.1,0.5,0.5,0.5
		c2.3,0,4.7,0,7,0c0.4,0,0.5-0.1,0.5-0.5c0-3,0-5.9,0-8.9c0-0.4-0.1-0.5-0.5-0.5c-2.3,0-4.7,0-7,0c-0.4,0-0.5,0.1-0.5,0.5
		C13,17.6,13,19.1,13,20.6z M16.9,14.7c1.2,0,2.4,0,3.5,0c0.2,0,0.5,0.1,0.5-0.2c0-1.2,0.2-2.5-0.2-3.7c-0.5-1.3-1.4-2-2.7-2.4
		c-0.4-0.1-0.7-0.3-0.6-0.8c0.1-0.5,0-1,0-1.5c0-0.4-0.2-0.3-0.5-0.3c-0.2,0-0.5-0.1-0.5,0.3c0,0.5,0,1,0,1.5
		c0.1,0.5-0.2,0.7-0.7,0.8C14,8.9,13,10.3,13,12.1c0,0.7,0,1.4,0,2c0,0.4,0.1,0.5,0.5,0.5C14.6,14.6,15.8,14.7,16.9,14.7z M17,31.1
		c0.9,0,1.8,0,2.7-0.1c1-0.1,1.3-0.5,1.3-1.4s0-1.7,0-2.6c0-0.3-0.1-0.4-0.4-0.4c-2.4,0-4.8,0-7.1,0c-0.3,0-0.4,0.1-0.4,0.4
		c0,0.9,0,1.8,0,2.7c0,0.9,0.3,1.3,1.3,1.4C15.2,31.1,16.1,31.1,17,31.1z M23.3,22.2c0,0.8,0,1.5,0,2.3c0,0.2,0,0.4,0.3,0.5
		c0.9,0.1,1.9,0.1,2.8,0c0.3,0,0.4-0.1,0.4-0.4c0-2.9-0.1-5.7-0.7-8.5c-0.1-0.6-0.3-1.3-0.6-1.8c-0.2-0.3-0.3-0.7-0.7-0.6
		c-0.4,0-0.4,0.4-0.6,0.7c-0.1,0.3-0.2,0.7-0.3,1C23.5,17.6,23.4,19.9,23.3,22.2z M17.4,4.4c0.1-0.3-0.1-0.3-0.3-0.4
		c-0.7-0.3-1.3-0.5-2-0.8c-1.4-0.5-2.9-1.1-4.3-1.6c-0.1,0-0.3-0.2-0.4,0c-0.1,0.2,0,0.3,0.2,0.3c0.1,0,0.1,0.1,0.2,0.1
		c1.9,0.8,3.9,1.7,5.8,2.5c0.1,0.1,0.3,0.1,0.4,0.1C17.3,4.8,17.5,4.7,17.4,4.4z"/>
</g>
<g id="Calque_6" class="st4">
	<path class="st6" d="M25.2,6.5L8.1,27.7c-1.7,2.1-4.7,2.7-6.5,1.2s-1.9-4.5-0.2-6.6L18.5,1.1l0,0L18,0.7c-0.3,0.2-0.5,0.4-0.7,0.7
		L-0.6,23.5c-1.8,2.2-1.5,5.5,0.8,7.4c2.2,1.8,5.5,1.5,7.4-0.8L25.4,8c0.2-0.3,0.4-0.5,0.6-0.8L25.2,6.5L25.2,6.5z"/>
	<circle class="st6" cx="20.3" cy="4.7" r="0.9"/>
	<circle class="st6" cx="17.3" cy="8.1" r="0.9"/>
	<circle class="st6" cx="21.8" cy="1.9" r="0.9"/>
	<circle class="st6" cx="24.2" cy="4" r="0.9"/>
	<circle class="st6" cx="25" cy="1" r="0.9"/>
	<circle class="st6" cx="20.7" cy="7.4" r="0.9"/>
	<circle class="st6" cx="23.1" cy="6.1" r="0.9"/>
	<line class="st7" x1="9.5" y1="11.6" x2="21.8" y2="11.5"/>
</g>
<g id="Calque_7" class="st4">
	<path class="st6" d="M-2.5,16.1c0-8.8,7.2-16,16-16s16,7.2,15.9,16c0,8.8-7.2,16-16,16S-2.6,24.9-2.5,16.1z M13.5,1.2
		c-4.1,0-7.7,1.5-10.6,4.4s-4.3,6.5-4.3,10.7c0,8,6.7,14.7,14.9,14.7s15-6.8,14.9-14.9c-0.1-5.3-2.3-9.4-6.6-12.4
		C19.3,2,16.5,1.1,13.5,1.2z"/>
	<path class="st6" d="M6.8,18.4c0-0.5,0-0.9,0-1.4c0-0.1,0.1-0.2,0.2-0.3c0.2-0.2,0.5-0.3,0.7-0.5C8,16,8.3,15.8,8.6,15.5
		c0.2-0.1,0.4-0.3,0.6-0.4c0.2-0.2,0.4-0.3,0.6-0.5c0.2-0.1,0.4-0.3,0.6-0.4c0.2-0.2,0.5-0.4,0.7-0.5s0.4-0.2,0.5-0.4
		c0.2-0.2,0.4-0.3,0.6-0.4c0.2-0.2,0.5-0.4,0.7-0.5s0.3-0.2,0.5-0.4c0.1,0,0.1,0,0.1,0c0.2,0.1,0.3,0.2,0.5,0.3
		c0.2,0.2,0.5,0.4,0.7,0.5c0.3,0.2,0.6,0.4,0.8,0.6c0.2,0.2,0.5,0.3,0.7,0.5s0.4,0.3,0.7,0.5s0.5,0.4,0.8,0.6
		c0.4,0.3,0.7,0.5,1.1,0.8c0.3,0.2,0.7,0.5,1,0.7c0.1,0.1,0.2,0.2,0.3,0.2s0.1,0.1,0.1,0.2c0,0.9,0,1.9,0,2.8c0,0.1,0,0.1-0.1,0.2
		c-0.1,0-0.2,0-0.2,0c-0.2-0.1-0.3-0.2-0.5-0.3c-0.2-0.1-0.4-0.3-0.6-0.4c-0.2-0.2-0.5-0.4-0.7-0.5s-0.3-0.2-0.5-0.4
		c-0.2-0.1-0.4-0.3-0.6-0.4c-0.2-0.1-0.3-0.2-0.5-0.4c-0.3-0.2-0.5-0.4-0.8-0.6c-0.1-0.1-0.2-0.1-0.3-0.2c-0.2-0.2-0.5-0.4-0.8-0.6
		c-0.2-0.1-0.3-0.2-0.5-0.4c-0.2-0.1-0.4-0.3-0.5-0.4c-0.1-0.1-0.2-0.1-0.2-0.2c0,0,0,0-0.1,0c-0.3,0.2-0.5,0.4-0.8,0.6
		c-0.4,0.3-0.8,0.6-1.1,0.9c-0.2,0.2-0.5,0.3-0.7,0.5c-0.3,0.2-0.7,0.5-1,0.7S9.2,18.2,9,18.3c-0.3,0.2-0.7,0.5-1,0.7
		c-0.2,0.1-0.3,0.2-0.5,0.4c-0.2,0.1-0.4,0.3-0.6,0.4c0,0-0.1,0.1-0.2,0.1c-0.1,0,0-0.1,0-0.1C6.8,19.4,6.8,18.9,6.8,18.4z"/>
	<path class="st6" d="M6.8,14.4c0-0.1,0-0.1,0-0.2c0-0.9,0-1.9,0-2.8c0-0.1,0.1-0.2,0.2-0.3c0.2-0.2,0.5-0.3,0.7-0.5
		c0.3-0.2,0.6-0.5,0.9-0.7C8.8,9.8,9,9.6,9.2,9.5C9.4,9.3,9.7,9.2,9.9,9c0.2-0.1,0.4-0.3,0.5-0.4c0.2-0.1,0.4-0.3,0.6-0.4
		c0.2-0.1,0.4-0.3,0.5-0.4c0.2-0.2,0.5-0.4,0.7-0.5c0.1-0.1,0.2-0.1,0.3-0.2c0.3-0.2,0.5-0.4,0.8-0.6c0,0,0.1-0.1,0.1,0
		C13.6,6.7,13.8,6.8,14,7c0.2,0.2,0.4,0.3,0.6,0.5c0.3,0.2,0.6,0.5,0.9,0.7c0.2,0.2,0.5,0.3,0.7,0.5s0.5,0.4,0.8,0.6
		c0.2,0.2,0.4,0.3,0.6,0.4c0.3,0.2,0.6,0.4,0.9,0.7c0.1,0.1,0.2,0.2,0.4,0.2c0.2,0.2,0.5,0.4,0.7,0.5c0.1,0.1,0.2,0.2,0.3,0.2
		c0.1,0.1,0.1,0.1,0.1,0.2c0,0.9,0,1.9,0,2.8c0,0.1-0.1,0.2-0.2,0.1c-0.2-0.1-0.4-0.3-0.6-0.4c-0.2-0.2-0.5-0.3-0.7-0.5
		c-0.3-0.3-0.7-0.5-1-0.7c-0.2-0.1-0.3-0.2-0.5-0.4c-0.3-0.2-0.6-0.5-1-0.7c-0.3-0.2-0.5-0.4-0.8-0.6c-0.2-0.2-0.5-0.3-0.7-0.5
		c-0.2-0.1-0.4-0.3-0.5-0.4c0-0.2-0.3-0.4-0.5-0.6h-0.1c-0.3,0.3-0.7,0.5-1,0.7s-0.5,0.4-0.8,0.6c-0.2,0.2-0.5,0.4-0.7,0.5
		c-0.3,0.2-0.6,0.5-0.9,0.7c-0.3,0.2-0.5,0.4-0.8,0.6c-0.4,0.3-0.8,0.5-1.1,0.8c-0.2,0.1-0.4,0.3-0.6,0.4c-0.2,0.1-0.4,0.3-0.6,0.4
		C6.9,14.4,6.9,14.4,6.8,14.4z"/>
	<path class="st6" d="M6.8,24.2c0-0.5,0-1,0-1.4c0-0.1,0-0.2,0.1-0.2c0.3-0.2,0.5-0.4,0.8-0.6c0.2-0.1,0.4-0.3,0.6-0.4
		c0.3-0.2,0.6-0.4,0.9-0.7c0.2-0.2,0.5-0.4,0.8-0.6s0.5-0.4,0.8-0.6c0.2-0.2,0.5-0.3,0.7-0.5s0.5-0.3,0.7-0.5
		c0.1-0.1,0.3-0.2,0.5-0.3c0.2-0.2,0.5-0.4,0.7-0.5c0.1,0,0.1,0,0.2,0c0.3,0.2,0.5,0.4,0.8,0.6c0.2,0.1,0.4,0.2,0.5,0.4
		c0.3,0.2,0.5,0.4,0.8,0.6c0.2,0.1,0.3,0.3,0.5,0.4s0.3,0.3,0.5,0.4s0.4,0.2,0.5,0.4c0.2,0.2,0.5,0.4,0.7,0.5s0.4,0.2,0.5,0.4
		c0.3,0.2,0.7,0.5,1,0.7c0.2,0.1,0.4,0.3,0.6,0.4c0.2,0.1,0.3,0.2,0.2,0.4c0,0.9,0,1.7,0,2.6c0,0.1,0,0.2-0.1,0.2
		c-0.1,0.1-0.1,0-0.2-0.1c-0.4-0.3-0.8-0.6-1.2-0.9s-0.8-0.6-1.2-0.9c-0.3-0.2-0.7-0.5-1-0.7c-0.2-0.2-0.5-0.3-0.7-0.5
		c-0.3-0.2-0.6-0.4-0.9-0.6c-0.3-0.3-0.7-0.5-1-0.8c-0.1-0.1-0.3-0.2-0.5-0.3h-0.1c-0.2,0.2-0.5,0.3-0.7,0.5s-0.5,0.4-0.8,0.6
		c-0.2,0.2-0.5,0.4-0.7,0.5s-0.4,0.2-0.6,0.4c-0.2,0.2-0.5,0.3-0.7,0.5c-0.2,0.1-0.3,0.2-0.5,0.4c-0.2,0.1-0.4,0.3-0.6,0.4
		c-0.2,0.1-0.4,0.3-0.5,0.4c-0.2,0.1-0.4,0.3-0.6,0.4c-0.1,0.1-0.3,0.2-0.4,0.3c-0.1,0.1-0.3,0.2-0.4,0.3H6.7v-0.1
		C6.8,25.1,6.8,24.7,6.8,24.2z"/>
</g>
<g id="Calque_8" class="st4">
	<path class="st6" d="M40.1,25.5c-1.9-1.5-3.8-3-5.7-4.6c-1.1-0.9-1.9-2.4-1.8-3.6c0.2-2.3-3.5-4.8-4.1-5.3c0,0-0.9-0.7-1.6-1.3
		c-0.8-0.6-1.6-0.6-2.3,0.2c-0.1,0-0.2,0.1-0.2,0.1c-0.8,0.9-1.8,0.5-2.1-0.2c-0.4-1.1-6-5.7-7.4-6.5C14.3,4,13.6,3,13,3.5
		c-0.9,0.7-1.2-0.4-1.2-1.2c0-1.2,0.4-1.3-0.2-1.7c-0.5-0.3-0.8,0.6-0.8,0.6s-0.5,0.6-0.7,0.7C9.9,1.8,9.8,1.8,9.7,1.8l0,0
		c0.4-0.4-0.9-1.1-1.4-1.6C8-0.1,7.6-0.1,7.3,0.3C6.9,0.7,7.1,1,7.4,1.3c0.6,0.5,1.4,1.6,2,1.2c0.1,0,0.2,0,0.2,0
		c0.2,0.2,0.7,0.6,0.8,0.7c0.6,0.6,1.3,1.1,1.2,2.1c-0.1,1.1,7.5,6.8,9,8.3c-1.3,1.4-5.2,5.5-4.7,5.8c-0.3,0.4,1.7,2.6,1.8,2.7
		c0.9,0.8,2.1-1.2,3.2-2.1c0.7-0.6,1.4-2.1,2.8-0.8c0.5,0.6-0.9,2,0.6,2c0.1-0.3,0.3-0.8,0.7-0.9c0.2,0,0.5,0.8,0.7,0.9
		c0.1,0,0.2,0.1,0.3,0.1c-0.1,0.1-0.6,0.2-0.8,0.4c0.9,0.8,0.6,3.9,0.6,4.4c0.1,1.1,0.1,1.6,1.8,1.7c1.1,0.1,1-0.4,1.1-1.7
		c0-0.8-0.1-1.6,0.2-2.4c0.4-1.2,1.6-2,2.6-1.3c1.3,0.9,2.7,1.9,2.9,3.8c0.1,1.1,0.3,2.1,0.4,3.2c0.1,1.2,1.2,1.7,2,2.1
		c0.9,0.5,1.2-0.6,1.6-1.1c0.8-0.8,1.4-1.8,2.2-2.6C41.3,27.1,41.2,26.3,40.1,25.5z M11.4,1.8c-0.1,0.1-0.1,0.1-0.2,0.2
		c0-0.1,0-0.3,0.1-0.4C11.3,1.7,11.4,1.7,11.4,1.8z M30.4,16.5c-1.8-1.5-3.5-2.8-5.2-4.2c-0.5-0.4-0.1-0.4-0.1-0.7
		c0.7-0.7,0.9-0.5,3.1,1.1C30.4,14.5,30.9,15.1,30.4,16.5z"/>
	<path class="st6" d="M-9.9,28.1c0.8,0.8,1.4,1.8,2.2,2.6c0.5,0.5,0.7,1.6,1.6,1.1c0.8-0.5,1.9-0.9,2-2.1c0.1-1.1,0.3-2.1,0.4-3.2
		c0.2-1.9,1.6-2.8,2.9-3.8c1-0.7,2.2,0,2.6,1.3C2,24.8,2,25.6,2,26.4c0,1.3-0.1,1.8,1.1,1.7c1.7-0.1,1.7-0.7,1.8-1.7
		c0-0.4-0.3-3.5,0.6-4.4c-0.1-0.2-0.7-0.3-0.8-0.4c0.1-0.1,0.2-0.1,0.3-0.1c0.2-0.1,0.5-0.9,0.7-0.9c0.4,0.1,0.6,0.6,0.7,0.9
		c1.5-0.1,0.1-1.4,0.6-2c1.3-1.3,2,0.2,2.8,0.8c1,0.9,2.3,2.9,3.2,2.1c0.1-0.1,2.1-2.3,1.8-2.7c0.4-0.3-3.5-4.4-4.7-5.8
		c1.5-1.5,9.1-7.2,9-8.3c-0.1-1,0.6-1.5,1.2-2.1c0.1-0.1,0.6-0.6,0.8-0.7c0-0.1,0.1-0.1,0.2,0c0.5,0.3,1.4-0.7,2-1.2
		c0.3-0.3,0.5-0.6,0.1-1C23,0,22.6,0,22.3,0.3c-0.5,0.5-1.9,1.1-1.4,1.6l0,0c-0.1,0-0.2,0-0.4,0.1c-0.2-0.2-0.7-0.7-0.7-0.7
		S19.5,0.4,19,0.7c-0.6,0.4-0.2,0.5-0.2,1.7c0,0.8-0.3,1.9-1.2,1.2c-0.7-0.6-1.4,0.4-2,0.7c-1.4,0.8-7,5.4-7.4,6.5
		C8,11.5,6.9,11.9,6.1,11c-0.1,0-0.2,0-0.2-0.1c-0.8-0.9-1.5-0.8-2.3-0.2S2,12,2,12c-0.6,0.5-4.3,3-4.1,5.3c0.1,1.2-0.7,2.7-1.8,3.6
		c-1.9,1.6-3.8,3.1-5.7,4.6C-10.7,26.3-10.8,27.1-9.9,28.1z M19.2,1.6c0,0.1,0.1,0.2,0.1,0.4c-0.1-0.1-0.1-0.1-0.2-0.2
		C19.1,1.7,19.2,1.7,19.2,1.6z M2.2,12.6c2.1-1.6,2.4-1.8,3.1-1.1c0,0.3,0.4,0.3-0.1,0.7c-1.7,1.4-3.4,2.7-5.2,4.2
		C-0.4,15.1,0.1,14.5,2.2,12.6z"/>
</g>
</svg>
