<?xml version="1.0" encoding="utf-8"?>
<!-- Generator: Adobe Illustrator 22.1.0, SVG Export Plug-In . SVG Version: 6.00 Build 0)  -->
<svg version="1.1" id="Calque_1" xmlns="http://www.w3.org/2000/svg" xmlns:xlink="http://www.w3.org/1999/xlink" x="0px" y="0px"
	 viewBox="0 0 39 32" style="enable-background:new 0 0 39 32;" xml:space="preserve">
<style type="text/css">
	.st0{display:none;}
	.st1{display:inline;fill:#435264;}
	.st2{display:inline;fill:none;}
	.st3{display:inline;fill:#7F98C2;}
	.st4{display:inline;fill:#FEFEFE;}
	.st5{fill:#435264;}
	.st6{display:inline;fill:none;stroke:#435264;stroke-width:1.1533;stroke-miterlimit:10;}
</style>
<g id="Calque_1_1_" class="st0">
	<path class="st1" d="M22.4,31.8c-1.1,0-2.2,0.1-3.2,0c-1.8,0-3.5-0.1-5.3-0.2c-0.6,0-1.2-0.1-1.9-0.2c-0.3-0.1-0.5,0.1-0.6,0.4
		c-0.1,0.3-0.1,0.3-0.4,0.3c-0.8,0-1.5,0-2.3,0C8.2,32.1,8,32,8,31.5c0-0.3-0.2-0.6-0.5-0.7c-0.6-0.1-0.8-0.6-1-1.1
		c-0.3-0.8-0.3-1.7-0.4-2.5c-0.1-1-0.1-2,0-3.1c0.2-1.6,0.6-3.2,1.2-4.7c0.2-0.5,0.4-0.9,0.6-1.4c0.2,0.1,0.4,0.3,0.5,0.5
		c0,0.1,0,0.1,0,0.2c-0.1,0.1-0.1,0.1-0.2,0c-0.1-0.1-0.2-0.2-0.1-0.3c0,0,0.1-0.1,0-0.1S8,18.3,8,18.4c-0.1,0.1-0.1,0.3,0.1,0.4
		c0.1,0.1,0.3,0.2,0.4,0.1c0.1-0.1,0.2-0.2,0.1-0.4C8.5,18.3,8.3,18.1,8,18c0.3-0.8,0.8-1.6,1.2-2.5c0.7-1.4,1.5-2.8,2.3-4.1
		c0.3-0.6,0.4-1.2,0.6-1.8c0.1-0.4,0.2-0.9,0.4-1.4c0.2-0.4,0.5-0.6,1-0.7c0.4,0,0.9-0.1,1.3,0c0.4,0.1,0.6,0.3,0.7,0.7
		c0.1,0.5,0.2,1.1,0.3,1.6c0,0.2,0.1,0.2,0.3,0.2c2.4-0.1,4.7-0.1,7.1-0.1c0.4,0,0.8,0,1.2,0.1c0.1,0,0.2,0,0.2-0.2
		c0.1-0.6,0.2-1.1,0.4-1.7c0.1-0.3,0.3-0.6,0.6-0.6c0.5-0.1,1.1-0.1,1.6,0s0.7,0.5,0.9,0.9c0.2,0.6,0.3,1.2,0.5,1.8
		c0.1,0.5,0.3,1,0.6,1.5c1.5,2.5,2.9,5,3.9,7.7c0.9,2.3,1.4,4.6,1.2,7.1c-0.1,1.1-0.1,2.2-0.5,3.3c-0.2,0.5-0.4,0.9-1,1.1
		c-0.3,0.1-0.5,0.3-0.5,0.6c-0.1,0.6-0.2,0.7-0.8,0.7c-0.7,0-1.5,0-2.2,0c-0.4,0-0.4,0-0.5-0.4c-0.1-0.3-0.2-0.4-0.6-0.4
		c-1.6,0.2-3.2,0.3-4.8,0.3c-0.2,0-0.3,0-0.5,0c0-0.1-0.1-0.2,0.1-0.3c0.1,0,0,0.2,0.1,0.2s0.1-0.2,0-0.3c0-0.1-0.1-0.1-0.2,0
		c-0.2,0.1-0.2,0.3-0.1,0.5c-0.1,0-0.2,0-0.2,0C22.5,31.8,22.5,31.8,22.4,31.8z M9.2,31c0.2,0.6,1.1,0.9,1.8,0.6
		c0.5-0.3,0.8-0.7,0.8-1.3c0.1,0,0.2,0,0.3,0c0,0.4-0.1,0.7-0.3,1c0,0,0,0.1,0,0.2c0.1,0,0.1,0,0.2-0.1c0.3-0.3,0.4-0.6,0.4-1
		c0.1,0,0.2,0,0.3,0c1.9,0.2,3.8,0.3,5.6,0.3c2.3,0.1,4.5,0,6.8-0.1c0.9-0.1,1.9-0.1,2.8-0.3c0.5-0.1,1,0,1.4,0.4
		c0.3,0.4,0.6,0.4,1,0.4c0.2,0,0.4,0,0.5,0s0.2,0,0.2-0.2c0.2-0.4,0.4-0.8,0.8-0.9c0.5-0.2,0.6-0.5,0.7-0.9c0-0.1,0-0.2,0.1-0.3
		c0.1-0.6,0.1-1.2,0.2-1.8c0.1-1.1,0.1-2.2-0.1-3.3c-0.3-1.7-0.8-3.3-1.5-4.9c-0.9-2.1-2.1-4.2-3.2-6.2c-0.3-0.5-0.6-1-0.8-1.6
		c-0.1-0.6-0.3-1.1-0.4-1.7c-0.2-0.6,0-0.5-0.7-0.5c-0.1,0-0.2,0-0.2,0.2c-0.1,0.7-0.3,1.5-0.5,2.2c0,0.2-0.1,0.3-0.3,0.2
		c-1.3-0.1-2.7-0.1-4-0.2c-2.1,0-4.1,0-6.2,0.2c-0.2,0-0.2,0-0.2-0.2c-0.1-0.7-0.3-1.3-0.4-2c-0.1-0.5-0.1-0.5-0.6-0.5
		c-0.2,0-0.3,0.1-0.3,0.3c-0.1,0.6-0.3,1.3-0.5,1.9c-0.1,0.3-0.2,0.6-0.3,0.9c-0.4,0.7-0.9,1.5-1.3,2.2c-0.5,0.9-1,1.9-1.5,2.8
		c-0.4,0-0.5,0.1-0.5,0.4c0,0.1,0.1,0.2,0.2,0.2c-0.1,0.2-0.2,0.3-0.2,0.5c-0.1,0-0.3,0-0.3-0.1s-0.1-0.2,0.1-0.2
		c0.1,0,0,0.1,0.1,0.2c0,0.1,0.1,0.1,0.1,0s0.1-0.2,0-0.3c-0.1-0.1-0.2,0-0.3,0.1S8.9,17.8,8.9,18c0,0,0.1,0,0.3,0
		c0,0.2-0.2,0.4-0.3,0.6C8.6,19.3,8.3,20,8,20.8c-0.7,2-1,4-0.8,6.1c0.1,0.9,0.1,1.8,0.4,2.6c0,0.1,0.1,0.2,0.3,0.3
		C8.4,30,8.8,30.2,9,30.7C9.1,30.8,9.1,30.9,9.2,31z M23.9,31.2c-0.1,0-0.1,0-0.2,0c-0.1,0-0.2,0-0.3-0.1c0-0.1,0-0.2,0-0.2
		c0.1-0.1,0.2,0,0.3,0c0.1,0.1,0.1,0.1,0.2,0.2H24c0,0,0,0,0-0.1c-0.1-0.1-0.2-0.3-0.4-0.3s-0.3,0.1-0.3,0.2c0,0.2,0.1,0.4,0.3,0.4
		C23.7,31.4,23.9,31.4,23.9,31.2z M8.8,18.5c0-0.1-0.1-0.2-0.2-0.3c-0.1-0.1-0.1-0.1-0.1-0.2s0.1-0.1,0-0.1S8.4,18,8.4,18
		C8.4,18.2,8.6,18.4,8.8,18.5z"/>
	<path class="st1" d="M9.6,1.7c0.5-0.2,1.1-0.3,1.6-0.4c0.2,0.2,0.4,0.3,0.6,0.5C11.9,2,12,2.2,12.1,2.3c-0.1,0-0.2,0.1-0.4,0.1
		c-0.3-0.8-1.1-1.1-1.7-0.6c-0.3,0.3-0.3,0.7-0.1,1C9.8,2.9,9.6,2.9,9.5,2.9C9.4,2.7,9.4,2.4,9.4,2.2C9.4,2,9.6,1.8,9.6,1.7z"/>
	<path class="st1" d="M9.6,1.7c0,0.2-0.2,0.4-0.2,0.6s0,0.5,0.1,0.7C9.4,3,9.2,3,9.1,3.1C8.9,2.7,8.9,2.3,9,1.9
		C9.2,1.7,9.4,1.7,9.6,1.7z"/>
	<path class="st1" d="M12.1,2.3c-0.2-0.2-0.2-0.4-0.3-0.5c-0.2-0.2-0.4-0.3-0.6-0.5c0.2-0.1,0.4-0.1,0.6-0.1
		c0.3,0.3,0.6,0.6,0.6,1.1C12.2,2.3,12.2,2.3,12.1,2.3z"/>
	<path class="st1" d="M7.9,18c0.2,0.1,0.4,0.3,0.6,0.5c0.1,0.2,0,0.3-0.1,0.4c-0.2,0.1-0.3,0-0.4-0.1c-0.1-0.1-0.2-0.2-0.1-0.4
		L8,18.3c0.1,0,0,0.1,0,0.1c-0.1,0.2,0,0.2,0.1,0.3c0.1,0,0.1,0,0.2,0c0.1-0.1,0.1-0.1,0-0.2C8.2,18.3,8,18.1,7.8,18
		C7.8,18.1,7.8,18.1,7.9,18z"/>
	<path class="st1" d="M22.8,31.8c-0.1-0.2-0.1-0.4,0.1-0.5c0.1,0,0.2-0.1,0.2,0s0.1,0.3,0,0.3C23,31.7,23,31.5,23,31.4
		c-0.1,0.1,0,0.2-0.1,0.3C22.9,31.9,22.8,31.8,22.8,31.8z"/>
	<path class="st1" d="M22.4,31.8L22.4,31.8C22.5,31.8,22.5,31.8,22.4,31.8z"/>
	<path class="st1" d="M9.2,31c0.2,0,0.4,0,0.6,0c0.2,0.3,0.6,0.4,1,0.3s0.6-0.4,0.6-0.7c0-0.1,0-0.2,0-0.3c0.1-0.1,0.2-0.1,0.4-0.1
		c0.1,0.6-0.2,1.1-0.8,1.3C10.3,31.9,9.4,31.6,9.2,31z"/>
	<path class="st1" d="M12,30.2c0.1,0,0.2,0,0.3,0c0,0.4-0.2,0.7-0.4,1c0,0-0.1,0.1-0.2,0.1c0,0,0-0.1,0-0.2
		C11.9,30.9,12.1,30.6,12,30.2z"/>
	<path class="st1" d="M23.9,31.2c0,0.2-0.1,0.2-0.3,0.2s-0.3-0.2-0.3-0.4c0-0.2,0.1-0.3,0.3-0.2c0.2,0,0.3,0.2,0.4,0.3
		c0,0,0,0,0,0.1H23.9c-0.1-0.1-0.1-0.1-0.2-0.2c-0.1-0.1-0.2-0.1-0.3,0s-0.1,0.2,0,0.2c0,0.1,0.2,0.1,0.3,0.1
		C23.8,31.2,23.8,31.2,23.9,31.2z"/>
	<path class="st1" d="M9.3,17.9c0,0.1,0,0.1,0,0.1c-0.2,0-0.3,0-0.4-0.2c-0.1-0.1-0.1-0.3,0.1-0.4c0.1-0.1,0.2-0.2,0.3-0.1
		s0.1,0.2,0,0.3c0,0.1-0.1,0-0.1,0s0-0.1-0.1-0.2C9,17.5,9,17.6,9,17.6C9,17.9,9.1,17.9,9.3,17.9z"/>
	<path class="st1" d="M9.5,17.3v0.1c0-0.1-0.1-0.1-0.2-0.2c0-0.3,0.1-0.4,0.5-0.4c0,0,0,0.1-0.1,0.1C9.5,16.9,9.4,17,9.5,17.3z"/>
	<path class="st1" d="M8.8,18.5c-0.2-0.1-0.5-0.3-0.4-0.5c0-0.1,0-0.2,0.1-0.1c0.1,0,0,0.1,0,0.1c0,0.1,0,0.2,0.1,0.2
		C8.7,18.3,8.8,18.3,8.8,18.5z"/>
	<path class="st2" d="M25.7,1.2c-0.1,0,0,0.1,0,0.1c0,0.1,0,0.1,0,0.2c-0.1,0-0.1,0-0.2-0.1c-0.1-0.1-0.1-0.2,0-0.3
		c0,0,0.1-0.1,0.1-0.2c-0.1-0.1-0.1,0-0.2,0C25.3,1,25.3,1.1,25.1,1c0,0-0.1,0-0.1,0.1s0.5,0.5,0.5,0.5c0.1,0,0.2,0,0.3-0.1
		S25.8,1.3,25.7,1.2L25.7,1.2z"/>
	<path class="st2" d="M25,1.8C25,1.7,25,1.7,25,1.8c0-0.1,0.1-0.3,0-0.3s-0.1,0.1-0.2,0.2l0,0c-0.5,0-1-0.1-1.4-0.1
		c0.5,0,1,0.1,1.4,0.1C24.8,1.7,24.9,1.8,25,1.8z"/>
	<path class="st1" d="M23,3.5c-0.1,0.1-0.3,0.2-0.3,0.3s0.1,0.2,0.2,0.3C23,4.2,23.2,4.2,23.3,4c0.1-0.1,0.2-0.1,0.1-0.2
		c-0.1-0.1-0.1,0.1-0.2,0.1l0,0C23.1,4,23,4,22.9,3.9S22.8,3.7,23,3.5c0,0.2-0.1,0.3,0,0.3S23.1,3.7,23,3.5c0.1,0,0.1,0,0.1-0.1
		C23.1,3.5,23,3.5,23,3.5z"/>
	<path class="st2" d="M25.7,0.7c0,0.1,0.3,0.5,0.4,0.5h0.1V1.1C26,1,25.9,0.8,25.7,0.7z"/>
	<path class="st1" d="M38.9,7.9c-0.5-1.8-1.6-3.2-3.1-4.2c-1.1-0.7-2.3-1.2-3.6-1.6c-2.1-0.7-4.3-1.2-6.5-1.5
		c-1.6-0.2-3.2-0.4-4.9-0.4c-2.1,0-4.2,0.1-6.3,0.4c-0.9,0.1-1.8,0.3-2.8,0.5c0.3,0.3,0.6,0.6,0.6,1.1h0.1l0,0
		C13.7,2,15,1.8,16.2,1.6c2.4-0.2,4.7-0.2,7.1,0c0.5,0,1,0.1,1.4,0.1l0,0c0-0.1,0.1-0.3,0.2-0.2c0.1,0,0,0.2,0,0.2l0,0
		c0.8,0.1,1.5,0.2,2.3,0.4c1.7,0.3,3.4,0.8,5,1.4c0.9,0.3,1.8,0.7,2.7,1.3c1.7,1,2.6,2.5,2.9,4.4c0,0.2,0,0.5,0,0.7
		c0,0.5-0.4,0.6-0.7,0.7c-0.7,0.2-1.5,0.2-2.2,0.2c-1.2,0-2.5-0.2-3.6-0.7c-0.2-0.1-0.4-0.2-0.5-0.4c-0.3-0.5-0.5-1.1-0.6-1.7
		c-0.4-1.1-1-2-2-2.7c-1.1-0.8-2.4-1.3-3.8-1.6c-0.1,0-0.3-0.1-0.4-0.1c-0.3-0.1-0.6-0.1-0.9-0.1l0,0c0,0.1,0,0.1,0,0.2
		c0,0.1,0.1,0.2-0.1,0.2c-0.1,0,0-0.1-0.1-0.2c-0.1,0.1-0.1,0.2,0,0.3c0.1,0.1,0.2,0,0.3,0l0,0c0.1,0,0.1-0.2,0.2-0.1
		c0.1,0.1-0.1,0.2-0.1,0.2c-0.1,0.1-0.2,0.1-0.4,0.1c-0.1-0.1-0.2-0.2-0.2-0.3c0-0.2,0.1-0.3,0.3-0.3c-1.2-0.2-2.3-0.1-3.5-0.1
		c-1,0-2,0-2.9,0.2c-1.3,0.2-2.5,0.5-3.7,1.1s-2.1,1.5-2.7,2.7C10,8,9.8,8.5,9.7,9c-0.4,1.2-0.4,1.1-1.5,1.4c-1.5,0.4-3,0.5-4.5,0.4
		c-0.4,0-0.7-0.1-1-0.3c-0.2-0.1-0.3-0.2-0.3-0.5c-0.1-0.6,0-1.2,0.2-1.7C3,6.7,4,5.6,5.4,4.8c1-0.6,2.2-1,3.3-1.4
		c0.2-0.1,0.4-0.1,0.5-0.2C9,2.8,9,2.4,9.1,2C7.5,2.5,5.9,3.1,4.5,4S2,6.1,1.5,7.8c-0.2,0.8-0.4,1.5-0.3,2.3s0.4,1.3,1.2,1.6
		C2.8,11.9,3.2,12,3.6,12c2,0.2,3.9,0.1,5.8-0.6c0.6-0.2,1.1-0.6,1.3-1.2C11,9.6,11.2,9,11.4,8.4c0.3-1,1-1.8,1.9-2.3
		c1-0.6,2-0.9,3.1-1.1c0.9-0.2,1.8-0.2,2.7-0.2c1.2,0,2.5-0.1,3.7,0.1c0-0.1-0.1-0.2-0.2-0.3c-0.1-0.1-0.1-0.1-0.1-0.2
		s0-0.2,0.1-0.2s0,0.1,0,0.2s0.1,0.2,0.2,0.3C22.9,4.8,23,4.8,22.9,5c1.3,0.1,2.6,0.4,3.8,1c1,0.5,1.8,1.1,2.2,2.2
		C29,8.4,29.2,9,29.4,9.6c0.1,0.4,0.3,0.7,0.5,1c0.4,0.5,1,0.7,1.5,0.8c1.4,0.4,2.9,0.6,4.4,0.5c0.6,0,1.2-0.1,1.7-0.3
		c1-0.3,1.4-0.9,1.5-1.9C39.1,9.1,39,8.5,38.9,7.9z M25.8,1.5c-0.1,0.1-0.1,0.1-0.3,0.1c-0.1,0-0.5-0.4-0.5-0.5c0,0,0-0.1,0.1-0.1
		c0.1,0.1,0.2,0,0.3-0.1c0,0,0.1-0.1,0.2,0c0.1,0.1,0,0.1-0.1,0.2s-0.1,0.2,0,0.3S25.6,1.5,25.8,1.5c0,0,0-0.1-0.1-0.2
		c0,0-0.1-0.1,0-0.1s0.1,0,0.1,0.1C25.8,1.4,25.9,1.4,25.8,1.5z M26.2,1.2C26.2,1.2,26.1,1.2,26.2,1.2c-0.1,0-0.4-0.4-0.5-0.5
		C25.9,0.8,26,1,26.2,1.2C26.2,1.1,26.2,1.2,26.2,1.2z"/>
	<path class="st1" d="M22.6,4.4c-0.1-0.1-0.2-0.1-0.2-0.3c0-0.1,0.1-0.1,0-0.2c-0.1,0-0.1,0.1-0.1,0.2c0,0.1,0.1,0.2,0.1,0.2
		c0.1,0.1,0.2,0.1,0.2,0.3l0,0C22.8,4.6,22.7,4.5,22.6,4.4z"/>
	<path class="st1" d="M23,3.5L23,3.5c0.1,0.1,0.1,0.1,0.1,0.2c0,0.1,0.1,0.2-0.1,0.2c-0.1,0,0-0.1-0.1-0.2c-0.1,0.1-0.1,0.2,0,0.3
		s0.2,0,0.3,0l0,0c0.1,0,0.1-0.2,0.2-0.1c0.1,0.1-0.1,0.2-0.1,0.2c-0.1,0.1-0.2,0.1-0.4,0.1c-0.1-0.1-0.2-0.2-0.2-0.3
		C22.7,3.6,22.8,3.5,23,3.5z"/>
	<path class="st1" d="M25.6,1.7c-0.1,0-0.5-0.4-0.5-0.5c0,0,0-0.1,0.1-0.1c0.1,0.1,0.2,0,0.3-0.1c0,0,0.1-0.1,0.2,0
		c0.1,0.1,0,0.1-0.1,0.2s-0.1,0.2,0,0.3c0.1,0.1,0.1,0.1,0.2,0.1c0.1,0,0.1-0.1,0-0.2c0,0-0.1-0.1,0-0.1s0.1,0,0.1,0.1
		c0.1,0.1,0.1,0.2,0,0.3C25.8,1.6,25.7,1.7,25.6,1.7z"/>
	<path class="st1" d="M25.7,0.7C25.9,0.8,26,1,26.2,1.1v0.1c0,0,0,0-0.1,0C26,1.2,25.7,0.8,25.7,0.7z"/>
	<path class="st1" d="M25,1.8c-0.1,0-0.1,0-0.2,0l0,0c0-0.1,0.1-0.3,0.2-0.2C25.1,1.5,24.9,1.6,25,1.8C25,1.7,25,1.7,25,1.8z"/>
	<path class="st3" d="M12.5,2.2L12.5,2.2L12.5,2.2z"/>
	<path class="st1" d="M10.2,2.7c-0.1,0-0.2,0.1-0.3,0.1c-0.2-0.2-0.2-0.7,0.1-1c0.6-0.5,1.4-0.3,1.7,0.6c-0.1,0-0.2,0.1-0.3,0.1
		C11.2,2.3,11.2,2.1,11,2c-0.2-0.1-0.4-0.1-0.6,0.1C10.1,2.2,10.2,2.5,10.2,2.7z"/>
	<path class="st1" d="M23.9,14.8c-0.6-0.2-1.1-0.4-1.7-0.5c-2.7-0.5-5.3-0.1-7.6,1.6c-1.4,1-2.3,2.3-2.6,4c-0.2,1.2-0.1,2.4,0.5,3.5
		c0.8,1.6,2,2.7,3.6,3.5c1,0.5,2,0.8,3.1,0.9c1.6,0.2,3.2-0.1,4.7-0.7c0.2-0.1,0.2-0.1,0.3,0.1c0.1,0.3,0.2,0.5,0.3,0.7
		c0.1,0.1,0,0.2-0.1,0.3c-0.7,0.3-1.4,0.5-2.1,0.7c-1.9,0.4-3.7,0.3-5.5-0.3c-2.4-0.8-4.3-2.3-5.4-4.5c-1.2-2.4-1-4.7,0.3-6.9
		c1-1.7,2.6-2.8,4.4-3.5c1.9-0.8,3.9-0.9,6-0.6c2.4,0.4,4.4,1.5,6,3.4c2,2.4,2.1,5.7,0.4,8.3c-0.2,0.3-0.2,0.3-0.5,0.1
		c-0.2-0.1-0.4-0.2-0.6-0.3c-0.2-0.1-0.2-0.2-0.1-0.3c0.4-0.6,0.7-1.2,0.9-1.9c0.6-2.3-0.1-4.2-1.7-5.9c-0.1-0.1-0.1-0.1-0.2-0.2
		c0.1-1-0.8-1.9-2-1.7C24.2,14.7,24,14.6,23.9,14.8z"/>
	<path class="st1" d="M20.1,25.3c-1.6,0-3-0.5-4.1-1.8c-1.4-1.5-1.4-3.8,0-5.2c1.2-1.3,2.8-1.8,4.6-1.7c1.3,0.1,2.4,0.6,3.3,1.5
		c1.6,1.5,1.7,3.9,0.2,5.5C23,24.7,21.7,25.2,20.1,25.3z M20.1,24c1.1,0,2.1-0.3,2.9-1c1.3-1.1,1.4-2.9,0.1-4.1
		c-0.8-0.8-1.7-1.1-2.8-1.2C19,17.6,17.9,18,17,18.9c-1.1,1.1-1.1,2.7,0,3.8C17.9,23.7,18.9,24,20.1,24z"/>
	<path class="st1" d="M23.9,24.7c0-0.5,0.5-0.8,1-0.6c0.9,0.5,1.8,0.9,2.7,1.4c0.5,0.3,0.6,0.8,0.1,1.2c-0.5,0.4-1,0.9-1.4,1.3
		c-0.3,0.3-0.8,0.2-1-0.2c-0.3-0.5-0.5-1-0.7-1.6c-0.2-0.4-0.4-0.8-0.6-1.3C23.9,25,23.9,24.9,23.9,24.7z M26,27
		c0.2-0.2,0.5-0.4,0.7-0.6c0.1,0,0.1-0.1,0-0.1c-0.4-0.2-0.8-0.4-1.3-0.7c0.2,0.4,0.3,0.7,0.5,1.1C25.8,26.8,25.9,26.9,26,27z"/>
	<path class="st1" d="M16.8,25c0.5,0,1,0.4,1,0.9s-0.4,0.9-1,0.9c-0.5,0-0.9-0.4-0.9-0.9C15.8,25.4,16.3,25,16.8,25z"/>
	<path class="st1" d="M26.1,17.7c0.5,0,0.9,0.4,1,0.9c0,0.5-0.4,0.9-0.9,1c-0.5,0-1-0.4-1-0.9C25.2,18.2,25.6,17.7,26.1,17.7z"/>
	<path class="st1" d="M26.7,20.8c0.5,0,0.9,0.4,0.9,0.9s-0.4,0.9-1,0.9c-0.5,0-0.9-0.4-0.9-0.9C25.7,21.2,26.2,20.8,26.7,20.8z"/>
	<path class="st1" d="M15.3,23.8c0,0.5-0.4,1-1,0.9c-0.5,0-0.9-0.4-0.9-0.9s0.4-1,0.9-1C14.9,22.9,15.3,23.3,15.3,23.8z"/>
	<path class="st1" d="M20.2,25.7c0.5,0,1,0.4,0.9,0.9c0,0.5-0.4,0.9-1,0.9c-0.5,0-0.9-0.4-0.9-0.9S19.7,25.7,20.2,25.7z"/>
	<path class="st1" d="M12.4,20.9c0-0.5,0.4-1,0.9-0.9c0.5,0,0.9,0.4,0.9,0.9s-0.4,0.9-1,0.9C12.9,21.8,12.4,21.4,12.4,20.9z"/>
	<path class="st1" d="M13.5,17.9c0-0.5,0.4-0.9,0.9-0.9s0.9,0.4,0.9,0.9s-0.4,0.9-0.9,0.9S13.5,18.4,13.5,17.9z"/>
	<path class="st1" d="M17.2,14.9c0.5,0,1,0.4,1,1c0,0.5-0.4,0.9-1,0.9c-0.5,0-0.9-0.4-0.9-1C16.3,15.3,16.7,14.9,17.2,14.9z"/>
	<path class="st1" d="M20.6,16.3c-0.5,0-0.9-0.4-0.9-0.9s0.4-0.9,0.9-1c0.5,0,0.9,0.4,0.9,0.9C21.6,15.8,21.1,16.3,20.6,16.3z"/>
	<path class="st1" d="M23.9,14.8c0.1-0.2,0.3-0.2,0.5-0.2c1.2-0.2,2,0.7,2,1.7c-0.1-0.1-0.3-0.2-0.4-0.3c0.1-0.1,0-0.2,0-0.2
		c-0.3-0.6-0.8-0.8-1.5-0.7C24.2,15,24,14.9,23.9,14.8z"/>
	<path class="st1" d="M23.6,15.4c0.2-0.1,0.4-0.1,0.6,0c0,0.1-0.1,0.1-0.2,0.2c-0.3,0.2-0.3,0.5-0.3,0.8c0.1,0.3,0.3,0.5,0.6,0.5
		c0.1,0,0.1,0,0.2,0.1c-0.2,0.1-0.4,0.2-0.7,0.2v-0.1c-0.3-0.3-0.4-0.6-0.4-1C23.4,15.9,23.6,15.7,23.6,15.4z"/>
	<path class="st1" d="M24.5,17.1c0-0.1-0.1-0.1-0.2-0.1c-0.3,0-0.5-0.2-0.6-0.5s0-0.6,0.3-0.8c0.1-0.1,0.2-0.1,0.2-0.2
		c0.2,0.1,0.3,0.2,0.4,0.3c-0.1,0-0.2,0.1-0.3,0.1c-0.3,0.2-0.3,0.6-0.1,0.8c0.1,0.1,0.2,0.1,0.3,0.1s0.1-0.1,0.1-0.2
		c0-0.2,0-0.3,0.2-0.2C24.9,16.6,24.8,16.9,24.5,17.1z"/>
	<path class="st1" d="M23.6,15.4c-0.1,0.2-0.2,0.4-0.2,0.7c0,0.4,0.1,0.7,0.4,1v0.1c-0.3,0-0.7-0.2-0.8-0.5
		c-0.2-0.4-0.1-0.8,0.2-1.1C23.4,15.6,23.5,15.5,23.6,15.4z"/>
	<path class="st1" d="M11.4,30.3c0,0.1,0,0.2,0,0.3c0,0.3-0.3,0.6-0.6,0.7c-0.4,0.1-0.8,0-1-0.3c0.2,0.1,0.4,0,0.7,0
		c0.1,0,0.1-0.1,0.2-0.1C10.8,30.6,11,30.4,11.4,30.3z"/>
	<path class="st1" d="M24.8,16.3c-0.2,0-0.3,0.1-0.2,0.2c0,0.1,0.1,0.2-0.1,0.2c-0.1,0-0.2,0-0.3-0.1C24,16.4,24,16,24.3,15.8
		c0.1,0,0.2-0.1,0.3-0.1C24.8,15.9,24.8,16.1,24.8,16.3z"/>
	<path class="st1" d="M24.4,15.1c0.6-0.1,1.2,0.2,1.5,0.7c0,0.1,0.1,0.1,0,0.2C25.4,15.7,24.9,15.4,24.4,15.1z"/>
	<path class="st1" d="M9.5,17.3c-0.1-0.3-0.1-0.4,0.2-0.4C9.7,17.1,9.7,17.2,9.5,17.3z"/>
	<path class="st1" d="M10.2,2.7c-0.1-0.2-0.1-0.5,0.1-0.7c0.2-0.1,0.4-0.1,0.7,0c0.2,0.1,0.3,0.3,0.4,0.4c-0.1,0.1-0.2,0.1-0.3,0.1
		l0,0H11c0-0.1-0.1-0.1-0.2-0.1c-0.1,0-0.1,0.1-0.1,0.2C10.5,2.6,10.4,2.7,10.2,2.7z"/>
	<path class="st1" d="M10.7,2.6c0-0.1,0-0.2,0.1-0.2s0.2,0,0.2,0.1C10.9,2.6,10.8,2.6,10.7,2.6z"/>
	<path class="st1" d="M11.1,2.5L11.1,2.5L11.1,2.5z"/>
	<path class="st4" d="M26,27c-0.1-0.1-0.1-0.2-0.2-0.3c-0.2-0.3-0.3-0.7-0.5-1.1c0.5,0.2,0.9,0.5,1.3,0.7c0.1,0,0.1,0.1,0,0.1
		C26.4,26.6,26.2,26.8,26,27z"/>
</g>
<g id="Calque_2_1_">
	<g>
		<path class="st5" d="M36.2,8.2c0-0.1,0-0.2,0-0.3V7.8h-0.1h0.1c0-0.3,0-0.5,0-0.8s0-0.5,0-0.8c-0.3-1.3-1.2-2-2.6-2
			c-5.5,0-11,0-16.5,0c-0.1,0-0.1,0-0.2,0c-0.1,0-0.1,0-0.1-0.1c0-0.3,0-0.5,0-0.8c0-1.5-1.2-2.8-2.8-2.8c-1.1,0-2.2,0-3.3,0
			c-1.3,0-2.5,1-2.7,2.3C7.9,3.2,8,3.6,8,4c0,0.2,0,0.2-0.2,0.2C7,4.3,6.4,4.7,6,5.4c0,0,0,0,0,0.1C5.7,6,5.7,6.5,5.7,7
			c0,0.1,0,0.2,0,0.3c0,0.2,0,0.4,0,0.6c0,0.1,0,0.1,0,0.2c0,0.1,0,0.1,0,0.2c-0.1,0.1,0,0.2,0,0.3s0,0.2,0,0.2c0,1.9,0,3.8,0,5.7
			c0,0.2,0,0.3-0.2,0.3S5.2,14.9,5,14.9c-1.2,0.5-2,1.7-2,3c0,2.6,0,5.3,0,7.9c0,0.4,0,0.7,0,1.1c0,0.5,0,0.9,0.1,1.4
			c0.5,2.1,2.3,3.7,4.5,3.9c2,0.2,4.1-1,4.9-3c0.1-0.2,0.2-0.2,0.4-0.2c6.9,0,13.8,0,20.7,0c0.3,0,0.6,0,0.9-0.1
			c0.8-0.3,1.4-0.8,1.6-1.6l0.1-0.1c0-0.1,0.1-0.2,0-0.3l0,0c0.1-0.3,0-0.6,0.1-0.9c0-0.2,0-0.5,0-0.7c0-5.6,0-11.3,0-16.9
			C36.2,8.3,36.2,8.3,36.2,8.2z M16.5,8.3c0,0.1-0.1,0.1-0.2,0.1C16.3,8.4,16.4,8.3,16.5,8.3z M16.3,7.9c0.1,0,0.2,0,0.2,0.1l0,0
			l0,0c0,0.1,0,0.2,0,0.2c0-0.1,0-0.1,0-0.2C16.5,7.9,16.4,7.9,16.3,7.9z M16.5,7.9L16.5,7.9L16.5,7.9L16.5,7.9z M9,14.7
			c0-3.8,0-7.6,0-11.4c0-1,0.6-1.8,1.6-1.9c1.3-0.1,2.5-0.1,3.8,0c0.9,0.1,1.5,0.9,1.5,1.8c0,6.2,0,12.5,0,18.7c0,1-0.8,1.8-1.8,1.8
			c-1.1,0-2.2,0-3.3,0c-1,0-1.8-0.8-1.8-1.9c0-1.4,0-2.8,0-4.2c0-0.1,0-0.2,0-0.3c0-0.2,0-0.3,0-0.5c0.1-0.1,0-0.2,0-0.3
			c0-0.2,0-0.4,0-0.5c0.1-0.3,0.1-0.7,0-1C9,14.9,9,14.8,9,14.7z M8.5,17.8L8.5,17.8C8.5,17.8,8.5,17.8,8.5,17.8s0.1-0.1,0-0.3
			c-0.1,0-0.2-0.1-0.3-0.1c0.1,0,0.2,0.1,0.3,0.1l0,0l0,0C8.6,17.6,8.6,17.7,8.5,17.8z M8.6,17.4L8.6,17.4L8.6,17.4L8.6,17.4z
			 M11.4,29.2c-0.8,1.4-2.5,2.2-4,2C5.7,30.9,4.3,29.7,4,28c-0.1-0.5-0.1-0.9-0.1-1.4c0-0.1,0-0.2,0-0.3c0.1-0.1,0-0.2,0-0.3
			c0-0.2,0-0.5,0-0.7c0-0.1,0-0.2,0-0.4c0-2.3,0-4.6,0-6.9c0-1.1,0.6-1.9,1.6-2.2c0.2-0.1,0.2,0,0.2,0.2c0,2.9,0,5.9,0,8.8
			c0,0.1,0,0.2,0,0.3c0.1,0,0.1,0,0.1,0.1c0,0-0.1,0-0.1-0.1c0,0.1,0,0.2,0,0.3c0,0.2,0,0.4,0,0.5c0,0,0.1,0,0.1,0.1
			c0,0-0.1,0-0.1-0.1c0,0.1,0,0.2,0,0.3c-0.1,0.2,0,0.4,0,0.6c0,0.1,0,0.1,0,0.1c0,0.1,0,0.2,0.1,0.3c0,0.1,0,0.2,0.1,0.2
			c0.3,0.9,1.2,1.5,2.2,1.5c1.1,0,2.1,0,3.2,0C11.5,28.9,11.5,29,11.4,29.2z M11.9,27.8c0,0.1-0.1,0.2-0.2,0.2c-1.2,0-2.4,0-3.6,0
			c-0.6,0-1-0.4-1.3-0.8v-0.1c0-0.1,0-0.1-0.1-0.2c-0.1-0.3,0-0.6-0.1-1c0,0-0.1,0-0.1-0.1c0,0,0.1,0,0.1,0.1c0-0.3,0-0.5,0-0.8
			c0-0.1,0-0.2,0-0.3c0-5.5,0-11,0-16.5c0-0.1,0-0.3,0-0.4c0-0.3,0-0.6,0-0.9s0-0.5,0.1-0.8c0.2-0.5,0.5-0.8,1.1-1
			C8,5.1,8,5.2,8,5.4c0,3.1,0,6.3,0,9.4v0.1c0,0.2,0,0.3,0,0.5v0.1c0,0.4,0,0.9,0,1.3l0,0c0,0.1,0,0.2,0,0.4l0,0
			c0,0.2-0.1,0.4,0,0.7c0,1.4,0,2.8,0,4.1c0,1.2,0.8,2.2,2,2.6c0.2,0.1,0.3,0.1,0.3,0.4c0,0.5,0.1,1,0.6,1.3
			c0.3,0.2,0.6,0.2,0.9,0.2c0.2,0,0.3,0,0.2,0.2C11.9,27,12,27.4,11.9,27.8z M35.2,27c-0.2,0.6-0.7,0.9-1.3,1c-0.1,0-0.2,0-0.3,0
			c-6.8,0-13.6,0-20.5,0c-0.3,0-0.3,0-0.3-0.3c0-0.4,0-0.7,0-1.1c0-0.1,0-0.2,0.2-0.2c1.2,0,1.5-0.4,1.5-1.5c0-0.2,0-0.2,0.2-0.3
			c1.2-0.4,2-1.4,2-2.7c0-4.5,0-8.9,0-13.4c0-0.1,0.1-0.2,0-0.3c0.1-0.3,0-0.6,0-0.9c0-0.1,0-0.3,0-0.4c0-0.2,0-0.3,0-0.5
			c0-0.3,0-0.6,0-0.9s0-0.3,0.4-0.3c5.5,0,10.9,0,16.4,0c0.7,0,1.2,0.3,1.5,0.9c0,0.1,0.1,0.3,0.1,0.4c0-0.1,0.1-0.1,0.2-0.1
			c-0.1,0-0.1,0.1-0.2,0.1c0,0.2,0,0.3,0,0.5h0.1h-0.1c0,0.1,0,0.3,0,0.4c0,0.2-0.1,0.4,0.1,0.6l0,0c-0.1,0.2-0.1,0.4-0.1,0.6
			c0,5.4,0,10.7,0,16.1c0,0.1,0,0.2,0,0.3c0,0.1,0,0.3,0,0.4l0,0c-0.1,0.2,0,0.4,0,0.5s0,0.3,0,0.4C35.2,26.5,35.3,26.8,35.2,27z"/>
		<path class="st5" d="M22.3,11.3c3,0,6,0,9,0c0.6,0,1.2,0,1.9,0c0.6,0,1.1-0.5,1.1-1.1c0-0.7,0-1.3,0-2c0-0.2,0-0.3,0-0.5
			c0-0.5-0.2-0.8-0.6-1c-0.1-0.1-0.2-0.1-0.4-0.1c-0.4,0-0.7,0-1.1,0c-0.1,0-0.3,0-0.4,0c-0.3,0-0.7,0-1,0c-2.7,0-5.3,0-8,0
			c-0.3,0-0.6-0.1-0.8,0c-0.1,0-0.2,0-0.3,0.1c-0.2,0.1-0.4,0.2-0.4,0.5c-0.1,0.1-0.1,0.3-0.1,0.4c0,0.8,0,1.6,0,2.4
			C21.1,10.9,21.6,11.3,22.3,11.3z M33.2,7.7c0.1,0,0.1,0,0.2,0C33.3,7.7,33.3,7.7,33.2,7.7s-0.2,0-0.2,0
			C33.1,7.7,33.1,7.7,33.2,7.7z"/>
		<path class="st5" d="M33.8,13.1c0.3,0,0.5-0.3,0.4-0.6c-0.1-0.2-0.3-0.4-0.6-0.4c-2.9,0-5.9,0-8.8,0c-0.9,0-1.9,0-2.8,0
			c-0.1,0-0.3,0-0.4,0.1c-0.2,0.1-0.2,0.3-0.2,0.5c0.1,0.2,0.3,0.3,0.5,0.3c1.9,0,3.9,0,5.8,0c1.8,0,3.7,0,5.5,0
			C33.5,13.1,33.6,13.1,33.8,13.1z"/>
		<path class="st5" d="M28.5,23.8c-0.6,0-1.1,0-1.7,0c-0.7,0-1.2,0.6-1.2,1.4c0,0.7,0.5,1.2,1.2,1.3c0.3,0,0.5,0,0.8,0s0.5,0,0.8,0
			c0.7,0,1.2-0.5,1.2-1.2C29.7,24.4,29.3,23.8,28.5,23.8z"/>
		<path class="st5" d="M31.5,23.1c0.3,0,0.5,0,0.8,0s0.5,0,0.8,0c0.7,0,1.2-0.5,1.2-1.2c0-0.8-0.4-1.4-1.1-1.5c-0.6,0-1.2,0-1.8,0
			c-0.7,0-1.1,0.6-1.1,1.4C30.3,22.6,30.8,23.1,31.5,23.1z M32.2,21.4c0.1,0,0.2,0,0.4,0C32.5,21.4,32.3,21.4,32.2,21.4
			c-0.2,0-0.5,0-0.7,0C31.8,21.4,32,21.4,32.2,21.4z"/>
		<path class="st5" d="M26.9,23.1c0.2,0,0.5,0,0.7,0s0.5,0,0.7,0c0.7,0,1.2-0.5,1.3-1.2c0-0.8-0.4-1.4-1.2-1.4c-0.5,0-1.1,0-1.6,0
			c-0.7,0-1.2,0.6-1.2,1.4C25.7,22.6,26.2,23.1,26.9,23.1z M27.7,21.4c0.2,0,0.5,0,0.7,0C28.2,21.4,27.9,21.4,27.7,21.4
			s-0.5,0-0.7,0C27.2,21.4,27.4,21.4,27.7,21.4z"/>
		<path class="st5" d="M22.3,23.1c0.3,0,0.5,0,0.8,0c0.2,0,0.5,0,0.7,0c0.8,0,1.3-0.5,1.3-1.3s-0.5-1.3-1.3-1.3c-0.4,0-0.9,0-1.3,0
			c-0.9,0-1.5,0.6-1.4,1.5C21.2,22.6,21.7,23.1,22.3,23.1z M23.2,21.4c0.2,0,0.5,0,0.7,0C23.6,21.4,23.4,21.4,23.2,21.4
			s-0.5,0-0.7,0C22.7,21.4,22.9,21.4,23.2,21.4z"/>
		<path class="st5" d="M31.2,19.8c0.2,0,0.4,0,0.6,0c0.4,0,0.9,0,1.3,0c0.7-0.1,1.1-0.6,1-1.4c0-0.6-0.5-1.2-1.1-1.2
			c-0.5,0-0.9,0-1.4,0c-0.4,0-0.8,0.1-1.1,0.3c0,0-0.1,0-0.1,0.1c0,0-0.1,0,0,0.1l0,0c-0.1,0-0.1,0.1-0.1,0.2
			C30.1,18.5,30.3,19.6,31.2,19.8z M32.2,18.1c0.2,0,0.5,0,0.7,0C32.7,18.1,32.5,18.1,32.2,18.1c-0.2,0-0.5,0-0.7,0
			C31.8,18.1,32,18.1,32.2,18.1z"/>
		<path class="st5" d="M22.3,16.5c0.5,0,1,0,1.6,0c0.1,0,0.3,0,0.4,0c0.3-0.1,0.5-0.2,0.6-0.4c0.1-0.1,0.2-0.2,0.2-0.3
			c0.1-0.1,0.1-0.3,0.1-0.4c0-0.1,0-0.2,0-0.3C25.1,14.5,24.7,14,24,14c-0.5,0-1.1,0-1.6,0c-0.1,0-0.2,0-0.3,0
			c-0.6,0.2-1,0.7-0.9,1.5C21.2,16,21.7,16.5,22.3,16.5z"/>
		<path class="st5" d="M24,23.8c-0.5,0-1.1,0-1.6,0c-0.6,0-1.1,0.5-1.2,1.1c0,0.1,0,0.2,0,0.4c0,0.2,0.1,0.4,0.2,0.6
			c0.1,0.1,0.2,0.3,0.3,0.3c0.2,0.1,0.4,0.2,0.7,0.2c0.5,0,1,0,1.6,0c0.7,0,1.2-0.5,1.2-1.2C25.1,24.3,24.7,23.8,24,23.8z"/>
		<path class="st5" d="M33.1,23.8c-0.5,0-1.1,0-1.6,0c-0.7,0-1.2,0.6-1.2,1.4c0,0.7,0.5,1.2,1.2,1.2c0.5,0,1,0,1.6,0
			c0.4,0,0.8-0.2,1-0.5c0.3-0.4,0.3-0.9,0.1-1.3C33.9,24,33.6,23.8,33.1,23.8z M31.8,24.7L31.8,24.7c-0.1,0-0.2,0-0.3,0
			C31.6,24.7,31.7,24.7,31.8,24.7z"/>
		<path class="st5" d="M26.9,13.8c-0.2,0-0.4,0.1-0.6,0.2c-0.5,0.3-0.7,0.8-0.6,1.5c0.1,0.4,0.3,0.6,0.6,0.8
			c0.2,0.1,0.3,0.1,0.5,0.1c0.1,0,0.3,0,0.4,0c0.2,0,0.4,0,0.6,0c0.1,0.1,0.3,0,0.4,0h0.1c0.1,0,0.3,0,0.4-0.1
			c0.3,0,0.5-0.2,0.6-0.4c0.1-0.1,0.2-0.2,0.2-0.4c0-0.1,0-0.1,0-0.2c0.2-0.8-0.4-1.6-1.2-1.6C27.9,13.8,27.4,13.8,26.9,13.8z
			 M26.8,15.5c-0.1,0-0.1,0-0.2,0C26.7,15.5,26.7,15.5,26.8,15.5L26.8,15.5z M26.6,15.5L26.6,15.5C26.6,15.5,26.6,15.5,26.6,15.5z
			 M26.4,15.5L26.4,15.5L26.4,15.5z"/>
		<path class="st5" d="M30.6,16.1c0.2,0.3,0.5,0.4,0.9,0.4c0.5,0,1,0,1.5,0c0.7,0,1.3-0.5,1.3-1.3s-0.5-1.3-1.2-1.3
			c-0.5,0-1,0-1.5,0c-0.2,0-0.4,0-0.6,0.1c-0.6,0.3-0.9,1.1-0.6,1.8C30.4,15.9,30.4,16,30.6,16.1z"/>
		<path class="st5" d="M24.5,17.3c-0.2-0.1-0.4-0.2-0.7-0.2c-0.4,0-0.9,0-1.3,0c-0.9,0-1.4,0.6-1.3,1.5c0.1,0.7,0.6,1.1,1.2,1.1
			c0.5,0,1,0,1.6,0c0.1,0,0.2,0,0.2,0c1.1-0.2,1.2-1.5,0.7-2.1C24.8,17.5,24.7,17.4,24.5,17.3z M24.5,17.4
			C24.4,17.4,24.4,17.4,24.5,17.4C24.4,17.5,24.4,17.5,24.5,17.4C24.4,17.4,24.4,17.4,24.5,17.4z"/>
		<path class="st5" d="M29.1,17.3c-0.2-0.1-0.4-0.2-0.7-0.2c-0.5,0-0.9,0-1.4,0c-0.2,0-0.3,0-0.5,0.1c-0.1,0-0.1,0-0.1,0
			c-0.2,0.1-0.4,0.2-0.5,0.4l0,0c-0.3,0.4-0.3,0.9-0.1,1.3c0.2,0.5,0.5,0.7,1,0.7c0.2,0,0.4,0,0.5,0c0.3,0,0.7,0,1,0
			c0.6,0,1-0.2,1.2-0.7s0.2-1.1-0.2-1.5C29.3,17.4,29.2,17.4,29.1,17.3z"/>
		<path class="st5" d="M10.3,19.8c1.4,0,2.9,0,4.3,0c0.2,0,0.3-0.1,0.4-0.2c0.2-0.3,0-0.7-0.4-0.7c-0.7,0-1.4,0-2.1,0l0,0
			c-0.7,0-1.4,0-2.1,0c-0.3,0-0.5,0.2-0.5,0.5C9.8,19.6,10,19.8,10.3,19.8z"/>
		<path class="st5" d="M10.3,22c1.4,0,2.8,0,4.2,0c0.1,0,0.2,0,0.2,0c0.2-0.1,0.3-0.3,0.3-0.5c0-0.3-0.2-0.5-0.4-0.5
			c-0.7,0-1.4,0-2.1,0c-0.7,0-1.4,0-2.1,0c-0.3,0-0.5,0.2-0.5,0.5C9.8,21.8,10,22,10.3,22z"/>
	</g>
</g>
<g id="Calque_3" class="st0">
	<path class="st1" d="M11.3,11.2c0-0.1,0-0.2-0.1-0.4c0,0,0,0,0-0.1c-0.1-0.1,0-0.3,0-0.4c0-0.3-0.1-0.5-0.1-0.8l0,0c0,0,0,0,0-0.1
		c0,0,0,0,0-0.1s0-0.1,0-0.2c0,0,0,0,0-0.1c0-0.9,0.1-1.8,0.4-2.6c0.6-2.3,1.8-4,3.9-5.2c1.2-0.7,2.6-1.1,4-1.2c0.3,0,0.6,0,0.8,0
		l0,0c0.1,0,0.1,0,0.2,0c0,0,0,0,0.1,0c0.4,0,0.8,0.1,1.2,0.1c0.1,0,0.2,0,0.2,0c0.1,0,0.3,0.1,0.4,0.1h0.1l0,0c0,0,0,0,0.1,0
		c1.2,0.3,2.3,0.8,3.3,1.6c0.8,0.6,1.5,1.4,2,2.3c0.6,1.1,1,2.3,1.2,3.6c0.1,0.6,0.1,1.3,0.1,1.9c0,0.7-0.2,1.4-0.4,2.1
		c-0.5,1.5-1.2,2.8-2.1,4c-0.8,1.1-1.6,2.4-2,3.7c-0.3,0.8-0.5,1.5-0.4,2.4c0,0.1,0,0.2-0.2,0.2c-0.8,0-1.5,0-2.3,0
		c-1.8,0-3.6,0-5.4,0c-0.1,0-0.2,0-0.1-0.1c0-1.2-0.3-2.3-0.8-3.3c-0.5-1.1-1.2-2.1-1.9-3.1c-0.8-1.2-1.5-2.4-1.9-3.8c0,0,0,0,0-0.1
		C11.4,11.6,11.4,11.4,11.3,11.2z M22.1,21.6c0.3,0,0.7,0,1,0h0.1c0.1,0,0.2,0.1,0.2-0.1c0-0.7,0.2-1.5,0.5-2.2
		c0.5-1.3,1.2-2.5,2-3.6c0.9-1.2,1.6-2.5,2.1-3.9c0.3-0.8,0.4-1.6,0.4-2.5c0-0.6-0.1-1.2-0.2-1.8c-0.2-1-0.5-2-1-2.9
		c-0.7-1.2-1.6-2.1-2.8-2.7c-0.6-0.3-1.2-0.6-1.9-0.8c-0.2,0-0.4-0.1-0.6-0.1c-0.3-0.1-0.7-0.1-1-0.1c-0.2,0-0.4,0-0.5,0
		c-1.1,0-2.2,0.2-3.2,0.5c-1.2,0.4-2.3,1-3.1,1.9C13.2,4,12.7,4.9,12.3,6c-0.3,0.9-0.5,1.8-0.5,2.7c0,0.5-0.1,0.9,0,1.4
		c0.1,1,0.4,1.9,0.8,2.9c0.4,0.9,0.8,1.7,1.4,2.4c0.7,1,1.4,2,1.9,3s0.8,2,0.9,3c0,0.1,0,0.1,0.1,0.1c1.1,0,2.1,0,3.2,0
		C20.7,21.6,21.4,21.6,22.1,21.6L22.1,21.6z"/>
	<path class="st1" d="M20.1,29.7c-1,0-2.1,0-3.1,0c-0.5,0-0.9-0.2-1.1-0.7c-0.2-0.4-0.2-0.8,0.1-1.2c0.2-0.3,0.6-0.4,0.9-0.4
		c0.7,0,1.4,0,2.2,0c1.4,0,2.7,0,4.1,0c0.6,0,1.1,0.4,1.2,1c0.1,0.6-0.4,1.2-1.1,1.2C22.2,29.7,21.2,29.7,20.1,29.7L20.1,29.7z
		 M20.1,29.1c1,0,2,0,3.1,0c0.1,0,0.2,0,0.3,0c0.2-0.1,0.4-0.3,0.3-0.6c0-0.3-0.3-0.5-0.5-0.5c-1,0-2,0-2.9,0c-1.1,0-2.2,0-3.3,0
		c-0.2,0-0.3,0-0.4,0.2c-0.1,0.2-0.2,0.4-0.1,0.6c0.1,0.2,0.3,0.3,0.5,0.3C18,29,19,29.1,20.1,29.1z"/>
	<path class="st1" d="M20.1,24.7c-1.1,0-2.2,0-3.3,0c-0.3,0-0.5-0.2-0.7-0.4c-0.3-0.3-0.4-0.8-0.2-1.2c0.2-0.5,0.6-0.7,1.1-0.7
		c1.1,0,2.2,0,3.3,0c1,0,2,0,2.9,0c0.6,0,1.1,0.4,1.2,1c0.1,0.5-0.2,1-0.7,1.2c-0.1,0.1-0.3,0.1-0.4,0.1
		C22.2,24.7,21.1,24.7,20.1,24.7L20.1,24.7z M23.6,23.2C23.5,23,23.3,23,23.2,23c-0.9,0-1.8,0-2.7,0c-1.2,0-2.3,0-3.5,0
		c-0.2,0-0.3,0-0.4,0.2c-0.2,0.2-0.2,0.5,0,0.7c0.1,0.1,0.3,0.2,0.5,0.2c1.9,0,3.9,0,5.8,0c0.2,0,0.3,0,0.5,0s0.4-0.1,0.4-0.3
		C23.8,23.5,23.8,23.4,23.6,23.2L23.6,23.2z"/>
	<path class="st1" d="M23.8,25c0.3,0.2,0.5,0.5,0.6,0.9c0.1,0.7-0.4,1.3-1.1,1.3c-1,0-2.1,0-3.1,0c-1.1,0-2.1,0-3.2,0
		c-0.8,0-1.3-0.7-1.1-1.5c0.1-0.4,0.5-0.7,0.9-0.8c0.1,0,0.2,0,0.3,0c2,0,4,0,6.1,0C23.3,24.9,23.6,24.9,23.8,25z M20.1,25.5
		c-1,0-2.1,0-3.1,0c-0.3,0-0.6,0.2-0.6,0.5s0.3,0.6,0.6,0.6c2.1,0,4.1,0,6.2,0c0.1,0,0.1,0,0.2,0c0.3-0.1,0.5-0.3,0.4-0.6
		c0-0.3-0.2-0.5-0.5-0.5C22.2,25.5,21.1,25.5,20.1,25.5z"/>
	<path class="st1" d="M21.9,32.1L21.9,32.1c-0.1,0-0.2,0-0.3,0.1c-1,0-2,0-3,0c-0.5,0-1-0.4-1.1-0.9s0.1-1,0.6-1.3
		c0.2-0.1,0.3-0.1,0.5-0.1c0.9,0,1.9,0,2.8,0c0.7,0,1.2,0.5,1.2,1.2v0.1c0,0.1,0,0.1-0.1,0.2c0,0,0,0.1-0.1,0.1
		c0,0.1-0.1,0.1-0.1,0.2l0,0c0,0,0,0-0.1,0.1C22.2,31.9,22.1,32,21.9,32.1C22,32,22,32.1,21.9,32.1z M20.1,31.5L20.1,31.5
		c0.5,0,0.9,0,1.4,0c0.3,0,0.6-0.2,0.6-0.5s-0.2-0.6-0.6-0.6c-0.9,0-1.8,0-2.8,0c-0.3,0-0.6,0.2-0.6,0.5s0.2,0.5,0.6,0.5
		C19.2,31.5,19.6,31.5,20.1,31.5z"/>
	<path class="st1" d="M16.6,10c0-0.2,0.1-0.3,0.3-0.3s0.3,0.1,0.3,0.3c0.1,0.7,0.3,1.3,0.4,2c0.2,1,0.4,1.9,0.6,2.9
		c0.4,1.9,0.7,3.8,1.1,5.6c0,0.1,0,0.2,0.1,0.3c0,0.2-0.1,0.3-0.2,0.4c-0.2,0-0.3-0.1-0.4-0.3c-0.2-1-0.4-1.9-0.6-2.9
		c-0.3-1.4-0.5-2.7-0.8-4.1C17.1,12.6,16.9,11.4,16.6,10C16.6,10.1,16.6,10.1,16.6,10z"/>
	<path class="st1" d="M21.5,20.6c0,0.2-0.1,0.3-0.1,0.5c0,0-0.1,0-0.1,0.1c-0.3,0.1-0.5-0.1-0.4-0.4c0.3-1.3,0.5-2.7,0.8-4
		c0.3-1.6,0.6-3.2,0.9-4.7c0.1-0.6,0.2-1.1,0.3-1.7c0.1-0.1,0-0.3,0.1-0.4c0,0,0.1,0,0.1-0.1c0.1-0.1,0.2-0.1,0.3,0s0.2,0.2,0.1,0.4
		c-0.3,1.6-0.6,3.2-1,4.8c-0.3,1.7-0.7,3.4-1,5.1v0.1l0,0c0,0,0,0,0,0.1L21.5,20.6C21.5,20.5,21.5,20.5,21.5,20.6L21.5,20.6z"/>
	<path class="st1" d="M17,23.1C17,23.2,17,23.2,17,23.1C17,23.2,17,23.2,17,23.1L17,23.1L17,23.1z"/>
	<path class="st1" d="M8.3,12.6h-9.9c-0.3,0-0.6-0.3-0.6-0.6l0,0c0-0.3,0.3-0.6,0.6-0.6h9.9c0.3,0,0.6,0.3,0.6,0.6l0,0
		C8.9,12.4,8.6,12.6,8.3,12.6z"/>
	<path class="st1" d="M41.7,12.6h-9.9c-0.3,0-0.6-0.3-0.6-0.6l0,0c0-0.3,0.3-0.6,0.6-0.6h9.9c0.3,0,0.6,0.3,0.6,0.6l0,0
		C42.3,12.4,42,12.6,41.7,12.6z"/>
	<path class="st1" d="M8.7,8.6l-7-7C1.5,1.4,1.5,1,1.7,0.8l0,0c0.2-0.2,0.6-0.2,0.8,0l7,7c0.2,0.2,0.2,0.6,0,0.8l0,0
		C9.3,8.8,8.9,8.8,8.7,8.6z"/>
	<path class="st1" d="M31.4,8.6l7-7c0.2-0.2,0.2-0.6,0-0.8l0,0c-0.2-0.2-0.6-0.2-0.8,0l-7,7c-0.2,0.2-0.2,0.6,0,0.8l0,0
		C30.8,8.8,31.2,8.8,31.4,8.6z"/>
	<path class="st1" d="M9.7,14.8l-7,7c-0.2,0.2-0.2,0.6,0,0.8l0,0c0.2,0.2,0.6,0.2,0.8,0l7-7c0.2-0.2,0.2-0.6,0-0.8l0,0
		C10.3,14.6,9.9,14.6,9.7,14.8z"/>
	<path class="st1" d="M30.4,14.8l7,7c0.2,0.2,0.2,0.6,0,0.8l0,0c-0.2,0.2-0.6,0.2-0.8,0l-7-7c-0.2-0.2-0.2-0.6,0-0.8l0,0
		C29.8,14.6,30.2,14.6,30.4,14.8z"/>
</g>
<g id="Calque_4" class="st0">
	<path class="st1" d="M2,12.7c0.7,0,1.5,0,2.2,0c0.2,0,0.3,0,0.3-0.2c0.1-0.3,0.3-0.7,0.5-1c0.4-0.9,1-1.6,1.7-2.3
		c2-1.8,4.3-2.7,6.9-2.5c2.3,0.1,4.3,0.9,6,2.5c0.1,0.1,0.2,0.1,0.3,0c1.3-1.2,2.7-2,4.4-2.3c3-0.6,5.8,0,8.2,2
		c1.1,0.9,2,2.1,2.5,3.5c0.1,0.2,0.2,0.3,0.4,0.3c0.9,0,1.8,0,2.7,0c0.5,0,0.6,0.2,0.6,0.6c0,1.3,0,2.5,0,3.8c0,0.3-0.2,0.5-0.5,0.5
		c-1,0-2,0-3,0c-0.1,0-0.2,0-0.3,0.2c-0.9,2.5-2.6,4.1-5,5.1c-1.3,0.6-2.7,0.8-4.2,0.7c-2.3-0.2-4.3-0.9-5.9-2.5
		c-0.1-0.1-0.1-0.1-0.2,0c-2.1,1.9-4.6,2.7-7.4,2.5c-1-0.1-1.9-0.3-2.8-0.7c-2.2-1-3.9-2.6-4.8-4.9c-0.2-0.4-0.1-0.4-0.6-0.4
		c-1.3,0-2.5,0-3.8,0c-0.2,0-0.3,0-0.5,0c-0.3,0-0.5-0.2-0.5-0.5s0-0.5,0-0.8c0-1,0-1.9,0-2.9v-0.1c0-0.5,0.2-0.7,0.7-0.7
		C0.6,12.7,1.3,12.7,2,12.7z M13.5,7.6c-1,0-1.8,0.1-2.5,0.3c-2.5,0.7-4.4,2.2-5.5,4.7c-1.1,2.7-0.4,5.7,1.7,7.9
		c1.5,1.4,3.2,2.2,5.2,2.4c2.5,0.2,4.7-0.6,6.5-2.3c0.1-0.1,0.1-0.2,0-0.3c-0.6-0.7-1-1.5-1.3-2.3c0-0.1,0-0.2-0.1-0.2
		s-0.2,0.1-0.3,0.2c-0.7,0.8-1.5,1.4-2.6,1.7c-2.1,0.6-4,0.2-5.5-1.4c-1.2-1.3-1.5-3.2-0.7-4.7c0.9-1.6,2.3-2.4,4.1-2.6
		c1.8-0.2,3.3,0.4,4.6,1.7c0.1,0.1,0.2,0.1,0.2,0c0.3-0.2,0.5-0.4,0.6-0.7c0.3-0.6,0.6-1.1,1-1.6c0.1-0.1,0.1-0.2,0-0.3
		C17.4,8.4,15.4,7.6,13.5,7.6z M32.3,12.7L32.3,12.7c0.5,0,1,0,1.5,0c0.2,0,0.2-0.1,0.1-0.2c-0.3-0.7-0.7-1.4-1.2-2
		c-1.5-1.7-3.4-2.7-5.7-2.9c-1.8-0.2-3.5,0.2-5.1,1.1c-1.4,0.8-2.4,1.9-3.1,3.4c-0.1,0.3-0.3,0.6-0.5,0.8c-0.1,0.1-0.1,0.2-0.1,0.3
		c0.1,0.3,0.2,0.7,0.3,1.1c0.1,0.3-0.1,0.5-0.3,0.6c-0.3,0.1-0.5-0.1-0.6-0.3s-0.1-0.5-0.2-0.7c0-0.2-0.1-0.3-0.3-0.2
		c-0.1,0-0.3,0-0.4,0c-0.5,0-1,0-1.6,0c-0.2,0-0.2,0-0.2,0.2c0.3,0.9,0.5,1.8,0.7,2.7c0,0.1,0.1,0.2,0.2,0.1c0.5,0,1,0,1.4,0
		c1.7-0.2,2.9-1,3.9-2.4c0.3-0.4,0.5-0.9,0.8-1.3c0.4-0.6,0.9-1.1,1.4-1.5c1.1-0.7,2.3-0.9,3.6-0.8c1.4,0.2,2.6,0.7,3.5,1.8
		c0.1,0.1,0.2,0.1,0.3,0.1C31.3,12.7,31.8,12.7,32.3,12.7z M21.4,15.6c-0.1,0-0.1,0.1-0.1,0.1c-0.7,0.8-1.5,1.3-2.5,1.6
		c-0.2,0.1-0.1,0.1-0.1,0.3c0.5,1.5,1.4,2.7,2.7,3.6c2.9,2.1,6.7,2.2,9.7,0.2c1.3-0.9,2.3-2,2.9-3.5c0-0.1,0.1-0.2-0.1-0.2
		c-1.1,0-2.1,0-3.2,0c-0.1,0-0.2,0-0.2,0.1c-0.9,1.1-2,1.7-3.4,1.9c-1.8,0.2-3.4-0.3-4.7-1.6C21.8,17.4,21.5,16.6,21.4,15.6z
		 M35.3,13.6L35.3,13.6c-0.8,0-1.6,0-2.4,0c-0.1,0-0.2,0-0.2,0.2c0.3,0.9,0.5,1.9,0.7,2.8c0,0.1,0.1,0.2,0.2,0.2c1.3,0,2.6,0,3.9,0
		c0.1,0,0.2,0,0.2-0.2c0-0.9,0-1.8,0-2.7c0-0.2,0-0.2-0.2-0.2C36.8,13.6,36.1,13.6,35.3,13.6z M24.2,16.7c0.4,0,0.9,0,1.3,0
		c0.1,0,0.2,0,0.2-0.2c-0.3-0.9-0.5-1.9-0.7-2.8c0-0.1-0.1-0.2-0.2-0.1c-0.6,0-1.2,0-1.8,0c-0.1,0-0.2,0-0.3,0.1
		c-0.2,0.3-0.3,0.6-0.5,0.8c-0.1,0.1-0.1,0.2,0,0.3c0.2,0.5,0.4,1.1,0.6,1.7c0,0.1,0.1,0.2,0.3,0.2S23.8,16.7,24.2,16.7z M14.8,16.7
		c-0.3-1-0.5-2-0.8-3c0-0.1-0.1-0.1-0.1-0.1c-0.8,0-1.6,0-2.4,0c0.3,1,0.5,2,0.8,3c0,0.1,0.1,0.1,0.1,0.1
		C13.2,16.7,14,16.7,14.8,16.7z M29.1,16.7c-0.3-1-0.5-2-0.8-3c0-0.1-0.1-0.1-0.2-0.1c-0.7,0-1.4,0-2.2,0c-0.2,0-0.2,0-0.1,0.2
		c0.2,0.7,0.4,1.5,0.6,2.2c0.1,0.2,0,0.5,0.2,0.6s0.5,0,0.7,0C27.9,16.7,28.5,16.7,29.1,16.7z M32.6,16.7c-0.3-1-0.5-2-0.8-3
		c0-0.1-0.1-0.1-0.2-0.1c-0.7,0-1.5,0-2.2,0c-0.1,0-0.2,0-0.1,0.2c0.3,0.9,0.5,1.9,0.7,2.8c0,0.1,0.1,0.1,0.2,0.1c0.6,0,1.3,0,1.9,0
		C32.3,16.7,32.4,16.7,32.6,16.7z M10.4,16.7c0.3,0,0.5,0,0.8,0c0.1,0,0.2,0,0.1-0.2c-0.3-0.9-0.5-1.9-0.7-2.8
		c0-0.1-0.1-0.1-0.2-0.1c-0.2,0-0.5,0-0.7,0s-0.2,0.1-0.3,0.2c-0.4,0.9-0.4,1.9,0,2.8c0,0.1,0.1,0.1,0.2,0.1
		C9.9,16.7,10.1,16.7,10.4,16.7z M0.2,15.2c0,0.4,0,0.9,0,1.3c0,0.1,0,0.2,0.2,0.2c0.5,0,1.1,0,1.6,0c0.1,0,0.2,0,0.1-0.2
		c-0.3-0.9-0.5-1.9-0.7-2.8c0-0.1-0.1-0.2-0.2-0.2c-0.3,0-0.5,0-0.8,0c-0.2,0-0.2,0.1-0.2,0.2C0.2,14.3,0.2,14.7,0.2,15.2z
		 M10.2,12.7c2,0,3.9,0,5.9,0C14.7,11.3,11.8,11.2,10.2,12.7z M3.3,13.6c-0.3,0-0.5,0-0.8,0c-0.1,0-0.2,0-0.1,0.2
		c0.3,0.9,0.5,1.9,0.7,2.8c0,0.1,0.1,0.1,0.2,0.1c0.3,0,0.6,0,0.9,0c0.1,0,0.1,0,0.1-0.1c-0.2-0.9-0.2-1.9,0-2.8
		c0-0.1,0-0.1-0.1-0.1C3.8,13.6,3.5,13.6,3.3,13.6z M23.5,12.7c1.9,0,3.9,0,5.8,0C27.6,11.1,24.7,11.4,23.5,12.7z M16.1,17.7
		c-0.3,0-5.7,0-5.8,0C11.9,19.1,14.6,19,16.1,17.7z M29.3,17.7c-2,0-3.9,0-5.8,0C25.1,19.1,27.8,19.1,29.3,17.7z"/>
</g>
<g id="Calque_5" class="st0">
	<path class="st1" d="M10.4,0.1C11.6,0.4,12.8,1,14,1.4c1.7,0.6,3.3,1.2,5,1.9c0.3,0.1,0.5,0.2,0.4,0.6c-0.1,0.3,0.1,0.4,0.4,0.4
		c0.3,0,0.5-0.1,0.5,0.3c0,0.2,0.2,0.2,0.3,0.2c2.5,0.2,4,1.7,4.9,3.9c0.5,1.2,0.6,2.4,0.7,3.6c0,0.3,0.1,0.5,0.4,0.7
		c0.5,0.3,0.8,0.9,1,1.4c0.6,1.5,0.8,3.1,1,4.7c0.2,1.9,0.3,3.9,0.3,5.8c0,0.8-0.3,1.1-1,1.2c-1.1,0.1-2.3,0.1-3.4,0
		c-0.8-0.1-1.1-0.4-1.1-1.3c0.1-2.7,0-5.4,0.4-8.1c0.1-0.8,0.3-1.7,0.5-2.5c0.1-0.4,0.3-0.8,0.6-1c0.4-0.3,0.5-0.7,0.4-1.1
		c-0.2-1.8-0.5-3.6-1.8-5c-0.7-0.8-1.6-1.2-2.7-1.3c-0.3,0-0.6,0-0.5,0.4c0.1,0.5-0.1,0.6-0.6,0.6c-0.2,0-0.4-0.1-0.4,0.2
		c0,0.2-0.1,0.5,0.3,0.6c2.3,0.9,3.3,2.5,3.3,5c0,5.6,0,11.1,0,16.7c0,0.3,0,0.7-0.1,1c-0.1,0.9-0.7,1.5-1.5,1.7c-0.3,0-0.7,0-1.1,0
		c-1.6,0.1-3.2,0.1-4.9,0c-1.7-0.1-2.4-0.9-2.4-2.6c0-5.8,0-11.5,0-17.3c0-2.2,1.1-3.7,3-4.5c0.4-0.2,0.5-0.3,0.5-0.7
		c0-1.2,0-1.2-1.2-1.2c-1.1,0-2.2,0-3.3,0c-0.4,0-0.5-0.1-0.5-0.5s0.1-0.5,0.5-0.5c1.1,0,2.2,0,3.3,0c0.1-0.1,0-0.1-0.1-0.2
		c-1.5-0.6-2.9-1.3-4.4-1.9c-0.1,0-0.2,0-0.3,0C10.4,1.8,10.4,0.9,10.4,0.1z M14,20.6c0,1.5,0,3,0,4.5c0,0.4,0.1,0.5,0.5,0.5
		c2.3,0,4.7,0,7,0c0.4,0,0.5-0.1,0.5-0.5c0-3,0-5.9,0-8.9c0-0.4-0.1-0.5-0.5-0.5c-2.3,0-4.7,0-7,0c-0.4,0-0.5,0.1-0.5,0.5
		C14,17.6,14,19.1,14,20.6z M17.9,14.7c1.2,0,2.4,0,3.5,0c0.2,0,0.5,0.1,0.5-0.2c0-1.2,0.2-2.5-0.2-3.7c-0.5-1.3-1.4-2-2.7-2.4
		c-0.4-0.1-0.7-0.3-0.6-0.8c0.1-0.5,0-1,0-1.5c0-0.4-0.2-0.3-0.5-0.3c-0.2,0-0.5-0.1-0.5,0.3c0,0.5,0,1,0,1.5
		c0.1,0.5-0.2,0.7-0.7,0.8C15,8.9,14,10.3,14,12.1c0,0.7,0,1.4,0,2c0,0.4,0.1,0.5,0.5,0.5C15.6,14.6,16.8,14.7,17.9,14.7z M18,31.1
		c0.9,0,1.8,0,2.7-0.1c1-0.1,1.3-0.5,1.3-1.4s0-1.7,0-2.6c0-0.3-0.1-0.4-0.4-0.4c-2.4,0-4.8,0-7.1,0c-0.3,0-0.4,0.1-0.4,0.4
		c0,0.9,0,1.8,0,2.7c0,0.9,0.3,1.3,1.3,1.4C16.2,31.1,17.1,31.1,18,31.1z M24.3,22.2c0,0.8,0,1.5,0,2.3c0,0.2,0,0.4,0.3,0.5
		c0.9,0.1,1.9,0.1,2.8,0c0.3,0,0.4-0.1,0.4-0.4c0-2.9-0.1-5.7-0.7-8.5c-0.1-0.6-0.3-1.3-0.6-1.8c-0.2-0.3-0.3-0.7-0.7-0.6
		c-0.4,0-0.4,0.4-0.6,0.7c-0.1,0.3-0.2,0.7-0.3,1C24.5,17.6,24.4,19.9,24.3,22.2z M18.4,4.4c0.1-0.3-0.1-0.3-0.3-0.4
		c-0.7-0.3-1.3-0.5-2-0.8c-1.4-0.5-2.9-1.1-4.3-1.6c-0.1,0-0.3-0.2-0.4,0c-0.1,0.2,0,0.3,0.2,0.3c0.1,0,0.1,0.1,0.2,0.1
		c1.9,0.8,3.9,1.7,5.8,2.5c0.1,0.1,0.3,0.1,0.4,0.1C18.3,4.8,18.5,4.7,18.4,4.4z"/>
</g>
<g id="Calque_6" class="st0">
	<path class="st1" d="M26.2,6.5L9.1,27.7c-1.7,2.1-4.7,2.7-6.5,1.2s-1.9-4.5-0.2-6.6L19.5,1.1l0,0L19,0.7c-0.3,0.2-0.5,0.4-0.7,0.7
		L0.4,23.5c-1.8,2.2-1.5,5.5,0.8,7.4c2.2,1.8,5.5,1.5,7.4-0.8L26.4,8c0.2-0.3,0.4-0.5,0.6-0.8L26.2,6.5L26.2,6.5z"/>
	<circle class="st1" cx="21.3" cy="4.7" r="0.9"/>
	<circle class="st1" cx="18.3" cy="8.1" r="0.9"/>
	<circle class="st1" cx="22.8" cy="1.9" r="0.9"/>
	<circle class="st1" cx="25.2" cy="4" r="0.9"/>
	<circle class="st1" cx="26" cy="1" r="0.9"/>
	<circle class="st1" cx="21.7" cy="7.4" r="0.9"/>
	<circle class="st1" cx="24.1" cy="6.1" r="0.9"/>
	<line class="st6" x1="10.5" y1="11.6" x2="22.8" y2="11.5"/>
</g>
<g id="Calque_7" class="st0">
	<path class="st1" d="M-1.5,16.1c0-8.8,7.2-16,16-16s16,7.2,15.9,16c0,8.8-7.2,16-16,16S-1.6,24.9-1.5,16.1z M14.5,1.2
		c-4.1,0-7.7,1.5-10.6,4.4s-4.3,6.5-4.3,10.7c0,8,6.7,14.7,14.9,14.7s15-6.8,14.9-14.9c-0.1-5.3-2.3-9.4-6.6-12.4
		C20.3,2,17.5,1.1,14.5,1.2z"/>
	<path class="st1" d="M7.8,18.4c0-0.5,0-0.9,0-1.4c0-0.1,0.1-0.2,0.2-0.3c0.2-0.2,0.5-0.3,0.7-0.5C9,16,9.3,15.8,9.6,15.5
		c0.2-0.1,0.4-0.3,0.6-0.4c0.2-0.2,0.4-0.3,0.6-0.5c0.2-0.1,0.4-0.3,0.6-0.4c0.2-0.2,0.5-0.4,0.7-0.5s0.4-0.2,0.5-0.4
		c0.2-0.2,0.4-0.3,0.6-0.4c0.2-0.2,0.5-0.4,0.7-0.5s0.3-0.2,0.5-0.4c0.1,0,0.1,0,0.1,0c0.2,0.1,0.3,0.2,0.5,0.3
		c0.2,0.2,0.5,0.4,0.7,0.5c0.3,0.2,0.6,0.4,0.8,0.6c0.2,0.2,0.5,0.3,0.7,0.5s0.4,0.3,0.7,0.5s0.5,0.4,0.8,0.6
		c0.4,0.3,0.7,0.5,1.1,0.8c0.3,0.2,0.7,0.5,1,0.7c0.1,0.1,0.2,0.2,0.3,0.2s0.1,0.1,0.1,0.2c0,0.9,0,1.9,0,2.8c0,0.1,0,0.1-0.1,0.2
		c-0.1,0-0.2,0-0.2,0c-0.2-0.1-0.3-0.2-0.5-0.3c-0.2-0.1-0.4-0.3-0.6-0.4c-0.2-0.2-0.5-0.4-0.7-0.5s-0.3-0.2-0.5-0.4
		c-0.2-0.1-0.4-0.3-0.6-0.4c-0.2-0.1-0.3-0.2-0.5-0.4c-0.3-0.2-0.5-0.4-0.8-0.6c-0.1-0.1-0.2-0.1-0.3-0.2c-0.2-0.2-0.5-0.4-0.8-0.6
		c-0.2-0.1-0.3-0.2-0.5-0.4c-0.2-0.1-0.4-0.3-0.5-0.4c-0.1-0.1-0.2-0.1-0.2-0.2c0,0,0,0-0.1,0c-0.3,0.2-0.5,0.4-0.8,0.6
		c-0.4,0.3-0.8,0.6-1.1,0.9c-0.2,0.2-0.5,0.3-0.7,0.5c-0.3,0.2-0.7,0.5-1,0.7s-0.5,0.4-0.7,0.5c-0.3,0.2-0.7,0.5-1,0.7
		c-0.2,0.1-0.3,0.2-0.5,0.4c-0.2,0.1-0.4,0.3-0.6,0.4c0,0-0.1,0.1-0.2,0.1c-0.1,0,0-0.1,0-0.1C7.8,19.4,7.8,18.9,7.8,18.4z"/>
	<path class="st1" d="M7.8,14.4c0-0.1,0-0.1,0-0.2c0-0.9,0-1.9,0-2.8c0-0.1,0.1-0.2,0.2-0.3c0.2-0.2,0.5-0.3,0.7-0.5
		c0.3-0.2,0.6-0.5,0.9-0.7c0.2-0.1,0.4-0.3,0.6-0.4c0.2-0.2,0.5-0.3,0.7-0.5c0.2-0.1,0.4-0.3,0.5-0.4c0.2-0.1,0.4-0.3,0.6-0.4
		c0.2-0.1,0.4-0.3,0.5-0.4c0.2-0.2,0.5-0.4,0.7-0.5c0.1-0.1,0.2-0.1,0.3-0.2c0.3-0.2,0.5-0.4,0.8-0.6c0,0,0.1-0.1,0.1,0
		C14.6,6.7,14.8,6.8,15,7c0.2,0.2,0.4,0.3,0.6,0.5c0.3,0.2,0.6,0.5,0.9,0.7c0.2,0.2,0.5,0.3,0.7,0.5s0.5,0.4,0.8,0.6
		c0.2,0.2,0.4,0.3,0.6,0.4c0.3,0.2,0.6,0.4,0.9,0.7c0.1,0.1,0.2,0.2,0.4,0.2c0.2,0.2,0.5,0.4,0.7,0.5c0.1,0.1,0.2,0.2,0.3,0.2
		c0.1,0.1,0.1,0.1,0.1,0.2c0,0.9,0,1.9,0,2.8c0,0.1-0.1,0.2-0.2,0.1c-0.2-0.1-0.4-0.3-0.6-0.4c-0.2-0.2-0.5-0.3-0.7-0.5
		c-0.3-0.3-0.7-0.5-1-0.7c-0.2-0.1-0.3-0.2-0.5-0.4c-0.3-0.2-0.6-0.5-1-0.7c-0.3-0.2-0.5-0.4-0.8-0.6c-0.2-0.2-0.5-0.3-0.7-0.5
		c-0.2-0.1-0.4-0.3-0.5-0.4c0-0.2-0.3-0.4-0.5-0.6h-0.1c-0.3,0.3-0.7,0.5-1,0.7s-0.5,0.4-0.8,0.6c-0.2,0.2-0.5,0.4-0.7,0.5
		c-0.3,0.2-0.6,0.5-0.9,0.7c-0.3,0.2-0.5,0.4-0.8,0.6c-0.4,0.3-0.8,0.5-1.1,0.8c-0.2,0.1-0.4,0.3-0.6,0.4c-0.2,0.1-0.4,0.3-0.6,0.4
		C7.9,14.4,7.9,14.4,7.8,14.4z"/>
	<path class="st1" d="M7.8,24.2c0-0.5,0-1,0-1.4c0-0.1,0-0.2,0.1-0.2c0.3-0.2,0.5-0.4,0.8-0.6c0.2-0.1,0.4-0.3,0.6-0.4
		c0.3-0.2,0.6-0.4,0.9-0.7c0.2-0.2,0.5-0.4,0.8-0.6s0.5-0.4,0.8-0.6c0.2-0.2,0.5-0.3,0.7-0.5s0.5-0.3,0.7-0.5
		c0.1-0.1,0.3-0.2,0.5-0.3c0.2-0.2,0.5-0.4,0.7-0.5c0.1,0,0.1,0,0.2,0c0.3,0.2,0.5,0.4,0.8,0.6c0.2,0.1,0.4,0.2,0.5,0.4
		c0.3,0.2,0.5,0.4,0.8,0.6c0.2,0.1,0.3,0.3,0.5,0.4s0.3,0.3,0.5,0.4s0.4,0.2,0.5,0.4c0.2,0.2,0.5,0.4,0.7,0.5s0.4,0.2,0.5,0.4
		c0.3,0.2,0.7,0.5,1,0.7c0.2,0.1,0.4,0.3,0.6,0.4c0.2,0.1,0.3,0.2,0.2,0.4c0,0.9,0,1.7,0,2.6c0,0.1,0,0.2-0.1,0.2
		c-0.1,0.1-0.1,0-0.2-0.1c-0.4-0.3-0.8-0.6-1.2-0.9s-0.8-0.6-1.2-0.9c-0.3-0.2-0.7-0.5-1-0.7c-0.2-0.2-0.5-0.3-0.7-0.5
		c-0.3-0.2-0.6-0.4-0.9-0.6c-0.3-0.3-0.7-0.5-1-0.8c-0.1-0.1-0.3-0.2-0.5-0.3h-0.1c-0.2,0.2-0.5,0.3-0.7,0.5s-0.5,0.4-0.8,0.6
		c-0.2,0.2-0.5,0.4-0.7,0.5s-0.4,0.2-0.6,0.4c-0.2,0.2-0.5,0.3-0.7,0.5c-0.2,0.1-0.3,0.2-0.5,0.4c-0.2,0.1-0.4,0.3-0.6,0.4
		c-0.2,0.1-0.4,0.3-0.5,0.4c-0.2,0.1-0.4,0.3-0.6,0.4c-0.1,0.1-0.3,0.2-0.4,0.3c-0.1,0.1-0.3,0.2-0.4,0.3H7.7v-0.1
		C7.8,25.1,7.8,24.7,7.8,24.2z"/>
</g>
<g id="Calque_8" class="st0">
	<path class="st1" d="M41.1,25.5c-1.9-1.5-3.8-3-5.7-4.6c-1.1-0.9-1.9-2.4-1.8-3.6c0.2-2.3-3.5-4.8-4.1-5.3c0,0-0.9-0.7-1.6-1.3
		c-0.8-0.6-1.6-0.6-2.3,0.2c-0.1,0-0.2,0.1-0.2,0.1c-0.8,0.9-1.8,0.5-2.1-0.2c-0.4-1.1-6-5.7-7.4-6.5C15.3,4,14.6,3,14,3.5
		c-0.9,0.7-1.2-0.4-1.2-1.2c0-1.2,0.4-1.3-0.2-1.7c-0.5-0.3-0.8,0.6-0.8,0.6s-0.5,0.6-0.7,0.7c-0.2-0.1-0.3-0.1-0.4-0.1l0,0
		c0.4-0.4-0.9-1.1-1.4-1.6C9-0.1,8.6-0.1,8.3,0.3C7.9,0.7,8.1,1,8.4,1.3c0.6,0.5,1.4,1.6,2,1.2c0.1,0,0.2,0,0.2,0
		c0.2,0.2,0.7,0.6,0.8,0.7c0.6,0.6,1.3,1.1,1.2,2.1c-0.1,1.1,7.5,6.8,9,8.3c-1.3,1.4-5.2,5.5-4.7,5.8c-0.3,0.4,1.7,2.6,1.8,2.7
		c0.9,0.8,2.1-1.2,3.2-2.1c0.7-0.6,1.4-2.1,2.8-0.8c0.5,0.6-0.9,2,0.6,2c0.1-0.3,0.3-0.8,0.7-0.9c0.2,0,0.5,0.8,0.7,0.9
		c0.1,0,0.2,0.1,0.3,0.1c-0.1,0.1-0.6,0.2-0.8,0.4c0.9,0.8,0.6,3.9,0.6,4.4c0.1,1.1,0.1,1.6,1.8,1.7c1.1,0.1,1-0.4,1.1-1.7
		c0-0.8-0.1-1.6,0.2-2.4c0.4-1.2,1.6-2,2.6-1.3c1.3,0.9,2.7,1.9,2.9,3.8c0.1,1.1,0.3,2.1,0.4,3.2c0.1,1.2,1.2,1.7,2,2.1
		c0.9,0.5,1.2-0.6,1.6-1.1c0.8-0.8,1.4-1.8,2.2-2.6C42.3,27.1,42.2,26.3,41.1,25.5z M12.4,1.8c-0.1,0.1-0.1,0.1-0.2,0.2
		c0-0.1,0-0.3,0.1-0.4C12.3,1.7,12.4,1.7,12.4,1.8z M31.4,16.5c-1.8-1.5-3.5-2.8-5.2-4.2c-0.5-0.4-0.1-0.4-0.1-0.7
		c0.7-0.7,0.9-0.5,3.1,1.1C31.4,14.5,31.9,15.1,31.4,16.5z"/>
	<path class="st1" d="M-8.9,28.1c0.8,0.8,1.4,1.8,2.2,2.6c0.5,0.5,0.7,1.6,1.6,1.1c0.8-0.5,1.9-0.9,2-2.1c0.1-1.1,0.3-2.1,0.4-3.2
		c0.2-1.9,1.6-2.8,2.9-3.8c1-0.7,2.2,0,2.6,1.3C3,24.8,3,25.6,3,26.4c0,1.3-0.1,1.8,1.1,1.7c1.7-0.1,1.7-0.7,1.8-1.7
		c0-0.4-0.3-3.5,0.6-4.4c-0.1-0.2-0.7-0.3-0.8-0.4c0.1-0.1,0.2-0.1,0.3-0.1c0.2-0.1,0.5-0.9,0.7-0.9c0.4,0.1,0.6,0.6,0.7,0.9
		c1.5-0.1,0.1-1.4,0.6-2c1.3-1.3,2,0.2,2.8,0.8c1,0.9,2.3,2.9,3.2,2.1c0.1-0.1,2.1-2.3,1.8-2.7c0.4-0.3-3.5-4.4-4.7-5.8
		c1.5-1.5,9.1-7.2,9-8.3c-0.1-1,0.6-1.5,1.2-2.1c0.1-0.1,0.6-0.6,0.8-0.7c0-0.1,0.1-0.1,0.2,0c0.5,0.3,1.4-0.7,2-1.2
		c0.3-0.3,0.5-0.6,0.1-1C24,0,23.6,0,23.3,0.3c-0.5,0.5-1.9,1.1-1.4,1.6l0,0c-0.1,0-0.2,0-0.4,0.1c-0.2-0.2-0.7-0.7-0.7-0.7
		S20.5,0.4,20,0.7c-0.6,0.4-0.2,0.5-0.2,1.7c0,0.8-0.3,1.9-1.2,1.2c-0.7-0.6-1.4,0.4-2,0.7c-1.4,0.8-7,5.4-7.4,6.5
		C9,11.5,7.9,11.9,7.1,11c-0.1,0-0.2,0-0.2-0.1c-0.8-0.9-1.5-0.8-2.3-0.2S3,12,3,12c-0.6,0.5-4.3,3-4.1,5.3c0.1,1.2-0.7,2.7-1.8,3.6
		c-1.9,1.6-3.8,3.1-5.7,4.6C-9.7,26.3-9.8,27.1-8.9,28.1z M20.2,1.6c0,0.1,0.1,0.2,0.1,0.4c-0.1-0.1-0.1-0.1-0.2-0.2
		C20.1,1.7,20.2,1.7,20.2,1.6z M3.2,12.6c2.1-1.6,2.4-1.8,3.1-1.1c0,0.3,0.4,0.3-0.1,0.7c-1.7,1.4-3.4,2.7-5.2,4.2
		C0.6,15.1,1.1,14.5,3.2,12.6z"/>
</g>
</svg>
