<?xml version="1.0" encoding="utf-8"?>
<!-- Generator: Adobe Illustrator 22.1.0, SVG Export Plug-In . SVG Version: 6.00 Build 0)  -->
<svg version="1.1" id="Calque_1" xmlns="http://www.w3.org/2000/svg" xmlns:xlink="http://www.w3.org/1999/xlink" x="0px" y="0px"
	 viewBox="0 0 50.3 32" style="enable-background:new 0 0 50.3 32;" xml:space="preserve">
<style type="text/css">
	.st0{display:none;}
	.st1{display:inline;fill:#435264;}
	.st2{display:inline;fill:none;}
	.st3{display:inline;fill:#7F98C2;}
	.st4{display:inline;fill:#FEFEFE;}
	.st5{display:inline;}
	.st6{fill:#435264;}
	.st7{display:inline;fill:none;stroke:#435264;stroke-width:1.1533;stroke-miterlimit:10;}
</style>
<g id="Calque_1_1_" class="st0">
	<path class="st1" d="M30.4,31.8c-1.1,0-2.2,0.1-3.2,0c-1.8,0-3.5-0.1-5.3-0.2c-0.6,0-1.2-0.1-1.9-0.2c-0.3-0.1-0.5,0.1-0.6,0.4
		c-0.1,0.3-0.1,0.3-0.4,0.3c-0.8,0-1.5,0-2.3,0c-0.5,0-0.7-0.1-0.7-0.6c0-0.3-0.2-0.6-0.5-0.7c-0.6-0.1-0.8-0.6-1-1.1
		c-0.3-0.8-0.3-1.7-0.4-2.5c-0.1-1-0.1-2,0-3.1c0.2-1.6,0.6-3.2,1.2-4.7c0.2-0.5,0.4-0.9,0.6-1.4c0.2,0.1,0.4,0.3,0.5,0.5
		c0,0.1,0,0.1,0,0.2c-0.1,0.1-0.1,0.1-0.2,0c-0.1-0.1-0.2-0.2-0.1-0.3c0,0,0.1-0.1,0-0.1s-0.1,0-0.1,0.1c-0.1,0.1-0.1,0.3,0.1,0.4
		c0.1,0.1,0.3,0.2,0.4,0.1c0.1-0.1,0.2-0.2,0.1-0.4c-0.1-0.2-0.3-0.4-0.6-0.5c0.3-0.8,0.8-1.6,1.2-2.5c0.7-1.4,1.5-2.8,2.3-4.1
		c0.3-0.6,0.4-1.2,0.6-1.8c0.1-0.4,0.2-0.9,0.4-1.4c0.2-0.4,0.5-0.6,1-0.7c0.4,0,0.9-0.1,1.3,0c0.4,0.1,0.6,0.3,0.7,0.7
		c0.1,0.5,0.2,1.1,0.3,1.6c0,0.2,0.1,0.2,0.3,0.2c2.4-0.1,4.7-0.1,7.1-0.1c0.4,0,0.8,0,1.2,0.1c0.1,0,0.2,0,0.2-0.2
		c0.1-0.6,0.2-1.1,0.4-1.7c0.1-0.3,0.3-0.6,0.6-0.6c0.5-0.1,1.1-0.1,1.6,0s0.7,0.5,0.9,0.9c0.2,0.6,0.3,1.2,0.5,1.8
		c0.1,0.5,0.3,1,0.6,1.5c1.5,2.5,2.9,5,3.9,7.7c0.9,2.3,1.4,4.6,1.2,7.1c-0.1,1.1-0.1,2.2-0.5,3.3c-0.2,0.5-0.4,0.9-1,1.1
		c-0.3,0.1-0.5,0.3-0.5,0.6c-0.1,0.6-0.2,0.7-0.8,0.7c-0.7,0-1.5,0-2.2,0c-0.4,0-0.4,0-0.5-0.4c-0.1-0.3-0.2-0.4-0.6-0.4
		c-1.6,0.2-3.2,0.3-4.8,0.3c-0.2,0-0.3,0-0.5,0c0-0.1-0.1-0.2,0.1-0.3c0.1,0,0,0.2,0.1,0.2s0.1-0.2,0-0.3c0-0.1-0.1-0.1-0.2,0
		c-0.2,0.1-0.2,0.3-0.1,0.5c-0.1,0-0.2,0-0.2,0C30.5,31.8,30.5,31.8,30.4,31.8z M17.2,31c0.2,0.6,1.1,0.9,1.8,0.6
		c0.5-0.3,0.8-0.7,0.8-1.3c0.1,0,0.2,0,0.3,0c0,0.4-0.1,0.7-0.3,1c0,0,0,0.1,0,0.2c0.1,0,0.1,0,0.2-0.1c0.3-0.3,0.4-0.6,0.4-1
		c0.1,0,0.2,0,0.3,0c1.9,0.2,3.8,0.3,5.6,0.3c2.3,0.1,4.5,0,6.8-0.1c0.9-0.1,1.9-0.1,2.8-0.3c0.5-0.1,1,0,1.4,0.4
		c0.3,0.4,0.6,0.4,1,0.4c0.2,0,0.4,0,0.5,0s0.2,0,0.2-0.2c0.2-0.4,0.4-0.8,0.8-0.9c0.5-0.2,0.6-0.5,0.7-0.9c0-0.1,0-0.2,0.1-0.3
		c0.1-0.6,0.1-1.2,0.2-1.8c0.1-1.1,0.1-2.2-0.1-3.3c-0.3-1.7-0.8-3.3-1.5-4.9c-0.9-2.1-2.1-4.2-3.2-6.2c-0.3-0.5-0.6-1-0.8-1.6
		c-0.1-0.6-0.3-1.1-0.4-1.7c-0.2-0.6,0-0.5-0.7-0.5c-0.1,0-0.2,0-0.2,0.2c-0.1,0.7-0.3,1.5-0.5,2.2c0,0.2-0.1,0.3-0.3,0.2
		c-1.3-0.1-2.7-0.1-4-0.2c-2.1,0-4.1,0-6.2,0.2c-0.2,0-0.2,0-0.2-0.2c-0.1-0.7-0.3-1.3-0.4-2c-0.1-0.5-0.1-0.5-0.6-0.5
		c-0.2,0-0.3,0.1-0.3,0.3c-0.1,0.6-0.3,1.3-0.5,1.9c-0.1,0.3-0.2,0.6-0.3,0.9c-0.4,0.7-0.9,1.5-1.3,2.2c-0.5,0.9-1,1.9-1.5,2.8
		c-0.4,0-0.5,0.1-0.5,0.4c0,0.1,0.1,0.2,0.2,0.2c-0.1,0.2-0.2,0.3-0.2,0.5c-0.1,0-0.3,0-0.3-0.1s-0.1-0.2,0.1-0.2
		c0.1,0,0,0.1,0.1,0.2c0,0.1,0.1,0.1,0.1,0s0.1-0.2,0-0.3c-0.1-0.1-0.2,0-0.3,0.1s-0.1,0.2-0.1,0.4c0,0,0.1,0,0.3,0
		c0,0.2-0.2,0.4-0.3,0.6c-0.3,0.7-0.6,1.4-0.9,2.2c-0.7,2-1,4-0.8,6.1c0.1,0.9,0.1,1.8,0.4,2.6c0,0.1,0.1,0.2,0.3,0.3
		c0.5,0.2,0.9,0.4,1.1,0.9C17.1,30.8,17.1,30.9,17.2,31z M31.9,31.2c-0.1,0-0.1,0-0.2,0c-0.1,0-0.2,0-0.3-0.1c0-0.1,0-0.2,0-0.2
		c0.1-0.1,0.2,0,0.3,0c0.1,0.1,0.1,0.1,0.2,0.2H32c0,0,0,0,0-0.1c-0.1-0.1-0.2-0.3-0.4-0.3s-0.3,0.1-0.3,0.2c0,0.2,0.1,0.4,0.3,0.4
		C31.7,31.4,31.9,31.4,31.9,31.2z M16.8,18.5c0-0.1-0.1-0.2-0.2-0.3c-0.1-0.1-0.1-0.1-0.1-0.2s0.1-0.1,0-0.1S16.4,18,16.4,18
		C16.4,18.2,16.6,18.4,16.8,18.5z"/>
	<path class="st1" d="M17.6,1.7c0.5-0.2,1.1-0.3,1.6-0.4c0.2,0.2,0.4,0.3,0.6,0.5C19.9,2,20,2.2,20.1,2.3c-0.1,0-0.2,0.1-0.4,0.1
		c-0.3-0.8-1.1-1.1-1.7-0.6c-0.3,0.3-0.3,0.7-0.1,1c-0.1,0.1-0.3,0.1-0.4,0.1c-0.1-0.2-0.1-0.5-0.1-0.7C17.4,2,17.6,1.8,17.6,1.7z"
		/>
	<path class="st1" d="M17.6,1.7c0,0.2-0.2,0.4-0.2,0.6s0,0.5,0.1,0.7c-0.1,0-0.3,0-0.4,0.1c-0.2-0.4-0.2-0.8-0.1-1.2
		C17.2,1.7,17.4,1.7,17.6,1.7z"/>
	<path class="st1" d="M20.1,2.3c-0.2-0.2-0.2-0.4-0.3-0.5c-0.2-0.2-0.4-0.3-0.6-0.5c0.2-0.1,0.4-0.1,0.6-0.1
		c0.3,0.3,0.6,0.6,0.6,1.1C20.2,2.3,20.2,2.3,20.1,2.3z"/>
	<path class="st1" d="M15.9,18c0.2,0.1,0.4,0.3,0.6,0.5c0.1,0.2,0,0.3-0.1,0.4c-0.2,0.1-0.3,0-0.4-0.1c-0.1-0.1-0.2-0.2-0.1-0.4
		l0.1-0.1c0.1,0,0,0.1,0,0.1c-0.1,0.2,0,0.2,0.1,0.3c0.1,0,0.1,0,0.2,0c0.1-0.1,0.1-0.1,0-0.2c-0.1-0.2-0.3-0.4-0.5-0.5
		C15.8,18.1,15.8,18.1,15.9,18z"/>
	<path class="st1" d="M30.8,31.8c-0.1-0.2-0.1-0.4,0.1-0.5c0.1,0,0.2-0.1,0.2,0s0.1,0.3,0,0.3C31,31.7,31,31.5,31,31.4
		c-0.1,0.1,0,0.2-0.1,0.3C30.9,31.9,30.8,31.8,30.8,31.8z"/>
	<path class="st1" d="M30.4,31.8L30.4,31.8C30.5,31.8,30.5,31.8,30.4,31.8z"/>
	<path class="st1" d="M17.2,31c0.2,0,0.4,0,0.6,0c0.2,0.3,0.6,0.4,1,0.3s0.6-0.4,0.6-0.7c0-0.1,0-0.2,0-0.3c0.1-0.1,0.2-0.1,0.4-0.1
		c0.1,0.6-0.2,1.1-0.8,1.3C18.3,31.9,17.4,31.6,17.2,31z"/>
	<path class="st1" d="M20,30.2c0.1,0,0.2,0,0.3,0c0,0.4-0.2,0.7-0.4,1c0,0-0.1,0.1-0.2,0.1c0,0,0-0.1,0-0.2
		C19.9,30.9,20.1,30.6,20,30.2z"/>
	<path class="st1" d="M31.9,31.2c0,0.2-0.1,0.2-0.3,0.2s-0.3-0.2-0.3-0.4c0-0.2,0.1-0.3,0.3-0.2c0.2,0,0.3,0.2,0.4,0.3
		c0,0,0,0,0,0.1H31.9c-0.1-0.1-0.1-0.1-0.2-0.2c-0.1-0.1-0.2-0.1-0.3,0s-0.1,0.2,0,0.2c0,0.1,0.2,0.1,0.3,0.1
		C31.8,31.2,31.8,31.2,31.9,31.2z"/>
	<path class="st1" d="M17.3,17.9c0,0.1,0,0.1,0,0.1c-0.2,0-0.3,0-0.4-0.2c-0.1-0.1-0.1-0.3,0.1-0.4c0.1-0.1,0.2-0.2,0.3-0.1
		s0.1,0.2,0,0.3c0,0.1-0.1,0-0.1,0s0-0.1-0.1-0.2C17,17.5,17,17.6,17,17.6C17,17.9,17.1,17.9,17.3,17.9z"/>
	<path class="st1" d="M17.5,17.3v0.1c0-0.1-0.1-0.1-0.2-0.2c0-0.3,0.1-0.4,0.5-0.4c0,0,0,0.1-0.1,0.1C17.5,16.9,17.4,17,17.5,17.3z"
		/>
	<path class="st1" d="M16.8,18.5c-0.2-0.1-0.5-0.3-0.4-0.5c0-0.1,0-0.2,0.1-0.1c0.1,0,0,0.1,0,0.1c0,0.1,0,0.2,0.1,0.2
		C16.7,18.3,16.8,18.3,16.8,18.5z"/>
	<path class="st2" d="M33.7,1.2c-0.1,0,0,0.1,0,0.1c0,0.1,0,0.1,0,0.2c-0.1,0-0.1,0-0.2-0.1c-0.1-0.1-0.1-0.2,0-0.3
		c0,0,0.1-0.1,0.1-0.2c-0.1-0.1-0.1,0-0.2,0C33.3,1,33.3,1.1,33.1,1c0,0-0.1,0-0.1,0.1s0.5,0.5,0.5,0.5c0.1,0,0.2,0,0.3-0.1
		S33.8,1.3,33.7,1.2L33.7,1.2z"/>
	<path class="st2" d="M33,1.8C33,1.7,33,1.7,33,1.8c0-0.1,0.1-0.3,0-0.3s-0.1,0.1-0.2,0.2l0,0c-0.5,0-1-0.1-1.4-0.1
		c0.5,0,1,0.1,1.4,0.1C32.8,1.7,32.9,1.8,33,1.8z"/>
	<path class="st1" d="M31,3.5c-0.1,0.1-0.3,0.2-0.3,0.3s0.1,0.2,0.2,0.3C31,4.2,31.2,4.2,31.3,4c0.1-0.1,0.2-0.1,0.1-0.2
		c-0.1-0.1-0.1,0.1-0.2,0.1l0,0C31.1,4,31,4,30.9,3.9S30.8,3.7,31,3.5c0,0.2-0.1,0.3,0,0.3S31.1,3.7,31,3.5c0.1,0,0.1,0,0.1-0.1
		C31.1,3.5,31,3.5,31,3.5z"/>
	<path class="st2" d="M33.7,0.7c0,0.1,0.3,0.5,0.4,0.5h0.1V1.1C34,1,33.9,0.8,33.7,0.7z"/>
	<path class="st1" d="M46.9,7.9c-0.5-1.8-1.6-3.2-3.1-4.2c-1.1-0.7-2.3-1.2-3.6-1.6c-2.1-0.7-4.3-1.2-6.5-1.5
		c-1.6-0.2-3.2-0.4-4.9-0.4c-2.1,0-4.2,0.1-6.3,0.4c-0.9,0.1-1.8,0.3-2.8,0.5c0.3,0.3,0.6,0.6,0.6,1.1h0.1l0,0
		C21.7,2,23,1.8,24.2,1.6c2.4-0.2,4.7-0.2,7.1,0c0.5,0,1,0.1,1.4,0.1l0,0c0-0.1,0.1-0.3,0.2-0.2c0.1,0,0,0.2,0,0.2l0,0
		c0.8,0.1,1.5,0.2,2.3,0.4c1.7,0.3,3.4,0.8,5,1.4c0.9,0.3,1.8,0.7,2.7,1.3c1.7,1,2.6,2.5,2.9,4.4c0,0.2,0,0.5,0,0.7
		c0,0.5-0.4,0.6-0.7,0.7c-0.7,0.2-1.5,0.2-2.2,0.2c-1.2,0-2.5-0.2-3.6-0.7c-0.2-0.1-0.4-0.2-0.5-0.4c-0.3-0.5-0.5-1.1-0.6-1.7
		c-0.4-1.1-1-2-2-2.7c-1.1-0.8-2.4-1.3-3.8-1.6c-0.1,0-0.3-0.1-0.4-0.1c-0.3-0.1-0.6-0.1-0.9-0.1l0,0c0,0.1,0,0.1,0,0.2
		c0,0.1,0.1,0.2-0.1,0.2c-0.1,0,0-0.1-0.1-0.2c-0.1,0.1-0.1,0.2,0,0.3c0.1,0.1,0.2,0,0.3,0l0,0c0.1,0,0.1-0.2,0.2-0.1
		c0.1,0.1-0.1,0.2-0.1,0.2c-0.1,0.1-0.2,0.1-0.4,0.1c-0.1-0.1-0.2-0.2-0.2-0.3c0-0.2,0.1-0.3,0.3-0.3c-1.2-0.2-2.3-0.1-3.5-0.1
		c-1,0-2,0-2.9,0.2c-1.3,0.2-2.5,0.5-3.7,1.1s-2.1,1.5-2.7,2.7C18,8,17.8,8.5,17.7,9c-0.4,1.2-0.4,1.1-1.5,1.4
		c-1.5,0.4-3,0.5-4.5,0.4c-0.4,0-0.7-0.1-1-0.3c-0.2-0.1-0.3-0.2-0.3-0.5c-0.1-0.6,0-1.2,0.2-1.7C11,6.7,12,5.6,13.4,4.8
		c1-0.6,2.2-1,3.3-1.4c0.2-0.1,0.4-0.1,0.5-0.2C17,2.8,17,2.4,17.1,2c-1.6,0.5-3.2,1.1-4.6,2s-2.5,2.1-3,3.8
		c-0.2,0.8-0.4,1.5-0.3,2.3s0.4,1.3,1.2,1.6c0.4,0.2,0.8,0.3,1.2,0.3c2,0.2,3.9,0.1,5.8-0.6c0.6-0.2,1.1-0.6,1.3-1.2
		C19,9.6,19.2,9,19.4,8.4c0.3-1,1-1.8,1.9-2.3c1-0.6,2-0.9,3.1-1.1c0.9-0.2,1.8-0.2,2.7-0.2c1.2,0,2.5-0.1,3.7,0.1
		c0-0.1-0.1-0.2-0.2-0.3c-0.1-0.1-0.1-0.1-0.1-0.2s0-0.2,0.1-0.2s0,0.1,0,0.2s0.1,0.2,0.2,0.3C30.9,4.8,31,4.8,30.9,5
		c1.3,0.1,2.6,0.4,3.8,1c1,0.5,1.8,1.1,2.2,2.2C37,8.4,37.2,9,37.4,9.6c0.1,0.4,0.3,0.7,0.5,1c0.4,0.5,1,0.7,1.5,0.8
		c1.4,0.4,2.9,0.6,4.4,0.5c0.6,0,1.2-0.1,1.7-0.3c1-0.3,1.4-0.9,1.5-1.9C47.1,9.1,47,8.5,46.9,7.9z M33.8,1.5
		c-0.1,0.1-0.1,0.1-0.3,0.1c-0.1,0-0.5-0.4-0.5-0.5c0,0,0-0.1,0.1-0.1c0.1,0.1,0.2,0,0.3-0.1c0,0,0.1-0.1,0.2,0
		c0.1,0.1,0,0.1-0.1,0.2s-0.1,0.2,0,0.3S33.6,1.5,33.8,1.5c0,0,0-0.1-0.1-0.2c0,0-0.1-0.1,0-0.1s0.1,0,0.1,0.1
		C33.8,1.4,33.9,1.4,33.8,1.5z M34.2,1.2C34.2,1.2,34.1,1.2,34.2,1.2c-0.1,0-0.4-0.4-0.5-0.5C33.9,0.8,34,1,34.2,1.2
		C34.2,1.1,34.2,1.2,34.2,1.2z"/>
	<path class="st1" d="M30.6,4.4c-0.1-0.1-0.2-0.1-0.2-0.3c0-0.1,0.1-0.1,0-0.2c-0.1,0-0.1,0.1-0.1,0.2c0,0.1,0.1,0.2,0.1,0.2
		c0.1,0.1,0.2,0.1,0.2,0.3l0,0C30.8,4.6,30.7,4.5,30.6,4.4z"/>
	<path class="st1" d="M31,3.5L31,3.5c0.1,0.1,0.1,0.1,0.1,0.2c0,0.1,0.1,0.2-0.1,0.2c-0.1,0,0-0.1-0.1-0.2c-0.1,0.1-0.1,0.2,0,0.3
		s0.2,0,0.3,0l0,0c0.1,0,0.1-0.2,0.2-0.1c0.1,0.1-0.1,0.2-0.1,0.2c-0.1,0.1-0.2,0.1-0.4,0.1c-0.1-0.1-0.2-0.2-0.2-0.3
		C30.7,3.6,30.8,3.5,31,3.5z"/>
	<path class="st1" d="M33.6,1.7c-0.1,0-0.5-0.4-0.5-0.5c0,0,0-0.1,0.1-0.1c0.1,0.1,0.2,0,0.3-0.1c0,0,0.1-0.1,0.2,0
		c0.1,0.1,0,0.1-0.1,0.2s-0.1,0.2,0,0.3c0.1,0.1,0.1,0.1,0.2,0.1c0.1,0,0.1-0.1,0-0.2c0,0-0.1-0.1,0-0.1s0.1,0,0.1,0.1
		c0.1,0.1,0.1,0.2,0,0.3C33.8,1.6,33.7,1.7,33.6,1.7z"/>
	<path class="st1" d="M33.7,0.7C33.9,0.8,34,1,34.2,1.1v0.1c0,0,0,0-0.1,0C34,1.2,33.7,0.8,33.7,0.7z"/>
	<path class="st1" d="M33,1.8c-0.1,0-0.1,0-0.2,0l0,0c0-0.1,0.1-0.3,0.2-0.2C33.1,1.5,32.9,1.6,33,1.8C33,1.7,33,1.7,33,1.8z"/>
	<path class="st3" d="M20.5,2.2L20.5,2.2L20.5,2.2z"/>
	<path class="st1" d="M18.2,2.7c-0.1,0-0.2,0.1-0.3,0.1c-0.2-0.2-0.2-0.7,0.1-1c0.6-0.5,1.4-0.3,1.7,0.6c-0.1,0-0.2,0.1-0.3,0.1
		C19.2,2.3,19.2,2.1,19,2c-0.2-0.1-0.4-0.1-0.6,0.1C18.1,2.2,18.2,2.5,18.2,2.7z"/>
	<path class="st1" d="M31.9,14.8c-0.6-0.2-1.1-0.4-1.7-0.5c-2.7-0.5-5.3-0.1-7.6,1.6c-1.4,1-2.3,2.3-2.6,4c-0.2,1.2-0.1,2.4,0.5,3.5
		c0.8,1.6,2,2.7,3.6,3.5c1,0.5,2,0.8,3.1,0.9c1.6,0.2,3.2-0.1,4.7-0.7c0.2-0.1,0.2-0.1,0.3,0.1c0.1,0.3,0.2,0.5,0.3,0.7
		c0.1,0.1,0,0.2-0.1,0.3c-0.7,0.3-1.4,0.5-2.1,0.7c-1.9,0.4-3.7,0.3-5.5-0.3c-2.4-0.8-4.3-2.3-5.4-4.5c-1.2-2.4-1-4.7,0.3-6.9
		c1-1.7,2.6-2.8,4.4-3.5c1.9-0.8,3.9-0.9,6-0.6c2.4,0.4,4.4,1.5,6,3.4c2,2.4,2.1,5.7,0.4,8.3c-0.2,0.3-0.2,0.3-0.5,0.1
		c-0.2-0.1-0.4-0.2-0.6-0.3c-0.2-0.1-0.2-0.2-0.1-0.3c0.4-0.6,0.7-1.2,0.9-1.9c0.6-2.3-0.1-4.2-1.7-5.9c-0.1-0.1-0.1-0.1-0.2-0.2
		c0.1-1-0.8-1.9-2-1.7C32.2,14.7,32,14.6,31.9,14.8z"/>
	<path class="st1" d="M28.1,25.3c-1.6,0-3-0.5-4.1-1.8c-1.4-1.5-1.4-3.8,0-5.2c1.2-1.3,2.8-1.8,4.6-1.7c1.3,0.1,2.4,0.6,3.3,1.5
		c1.6,1.5,1.7,3.9,0.2,5.5C31,24.7,29.7,25.2,28.1,25.3z M28.1,24c1.1,0,2.1-0.3,2.9-1c1.3-1.1,1.4-2.9,0.1-4.1
		c-0.8-0.8-1.7-1.1-2.8-1.2C27,17.6,25.9,18,25,18.9c-1.1,1.1-1.1,2.7,0,3.8C25.9,23.7,26.9,24,28.1,24z"/>
	<path class="st1" d="M31.9,24.7c0-0.5,0.5-0.8,1-0.6c0.9,0.5,1.8,0.9,2.7,1.4c0.5,0.3,0.6,0.8,0.1,1.2c-0.5,0.4-1,0.9-1.4,1.3
		c-0.3,0.3-0.8,0.2-1-0.2c-0.3-0.5-0.5-1-0.7-1.6c-0.2-0.4-0.4-0.8-0.6-1.3C31.9,25,31.9,24.9,31.9,24.7z M34,27
		c0.2-0.2,0.5-0.4,0.7-0.6c0.1,0,0.1-0.1,0-0.1c-0.4-0.2-0.8-0.4-1.3-0.7c0.2,0.4,0.3,0.7,0.5,1.1C33.8,26.8,33.9,26.9,34,27z"/>
	<path class="st1" d="M24.8,25c0.5,0,1,0.4,1,0.9s-0.4,0.9-1,0.9c-0.5,0-0.9-0.4-0.9-0.9C23.8,25.4,24.3,25,24.8,25z"/>
	<path class="st1" d="M34.1,17.7c0.5,0,0.9,0.4,1,0.9c0,0.5-0.4,0.9-0.9,1c-0.5,0-1-0.4-1-0.9C33.2,18.2,33.6,17.7,34.1,17.7z"/>
	<path class="st1" d="M34.7,20.8c0.5,0,0.9,0.4,0.9,0.9s-0.4,0.9-1,0.9c-0.5,0-0.9-0.4-0.9-0.9C33.7,21.2,34.2,20.8,34.7,20.8z"/>
	<path class="st1" d="M23.3,23.8c0,0.5-0.4,1-1,0.9c-0.5,0-0.9-0.4-0.9-0.9s0.4-1,0.9-1C22.9,22.9,23.3,23.3,23.3,23.8z"/>
	<path class="st1" d="M28.2,25.7c0.5,0,1,0.4,0.9,0.9c0,0.5-0.4,0.9-1,0.9c-0.5,0-0.9-0.4-0.9-0.9S27.7,25.7,28.2,25.7z"/>
	<path class="st1" d="M20.4,20.9c0-0.5,0.4-1,0.9-0.9c0.5,0,0.9,0.4,0.9,0.9s-0.4,0.9-1,0.9C20.9,21.8,20.4,21.4,20.4,20.9z"/>
	<path class="st1" d="M21.5,17.9c0-0.5,0.4-0.9,0.9-0.9s0.9,0.4,0.9,0.9s-0.4,0.9-0.9,0.9S21.5,18.4,21.5,17.9z"/>
	<path class="st1" d="M25.2,14.9c0.5,0,1,0.4,1,1c0,0.5-0.4,0.9-1,0.9c-0.5,0-0.9-0.4-0.9-1C24.3,15.3,24.7,14.9,25.2,14.9z"/>
	<path class="st1" d="M28.6,16.3c-0.5,0-0.9-0.4-0.9-0.9s0.4-0.9,0.9-1c0.5,0,0.9,0.4,0.9,0.9C29.6,15.8,29.1,16.3,28.6,16.3z"/>
	<path class="st1" d="M31.9,14.8c0.1-0.2,0.3-0.2,0.5-0.2c1.2-0.2,2,0.7,2,1.7c-0.1-0.1-0.3-0.2-0.4-0.3c0.1-0.1,0-0.2,0-0.2
		c-0.3-0.6-0.8-0.8-1.5-0.7C32.2,15,32,14.9,31.9,14.8z"/>
	<path class="st1" d="M31.6,15.4c0.2-0.1,0.4-0.1,0.6,0c0,0.1-0.1,0.1-0.2,0.2c-0.3,0.2-0.3,0.5-0.3,0.8c0.1,0.3,0.3,0.5,0.6,0.5
		c0.1,0,0.1,0,0.2,0.1c-0.2,0.1-0.4,0.2-0.7,0.2v-0.1c-0.3-0.3-0.4-0.6-0.4-1C31.4,15.9,31.6,15.7,31.6,15.4z"/>
	<path class="st1" d="M32.5,17.1c0-0.1-0.1-0.1-0.2-0.1c-0.3,0-0.5-0.2-0.6-0.5s0-0.6,0.3-0.8c0.1-0.1,0.2-0.1,0.2-0.2
		c0.2,0.1,0.3,0.2,0.4,0.3c-0.1,0-0.2,0.1-0.3,0.1c-0.3,0.2-0.3,0.6-0.1,0.8c0.1,0.1,0.2,0.1,0.3,0.1s0.1-0.1,0.1-0.2
		c0-0.2,0-0.3,0.2-0.2C32.9,16.6,32.8,16.9,32.5,17.1z"/>
	<path class="st1" d="M31.6,15.4c-0.1,0.2-0.2,0.4-0.2,0.7c0,0.4,0.1,0.7,0.4,1v0.1c-0.3,0-0.7-0.2-0.8-0.5
		c-0.2-0.4-0.1-0.8,0.2-1.1C31.4,15.6,31.5,15.5,31.6,15.4z"/>
	<path class="st1" d="M19.4,30.3c0,0.1,0,0.2,0,0.3c0,0.3-0.3,0.6-0.6,0.7c-0.4,0.1-0.8,0-1-0.3c0.2,0.1,0.4,0,0.7,0
		c0.1,0,0.1-0.1,0.2-0.1C18.8,30.6,19,30.4,19.4,30.3z"/>
	<path class="st1" d="M32.8,16.3c-0.2,0-0.3,0.1-0.2,0.2c0,0.1,0.1,0.2-0.1,0.2c-0.1,0-0.2,0-0.3-0.1C32,16.4,32,16,32.3,15.8
		c0.1,0,0.2-0.1,0.3-0.1C32.8,15.9,32.8,16.1,32.8,16.3z"/>
	<path class="st1" d="M32.4,15.1c0.6-0.1,1.2,0.2,1.5,0.7c0,0.1,0.1,0.1,0,0.2C33.4,15.7,32.9,15.4,32.4,15.1z"/>
	<path class="st1" d="M17.5,17.3c-0.1-0.3-0.1-0.4,0.2-0.4C17.7,17.1,17.7,17.2,17.5,17.3z"/>
	<path class="st1" d="M18.2,2.7c-0.1-0.2-0.1-0.5,0.1-0.7c0.2-0.1,0.4-0.1,0.7,0c0.2,0.1,0.3,0.3,0.4,0.4c-0.1,0.1-0.2,0.1-0.3,0.1
		l0,0H19c0-0.1-0.1-0.1-0.2-0.1c-0.1,0-0.1,0.1-0.1,0.2C18.5,2.6,18.4,2.7,18.2,2.7z"/>
	<path class="st1" d="M18.7,2.6c0-0.1,0-0.2,0.1-0.2s0.2,0,0.2,0.1C18.9,2.6,18.8,2.6,18.7,2.6z"/>
	<path class="st1" d="M19.1,2.5L19.1,2.5L19.1,2.5z"/>
	<path class="st4" d="M34,27c-0.1-0.1-0.1-0.2-0.2-0.3c-0.2-0.3-0.3-0.7-0.5-1.1c0.5,0.2,0.9,0.5,1.3,0.7c0.1,0,0.1,0.1,0,0.1
		C34.4,26.6,34.2,26.8,34,27z"/>
</g>
<g id="Calque_2_1_" class="st0">
	<g class="st5">
		<path class="st6" d="M44.2,8.2c0-0.1,0-0.2,0-0.3V7.8h-0.1h0.1c0-0.3,0-0.5,0-0.8s0-0.5,0-0.8c-0.3-1.3-1.2-2-2.6-2
			c-5.5,0-11,0-16.5,0c-0.1,0-0.1,0-0.2,0c-0.1,0-0.1,0-0.1-0.1c0-0.3,0-0.5,0-0.8c0-1.5-1.2-2.8-2.8-2.8c-1.1,0-2.2,0-3.3,0
			c-1.3,0-2.5,1-2.7,2.3c-0.1,0.4,0,0.8,0,1.2c0,0.2,0,0.2-0.2,0.2C15,4.3,14.4,4.7,14,5.4c0,0,0,0,0,0.1c-0.3,0.5-0.3,1-0.3,1.5
			c0,0.1,0,0.2,0,0.3c0,0.2,0,0.4,0,0.6c0,0.1,0,0.1,0,0.2c0,0.1,0,0.1,0,0.2c-0.1,0.1,0,0.2,0,0.3s0,0.2,0,0.2c0,1.9,0,3.8,0,5.7
			c0,0.2,0,0.3-0.2,0.3s-0.3,0.1-0.5,0.1c-1.2,0.5-2,1.7-2,3c0,2.6,0,5.3,0,7.9c0,0.4,0,0.7,0,1.1c0,0.5,0,0.9,0.1,1.4
			c0.5,2.1,2.3,3.7,4.5,3.9c2,0.2,4.1-1,4.9-3c0.1-0.2,0.2-0.2,0.4-0.2c6.9,0,13.8,0,20.7,0c0.3,0,0.6,0,0.9-0.1
			c0.8-0.3,1.4-0.8,1.6-1.6l0.1-0.1c0-0.1,0.1-0.2,0-0.3l0,0c0.1-0.3,0-0.6,0.1-0.9c0-0.2,0-0.5,0-0.7c0-5.6,0-11.3,0-16.9
			C44.2,8.3,44.2,8.3,44.2,8.2z M24.5,8.3c0,0.1-0.1,0.1-0.2,0.1C24.3,8.4,24.4,8.3,24.5,8.3z M24.3,7.9c0.1,0,0.2,0,0.2,0.1l0,0
			l0,0c0,0.1,0,0.2,0,0.2c0-0.1,0-0.1,0-0.2C24.5,7.9,24.4,7.9,24.3,7.9z M24.5,7.9L24.5,7.9L24.5,7.9L24.5,7.9z M17,14.7
			c0-3.8,0-7.6,0-11.4c0-1,0.6-1.8,1.6-1.9c1.3-0.1,2.5-0.1,3.8,0c0.9,0.1,1.5,0.9,1.5,1.8c0,6.2,0,12.5,0,18.7c0,1-0.8,1.8-1.8,1.8
			c-1.1,0-2.2,0-3.3,0c-1,0-1.8-0.8-1.8-1.9c0-1.4,0-2.8,0-4.2c0-0.1,0-0.2,0-0.3c0-0.2,0-0.3,0-0.5c0.1-0.1,0-0.2,0-0.3
			c0-0.2,0-0.4,0-0.5c0.1-0.3,0.1-0.7,0-1C17,14.9,17,14.8,17,14.7z M16.5,17.8L16.5,17.8C16.5,17.8,16.5,17.8,16.5,17.8
			s0.1-0.1,0-0.3c-0.1,0-0.2-0.1-0.3-0.1c0.1,0,0.2,0.1,0.3,0.1l0,0l0,0C16.6,17.6,16.6,17.7,16.5,17.8z M16.6,17.4L16.6,17.4
			L16.6,17.4L16.6,17.4z M19.4,29.2c-0.8,1.4-2.5,2.2-4,2c-1.7-0.3-3.1-1.5-3.4-3.2c-0.1-0.5-0.1-0.9-0.1-1.4c0-0.1,0-0.2,0-0.3
			c0.1-0.1,0-0.2,0-0.3c0-0.2,0-0.5,0-0.7c0-0.1,0-0.2,0-0.4c0-2.3,0-4.6,0-6.9c0-1.1,0.6-1.9,1.6-2.2c0.2-0.1,0.2,0,0.2,0.2
			c0,2.9,0,5.9,0,8.8c0,0.1,0,0.2,0,0.3c0.1,0,0.1,0,0.1,0.1c0,0-0.1,0-0.1-0.1c0,0.1,0,0.2,0,0.3c0,0.2,0,0.4,0,0.5
			c0,0,0.1,0,0.1,0.1c0,0-0.1,0-0.1-0.1c0,0.1,0,0.2,0,0.3c-0.1,0.2,0,0.4,0,0.6c0,0.1,0,0.1,0,0.1c0,0.1,0,0.2,0.1,0.3
			c0,0.1,0,0.2,0.1,0.2c0.3,0.9,1.2,1.5,2.2,1.5c1.1,0,2.1,0,3.2,0C19.5,28.9,19.5,29,19.4,29.2z M19.9,27.8c0,0.1-0.1,0.2-0.2,0.2
			c-1.2,0-2.4,0-3.6,0c-0.6,0-1-0.4-1.3-0.8v-0.1c0-0.1,0-0.1-0.1-0.2c-0.1-0.3,0-0.6-0.1-1c0,0-0.1,0-0.1-0.1c0,0,0.1,0,0.1,0.1
			c0-0.3,0-0.5,0-0.8c0-0.1,0-0.2,0-0.3c0-5.5,0-11,0-16.5c0-0.1,0-0.3,0-0.4c0-0.3,0-0.6,0-0.9s0-0.5,0.1-0.8
			c0.2-0.5,0.5-0.8,1.1-1C16,5.1,16,5.2,16,5.4c0,3.1,0,6.3,0,9.4v0.1c0,0.2,0,0.3,0,0.5v0.1c0,0.4,0,0.9,0,1.3l0,0
			c0,0.1,0,0.2,0,0.4l0,0c0,0.2-0.1,0.4,0,0.7c0,1.4,0,2.8,0,4.1c0,1.2,0.8,2.2,2,2.6c0.2,0.1,0.3,0.1,0.3,0.4c0,0.5,0.1,1,0.6,1.3
			c0.3,0.2,0.6,0.2,0.9,0.2c0.2,0,0.3,0,0.2,0.2C19.9,27,20,27.4,19.9,27.8z M43.2,27c-0.2,0.6-0.7,0.9-1.3,1c-0.1,0-0.2,0-0.3,0
			c-6.8,0-13.6,0-20.5,0c-0.3,0-0.3,0-0.3-0.3c0-0.4,0-0.7,0-1.1c0-0.1,0-0.2,0.2-0.2c1.2,0,1.5-0.4,1.5-1.5c0-0.2,0-0.2,0.2-0.3
			c1.2-0.4,2-1.4,2-2.7c0-4.5,0-8.9,0-13.4c0-0.1,0.1-0.2,0-0.3c0.1-0.3,0-0.6,0-0.9c0-0.1,0-0.3,0-0.4c0-0.2,0-0.3,0-0.5
			c0-0.3,0-0.6,0-0.9s0-0.3,0.4-0.3c5.5,0,10.9,0,16.4,0c0.7,0,1.2,0.3,1.5,0.9c0,0.1,0.1,0.3,0.1,0.4c0-0.1,0.1-0.1,0.2-0.1
			c-0.1,0-0.1,0.1-0.2,0.1c0,0.2,0,0.3,0,0.5h0.1h-0.1c0,0.1,0,0.3,0,0.4c0,0.2-0.1,0.4,0.1,0.6l0,0c-0.1,0.2-0.1,0.4-0.1,0.6
			c0,5.4,0,10.7,0,16.1c0,0.1,0,0.2,0,0.3c0,0.1,0,0.3,0,0.4l0,0c-0.1,0.2,0,0.4,0,0.5s0,0.3,0,0.4C43.2,26.5,43.3,26.8,43.2,27z"/>
		<path class="st6" d="M30.3,11.3c3,0,6,0,9,0c0.6,0,1.2,0,1.9,0c0.6,0,1.1-0.5,1.1-1.1c0-0.7,0-1.3,0-2c0-0.2,0-0.3,0-0.5
			c0-0.5-0.2-0.8-0.6-1c-0.1-0.1-0.2-0.1-0.4-0.1c-0.4,0-0.7,0-1.1,0c-0.1,0-0.3,0-0.4,0c-0.3,0-0.7,0-1,0c-2.7,0-5.3,0-8,0
			c-0.3,0-0.6-0.1-0.8,0c-0.1,0-0.2,0-0.3,0.1c-0.2,0.1-0.4,0.2-0.4,0.5c-0.1,0.1-0.1,0.3-0.1,0.4c0,0.8,0,1.6,0,2.4
			C29.1,10.9,29.6,11.3,30.3,11.3z M41.2,7.7c0.1,0,0.1,0,0.2,0C41.3,7.7,41.3,7.7,41.2,7.7s-0.2,0-0.2,0
			C41.1,7.7,41.1,7.7,41.2,7.7z"/>
		<path class="st6" d="M41.8,13.1c0.3,0,0.5-0.3,0.4-0.6c-0.1-0.2-0.3-0.4-0.6-0.4c-2.9,0-5.9,0-8.8,0c-0.9,0-1.9,0-2.8,0
			c-0.1,0-0.3,0-0.4,0.1c-0.2,0.1-0.2,0.3-0.2,0.5c0.1,0.2,0.3,0.3,0.5,0.3c1.9,0,3.9,0,5.8,0c1.8,0,3.7,0,5.5,0
			C41.5,13.1,41.6,13.1,41.8,13.1z"/>
		<path class="st6" d="M36.5,23.8c-0.6,0-1.1,0-1.7,0c-0.7,0-1.2,0.6-1.2,1.4c0,0.7,0.5,1.2,1.2,1.3c0.3,0,0.5,0,0.8,0s0.5,0,0.8,0
			c0.7,0,1.2-0.5,1.2-1.2C37.7,24.4,37.3,23.8,36.5,23.8z"/>
		<path class="st6" d="M39.5,23.1c0.3,0,0.5,0,0.8,0s0.5,0,0.8,0c0.7,0,1.2-0.5,1.2-1.2c0-0.8-0.4-1.4-1.1-1.5c-0.6,0-1.2,0-1.8,0
			c-0.7,0-1.1,0.6-1.1,1.4C38.3,22.6,38.8,23.1,39.5,23.1z M40.2,21.4c0.1,0,0.2,0,0.4,0C40.5,21.4,40.3,21.4,40.2,21.4
			c-0.2,0-0.5,0-0.7,0C39.8,21.4,40,21.4,40.2,21.4z"/>
		<path class="st6" d="M34.9,23.1c0.2,0,0.5,0,0.7,0s0.5,0,0.7,0c0.7,0,1.2-0.5,1.3-1.2c0-0.8-0.4-1.4-1.2-1.4c-0.5,0-1.1,0-1.6,0
			c-0.7,0-1.2,0.6-1.2,1.4C33.7,22.6,34.2,23.1,34.9,23.1z M35.7,21.4c0.2,0,0.5,0,0.7,0C36.2,21.4,35.9,21.4,35.7,21.4
			s-0.5,0-0.7,0C35.2,21.4,35.4,21.4,35.7,21.4z"/>
		<path class="st6" d="M30.3,23.1c0.3,0,0.5,0,0.8,0c0.2,0,0.5,0,0.7,0c0.8,0,1.3-0.5,1.3-1.3s-0.5-1.3-1.3-1.3c-0.4,0-0.9,0-1.3,0
			c-0.9,0-1.5,0.6-1.4,1.5C29.2,22.6,29.7,23.1,30.3,23.1z M31.2,21.4c0.2,0,0.5,0,0.7,0C31.6,21.4,31.4,21.4,31.2,21.4
			s-0.5,0-0.7,0C30.7,21.4,30.9,21.4,31.2,21.4z"/>
		<path class="st6" d="M39.2,19.8c0.2,0,0.4,0,0.6,0c0.4,0,0.9,0,1.3,0c0.7-0.1,1.1-0.6,1-1.4c0-0.6-0.5-1.2-1.1-1.2
			c-0.5,0-0.9,0-1.4,0c-0.4,0-0.8,0.1-1.1,0.3c0,0-0.1,0-0.1,0.1c0,0-0.1,0,0,0.1l0,0c-0.1,0-0.1,0.1-0.1,0.2
			C38.1,18.5,38.3,19.6,39.2,19.8z M40.2,18.1c0.2,0,0.5,0,0.7,0C40.7,18.1,40.5,18.1,40.2,18.1c-0.2,0-0.5,0-0.7,0
			C39.8,18.1,40,18.1,40.2,18.1z"/>
		<path class="st6" d="M30.3,16.5c0.5,0,1,0,1.6,0c0.1,0,0.3,0,0.4,0c0.3-0.1,0.5-0.2,0.6-0.4c0.1-0.1,0.2-0.2,0.2-0.3
			c0.1-0.1,0.1-0.3,0.1-0.4c0-0.1,0-0.2,0-0.3C33.1,14.5,32.7,14,32,14c-0.5,0-1.1,0-1.6,0c-0.1,0-0.2,0-0.3,0
			c-0.6,0.2-1,0.7-0.9,1.5C29.2,16,29.7,16.5,30.3,16.5z"/>
		<path class="st6" d="M32,23.8c-0.5,0-1.1,0-1.6,0c-0.6,0-1.1,0.5-1.2,1.1c0,0.1,0,0.2,0,0.4c0,0.2,0.1,0.4,0.2,0.6
			c0.1,0.1,0.2,0.3,0.3,0.3c0.2,0.1,0.4,0.2,0.7,0.2c0.5,0,1,0,1.6,0c0.7,0,1.2-0.5,1.2-1.2C33.1,24.3,32.7,23.8,32,23.8z"/>
		<path class="st6" d="M41.1,23.8c-0.5,0-1.1,0-1.6,0c-0.7,0-1.2,0.6-1.2,1.4c0,0.7,0.5,1.2,1.2,1.2c0.5,0,1,0,1.6,0
			c0.4,0,0.8-0.2,1-0.5c0.3-0.4,0.3-0.9,0.1-1.3C41.9,24,41.6,23.8,41.1,23.8z M39.8,24.7L39.8,24.7c-0.1,0-0.2,0-0.3,0
			C39.6,24.7,39.7,24.7,39.8,24.7z"/>
		<path class="st6" d="M34.9,13.8c-0.2,0-0.4,0.1-0.6,0.2c-0.5,0.3-0.7,0.8-0.6,1.5c0.1,0.4,0.3,0.6,0.6,0.8
			c0.2,0.1,0.3,0.1,0.5,0.1c0.1,0,0.3,0,0.4,0c0.2,0,0.4,0,0.6,0c0.1,0.1,0.3,0,0.4,0h0.1c0.1,0,0.3,0,0.4-0.1
			c0.3,0,0.5-0.2,0.6-0.4c0.1-0.1,0.2-0.2,0.2-0.4c0-0.1,0-0.1,0-0.2c0.2-0.8-0.4-1.6-1.2-1.6C35.9,13.8,35.4,13.8,34.9,13.8z
			 M34.8,15.5c-0.1,0-0.1,0-0.2,0C34.7,15.5,34.7,15.5,34.8,15.5L34.8,15.5z M34.6,15.5L34.6,15.5C34.6,15.5,34.6,15.5,34.6,15.5z
			 M34.4,15.5L34.4,15.5L34.4,15.5z"/>
		<path class="st6" d="M38.6,16.1c0.2,0.3,0.5,0.4,0.9,0.4c0.5,0,1,0,1.5,0c0.7,0,1.3-0.5,1.3-1.3s-0.5-1.3-1.2-1.3
			c-0.5,0-1,0-1.5,0c-0.2,0-0.4,0-0.6,0.1c-0.6,0.3-0.9,1.1-0.6,1.8C38.4,15.9,38.4,16,38.6,16.1z"/>
		<path class="st6" d="M32.5,17.3c-0.2-0.1-0.4-0.2-0.7-0.2c-0.4,0-0.9,0-1.3,0c-0.9,0-1.4,0.6-1.3,1.5c0.1,0.7,0.6,1.1,1.2,1.1
			c0.5,0,1,0,1.6,0c0.1,0,0.2,0,0.2,0c1.1-0.2,1.2-1.5,0.7-2.1C32.8,17.5,32.7,17.4,32.5,17.3z M32.5,17.4
			C32.4,17.4,32.4,17.4,32.5,17.4C32.4,17.5,32.4,17.5,32.5,17.4C32.4,17.4,32.4,17.4,32.5,17.4z"/>
		<path class="st6" d="M37.1,17.3c-0.2-0.1-0.4-0.2-0.7-0.2c-0.5,0-0.9,0-1.4,0c-0.2,0-0.3,0-0.5,0.1c-0.1,0-0.1,0-0.1,0
			c-0.2,0.1-0.4,0.2-0.5,0.4l0,0c-0.3,0.4-0.3,0.9-0.1,1.3c0.2,0.5,0.5,0.7,1,0.7c0.2,0,0.4,0,0.5,0c0.3,0,0.7,0,1,0
			c0.6,0,1-0.2,1.2-0.7s0.2-1.1-0.2-1.5C37.3,17.4,37.2,17.4,37.1,17.3z"/>
		<path class="st6" d="M18.3,19.8c1.4,0,2.9,0,4.3,0c0.2,0,0.3-0.1,0.4-0.2c0.2-0.3,0-0.7-0.4-0.7c-0.7,0-1.4,0-2.1,0l0,0
			c-0.7,0-1.4,0-2.1,0c-0.3,0-0.5,0.2-0.5,0.5C17.8,19.6,18,19.8,18.3,19.8z"/>
		<path class="st6" d="M18.3,22c1.4,0,2.8,0,4.2,0c0.1,0,0.2,0,0.2,0c0.2-0.1,0.3-0.3,0.3-0.5c0-0.3-0.2-0.5-0.4-0.5
			c-0.7,0-1.4,0-2.1,0c-0.7,0-1.4,0-2.1,0c-0.3,0-0.5,0.2-0.5,0.5C17.8,21.8,18,22,18.3,22z"/>
	</g>
</g>
<g id="Calque_3">
	<path class="st6" d="M19.3,11.2c0-0.1,0-0.2-0.1-0.4c0,0,0,0,0-0.1c-0.1-0.1,0-0.3,0-0.4c0-0.3-0.1-0.5-0.1-0.8l0,0c0,0,0,0,0-0.1
		c0,0,0,0,0-0.1s0-0.1,0-0.2c0,0,0,0,0-0.1c0-0.9,0.1-1.8,0.4-2.6c0.6-2.3,1.8-4,3.9-5.2c1.2-0.7,2.6-1.1,4-1.2c0.3,0,0.6,0,0.8,0
		l0,0c0.1,0,0.1,0,0.2,0c0,0,0,0,0.1,0c0.4,0,0.8,0.1,1.2,0.1c0.1,0,0.2,0,0.2,0c0.1,0,0.3,0.1,0.4,0.1h0.1l0,0c0,0,0,0,0.1,0
		c1.2,0.3,2.3,0.8,3.3,1.6c0.8,0.6,1.5,1.4,2,2.3c0.6,1.1,1,2.3,1.2,3.6c0.1,0.6,0.1,1.3,0.1,1.9c0,0.7-0.2,1.4-0.4,2.1
		c-0.5,1.5-1.2,2.8-2.1,4c-0.8,1.1-1.6,2.4-2,3.7c-0.3,0.8-0.5,1.5-0.4,2.4c0,0.1,0,0.2-0.2,0.2c-0.8,0-1.5,0-2.3,0
		c-1.8,0-3.6,0-5.4,0c-0.1,0-0.2,0-0.1-0.1c0-1.2-0.3-2.3-0.8-3.3c-0.5-1.1-1.2-2.1-1.9-3.1c-0.8-1.2-1.5-2.4-1.9-3.8c0,0,0,0,0-0.1
		C19.4,11.6,19.4,11.4,19.3,11.2z M30.1,21.6c0.3,0,0.7,0,1,0h0.1c0.1,0,0.2,0.1,0.2-0.1c0-0.7,0.2-1.5,0.5-2.2
		c0.5-1.3,1.2-2.5,2-3.6c0.9-1.2,1.6-2.5,2.1-3.9c0.3-0.8,0.4-1.6,0.4-2.5c0-0.6-0.1-1.2-0.2-1.8c-0.2-1-0.5-2-1-2.9
		c-0.7-1.2-1.6-2.1-2.8-2.7c-0.6-0.3-1.2-0.6-1.9-0.8c-0.2,0-0.4-0.1-0.6-0.1c-0.3-0.1-0.7-0.1-1-0.1c-0.2,0-0.4,0-0.5,0
		c-1.1,0-2.2,0.2-3.2,0.5c-1.2,0.4-2.3,1-3.1,1.9C21.2,4,20.7,4.9,20.3,6c-0.3,0.9-0.5,1.8-0.5,2.7c0,0.5-0.1,0.9,0,1.4
		c0.1,1,0.4,1.9,0.8,2.9c0.4,0.9,0.8,1.7,1.4,2.4c0.7,1,1.4,2,1.9,3s0.8,2,0.9,3c0,0.1,0,0.1,0.1,0.1c1.1,0,2.1,0,3.2,0
		C28.7,21.6,29.4,21.6,30.1,21.6L30.1,21.6z"/>
	<path class="st6" d="M28.1,29.7c-1,0-2.1,0-3.1,0c-0.5,0-0.9-0.2-1.1-0.7c-0.2-0.4-0.2-0.8,0.1-1.2c0.2-0.3,0.6-0.4,0.9-0.4
		c0.7,0,1.4,0,2.2,0c1.4,0,2.7,0,4.1,0c0.6,0,1.1,0.4,1.2,1c0.1,0.6-0.4,1.2-1.1,1.2C30.2,29.7,29.2,29.7,28.1,29.7L28.1,29.7z
		 M28.1,29.1c1,0,2,0,3.1,0c0.1,0,0.2,0,0.3,0c0.2-0.1,0.4-0.3,0.3-0.6c0-0.3-0.3-0.5-0.5-0.5c-1,0-2,0-2.9,0c-1.1,0-2.2,0-3.3,0
		c-0.2,0-0.3,0-0.4,0.2c-0.1,0.2-0.2,0.4-0.1,0.6c0.1,0.2,0.3,0.3,0.5,0.3C26,29,27,29.1,28.1,29.1z"/>
	<path class="st6" d="M28.1,24.7c-1.1,0-2.2,0-3.3,0c-0.3,0-0.5-0.2-0.7-0.4c-0.3-0.3-0.4-0.8-0.2-1.2c0.2-0.5,0.6-0.7,1.1-0.7
		c1.1,0,2.2,0,3.3,0c1,0,2,0,2.9,0c0.6,0,1.1,0.4,1.2,1c0.1,0.5-0.2,1-0.7,1.2c-0.1,0.1-0.3,0.1-0.4,0.1
		C30.2,24.7,29.1,24.7,28.1,24.7L28.1,24.7z M31.6,23.2C31.5,23,31.3,23,31.2,23c-0.9,0-1.8,0-2.7,0c-1.2,0-2.3,0-3.5,0
		c-0.2,0-0.3,0-0.4,0.2c-0.2,0.2-0.2,0.5,0,0.7c0.1,0.1,0.3,0.2,0.5,0.2c1.9,0,3.9,0,5.8,0c0.2,0,0.3,0,0.5,0s0.4-0.1,0.4-0.3
		C31.8,23.5,31.8,23.4,31.6,23.2L31.6,23.2z"/>
	<path class="st6" d="M31.8,25c0.3,0.2,0.5,0.5,0.6,0.9c0.1,0.7-0.4,1.3-1.1,1.3c-1,0-2.1,0-3.1,0c-1.1,0-2.1,0-3.2,0
		c-0.8,0-1.3-0.7-1.1-1.5c0.1-0.4,0.5-0.7,0.9-0.8c0.1,0,0.2,0,0.3,0c2,0,4,0,6.1,0C31.3,24.9,31.6,24.9,31.8,25z M28.1,25.5
		c-1,0-2.1,0-3.1,0c-0.3,0-0.6,0.2-0.6,0.5s0.3,0.6,0.6,0.6c2.1,0,4.1,0,6.2,0c0.1,0,0.1,0,0.2,0c0.3-0.1,0.5-0.3,0.4-0.6
		c0-0.3-0.2-0.5-0.5-0.5C30.2,25.5,29.1,25.5,28.1,25.5z"/>
	<path class="st6" d="M29.9,32.1L29.9,32.1c-0.1,0-0.2,0-0.3,0.1c-1,0-2,0-3,0c-0.5,0-1-0.4-1.1-0.9s0.1-1,0.6-1.3
		c0.2-0.1,0.3-0.1,0.5-0.1c0.9,0,1.9,0,2.8,0c0.7,0,1.2,0.5,1.2,1.2v0.1c0,0.1,0,0.1-0.1,0.2c0,0,0,0.1-0.1,0.1
		c0,0.1-0.1,0.1-0.1,0.2l0,0c0,0,0,0-0.1,0.1C30.2,31.9,30.1,32,29.9,32.1C30,32,30,32.1,29.9,32.1z M28.1,31.5L28.1,31.5
		c0.5,0,0.9,0,1.4,0c0.3,0,0.6-0.2,0.6-0.5s-0.2-0.6-0.6-0.6c-0.9,0-1.8,0-2.8,0c-0.3,0-0.6,0.2-0.6,0.5s0.2,0.5,0.6,0.5
		C27.2,31.5,27.6,31.5,28.1,31.5z"/>
	<path class="st6" d="M24.6,10c0-0.2,0.1-0.3,0.3-0.3s0.3,0.1,0.3,0.3c0.1,0.7,0.3,1.3,0.4,2c0.2,1,0.4,1.9,0.6,2.9
		c0.4,1.9,0.7,3.8,1.1,5.6c0,0.1,0,0.2,0.1,0.3c0,0.2-0.1,0.3-0.2,0.4c-0.2,0-0.3-0.1-0.4-0.3c-0.2-1-0.4-1.9-0.6-2.9
		c-0.3-1.4-0.5-2.7-0.8-4.1C25.1,12.6,24.9,11.4,24.6,10C24.6,10.1,24.6,10.1,24.6,10z"/>
	<path class="st6" d="M29.5,20.6c0,0.2-0.1,0.3-0.1,0.5c0,0-0.1,0-0.1,0.1c-0.3,0.1-0.5-0.1-0.4-0.4c0.3-1.3,0.5-2.7,0.8-4
		c0.3-1.6,0.6-3.2,0.9-4.7c0.1-0.6,0.2-1.1,0.3-1.7c0.1-0.1,0-0.3,0.1-0.4c0,0,0.1,0,0.1-0.1c0.1-0.1,0.2-0.1,0.3,0s0.2,0.2,0.1,0.4
		c-0.3,1.6-0.6,3.2-1,4.8c-0.3,1.7-0.7,3.4-1,5.1v0.1l0,0c0,0,0,0,0,0.1L29.5,20.6C29.5,20.5,29.5,20.5,29.5,20.6L29.5,20.6z"/>
	<path class="st6" d="M25,23.1C25,23.2,25,23.2,25,23.1C25,23.2,25,23.2,25,23.1L25,23.1L25,23.1z"/>
	<path class="st6" d="M16.3,12.6H6.4c-0.3,0-0.6-0.3-0.6-0.6l0,0c0-0.3,0.3-0.6,0.6-0.6h9.9c0.3,0,0.6,0.3,0.6,0.6l0,0
		C16.9,12.4,16.6,12.6,16.3,12.6z"/>
	<path class="st6" d="M49.7,12.6h-9.9c-0.3,0-0.6-0.3-0.6-0.6l0,0c0-0.3,0.3-0.6,0.6-0.6h9.9c0.3,0,0.6,0.3,0.6,0.6l0,0
		C50.3,12.4,50,12.6,49.7,12.6z"/>
	<path class="st6" d="M16.7,8.6l-7-7C9.5,1.4,9.5,1,9.7,0.8l0,0c0.2-0.2,0.6-0.2,0.8,0l7,7c0.2,0.2,0.2,0.6,0,0.8l0,0
		C17.3,8.8,16.9,8.8,16.7,8.6z"/>
	<path class="st6" d="M39.4,8.6l7-7c0.2-0.2,0.2-0.6,0-0.8l0,0c-0.2-0.2-0.6-0.2-0.8,0l-7,7c-0.2,0.2-0.2,0.6,0,0.8l0,0
		C38.8,8.8,39.2,8.8,39.4,8.6z"/>
	<path class="st6" d="M17.7,14.8l-7,7c-0.2,0.2-0.2,0.6,0,0.8l0,0c0.2,0.2,0.6,0.2,0.8,0l7-7c0.2-0.2,0.2-0.6,0-0.8l0,0
		C18.3,14.6,17.9,14.6,17.7,14.8z"/>
	<path class="st6" d="M38.4,14.8l7,7c0.2,0.2,0.2,0.6,0,0.8l0,0c-0.2,0.2-0.6,0.2-0.8,0l-7-7c-0.2-0.2-0.2-0.6,0-0.8l0,0
		C37.8,14.6,38.2,14.6,38.4,14.8z"/>
</g>
<g id="Calque_4" class="st0">
	<path class="st1" d="M10,12.7c0.7,0,1.5,0,2.2,0c0.2,0,0.3,0,0.3-0.2c0.1-0.3,0.3-0.7,0.5-1c0.4-0.9,1-1.6,1.7-2.3
		c2-1.8,4.3-2.7,6.9-2.5c2.3,0.1,4.3,0.9,6,2.5c0.1,0.1,0.2,0.1,0.3,0c1.3-1.2,2.7-2,4.4-2.3c3-0.6,5.8,0,8.2,2
		c1.1,0.9,2,2.1,2.5,3.5c0.1,0.2,0.2,0.3,0.4,0.3c0.9,0,1.8,0,2.7,0c0.5,0,0.6,0.2,0.6,0.6c0,1.3,0,2.5,0,3.8c0,0.3-0.2,0.5-0.5,0.5
		c-1,0-2,0-3,0c-0.1,0-0.2,0-0.3,0.2c-0.9,2.5-2.6,4.1-5,5.1c-1.3,0.6-2.7,0.8-4.2,0.7c-2.3-0.2-4.3-0.9-5.9-2.5
		c-0.1-0.1-0.1-0.1-0.2,0c-2.1,1.9-4.6,2.7-7.4,2.5c-1-0.1-1.9-0.3-2.8-0.7c-2.2-1-3.9-2.6-4.8-4.9c-0.2-0.4-0.1-0.4-0.6-0.4
		c-1.3,0-2.5,0-3.8,0c-0.2,0-0.3,0-0.5,0c-0.3,0-0.5-0.2-0.5-0.5s0-0.5,0-0.8c0-1,0-1.9,0-2.9v-0.1c0-0.5,0.2-0.7,0.7-0.7
		C8.6,12.7,9.3,12.7,10,12.7z M21.5,7.6c-1,0-1.8,0.1-2.5,0.3c-2.5,0.7-4.4,2.2-5.5,4.7c-1.1,2.7-0.4,5.7,1.7,7.9
		c1.5,1.4,3.2,2.2,5.2,2.4c2.5,0.2,4.7-0.6,6.5-2.3c0.1-0.1,0.1-0.2,0-0.3c-0.6-0.7-1-1.5-1.3-2.3c0-0.1,0-0.2-0.1-0.2
		s-0.2,0.1-0.3,0.2c-0.7,0.8-1.5,1.4-2.6,1.7c-2.1,0.6-4,0.2-5.5-1.4c-1.2-1.3-1.5-3.2-0.7-4.7c0.9-1.6,2.3-2.4,4.1-2.6
		c1.8-0.2,3.3,0.4,4.6,1.7c0.1,0.1,0.2,0.1,0.2,0c0.3-0.2,0.5-0.4,0.6-0.7c0.3-0.6,0.6-1.1,1-1.6c0.1-0.1,0.1-0.2,0-0.3
		C25.4,8.4,23.4,7.6,21.5,7.6z M40.3,12.7L40.3,12.7c0.5,0,1,0,1.5,0c0.2,0,0.2-0.1,0.1-0.2c-0.3-0.7-0.7-1.4-1.2-2
		c-1.5-1.7-3.4-2.7-5.7-2.9c-1.8-0.2-3.5,0.2-5.1,1.1c-1.4,0.8-2.4,1.9-3.1,3.4c-0.1,0.3-0.3,0.6-0.5,0.8c-0.1,0.1-0.1,0.2-0.1,0.3
		c0.1,0.3,0.2,0.7,0.3,1.1c0.1,0.3-0.1,0.5-0.3,0.6c-0.3,0.1-0.5-0.1-0.6-0.3s-0.1-0.5-0.2-0.7c0-0.2-0.1-0.3-0.3-0.2
		c-0.1,0-0.3,0-0.4,0c-0.5,0-1,0-1.6,0c-0.2,0-0.2,0-0.2,0.2c0.3,0.9,0.5,1.8,0.7,2.7c0,0.1,0.1,0.2,0.2,0.1c0.5,0,1,0,1.4,0
		c1.7-0.2,2.9-1,3.9-2.4c0.3-0.4,0.5-0.9,0.8-1.3c0.4-0.6,0.9-1.1,1.4-1.5c1.1-0.7,2.3-0.9,3.6-0.8c1.4,0.2,2.6,0.7,3.5,1.8
		c0.1,0.1,0.2,0.1,0.3,0.1C39.3,12.7,39.8,12.7,40.3,12.7z M29.4,15.6c-0.1,0-0.1,0.1-0.1,0.1c-0.7,0.8-1.5,1.3-2.5,1.6
		c-0.2,0.1-0.1,0.1-0.1,0.3c0.5,1.5,1.4,2.7,2.7,3.6c2.9,2.1,6.7,2.2,9.7,0.2c1.3-0.9,2.3-2,2.9-3.5c0-0.1,0.1-0.2-0.1-0.2
		c-1.1,0-2.1,0-3.2,0c-0.1,0-0.2,0-0.2,0.1c-0.9,1.1-2,1.7-3.4,1.9c-1.8,0.2-3.4-0.3-4.7-1.6C29.8,17.4,29.5,16.6,29.4,15.6z
		 M43.3,13.6L43.3,13.6c-0.8,0-1.6,0-2.4,0c-0.1,0-0.2,0-0.2,0.2c0.3,0.9,0.5,1.9,0.7,2.8c0,0.1,0.1,0.2,0.2,0.2c1.3,0,2.6,0,3.9,0
		c0.1,0,0.2,0,0.2-0.2c0-0.9,0-1.8,0-2.7c0-0.2,0-0.2-0.2-0.2C44.8,13.6,44.1,13.6,43.3,13.6z M32.2,16.7c0.4,0,0.9,0,1.3,0
		c0.1,0,0.2,0,0.2-0.2c-0.3-0.9-0.5-1.9-0.7-2.8c0-0.1-0.1-0.2-0.2-0.1c-0.6,0-1.2,0-1.8,0c-0.1,0-0.2,0-0.3,0.1
		c-0.2,0.3-0.3,0.6-0.5,0.8c-0.1,0.1-0.1,0.2,0,0.3c0.2,0.5,0.4,1.1,0.6,1.7c0,0.1,0.1,0.2,0.3,0.2S31.8,16.7,32.2,16.7z M22.8,16.7
		c-0.3-1-0.5-2-0.8-3c0-0.1-0.1-0.1-0.1-0.1c-0.8,0-1.6,0-2.4,0c0.3,1,0.5,2,0.8,3c0,0.1,0.1,0.1,0.1,0.1
		C21.2,16.7,22,16.7,22.8,16.7z M37.1,16.7c-0.3-1-0.5-2-0.8-3c0-0.1-0.1-0.1-0.2-0.1c-0.7,0-1.4,0-2.2,0c-0.2,0-0.2,0-0.1,0.2
		c0.2,0.7,0.4,1.5,0.6,2.2c0.1,0.2,0,0.5,0.2,0.6s0.5,0,0.7,0C35.9,16.7,36.5,16.7,37.1,16.7z M40.6,16.7c-0.3-1-0.5-2-0.8-3
		c0-0.1-0.1-0.1-0.2-0.1c-0.7,0-1.5,0-2.2,0c-0.1,0-0.2,0-0.1,0.2c0.3,0.9,0.5,1.9,0.7,2.8c0,0.1,0.1,0.1,0.2,0.1c0.6,0,1.3,0,1.9,0
		C40.3,16.7,40.4,16.7,40.6,16.7z M18.4,16.7c0.3,0,0.5,0,0.8,0c0.1,0,0.2,0,0.1-0.2c-0.3-0.9-0.5-1.9-0.7-2.8
		c0-0.1-0.1-0.1-0.2-0.1c-0.2,0-0.5,0-0.7,0s-0.2,0.1-0.3,0.2c-0.4,0.9-0.4,1.9,0,2.8c0,0.1,0.1,0.1,0.2,0.1
		C17.9,16.7,18.1,16.7,18.4,16.7z M8.2,15.2c0,0.4,0,0.9,0,1.3c0,0.1,0,0.2,0.2,0.2c0.5,0,1.1,0,1.6,0c0.1,0,0.2,0,0.1-0.2
		c-0.3-0.9-0.5-1.9-0.7-2.8c0-0.1-0.1-0.2-0.2-0.2c-0.3,0-0.5,0-0.8,0c-0.2,0-0.2,0.1-0.2,0.2C8.2,14.3,8.2,14.7,8.2,15.2z
		 M18.2,12.7c2,0,3.9,0,5.9,0C22.7,11.3,19.8,11.2,18.2,12.7z M11.3,13.6c-0.3,0-0.5,0-0.8,0c-0.1,0-0.2,0-0.1,0.2
		c0.3,0.9,0.5,1.9,0.7,2.8c0,0.1,0.1,0.1,0.2,0.1c0.3,0,0.6,0,0.9,0c0.1,0,0.1,0,0.1-0.1c-0.2-0.9-0.2-1.9,0-2.8
		c0-0.1,0-0.1-0.1-0.1C11.8,13.6,11.5,13.6,11.3,13.6z M31.5,12.7c1.9,0,3.9,0,5.8,0C35.6,11.1,32.7,11.4,31.5,12.7z M24.1,17.7
		c-0.3,0-5.7,0-5.8,0C19.9,19.1,22.6,19,24.1,17.7z M37.3,17.7c-2,0-3.9,0-5.8,0C33.1,19.1,35.8,19.1,37.3,17.7z"/>
</g>
<g id="Calque_5" class="st0">
	<path class="st1" d="M18.4,0.1C19.6,0.4,20.8,1,22,1.4c1.7,0.6,3.3,1.2,5,1.9c0.3,0.1,0.5,0.2,0.4,0.6c-0.1,0.3,0.1,0.4,0.4,0.4
		c0.3,0,0.5-0.1,0.5,0.3c0,0.2,0.2,0.2,0.3,0.2c2.5,0.2,4,1.7,4.9,3.9c0.5,1.2,0.6,2.4,0.7,3.6c0,0.3,0.1,0.5,0.4,0.7
		c0.5,0.3,0.8,0.9,1,1.4c0.6,1.5,0.8,3.1,1,4.7c0.2,1.9,0.3,3.9,0.3,5.8c0,0.8-0.3,1.1-1,1.2c-1.1,0.1-2.3,0.1-3.4,0
		c-0.8-0.1-1.1-0.4-1.1-1.3c0.1-2.7,0-5.4,0.4-8.1c0.1-0.8,0.3-1.7,0.5-2.5c0.1-0.4,0.3-0.8,0.6-1c0.4-0.3,0.5-0.7,0.4-1.1
		c-0.2-1.8-0.5-3.6-1.8-5c-0.7-0.8-1.6-1.2-2.7-1.3c-0.3,0-0.6,0-0.5,0.4c0.1,0.5-0.1,0.6-0.6,0.6c-0.2,0-0.4-0.1-0.4,0.2
		c0,0.2-0.1,0.5,0.3,0.6c2.3,0.9,3.3,2.5,3.3,5c0,5.6,0,11.1,0,16.7c0,0.3,0,0.7-0.1,1c-0.1,0.9-0.7,1.5-1.5,1.7c-0.3,0-0.7,0-1.1,0
		c-1.6,0.1-3.2,0.1-4.9,0c-1.7-0.1-2.4-0.9-2.4-2.6c0-5.8,0-11.5,0-17.3c0-2.2,1.1-3.7,3-4.5c0.4-0.2,0.5-0.3,0.5-0.7
		c0-1.2,0-1.2-1.2-1.2c-1.1,0-2.2,0-3.3,0c-0.4,0-0.5-0.1-0.5-0.5s0.1-0.5,0.5-0.5c1.1,0,2.2,0,3.3,0c0.1-0.1,0-0.1-0.1-0.2
		c-1.5-0.6-2.9-1.3-4.4-1.9c-0.1,0-0.2,0-0.3,0C18.4,1.8,18.4,0.9,18.4,0.1z M22,20.6c0,1.5,0,3,0,4.5c0,0.4,0.1,0.5,0.5,0.5
		c2.3,0,4.7,0,7,0c0.4,0,0.5-0.1,0.5-0.5c0-3,0-5.9,0-8.9c0-0.4-0.1-0.5-0.5-0.5c-2.3,0-4.7,0-7,0c-0.4,0-0.5,0.1-0.5,0.5
		C22,17.6,22,19.1,22,20.6z M25.9,14.7c1.2,0,2.4,0,3.5,0c0.2,0,0.5,0.1,0.5-0.2c0-1.2,0.2-2.5-0.2-3.7c-0.5-1.3-1.4-2-2.7-2.4
		c-0.4-0.1-0.7-0.3-0.6-0.8c0.1-0.5,0-1,0-1.5c0-0.4-0.2-0.3-0.5-0.3c-0.2,0-0.5-0.1-0.5,0.3c0,0.5,0,1,0,1.5
		c0.1,0.5-0.2,0.7-0.7,0.8C23,8.9,22,10.3,22,12.1c0,0.7,0,1.4,0,2c0,0.4,0.1,0.5,0.5,0.5C23.6,14.6,24.8,14.7,25.9,14.7z M26,31.1
		c0.9,0,1.8,0,2.7-0.1c1-0.1,1.3-0.5,1.3-1.4s0-1.7,0-2.6c0-0.3-0.1-0.4-0.4-0.4c-2.4,0-4.8,0-7.1,0c-0.3,0-0.4,0.1-0.4,0.4
		c0,0.9,0,1.8,0,2.7c0,0.9,0.3,1.3,1.3,1.4C24.2,31.1,25.1,31.1,26,31.1z M32.3,22.2c0,0.8,0,1.5,0,2.3c0,0.2,0,0.4,0.3,0.5
		c0.9,0.1,1.9,0.1,2.8,0c0.3,0,0.4-0.1,0.4-0.4c0-2.9-0.1-5.7-0.7-8.5c-0.1-0.6-0.3-1.3-0.6-1.8c-0.2-0.3-0.3-0.7-0.7-0.6
		c-0.4,0-0.4,0.4-0.6,0.7c-0.1,0.3-0.2,0.7-0.3,1C32.5,17.6,32.4,19.9,32.3,22.2z M26.4,4.4c0.1-0.3-0.1-0.3-0.3-0.4
		c-0.7-0.3-1.3-0.5-2-0.8c-1.4-0.5-2.9-1.1-4.3-1.6c-0.1,0-0.3-0.2-0.4,0c-0.1,0.2,0,0.3,0.2,0.3c0.1,0,0.1,0.1,0.2,0.1
		c1.9,0.8,3.9,1.7,5.8,2.5c0.1,0.1,0.3,0.1,0.4,0.1C26.3,4.8,26.5,4.7,26.4,4.4z"/>
</g>
<g id="Calque_6" class="st0">
	<path class="st1" d="M34.2,6.5L17.1,27.7c-1.7,2.1-4.7,2.7-6.5,1.2s-1.9-4.5-0.2-6.6L27.5,1.1l0,0L27,0.7c-0.3,0.2-0.5,0.4-0.7,0.7
		L8.4,23.5c-1.8,2.2-1.5,5.5,0.8,7.4c2.2,1.8,5.5,1.5,7.4-0.8L34.4,8c0.2-0.3,0.4-0.5,0.6-0.8L34.2,6.5L34.2,6.5z"/>
	<circle class="st1" cx="29.3" cy="4.7" r="0.9"/>
	<circle class="st1" cx="26.3" cy="8.1" r="0.9"/>
	<circle class="st1" cx="30.8" cy="1.9" r="0.9"/>
	<circle class="st1" cx="33.2" cy="4" r="0.9"/>
	<circle class="st1" cx="34" cy="1" r="0.9"/>
	<circle class="st1" cx="29.7" cy="7.4" r="0.9"/>
	<circle class="st1" cx="32.1" cy="6.1" r="0.9"/>
	<line class="st7" x1="18.5" y1="11.6" x2="30.8" y2="11.5"/>
</g>
<g id="Calque_7" class="st0">
	<path class="st1" d="M6.5,16.1c0-8.8,7.2-16,16-16s16,7.2,15.9,16c0,8.8-7.2,16-16,16S6.4,24.9,6.5,16.1z M22.5,1.2
		c-4.1,0-7.7,1.5-10.6,4.4s-4.3,6.5-4.3,10.7c0,8,6.7,14.7,14.9,14.7s15-6.8,14.9-14.9c-0.1-5.3-2.3-9.4-6.6-12.4
		C28.3,2,25.5,1.1,22.5,1.2z"/>
	<path class="st1" d="M15.8,18.4c0-0.5,0-0.9,0-1.4c0-0.1,0.1-0.2,0.2-0.3c0.2-0.2,0.5-0.3,0.7-0.5c0.3-0.2,0.6-0.4,0.9-0.7
		c0.2-0.1,0.4-0.3,0.6-0.4c0.2-0.2,0.4-0.3,0.6-0.5c0.2-0.1,0.4-0.3,0.6-0.4c0.2-0.2,0.5-0.4,0.7-0.5s0.4-0.2,0.5-0.4
		c0.2-0.2,0.4-0.3,0.6-0.4c0.2-0.2,0.5-0.4,0.7-0.5s0.3-0.2,0.5-0.4c0.1,0,0.1,0,0.1,0c0.2,0.1,0.3,0.2,0.5,0.3
		c0.2,0.2,0.5,0.4,0.7,0.5c0.3,0.2,0.6,0.4,0.8,0.6c0.2,0.2,0.5,0.3,0.7,0.5s0.4,0.3,0.7,0.5s0.5,0.4,0.8,0.6
		c0.4,0.3,0.7,0.5,1.1,0.8c0.3,0.2,0.7,0.5,1,0.7c0.1,0.1,0.2,0.2,0.3,0.2s0.1,0.1,0.1,0.2c0,0.9,0,1.9,0,2.8c0,0.1,0,0.1-0.1,0.2
		c-0.1,0-0.2,0-0.2,0c-0.2-0.1-0.3-0.2-0.5-0.3c-0.2-0.1-0.4-0.3-0.6-0.4c-0.2-0.2-0.5-0.4-0.7-0.5s-0.3-0.2-0.5-0.4
		c-0.2-0.1-0.4-0.3-0.6-0.4c-0.2-0.1-0.3-0.2-0.5-0.4c-0.3-0.2-0.5-0.4-0.8-0.6c-0.1-0.1-0.2-0.1-0.3-0.2c-0.2-0.2-0.5-0.4-0.8-0.6
		c-0.2-0.1-0.3-0.2-0.5-0.4c-0.2-0.1-0.4-0.3-0.5-0.4c-0.1-0.1-0.2-0.1-0.2-0.2c0,0,0,0-0.1,0c-0.3,0.2-0.5,0.4-0.8,0.6
		c-0.4,0.3-0.8,0.6-1.1,0.9c-0.2,0.2-0.5,0.3-0.7,0.5c-0.3,0.2-0.7,0.5-1,0.7s-0.5,0.4-0.7,0.5c-0.3,0.2-0.7,0.5-1,0.7
		c-0.2,0.1-0.3,0.2-0.5,0.4c-0.2,0.1-0.4,0.3-0.6,0.4c0,0-0.1,0.1-0.2,0.1c-0.1,0,0-0.1,0-0.1C15.8,19.4,15.8,18.9,15.8,18.4z"/>
	<path class="st1" d="M15.8,14.4c0-0.1,0-0.1,0-0.2c0-0.9,0-1.9,0-2.8c0-0.1,0.1-0.2,0.2-0.3c0.2-0.2,0.5-0.3,0.7-0.5
		c0.3-0.2,0.6-0.5,0.9-0.7c0.2-0.1,0.4-0.3,0.6-0.4c0.2-0.2,0.5-0.3,0.7-0.5c0.2-0.1,0.4-0.3,0.5-0.4c0.2-0.1,0.4-0.3,0.6-0.4
		c0.2-0.1,0.4-0.3,0.5-0.4c0.2-0.2,0.5-0.4,0.7-0.5c0.1-0.1,0.2-0.1,0.3-0.2c0.3-0.2,0.5-0.4,0.8-0.6c0,0,0.1-0.1,0.1,0
		C22.6,6.7,22.8,6.8,23,7c0.2,0.2,0.4,0.3,0.6,0.5c0.3,0.2,0.6,0.5,0.9,0.7c0.2,0.2,0.5,0.3,0.7,0.5s0.5,0.4,0.8,0.6
		c0.2,0.2,0.4,0.3,0.6,0.4c0.3,0.2,0.6,0.4,0.9,0.7c0.1,0.1,0.2,0.2,0.4,0.2c0.2,0.2,0.5,0.4,0.7,0.5c0.1,0.1,0.2,0.2,0.3,0.2
		c0.1,0.1,0.1,0.1,0.1,0.2c0,0.9,0,1.9,0,2.8c0,0.1-0.1,0.2-0.2,0.1c-0.2-0.1-0.4-0.3-0.6-0.4c-0.2-0.2-0.5-0.3-0.7-0.5
		c-0.3-0.3-0.7-0.5-1-0.7c-0.2-0.1-0.3-0.2-0.5-0.4c-0.3-0.2-0.6-0.5-1-0.7c-0.3-0.2-0.5-0.4-0.8-0.6c-0.2-0.2-0.5-0.3-0.7-0.5
		c-0.2-0.1-0.4-0.3-0.5-0.4c0-0.2-0.3-0.4-0.5-0.6h-0.1c-0.3,0.3-0.7,0.5-1,0.7s-0.5,0.4-0.8,0.6c-0.2,0.2-0.5,0.4-0.7,0.5
		c-0.3,0.2-0.6,0.5-0.9,0.7c-0.3,0.2-0.5,0.4-0.8,0.6c-0.4,0.3-0.8,0.5-1.1,0.8c-0.2,0.1-0.4,0.3-0.6,0.4c-0.2,0.1-0.4,0.3-0.6,0.4
		C15.9,14.4,15.9,14.4,15.8,14.4z"/>
	<path class="st1" d="M15.8,24.2c0-0.5,0-1,0-1.4c0-0.1,0-0.2,0.1-0.2c0.3-0.2,0.5-0.4,0.8-0.6c0.2-0.1,0.4-0.3,0.6-0.4
		c0.3-0.2,0.6-0.4,0.9-0.7c0.2-0.2,0.5-0.4,0.8-0.6s0.5-0.4,0.8-0.6c0.2-0.2,0.5-0.3,0.7-0.5s0.5-0.3,0.7-0.5
		c0.1-0.1,0.3-0.2,0.5-0.3c0.2-0.2,0.5-0.4,0.7-0.5c0.1,0,0.1,0,0.2,0c0.3,0.2,0.5,0.4,0.8,0.6c0.2,0.1,0.4,0.2,0.5,0.4
		c0.3,0.2,0.5,0.4,0.8,0.6c0.2,0.1,0.3,0.3,0.5,0.4s0.3,0.3,0.5,0.4s0.4,0.2,0.5,0.4c0.2,0.2,0.5,0.4,0.7,0.5s0.4,0.2,0.5,0.4
		c0.3,0.2,0.7,0.5,1,0.7c0.2,0.1,0.4,0.3,0.6,0.4c0.2,0.1,0.3,0.2,0.2,0.4c0,0.9,0,1.7,0,2.6c0,0.1,0,0.2-0.1,0.2
		c-0.1,0.1-0.1,0-0.2-0.1c-0.4-0.3-0.8-0.6-1.2-0.9s-0.8-0.6-1.2-0.9c-0.3-0.2-0.7-0.5-1-0.7c-0.2-0.2-0.5-0.3-0.7-0.5
		c-0.3-0.2-0.6-0.4-0.9-0.6c-0.3-0.3-0.7-0.5-1-0.8c-0.1-0.1-0.3-0.2-0.5-0.3h-0.1c-0.2,0.2-0.5,0.3-0.7,0.5s-0.5,0.4-0.8,0.6
		c-0.2,0.2-0.5,0.4-0.7,0.5s-0.4,0.2-0.6,0.4c-0.2,0.2-0.5,0.3-0.7,0.5c-0.2,0.1-0.3,0.2-0.5,0.4c-0.2,0.1-0.4,0.3-0.6,0.4
		c-0.2,0.1-0.4,0.3-0.5,0.4c-0.2,0.1-0.4,0.3-0.6,0.4c-0.1,0.1-0.3,0.2-0.4,0.3c-0.1,0.1-0.3,0.2-0.4,0.3h-0.1v-0.1
		C15.8,25.1,15.8,24.7,15.8,24.2z"/>
</g>
<g id="Calque_8" class="st0">
	<path class="st1" d="M49.1,25.5c-1.9-1.5-3.8-3-5.7-4.6c-1.1-0.9-1.9-2.4-1.8-3.6c0.2-2.3-3.5-4.8-4.1-5.3c0,0-0.9-0.7-1.6-1.3
		c-0.8-0.6-1.6-0.6-2.3,0.2c-0.1,0-0.2,0.1-0.2,0.1c-0.8,0.9-1.8,0.5-2.1-0.2c-0.4-1.1-6-5.7-7.4-6.5C23.3,4,22.6,3,22,3.5
		c-0.9,0.7-1.2-0.4-1.2-1.2c0-1.2,0.4-1.3-0.2-1.7c-0.5-0.3-0.8,0.6-0.8,0.6s-0.5,0.6-0.7,0.7c-0.2-0.1-0.3-0.1-0.4-0.1l0,0
		c0.4-0.4-0.9-1.1-1.4-1.6c-0.3-0.3-0.7-0.3-1,0.1c-0.4,0.4-0.2,0.7,0.1,1c0.6,0.5,1.4,1.6,2,1.2c0.1,0,0.2,0,0.2,0
		c0.2,0.2,0.7,0.6,0.8,0.7c0.6,0.6,1.3,1.1,1.2,2.1c-0.1,1.1,7.5,6.8,9,8.3c-1.3,1.4-5.2,5.5-4.7,5.8c-0.3,0.4,1.7,2.6,1.8,2.7
		c0.9,0.8,2.1-1.2,3.2-2.1c0.7-0.6,1.4-2.1,2.8-0.8c0.5,0.6-0.9,2,0.6,2c0.1-0.3,0.3-0.8,0.7-0.9c0.2,0,0.5,0.8,0.7,0.9
		c0.1,0,0.2,0.1,0.3,0.1c-0.1,0.1-0.6,0.2-0.8,0.4c0.9,0.8,0.6,3.9,0.6,4.4c0.1,1.1,0.1,1.6,1.8,1.7c1.1,0.1,1-0.4,1.1-1.7
		c0-0.8-0.1-1.6,0.2-2.4c0.4-1.2,1.6-2,2.6-1.3c1.3,0.9,2.7,1.9,2.9,3.8c0.1,1.1,0.3,2.1,0.4,3.2c0.1,1.2,1.2,1.7,2,2.1
		c0.9,0.5,1.2-0.6,1.6-1.1c0.8-0.8,1.4-1.8,2.2-2.6C50.3,27.1,50.2,26.3,49.1,25.5z M20.4,1.8c-0.1,0.1-0.1,0.1-0.2,0.2
		c0-0.1,0-0.3,0.1-0.4C20.3,1.7,20.4,1.7,20.4,1.8z M39.4,16.5c-1.8-1.5-3.5-2.8-5.2-4.2c-0.5-0.4-0.1-0.4-0.1-0.7
		c0.7-0.7,0.9-0.5,3.1,1.1C39.4,14.5,39.9,15.1,39.4,16.5z"/>
	<path class="st1" d="M-0.9,28.1c0.8,0.8,1.4,1.8,2.2,2.6c0.5,0.5,0.7,1.6,1.6,1.1c0.8-0.5,1.9-0.9,2-2.1c0.1-1.1,0.3-2.1,0.4-3.2
		c0.2-1.9,1.6-2.8,2.9-3.8c1-0.7,2.2,0,2.6,1.3c0.2,0.8,0.2,1.6,0.2,2.4c0,1.3-0.1,1.8,1.1,1.7c1.7-0.1,1.7-0.7,1.8-1.7
		c0-0.4-0.3-3.5,0.6-4.4c-0.1-0.2-0.7-0.3-0.8-0.4c0.1-0.1,0.2-0.1,0.3-0.1c0.2-0.1,0.5-0.9,0.7-0.9c0.4,0.1,0.6,0.6,0.7,0.9
		c1.5-0.1,0.1-1.4,0.6-2c1.3-1.3,2,0.2,2.8,0.8c1,0.9,2.3,2.9,3.2,2.1c0.1-0.1,2.1-2.3,1.8-2.7c0.4-0.3-3.5-4.4-4.7-5.8
		c1.5-1.5,9.1-7.2,9-8.3c-0.1-1,0.6-1.5,1.2-2.1c0.1-0.1,0.6-0.6,0.8-0.7c0-0.1,0.1-0.1,0.2,0c0.5,0.3,1.4-0.7,2-1.2
		c0.3-0.3,0.5-0.6,0.1-1C32,0,31.6,0,31.3,0.3c-0.5,0.5-1.9,1.1-1.4,1.6l0,0c-0.1,0-0.2,0-0.4,0.1c-0.2-0.2-0.7-0.7-0.7-0.7
		S28.5,0.4,28,0.7c-0.6,0.4-0.2,0.5-0.2,1.7c0,0.8-0.3,1.9-1.2,1.2c-0.7-0.6-1.4,0.4-2,0.7c-1.4,0.8-7,5.4-7.4,6.5
		c-0.2,0.7-1.3,1.1-2.1,0.2c-0.1,0-0.2,0-0.2-0.1c-0.8-0.9-1.5-0.8-2.3-0.2S11,12,11,12c-0.6,0.5-4.3,3-4.1,5.3
		C7,18.5,6.2,20,5.1,20.9c-1.9,1.6-3.8,3.1-5.7,4.6C-1.7,26.3-1.8,27.1-0.9,28.1z M28.2,1.6c0,0.1,0.1,0.2,0.1,0.4
		c-0.1-0.1-0.1-0.1-0.2-0.2C28.1,1.7,28.2,1.7,28.2,1.6z M11.2,12.6c2.1-1.6,2.4-1.8,3.1-1.1c0,0.3,0.4,0.3-0.1,0.7
		c-1.7,1.4-3.4,2.7-5.2,4.2C8.6,15.1,9.1,14.5,11.2,12.6z"/>
</g>
</svg>
