<?xml version="1.0" encoding="utf-8"?>
<!-- Generator: Adobe Illustrator 16.0.3, SVG Export Plug-In . SVG Version: 6.00 Build 0)  -->
<!DOCTYPE svg PUBLIC "-//W3C//DTD SVG 1.1//EN" "http://www.w3.org/Graphics/SVG/1.1/DTD/svg11.dtd">
<svg version="1.1" id="Calque_1" xmlns="http://www.w3.org/2000/svg" xmlns:xlink="http://www.w3.org/1999/xlink" x="0px" y="0px"
	 width="32px" height="32px" viewBox="0 0 32 32" enable-background="new 0 0 32 32" xml:space="preserve">
<g>
	<rect x="48.621" y="54.67" fill="#DDEFF5" width="63.24" height="42.161"/>
</g>
<g>
	<path fill="#2B3E50" d="M64.05,86.602v-4.641l-2.077,2.568h-0.015l-2.078-2.568v4.641h-0.065v-4.72H59.9l2.064,2.552l2.064-2.552
		h0.086v4.72H64.05z"/>
	<path fill="#2B3E50" d="M67.479,86.602v-0.603c-0.213,0.231-0.416,0.397-0.609,0.501c-0.192,0.104-0.402,0.154-0.629,0.154
		c-0.184,0-0.354-0.037-0.508-0.11c-0.156-0.075-0.291-0.179-0.404-0.31s-0.201-0.287-0.266-0.469
		c-0.063-0.182-0.095-0.381-0.095-0.6c0-0.236,0.041-0.455,0.124-0.652c0.083-0.199,0.199-0.371,0.348-0.515
		c0.148-0.146,0.324-0.259,0.524-0.343c0.201-0.082,0.42-0.122,0.655-0.122c0.148,0,0.296,0.015,0.441,0.045
		c0.146,0.03,0.308,0.075,0.482,0.138v2.885H67.479L67.479,86.602z M67.479,83.764c-0.162-0.057-0.312-0.099-0.445-0.125
		C66.896,83.613,66.76,83.6,66.62,83.6c-0.228,0-0.438,0.039-0.632,0.119c-0.195,0.077-0.362,0.188-0.502,0.327
		c-0.141,0.14-0.25,0.306-0.332,0.494c-0.08,0.19-0.121,0.399-0.121,0.627c0,0.21,0.031,0.401,0.092,0.576
		c0.063,0.176,0.146,0.325,0.253,0.448c0.106,0.125,0.235,0.223,0.384,0.291c0.148,0.072,0.309,0.105,0.479,0.105
		c0.219,0,0.424-0.054,0.614-0.16c0.193-0.107,0.4-0.283,0.623-0.527V83.764L67.479,83.764z"/>
	<path fill="#2B3E50" d="M69.17,83.65v2.033c0,0.131,0.021,0.25,0.064,0.36c0.043,0.108,0.104,0.204,0.181,0.284
		c0.076,0.082,0.168,0.146,0.272,0.189c0.104,0.047,0.215,0.069,0.334,0.069c0.035,0,0.062-0.002,0.078-0.007v0.072h-0.078
		c-0.131,0-0.254-0.025-0.364-0.074c-0.111-0.053-0.207-0.118-0.287-0.205c-0.082-0.084-0.146-0.186-0.192-0.305
		c-0.05-0.117-0.072-0.246-0.072-0.387v-2.033h-0.847v-0.064h0.847v-1.01h0.064v1.01h0.878v0.064H69.17V83.65z"/>
	<path fill="#2B3E50" d="M72.887,86.602v-1.828c0-0.17-0.027-0.326-0.082-0.469c-0.055-0.142-0.13-0.266-0.226-0.369
		c-0.097-0.105-0.209-0.188-0.336-0.248c-0.126-0.059-0.265-0.088-0.412-0.088c-0.235,0-0.442,0.069-0.623,0.211
		c-0.181,0.14-0.306,0.328-0.38,0.563v2.228h-0.064v-4.72h0.064v2.308c0.092-0.195,0.227-0.354,0.402-0.476
		c0.177-0.118,0.377-0.179,0.601-0.179c0.157,0,0.306,0.029,0.442,0.094c0.138,0.064,0.256,0.15,0.356,0.264
		c0.101,0.11,0.179,0.24,0.235,0.391c0.058,0.148,0.086,0.311,0.086,0.484v1.834H72.887z"/>
	<path fill="#2B3E50" d="M75.876,86.544c-0.176,0.073-0.364,0.11-0.569,0.11c-0.216,0-0.414-0.039-0.598-0.118
		c-0.186-0.079-0.343-0.188-0.477-0.327c-0.133-0.141-0.237-0.305-0.313-0.495c-0.076-0.188-0.114-0.396-0.114-0.618
		c0-0.226,0.033-0.431,0.102-0.619c0.068-0.19,0.162-0.355,0.285-0.496s0.266-0.25,0.43-0.328s0.342-0.116,0.533-0.116
		c0.176,0,0.34,0.032,0.492,0.103c0.152,0.066,0.289,0.158,0.405,0.276c0.119,0.118,0.218,0.26,0.294,0.424
		c0.075,0.163,0.125,0.343,0.146,0.532c0.005,0.011,0.007,0.025,0.007,0.047h-2.622c-0.004,0.029-0.006,0.061-0.006,0.089
		c0,0.029,0,0.06,0,0.089c0,0.215,0.037,0.411,0.11,0.594c0.074,0.181,0.174,0.338,0.302,0.473c0.127,0.133,0.276,0.236,0.452,0.314
		c0.176,0.076,0.365,0.113,0.57,0.113c0.209,0,0.402-0.037,0.58-0.113c0.178-0.078,0.328-0.187,0.455-0.324v0.092
		C76.205,86.369,76.05,86.469,75.876,86.544z M76.275,84.348c-0.074-0.152-0.168-0.285-0.278-0.396s-0.24-0.197-0.384-0.26
		c-0.146-0.061-0.299-0.092-0.459-0.092c-0.161,0-0.314,0.031-0.459,0.092c-0.146,0.063-0.272,0.147-0.385,0.26
		c-0.111,0.111-0.203,0.244-0.276,0.396c-0.075,0.152-0.125,0.32-0.151,0.504h2.544C76.398,84.668,76.35,84.5,76.275,84.348z
		 M75.036,83.135h-0.085l0.896-1.188h0.08L75.036,83.135z"/>
	<path fill="#2B3E50" d="M81.618,86.602v-1.828c0-0.17-0.027-0.326-0.082-0.469c-0.056-0.142-0.13-0.266-0.228-0.369
		c-0.096-0.105-0.207-0.188-0.334-0.248c-0.127-0.059-0.264-0.088-0.412-0.088s-0.287,0.029-0.416,0.088
		c-0.129,0.061-0.242,0.143-0.338,0.248c-0.098,0.104-0.172,0.229-0.227,0.369S79.5,84.6,79.5,84.768v1.834h-0.066v-1.828
		c0-0.17-0.025-0.326-0.082-0.469c-0.054-0.142-0.129-0.266-0.225-0.369c-0.098-0.105-0.209-0.188-0.336-0.248
		c-0.126-0.059-0.264-0.088-0.412-0.088c-0.236,0-0.443,0.069-0.623,0.211c-0.18,0.139-0.306,0.328-0.381,0.563v2.228h-0.064v-3.016
		h0.064v0.604c0.093-0.195,0.227-0.354,0.404-0.476c0.177-0.118,0.377-0.179,0.6-0.179c0.135,0,0.262,0.021,0.38,0.066
		c0.118,0.047,0.226,0.111,0.321,0.193c0.096,0.084,0.178,0.182,0.242,0.296c0.066,0.113,0.113,0.237,0.145,0.373
		c0.063-0.276,0.191-0.499,0.387-0.672c0.197-0.173,0.435-0.258,0.709-0.258c0.156,0,0.306,0.03,0.441,0.094
		c0.139,0.063,0.258,0.149,0.357,0.263c0.102,0.111,0.18,0.241,0.236,0.391c0.057,0.148,0.084,0.311,0.084,0.484v1.836H81.618
		L81.618,86.602z"/>
	<path fill="#2B3E50" d="M85.046,86.602v-0.603c-0.213,0.231-0.417,0.397-0.608,0.501s-0.401,0.154-0.629,0.154
		c-0.185,0-0.354-0.037-0.509-0.11c-0.155-0.075-0.29-0.179-0.403-0.31s-0.201-0.287-0.266-0.469
		c-0.063-0.182-0.095-0.381-0.095-0.6c0-0.236,0.041-0.455,0.125-0.652c0.082-0.199,0.198-0.371,0.347-0.515
		c0.148-0.146,0.323-0.259,0.524-0.343c0.2-0.082,0.42-0.122,0.655-0.122c0.148,0,0.297,0.015,0.441,0.045
		c0.146,0.03,0.309,0.075,0.482,0.138v2.885H85.046L85.046,86.602z M85.046,83.764c-0.159-0.057-0.312-0.099-0.444-0.125
		c-0.135-0.025-0.273-0.039-0.414-0.039c-0.228,0-0.438,0.039-0.631,0.119c-0.195,0.077-0.361,0.188-0.502,0.327
		c-0.142,0.14-0.25,0.306-0.332,0.494c-0.08,0.19-0.121,0.399-0.121,0.627c0,0.21,0.03,0.401,0.092,0.576
		c0.063,0.176,0.146,0.325,0.252,0.448c0.107,0.125,0.236,0.223,0.385,0.291c0.148,0.072,0.309,0.105,0.479,0.105
		c0.219,0,0.424-0.054,0.615-0.16c0.193-0.107,0.4-0.283,0.623-0.527L85.046,83.764L85.046,83.764z"/>
	<path fill="#2B3E50" d="M86.736,83.65v2.033c0,0.131,0.022,0.25,0.066,0.36c0.043,0.108,0.104,0.204,0.18,0.284
		c0.076,0.082,0.168,0.146,0.271,0.189c0.105,0.047,0.217,0.069,0.336,0.069c0.034,0,0.061-0.002,0.078-0.007v0.072H87.59
		c-0.133,0-0.254-0.025-0.365-0.074c-0.111-0.053-0.207-0.118-0.287-0.205c-0.082-0.084-0.146-0.186-0.193-0.305
		c-0.049-0.117-0.071-0.246-0.071-0.387v-2.033h-0.847v-0.064h0.847v-1.01h0.063v1.01h0.88v0.064h-0.88V83.65z"/>
	<path fill="#2B3E50" d="M88.331,82.412v-0.53h0.063v0.53H88.331z M88.331,86.602v-3.016h0.063v3.016H88.331z"/>
	<path fill="#2B3E50" d="M91.759,88.195v-2.196c-0.213,0.231-0.416,0.397-0.608,0.501c-0.191,0.104-0.402,0.154-0.629,0.154
		c-0.185,0-0.354-0.037-0.508-0.11c-0.156-0.075-0.291-0.179-0.404-0.31s-0.201-0.287-0.266-0.469
		c-0.063-0.182-0.095-0.381-0.095-0.6c0-0.236,0.041-0.455,0.124-0.652c0.083-0.199,0.197-0.371,0.348-0.515
		c0.148-0.146,0.323-0.259,0.524-0.343c0.2-0.082,0.42-0.122,0.655-0.122c0.148,0,0.295,0.015,0.441,0.045s0.307,0.075,0.482,0.138
		v4.479H91.759z M91.759,83.764c-0.161-0.057-0.311-0.099-0.444-0.125C91.178,83.611,91.04,83.6,90.9,83.6
		c-0.229,0-0.438,0.039-0.633,0.119c-0.195,0.077-0.361,0.188-0.502,0.327s-0.25,0.306-0.33,0.494
		c-0.082,0.19-0.123,0.399-0.123,0.627c0,0.21,0.031,0.401,0.092,0.576c0.063,0.176,0.146,0.325,0.254,0.448
		c0.107,0.125,0.234,0.223,0.384,0.291c0.147,0.072,0.31,0.105,0.479,0.105c0.219,0,0.424-0.054,0.615-0.16
		c0.192-0.107,0.399-0.283,0.622-0.527V83.764z"/>
	<path fill="#2B3E50" d="M94.991,86.602v-0.603c-0.093,0.194-0.226,0.354-0.4,0.476c-0.174,0.121-0.373,0.18-0.596,0.18
		c-0.162,0-0.312-0.03-0.449-0.094c-0.137-0.063-0.257-0.15-0.356-0.263c-0.101-0.11-0.181-0.243-0.236-0.394
		c-0.057-0.151-0.085-0.314-0.085-0.489v-1.829h0.065v1.829c0,0.171,0.026,0.327,0.082,0.47c0.055,0.143,0.129,0.266,0.227,0.37
		c0.096,0.104,0.208,0.188,0.338,0.245c0.129,0.061,0.268,0.089,0.416,0.089c0.236,0,0.441-0.069,0.619-0.209
		c0.178-0.142,0.303-0.327,0.377-0.563v-2.229h0.066v3.017h-0.067V86.602z"/>
	<path fill="#2B3E50" d="M97.98,86.544c-0.176,0.073-0.365,0.11-0.57,0.11c-0.215,0-0.413-0.039-0.598-0.118
		c-0.184-0.079-0.342-0.188-0.475-0.327c-0.135-0.141-0.238-0.305-0.314-0.495c-0.078-0.188-0.114-0.396-0.114-0.618
		c0-0.226,0.032-0.431,0.103-0.619c0.066-0.19,0.161-0.355,0.284-0.496c0.122-0.141,0.267-0.25,0.431-0.328
		c0.162-0.078,0.342-0.116,0.532-0.116c0.177,0,0.341,0.032,0.492,0.103c0.151,0.066,0.289,0.158,0.406,0.276
		c0.118,0.118,0.215,0.26,0.292,0.424c0.076,0.163,0.126,0.343,0.146,0.532c0.004,0.011,0.006,0.025,0.006,0.047H95.98
		c-0.004,0.029-0.006,0.061-0.006,0.089c0,0.029,0,0.06,0,0.089c0,0.215,0.035,0.411,0.11,0.594
		c0.073,0.181,0.175,0.338,0.302,0.473c0.127,0.133,0.277,0.236,0.452,0.314c0.175,0.076,0.364,0.113,0.57,0.113
		c0.21,0,0.403-0.037,0.579-0.113c0.178-0.078,0.33-0.187,0.457-0.324v0.092C98.311,86.369,98.154,86.469,97.98,86.544z
		 M98.38,84.348c-0.073-0.152-0.166-0.285-0.276-0.396c-0.112-0.111-0.24-0.197-0.386-0.26c-0.146-0.061-0.297-0.092-0.459-0.092
		c-0.161,0-0.313,0.031-0.459,0.092c-0.144,0.063-0.271,0.147-0.383,0.26c-0.112,0.111-0.205,0.244-0.278,0.396
		c-0.074,0.152-0.125,0.32-0.15,0.504h2.543C98.505,84.668,98.454,84.5,98.38,84.348z"/>
	<path fill="#2B3E50" d="M100.938,85.854c0,0.113-0.022,0.219-0.068,0.315c-0.047,0.097-0.109,0.181-0.189,0.252
		c-0.082,0.071-0.176,0.129-0.285,0.171c-0.108,0.041-0.229,0.063-0.354,0.063c-0.235,0-0.438-0.065-0.604-0.197
		c-0.164-0.13-0.263-0.299-0.287-0.504l0.059-0.038c0.018,0.19,0.104,0.353,0.256,0.481c0.153,0.127,0.346,0.191,0.577,0.191
		c0.118,0,0.228-0.02,0.331-0.055c0.104-0.038,0.191-0.09,0.266-0.154c0.075-0.064,0.133-0.145,0.174-0.234
		c0.041-0.088,0.063-0.186,0.063-0.291c0-0.16-0.058-0.285-0.168-0.369c-0.11-0.086-0.248-0.166-0.41-0.24
		c-0.087-0.038-0.174-0.077-0.262-0.117c-0.087-0.039-0.175-0.078-0.263-0.117c-0.084-0.039-0.16-0.08-0.231-0.121
		c-0.072-0.041-0.136-0.09-0.188-0.142c-0.053-0.054-0.094-0.11-0.125-0.179c-0.029-0.063-0.045-0.145-0.045-0.234
		c0-0.111,0.021-0.219,0.064-0.314c0.044-0.096,0.104-0.181,0.182-0.252c0.076-0.072,0.166-0.129,0.271-0.17
		c0.104-0.043,0.219-0.063,0.341-0.063c0.151,0,0.292,0.029,0.417,0.091c0.123,0.062,0.223,0.144,0.298,0.249v0.139
		c-0.065-0.123-0.159-0.223-0.282-0.3c-0.123-0.075-0.267-0.114-0.433-0.114c-0.114,0-0.22,0.02-0.317,0.057
		c-0.1,0.037-0.184,0.089-0.252,0.154c-0.07,0.064-0.125,0.144-0.164,0.231c-0.041,0.09-0.061,0.188-0.061,0.292
		c0,0.162,0.055,0.287,0.161,0.377c0.106,0.089,0.237,0.17,0.39,0.239c0.088,0.038,0.176,0.079,0.264,0.118
		c0.086,0.037,0.174,0.078,0.263,0.117c0.174,0.078,0.319,0.166,0.438,0.258C100.878,85.539,100.938,85.675,100.938,85.854z"/>
</g>
<g>
	<path fill="#2B3E50" d="M-42.91,22.3c-0.275-0.103-0.57-0.153-0.885-0.153c-0.341,0-0.661,0.061-0.961,0.181
		c-0.299,0.118-0.558,0.286-0.776,0.497c-0.218,0.213-0.392,0.462-0.518,0.746c-0.127,0.287-0.19,0.595-0.19,0.922
		c0,0.328,0.063,0.635,0.19,0.922c0.126,0.285,0.3,0.536,0.518,0.747c0.219,0.212,0.478,0.379,0.776,0.499
		c0.3,0.119,0.62,0.18,0.961,0.18c0.332,0,0.641-0.057,0.928-0.171c0.286-0.114,0.541-0.269,0.764-0.465v0.085
		c-0.223,0.197-0.479,0.35-0.768,0.455c-0.288,0.107-0.596,0.16-0.924,0.16c-0.35,0-0.678-0.061-0.983-0.188
		c-0.306-0.123-0.572-0.294-0.8-0.511c-0.227-0.216-0.405-0.472-0.533-0.763c-0.13-0.293-0.195-0.61-0.195-0.952
		c0-0.341,0.065-0.656,0.195-0.95c0.128-0.292,0.307-0.547,0.533-0.764c0.228-0.217,0.494-0.387,0.8-0.512
		c0.306-0.125,0.634-0.188,0.983-0.188c0.314,0,0.608,0.05,0.882,0.148c0.272,0.099,0.521,0.235,0.743,0.414v0.088
		C-42.388,22.546-42.635,22.402-42.91,22.3z"/>
	<path fill="#2B3E50" d="M-39.331,26.852v-1.828c0-0.17-0.026-0.326-0.082-0.469c-0.054-0.142-0.13-0.266-0.226-0.369
		c-0.096-0.105-0.208-0.188-0.335-0.248c-0.126-0.059-0.265-0.088-0.413-0.088c-0.236,0-0.443,0.069-0.622,0.211
		c-0.18,0.14-0.306,0.328-0.38,0.563v2.228h-0.066v-4.72h0.066v2.308c0.092-0.195,0.227-0.354,0.402-0.476
		c0.178-0.118,0.377-0.179,0.6-0.179c0.158,0,0.305,0.029,0.443,0.094c0.137,0.064,0.256,0.15,0.357,0.264
		c0.1,0.11,0.179,0.24,0.235,0.391c0.058,0.148,0.085,0.311,0.085,0.484v1.834H-39.331z"/>
	<path fill="#2B3E50" d="M-38.223,22.662v-0.53h0.065v0.53H-38.223z M-38.223,26.852v-3.016h0.065v3.016H-38.223z"/>
	<path fill="#2B3E50" d="M-32.809,26.852v-1.828c0-0.17-0.027-0.326-0.082-0.469c-0.055-0.142-0.129-0.266-0.226-0.369
		c-0.097-0.105-0.208-0.188-0.335-0.248c-0.127-0.059-0.264-0.088-0.412-0.088c-0.148,0-0.287,0.029-0.417,0.088
		c-0.128,0.061-0.241,0.143-0.337,0.248c-0.097,0.104-0.172,0.229-0.227,0.369c-0.055,0.141-0.082,0.295-0.082,0.463v1.834h-0.065
		v-1.828c0-0.17-0.027-0.326-0.082-0.469c-0.055-0.142-0.13-0.266-0.226-0.369c-0.097-0.105-0.208-0.188-0.335-0.248
		c-0.126-0.059-0.265-0.088-0.413-0.088c-0.236,0-0.443,0.069-0.623,0.211c-0.178,0.14-0.306,0.328-0.38,0.563v2.228h-0.065v-3.016
		h0.065v0.604c0.092-0.195,0.227-0.354,0.403-0.476c0.178-0.118,0.377-0.179,0.6-0.179c0.136,0,0.262,0.021,0.381,0.066
		c0.117,0.047,0.225,0.111,0.32,0.193c0.097,0.084,0.178,0.182,0.243,0.296c0.065,0.113,0.114,0.237,0.144,0.373
		c0.062-0.276,0.191-0.499,0.387-0.672c0.197-0.173,0.434-0.258,0.709-0.258c0.157,0,0.305,0.03,0.441,0.094
		c0.139,0.063,0.258,0.149,0.357,0.263c0.102,0.111,0.18,0.241,0.236,0.391c0.057,0.148,0.086,0.311,0.086,0.484v1.836H-32.809
		L-32.809,26.852z"/>
	<path fill="#2B3E50" d="M-31.7,22.662v-0.53h0.065v0.53H-31.7z M-31.7,26.852v-3.016h0.065v3.016H-31.7z"/>
	<path fill="#2B3E50" d="M-28.711,26.794c-0.176,0.073-0.365,0.11-0.57,0.11c-0.215,0-0.413-0.038-0.597-0.118
		c-0.184-0.079-0.342-0.188-0.476-0.327c-0.133-0.141-0.238-0.305-0.314-0.495c-0.076-0.188-0.115-0.396-0.115-0.618
		c0-0.226,0.034-0.431,0.103-0.619c0.067-0.19,0.163-0.355,0.284-0.496c0.123-0.141,0.266-0.25,0.43-0.328
		c0.164-0.078,0.342-0.116,0.535-0.116c0.174,0,0.338,0.032,0.491,0.103c0.153,0.066,0.288,0.158,0.406,0.276
		c0.118,0.118,0.216,0.26,0.292,0.424c0.076,0.163,0.126,0.343,0.147,0.532c0.005,0.011,0.007,0.025,0.007,0.047h-2.623
		c-0.004,0.029-0.006,0.061-0.006,0.089c0,0.029,0,0.06,0,0.089c0,0.215,0.037,0.411,0.111,0.594
		c0.074,0.181,0.174,0.338,0.301,0.473c0.127,0.133,0.277,0.236,0.453,0.314c0.175,0.076,0.365,0.113,0.57,0.113
		c0.209,0,0.403-0.037,0.58-0.113c0.178-0.078,0.328-0.187,0.455-0.324v0.092C-28.381,26.619-28.536,26.719-28.711,26.794z
		 M-28.311,24.598c-0.074-0.152-0.168-0.285-0.279-0.396c-0.111-0.111-0.239-0.197-0.383-0.26c-0.145-0.061-0.298-0.092-0.459-0.092
		c-0.162,0-0.314,0.031-0.459,0.092c-0.145,0.063-0.272,0.147-0.384,0.26c-0.112,0.111-0.204,0.244-0.278,0.396
		c-0.074,0.152-0.125,0.32-0.15,0.504h2.543C-28.187,24.918-28.236,24.75-28.311,24.598z"/>
</g>
<g>
	<g>
		<g>
			<path fill="#2B3E50" d="M80.249,68.585c-0.836,0-1.517-0.681-1.517-1.517s0.681-1.516,1.517-1.516
				c0.837,0,1.517,0.68,1.517,1.516S81.086,68.585,80.249,68.585z M80.249,65.87c-0.66,0-1.196,0.538-1.196,1.198
				c0,0.662,0.536,1.199,1.196,1.199c0.662,0,1.198-0.537,1.198-1.199C81.447,66.408,80.911,65.87,80.249,65.87z"/>
		</g>
		<g>
			<path fill="#2B3E50" d="M80.249,67.773c-0.388,0-0.703-0.315-0.703-0.705c0-0.389,0.315-0.703,0.703-0.703
				c0.39,0,0.705,0.314,0.705,0.703C80.954,67.458,80.639,67.773,80.249,67.773z M80.249,66.684c-0.213,0-0.386,0.172-0.386,0.385
				c0,0.216,0.173,0.39,0.386,0.39s0.388-0.174,0.388-0.39C80.637,66.855,80.462,66.684,80.249,66.684z"/>
		</g>
		<g>
			<path fill="#2B3E50" d="M80.455,65.902c-0.044,0-0.078-0.014-0.104-0.023h-0.049c-0.025,0.01-0.061,0.023-0.104,0.023
				c-0.071,0-0.135-0.039-0.166-0.104c-0.018-0.035-0.024-0.074-0.024-0.129V63.5c0-0.229,0.138-0.406,0.313-0.406
				c0.188,0,0.324,0.178,0.324,0.406v2.17C80.646,65.896,80.475,65.902,80.455,65.902z M80.325,65.553c0.001,0,0.002,0,0.002,0
				l0.001-2.053c0-0.008-0.001-0.016-0.001-0.021c-0.001,0.006-0.002,0.015-0.002,0.021V65.553z"/>
		</g>
	</g>
	<g>
		
			<rect x="77.488" y="67.876" transform="matrix(-0.9583 -0.2857 0.2857 -0.9583 130.9333 167.0051)" fill="#2B3E50" width="0.318" height="12.154"/>
	</g>
	<g>
		
			<rect x="76.754" y="73.795" transform="matrix(-0.2889 -0.9574 0.9574 -0.2889 35.9558 174.6154)" fill="#2B3E50" width="12.154" height="0.318"/>
	</g>
	<g>
		<path fill="#2B3E50" d="M80.594,74.111c-2.48,0-4.47-1.391-4.498-1.41l0.184-0.26c0.043,0.031,4.33,3.019,8.058,0.006l0.2,0.248
			C83.223,73.756,81.846,74.111,80.594,74.111z"/>
	</g>
</g>
<g>
	
		<rect x="-37.934" y="10.283" transform="matrix(-0.9935 -0.1135 0.1135 -0.9935 -70.361 16.876)" fill="#2B3E50" width="6.468" height="0.318"/>
</g>
<g>
	
		<rect x="-43.069" y="12.185" transform="matrix(-0.46 -0.8879 0.8879 -0.46 -76.3399 -15.5879)" fill="#2B3E50" width="0.318" height="6.467"/>
</g>
<g>
	
		<rect x="-45.981" y="8.975" transform="matrix(-0.4637 -0.886 0.886 -0.4637 -70.6599 -24.5054)" fill="#2B3E50" width="6.467" height="0.318"/>
</g>
<g>
	<path fill="#2B3E50" d="M-37.834,14.079h-2.398l-1.2-2.078l1.2-2.079h2.398l1.2,2.079L-37.834,14.079z M-40.05,13.761h2.032
		l1.018-1.76l-1.018-1.761h-2.032l-1.016,1.761L-40.05,13.761z"/>
</g>
<g>
	<path fill="#2B3E50" d="M-29.199,11.134l-2.393-0.173l-1.046-2.16l1.347-1.984l2.394,0.173l1.046,2.16L-29.199,11.134z
		 M-31.386,10.657l2.026,0.147l1.142-1.682l-0.886-1.83l-2.027-0.147l-1.141,1.682L-31.386,10.657z"/>
</g>
<g>
	<path fill="#2B3E50" d="M-41.152,3.979c0,0.146-0.017,0.278-0.051,0.396c-0.035,0.117-0.086,0.217-0.154,0.299
		c-0.068,0.083-0.155,0.146-0.258,0.19c-0.104,0.044-0.225,0.067-0.362,0.067c-0.136,0-0.254-0.021-0.353-0.062
		c-0.1-0.041-0.182-0.099-0.246-0.177c-0.064-0.077-0.113-0.173-0.145-0.288c-0.031-0.114-0.048-0.246-0.048-0.395
		c0-0.143,0.017-0.272,0.052-0.389c0.034-0.116,0.086-0.215,0.155-0.297c0.069-0.081,0.155-0.145,0.258-0.189
		c0.104-0.044,0.224-0.066,0.362-0.066c0.133,0,0.249,0.02,0.348,0.06c0.099,0.041,0.182,0.099,0.247,0.176
		c0.065,0.077,0.114,0.172,0.146,0.285C-41.168,3.704-41.152,3.833-41.152,3.979z M-41.406,3.997c0-0.103-0.01-0.198-0.027-0.286
		c-0.018-0.088-0.048-0.165-0.091-0.229c-0.042-0.064-0.099-0.115-0.169-0.151c-0.07-0.036-0.158-0.055-0.263-0.055
		s-0.191,0.02-0.263,0.059c-0.07,0.039-0.128,0.091-0.172,0.156c-0.045,0.065-0.076,0.142-0.096,0.229
		c-0.018,0.086-0.028,0.178-0.028,0.274c0,0.107,0.009,0.204,0.026,0.293c0.019,0.09,0.048,0.167,0.09,0.231
		c0.041,0.064,0.098,0.115,0.168,0.151s0.158,0.054,0.265,0.054c0.104,0,0.193-0.019,0.266-0.059
		c0.071-0.039,0.128-0.092,0.173-0.158c0.043-0.066,0.074-0.144,0.094-0.231C-41.416,4.187-41.406,4.095-41.406,3.997z"/>
	<path fill="#2B3E50" d="M-40.152,3.815c0,0.027-0.003,0.047-0.009,0.062c-0.005,0.014-0.015,0.021-0.028,0.021h-0.656
		c-0.01,0-0.02-0.001-0.027-0.003s-0.015-0.005-0.02-0.011c-0.006-0.006-0.01-0.014-0.012-0.024
		c-0.002-0.01-0.003-0.023-0.003-0.039c0-0.015,0.001-0.027,0.002-0.038c0.001-0.01,0.004-0.02,0.008-0.029
		c0.003-0.008,0.009-0.017,0.015-0.025c0.006-0.008,0.014-0.017,0.023-0.027l0.213-0.209c0.047-0.044,0.084-0.085,0.113-0.122
		c0.028-0.037,0.051-0.069,0.066-0.1c0.016-0.029,0.025-0.057,0.03-0.082s0.007-0.049,0.007-0.071c0-0.043-0.015-0.08-0.045-0.108
		c-0.029-0.027-0.072-0.042-0.127-0.042c-0.034,0-0.064,0.005-0.093,0.014c-0.027,0.009-0.052,0.019-0.073,0.029
		c-0.02,0.01-0.038,0.021-0.053,0.029c-0.016,0.01-0.026,0.014-0.033,0.014c-0.004,0-0.008-0.001-0.013-0.004
		c-0.004-0.003-0.007-0.007-0.01-0.015c-0.003-0.007-0.006-0.016-0.007-0.026c-0.002-0.01-0.002-0.024-0.002-0.039
		c0-0.021,0.001-0.037,0.004-0.05c0.002-0.012,0.008-0.023,0.017-0.031c0.009-0.008,0.022-0.019,0.042-0.03
		c0.02-0.012,0.043-0.022,0.07-0.033c0.027-0.009,0.059-0.017,0.092-0.023c0.033-0.007,0.069-0.01,0.106-0.01
		c0.059,0,0.11,0.007,0.154,0.022s0.081,0.035,0.11,0.062c0.028,0.026,0.05,0.058,0.064,0.094c0.015,0.036,0.021,0.075,0.021,0.118
		c0,0.033-0.004,0.065-0.01,0.098c-0.006,0.032-0.02,0.067-0.041,0.107c-0.021,0.039-0.052,0.083-0.092,0.132
		c-0.041,0.048-0.096,0.104-0.163,0.167l-0.148,0.141h0.467c0.011,0,0.021,0.007,0.026,0.021
		C-40.156,3.769-40.152,3.789-40.152,3.815z"/>
</g>
<g>
	<path fill="#2B3E50" d="M-28.797,13.173c0,0.014,0,0.027-0.002,0.039c0,0.011-0.002,0.021-0.004,0.029
		c-0.002,0.008-0.006,0.016-0.01,0.022c-0.004,0.006-0.01,0.014-0.02,0.023c-0.01,0.009-0.028,0.023-0.059,0.043
		c-0.029,0.018-0.066,0.038-0.111,0.056c-0.044,0.018-0.094,0.033-0.152,0.046c-0.057,0.013-0.119,0.019-0.188,0.019
		c-0.117,0-0.223-0.02-0.318-0.058c-0.094-0.04-0.175-0.097-0.241-0.174c-0.067-0.076-0.118-0.171-0.153-0.282
		c-0.037-0.112-0.055-0.241-0.055-0.388c0-0.15,0.02-0.284,0.059-0.401c0.038-0.118,0.094-0.217,0.162-0.299
		c0.07-0.082,0.154-0.144,0.252-0.187c0.097-0.042,0.205-0.064,0.323-0.064c0.052,0,0.103,0.005,0.151,0.015
		c0.05,0.01,0.096,0.022,0.138,0.038c0.042,0.014,0.079,0.032,0.112,0.051c0.031,0.02,0.055,0.036,0.066,0.048
		c0.014,0.013,0.021,0.022,0.025,0.029c0.004,0.006,0.007,0.014,0.009,0.023c0.003,0.009,0.005,0.019,0.005,0.031
		c0.002,0.012,0.003,0.026,0.003,0.043c0,0.018-0.001,0.034-0.003,0.047c-0.002,0.013-0.004,0.023-0.008,0.033
		c-0.004,0.009-0.009,0.015-0.014,0.02c-0.005,0.004-0.012,0.006-0.02,0.006c-0.013,0-0.031-0.009-0.055-0.027
		c-0.023-0.018-0.054-0.038-0.09-0.06c-0.037-0.022-0.082-0.042-0.135-0.061c-0.054-0.018-0.117-0.027-0.191-0.027
		c-0.08,0-0.153,0.016-0.219,0.048s-0.123,0.079-0.17,0.142s-0.083,0.138-0.108,0.229c-0.026,0.089-0.039,0.192-0.039,0.307
		c0,0.115,0.013,0.216,0.036,0.304c0.025,0.088,0.062,0.162,0.107,0.221c0.047,0.059,0.104,0.103,0.171,0.134
		c0.067,0.029,0.144,0.045,0.229,0.045c0.071,0,0.135-0.009,0.188-0.027c0.053-0.018,0.101-0.038,0.138-0.059
		c0.037-0.023,0.068-0.043,0.094-0.061c0.024-0.018,0.043-0.026,0.058-0.026c0.006,0,0.012,0.001,0.017,0.004
		c0.004,0.003,0.008,0.009,0.012,0.016c0.002,0.007,0.004,0.019,0.006,0.033C-28.797,13.132-28.797,13.151-28.797,13.173z"/>
	<path fill="#2B3E50" d="M-26.988,12.503c0,0.146-0.018,0.278-0.053,0.395c-0.034,0.117-0.086,0.218-0.154,0.3
		c-0.068,0.083-0.154,0.146-0.258,0.19s-0.224,0.066-0.361,0.066c-0.137,0-0.254-0.02-0.353-0.06c-0.1-0.041-0.182-0.1-0.246-0.177
		c-0.065-0.077-0.113-0.174-0.146-0.288c-0.031-0.116-0.047-0.247-0.047-0.396c0-0.142,0.018-0.272,0.052-0.388
		c0.034-0.116,0.087-0.215,0.155-0.297s0.155-0.145,0.258-0.188c0.104-0.045,0.225-0.067,0.362-0.067
		c0.134,0,0.249,0.02,0.349,0.061c0.098,0.039,0.18,0.098,0.246,0.174c0.065,0.077,0.114,0.173,0.146,0.286
		C-27.005,12.227-26.988,12.356-26.988,12.503z M-27.243,12.519c0-0.102-0.009-0.198-0.026-0.285
		c-0.019-0.088-0.049-0.165-0.092-0.23c-0.042-0.064-0.099-0.115-0.17-0.152c-0.07-0.036-0.157-0.054-0.262-0.054
		s-0.191,0.02-0.263,0.058c-0.07,0.04-0.128,0.092-0.173,0.157c-0.043,0.065-0.074,0.141-0.094,0.228
		c-0.02,0.087-0.029,0.179-0.029,0.274c0,0.106,0.01,0.205,0.027,0.294c0.018,0.089,0.047,0.167,0.089,0.23
		c0.042,0.065,0.099,0.116,0.168,0.152c0.071,0.035,0.159,0.054,0.265,0.054c0.106,0,0.193-0.02,0.266-0.059
		c0.07-0.039,0.129-0.092,0.173-0.159c0.044-0.067,0.075-0.144,0.094-0.232C-27.252,12.71-27.243,12.617-27.243,12.519z"/>
	<path fill="#2B3E50" d="M-25.989,12.338c0,0.027-0.003,0.048-0.009,0.062c-0.005,0.014-0.015,0.021-0.027,0.021h-0.657
		c-0.01,0-0.019-0.001-0.026-0.003c-0.009-0.001-0.016-0.005-0.021-0.011c-0.005-0.006-0.009-0.013-0.011-0.023
		c-0.002-0.01-0.004-0.023-0.004-0.04c0-0.015,0.001-0.027,0.002-0.038c0.002-0.01,0.004-0.02,0.008-0.029
		c0.004-0.009,0.009-0.017,0.015-0.024c0.007-0.008,0.015-0.018,0.023-0.027l0.214-0.21c0.047-0.045,0.084-0.085,0.112-0.122
		c0.028-0.036,0.05-0.069,0.066-0.099c0.016-0.03,0.026-0.058,0.03-0.083c0.005-0.025,0.008-0.049,0.008-0.071
		c0-0.044-0.016-0.08-0.045-0.108c-0.03-0.028-0.072-0.042-0.127-0.042c-0.035,0-0.065,0.004-0.094,0.014
		c-0.027,0.01-0.051,0.02-0.072,0.029c-0.021,0.011-0.039,0.021-0.054,0.03c-0.015,0.009-0.026,0.014-0.034,0.014
		c-0.003,0-0.007-0.001-0.012-0.004c-0.004-0.003-0.007-0.008-0.01-0.015c-0.002-0.007-0.006-0.016-0.007-0.026
		c-0.001-0.011-0.002-0.023-0.002-0.039c0-0.02,0.001-0.037,0.004-0.049c0.003-0.013,0.009-0.023,0.017-0.032
		c0.009-0.008,0.023-0.019,0.042-0.03c0.021-0.012,0.044-0.022,0.071-0.032c0.027-0.009,0.059-0.018,0.092-0.024
		c0.033-0.006,0.068-0.01,0.105-0.01c0.059,0,0.11,0.007,0.154,0.022c0.045,0.015,0.082,0.035,0.11,0.061
		c0.028,0.026,0.05,0.058,0.064,0.094c0.015,0.037,0.022,0.076,0.022,0.117c0,0.033-0.004,0.065-0.01,0.098
		c-0.006,0.032-0.02,0.068-0.041,0.108c-0.021,0.039-0.053,0.083-0.094,0.132c-0.039,0.048-0.094,0.104-0.162,0.167l-0.148,0.142
		h0.467c0.012,0,0.021,0.007,0.027,0.021C-25.992,12.292-25.989,12.312-25.989,12.338z"/>
</g>
<g>
	<g>
		<path fill="#2B3E50" d="M30.998,25.545H1.874V6.429H31v19.116H30.998z M2.031,25.385h28.811V6.587H2.031V25.385z"/>
	</g>
	<g>
		<g>
			<path fill="#2B3E50" d="M16.438,6.507c-7.806-2.292-12.008,0-12.008,0v17.219c0,0,4.202-2.291,12.008,0"/>
		</g>
		<g>
			<path fill="#2B3E50" d="M16.438,6.507c7.799-2.292,12.004,0,12.004,0v17.219c0,0-4.205-2.291-12.004,0"/>
		</g>
	</g>
</g>
<g>
	<rect x="278.827" y="-5.08" fill="#DDEFF5" width="63.241" height="42.161"/>
</g>
<g>
	<g>
		<path fill="#2B3E50" d="M310.447,20.727c-1.621,0-2.891-3.816-2.891-8.691c0-4.873,1.27-8.69,2.891-8.69s2.893,3.818,2.893,8.69
			C313.34,16.909,312.068,20.727,310.447,20.727z M310.447,3.662c-1.242,0-2.574,3.364-2.574,8.373c0,5.009,1.332,8.373,2.574,8.373
			s2.574-3.363,2.574-8.373C313.021,7.026,311.689,3.662,310.447,3.662z"/>
	</g>
	<g>
		<path fill="#2B3E50" d="M304.902,18.241c-0.563,0-0.975-0.158-1.225-0.47c-1.018-1.264,1.16-4.646,4.955-7.702
			c2.768-2.229,5.656-3.667,7.357-3.667c0.564,0,0.977,0.158,1.227,0.469c0.504,0.626,0.248,1.784-0.727,3.259
			c-0.939,1.426-2.441,3.004-4.23,4.443C309.494,16.801,306.605,18.241,304.902,18.241z M315.992,6.721
			c-1.609,0-4.486,1.445-7.158,3.597c-3.535,2.846-5.781,6.169-4.908,7.254c0.188,0.232,0.516,0.352,0.979,0.352
			c1.609,0,4.486-1.445,7.158-3.596c1.762-1.419,3.24-2.971,4.164-4.371c0.879-1.331,1.148-2.382,0.744-2.885
			C316.781,6.838,316.453,6.721,315.992,6.721z"/>
	</g>
	<g>
		<path fill="#2B3E50" d="M316.25,16.938c-1.766,0-4.52-0.907-7.189-2.367c-4.273-2.339-7.016-5.285-6.236-6.708
			c0.264-0.48,0.893-0.733,1.822-0.733c1.764,0,4.52,0.908,7.189,2.368c4.273,2.338,7.016,5.284,6.236,6.707
			C317.811,16.686,317.182,16.938,316.25,16.938z M304.646,7.448c-0.563,0-1.287,0.098-1.545,0.568
			c-0.596,1.09,1.717,3.873,6.111,6.276c2.625,1.437,5.32,2.328,7.037,2.328c0.563,0,1.287-0.099,1.545-0.567
			c0.596-1.091-1.719-3.873-6.111-6.276C309.059,8.34,306.359,7.448,304.646,7.448z"/>
	</g>
</g>
<g>
	<path fill="#2B3E50" d="M302.404,25.678c0,0.172-0.033,0.334-0.098,0.482c-0.066,0.15-0.156,0.281-0.273,0.39
		c-0.113,0.11-0.25,0.196-0.404,0.261c-0.156,0.063-0.322,0.094-0.502,0.094c-0.166,0-0.32-0.024-0.467-0.078
		c-0.145-0.053-0.271-0.126-0.383-0.223s-0.205-0.207-0.279-0.334c-0.072-0.127-0.121-0.268-0.145-0.42l0.059-0.092
		c0.01,0.152,0.047,0.295,0.113,0.426c0.064,0.131,0.152,0.246,0.262,0.344c0.109,0.099,0.234,0.177,0.377,0.229
		c0.143,0.056,0.297,0.082,0.463,0.082c0.17,0,0.328-0.028,0.479-0.089c0.148-0.059,0.277-0.141,0.387-0.245
		s0.195-0.228,0.256-0.366c0.063-0.141,0.094-0.293,0.094-0.453c0-0.162-0.035-0.299-0.107-0.412
		c-0.068-0.114-0.162-0.215-0.277-0.303c-0.115-0.087-0.246-0.164-0.395-0.232c-0.15-0.067-0.301-0.139-0.453-0.213
		c-0.154-0.069-0.301-0.143-0.441-0.213c-0.143-0.071-0.27-0.152-0.379-0.248c-0.107-0.088-0.195-0.197-0.262-0.319
		c-0.064-0.122-0.098-0.269-0.098-0.438s0.029-0.33,0.092-0.481c0.063-0.15,0.146-0.28,0.256-0.392
		c0.109-0.107,0.236-0.193,0.383-0.258c0.146-0.063,0.303-0.096,0.471-0.096c0.209,0,0.398,0.049,0.57,0.145
		c0.176,0.098,0.314,0.227,0.418,0.389v0.125c-0.096-0.182-0.23-0.323-0.402-0.432c-0.172-0.106-0.369-0.16-0.586-0.16
		c-0.158,0-0.309,0.029-0.447,0.088c-0.141,0.061-0.26,0.143-0.359,0.246c-0.102,0.104-0.182,0.229-0.24,0.371
		c-0.059,0.142-0.088,0.295-0.088,0.455c0,0.162,0.033,0.301,0.1,0.418c0.064,0.114,0.15,0.217,0.258,0.303
		c0.109,0.088,0.229,0.166,0.369,0.234c0.137,0.067,0.275,0.133,0.422,0.199c0.162,0.077,0.318,0.152,0.471,0.225
		c0.154,0.072,0.289,0.154,0.406,0.244c0.119,0.09,0.213,0.193,0.283,0.314C302.369,25.361,302.404,25.509,302.404,25.678z"/>
	<path fill="#2B3E50" d="M304.883,26.861c-0.113,0.029-0.234,0.043-0.361,0.043c-0.213,0-0.412-0.038-0.596-0.118
		c-0.184-0.079-0.342-0.188-0.477-0.327c-0.133-0.141-0.236-0.305-0.313-0.495c-0.076-0.188-0.115-0.396-0.115-0.618
		c0-0.226,0.039-0.431,0.115-0.619c0.076-0.19,0.18-0.355,0.313-0.496c0.135-0.141,0.293-0.25,0.477-0.328s0.383-0.116,0.596-0.116
		c0.219,0,0.426,0.043,0.623,0.13v0.072c-0.09-0.045-0.189-0.077-0.295-0.102c-0.104-0.025-0.215-0.037-0.328-0.037
		c-0.205,0-0.395,0.039-0.57,0.114c-0.174,0.077-0.324,0.183-0.451,0.315c-0.127,0.134-0.229,0.289-0.301,0.472
		c-0.074,0.181-0.111,0.38-0.111,0.595c0,0.213,0.037,0.41,0.111,0.592c0.072,0.182,0.174,0.34,0.301,0.474
		c0.127,0.133,0.277,0.237,0.451,0.313c0.178,0.076,0.365,0.114,0.57,0.114c0.25,0,0.477-0.058,0.684-0.171v0.08
		C305.104,26.795,304.996,26.834,304.883,26.861z"/>
	<path fill="#2B3E50" d="M305.859,22.662v-0.53h0.064v0.53H305.859z M305.859,26.852v-3.016h0.064v3.016H305.859z"/>
	<path fill="#2B3E50" d="M308.85,26.794c-0.174,0.073-0.365,0.11-0.57,0.11c-0.215,0-0.412-0.038-0.598-0.118
		c-0.184-0.079-0.342-0.188-0.477-0.327c-0.133-0.141-0.236-0.305-0.313-0.495c-0.076-0.188-0.115-0.396-0.115-0.618
		c0-0.226,0.035-0.431,0.104-0.619c0.066-0.19,0.162-0.355,0.285-0.496c0.121-0.141,0.266-0.25,0.43-0.328s0.342-0.116,0.533-0.116
		c0.176,0,0.34,0.032,0.49,0.103c0.154,0.066,0.289,0.158,0.406,0.276c0.119,0.118,0.217,0.26,0.293,0.424
		c0.076,0.163,0.125,0.343,0.146,0.532c0.006,0.011,0.008,0.025,0.008,0.047h-2.623c-0.004,0.029-0.006,0.061-0.006,0.089
		c0,0.029,0,0.06,0,0.089c0,0.215,0.037,0.411,0.109,0.594c0.074,0.181,0.176,0.338,0.303,0.473
		c0.127,0.133,0.277,0.236,0.451,0.314c0.178,0.076,0.365,0.113,0.57,0.113c0.211,0,0.404-0.037,0.58-0.113
		c0.178-0.078,0.33-0.187,0.457-0.324v0.092C309.18,26.619,309.023,26.719,308.85,26.794z M309.248,24.598
		c-0.072-0.152-0.166-0.285-0.277-0.396s-0.24-0.197-0.383-0.26c-0.146-0.061-0.299-0.092-0.461-0.092
		c-0.16,0-0.313,0.031-0.459,0.092c-0.145,0.063-0.271,0.147-0.383,0.26c-0.111,0.111-0.205,0.244-0.279,0.396
		c-0.072,0.152-0.123,0.32-0.148,0.504h2.543C309.373,24.918,309.322,24.75,309.248,24.598z"/>
	<path fill="#2B3E50" d="M312.408,26.852v-1.828c0-0.17-0.027-0.326-0.082-0.469c-0.055-0.142-0.131-0.266-0.227-0.369
		c-0.096-0.105-0.207-0.188-0.334-0.248c-0.127-0.059-0.266-0.088-0.412-0.088c-0.236,0-0.445,0.069-0.625,0.211
		c-0.178,0.14-0.305,0.328-0.379,0.563v2.228h-0.066v-3.016h0.066v0.604c0.092-0.195,0.225-0.354,0.402-0.476
		c0.176-0.118,0.377-0.179,0.602-0.179c0.156,0,0.303,0.029,0.441,0.094c0.137,0.064,0.256,0.15,0.355,0.264
		c0.102,0.11,0.18,0.24,0.236,0.391c0.057,0.148,0.086,0.311,0.086,0.484v1.834H312.408z"/>
	<path fill="#2B3E50" d="M315.188,26.861c-0.111,0.029-0.232,0.043-0.359,0.043c-0.215,0-0.412-0.038-0.598-0.118
		c-0.182-0.079-0.342-0.188-0.475-0.327c-0.135-0.141-0.238-0.305-0.314-0.495c-0.076-0.188-0.115-0.396-0.115-0.618
		c0-0.226,0.039-0.431,0.115-0.619c0.076-0.19,0.182-0.355,0.314-0.496s0.293-0.25,0.475-0.328c0.186-0.078,0.383-0.116,0.598-0.116
		c0.219,0,0.426,0.043,0.623,0.13v0.072c-0.092-0.045-0.189-0.077-0.295-0.102c-0.105-0.025-0.215-0.037-0.328-0.037
		c-0.205,0-0.395,0.039-0.57,0.114c-0.176,0.077-0.324,0.183-0.453,0.315c-0.125,0.134-0.227,0.289-0.301,0.472
		c-0.074,0.181-0.111,0.38-0.111,0.595c0,0.213,0.037,0.41,0.111,0.592s0.176,0.34,0.301,0.474c0.129,0.133,0.277,0.237,0.453,0.313
		s0.365,0.114,0.57,0.114c0.248,0,0.477-0.058,0.682-0.171v0.08C315.408,26.795,315.303,26.834,315.188,26.861z"/>
	<path fill="#2B3E50" d="M318.047,26.794c-0.176,0.073-0.365,0.11-0.57,0.11c-0.215,0-0.412-0.038-0.598-0.118
		c-0.184-0.079-0.342-0.188-0.477-0.327c-0.133-0.141-0.236-0.305-0.313-0.495c-0.076-0.188-0.115-0.396-0.115-0.618
		c0-0.226,0.033-0.431,0.102-0.619c0.068-0.19,0.162-0.355,0.287-0.496c0.121-0.141,0.266-0.25,0.43-0.328
		c0.162-0.078,0.342-0.116,0.531-0.116c0.178,0,0.34,0.032,0.492,0.103c0.154,0.066,0.289,0.158,0.406,0.276
		c0.119,0.118,0.217,0.26,0.293,0.424c0.076,0.163,0.125,0.343,0.146,0.532c0.006,0.011,0.006,0.025,0.006,0.047h-2.621
		c-0.004,0.029-0.008,0.061-0.008,0.089c0,0.029,0,0.06,0,0.089c0,0.215,0.037,0.411,0.111,0.594
		c0.074,0.181,0.176,0.338,0.303,0.473c0.127,0.133,0.277,0.236,0.451,0.314c0.176,0.076,0.365,0.113,0.57,0.113
		c0.211,0,0.402-0.037,0.58-0.113c0.178-0.078,0.33-0.187,0.457-0.324v0.092C318.375,26.619,318.221,26.719,318.047,26.794z
		 M318.445,24.598c-0.074-0.152-0.166-0.285-0.277-0.396s-0.238-0.197-0.385-0.26c-0.145-0.061-0.297-0.092-0.459-0.092
		s-0.313,0.031-0.459,0.092c-0.145,0.063-0.271,0.147-0.383,0.26c-0.111,0.111-0.205,0.244-0.279,0.396
		c-0.072,0.152-0.125,0.32-0.15,0.504h2.545C318.57,24.918,318.521,24.75,318.445,24.598z"/>
	<path fill="#2B3E50" d="M321.004,26.104c0,0.113-0.023,0.219-0.07,0.315c-0.045,0.097-0.109,0.181-0.189,0.252
		c-0.082,0.071-0.176,0.129-0.285,0.171c-0.107,0.041-0.227,0.063-0.354,0.063c-0.236,0-0.438-0.065-0.604-0.197
		c-0.166-0.13-0.262-0.299-0.289-0.504l0.061-0.038c0.018,0.19,0.104,0.353,0.256,0.481c0.152,0.127,0.344,0.191,0.576,0.191
		c0.119,0,0.229-0.02,0.33-0.055c0.104-0.038,0.193-0.09,0.268-0.154c0.072-0.064,0.133-0.145,0.174-0.234
		c0.041-0.088,0.063-0.186,0.063-0.291c0-0.16-0.057-0.285-0.168-0.369c-0.111-0.086-0.248-0.166-0.408-0.24
		c-0.088-0.038-0.176-0.077-0.264-0.117c-0.086-0.039-0.174-0.078-0.262-0.118c-0.084-0.038-0.16-0.079-0.232-0.12
		s-0.135-0.09-0.188-0.142c-0.053-0.054-0.094-0.11-0.125-0.179c-0.029-0.063-0.045-0.145-0.045-0.234
		c0-0.111,0.021-0.219,0.064-0.314s0.104-0.181,0.18-0.252c0.076-0.072,0.168-0.129,0.273-0.17c0.104-0.043,0.217-0.063,0.34-0.063
		c0.152,0,0.293,0.029,0.416,0.091c0.125,0.062,0.225,0.144,0.299,0.249v0.139c-0.064-0.123-0.16-0.223-0.281-0.3
		c-0.123-0.075-0.268-0.114-0.434-0.114c-0.113,0-0.219,0.02-0.318,0.057c-0.098,0.037-0.182,0.089-0.252,0.154
		c-0.068,0.064-0.125,0.144-0.164,0.231c-0.039,0.09-0.059,0.188-0.059,0.292c0,0.162,0.053,0.287,0.16,0.377
		c0.105,0.089,0.236,0.17,0.391,0.239c0.088,0.038,0.176,0.079,0.262,0.118c0.088,0.037,0.176,0.078,0.264,0.117
		c0.174,0.078,0.32,0.166,0.438,0.258C320.943,25.789,321.004,25.925,321.004,26.104z"/>
</g>
<g>
	<rect x="352.922" y="-5.08" fill="#DDEFF5" width="63.24" height="42.161"/>
</g>
<g>
	<path fill="#2B3E50" d="M368.352,26.852v-4.641l-2.078,2.568h-0.014l-2.078-2.568v4.641h-0.066v-4.72h0.086l2.066,2.552
		l2.063-2.552h0.086v4.72H368.352z"/>
	<path fill="#2B3E50" d="M371.779,26.852v-0.603c-0.213,0.231-0.418,0.397-0.609,0.501s-0.402,0.154-0.631,0.154
		c-0.184,0-0.352-0.037-0.508-0.11c-0.154-0.075-0.289-0.179-0.4-0.31c-0.115-0.131-0.203-0.287-0.268-0.469
		c-0.063-0.182-0.096-0.382-0.096-0.6c0-0.236,0.043-0.455,0.125-0.652c0.084-0.199,0.199-0.371,0.348-0.515
		c0.148-0.146,0.322-0.259,0.525-0.343c0.199-0.082,0.42-0.122,0.654-0.122c0.148,0,0.297,0.015,0.441,0.045
		c0.146,0.03,0.309,0.075,0.482,0.138v2.885H371.779L371.779,26.852z M371.779,24.014c-0.162-0.057-0.311-0.099-0.445-0.125
		c-0.137-0.025-0.273-0.039-0.412-0.039c-0.229,0-0.439,0.039-0.635,0.119c-0.193,0.077-0.361,0.188-0.502,0.327
		c-0.139,0.14-0.25,0.306-0.33,0.494c-0.082,0.19-0.121,0.399-0.121,0.627c0,0.21,0.031,0.401,0.092,0.576
		c0.063,0.176,0.146,0.325,0.254,0.448c0.105,0.125,0.234,0.223,0.383,0.291c0.148,0.072,0.309,0.105,0.479,0.105
		c0.219,0,0.426-0.054,0.615-0.16c0.193-0.107,0.4-0.283,0.623-0.527V24.014L371.779,24.014z"/>
	<path fill="#2B3E50" d="M373.471,23.9v2.033c0,0.131,0.021,0.25,0.064,0.36c0.045,0.108,0.105,0.204,0.182,0.284
		c0.076,0.082,0.168,0.146,0.271,0.189c0.105,0.047,0.217,0.069,0.334,0.069c0.035,0,0.063-0.002,0.078-0.007v0.072h-0.078
		c-0.131,0-0.252-0.025-0.363-0.074c-0.109-0.053-0.207-0.118-0.287-0.205c-0.082-0.084-0.146-0.186-0.193-0.305
		c-0.047-0.117-0.072-0.246-0.072-0.387v-2.033h-0.846v-0.064h0.846v-1.01h0.064v1.01h0.879v0.064h-0.879V23.9z"/>
	<path fill="#2B3E50" d="M377.188,26.852v-1.828c0-0.17-0.027-0.326-0.082-0.469c-0.053-0.142-0.129-0.266-0.225-0.369
		c-0.098-0.105-0.209-0.188-0.336-0.248c-0.127-0.059-0.266-0.088-0.412-0.088c-0.236,0-0.443,0.069-0.623,0.211
		c-0.18,0.14-0.307,0.328-0.381,0.563v2.228h-0.064v-4.72h0.064v2.308c0.092-0.195,0.227-0.354,0.402-0.476
		c0.178-0.118,0.377-0.179,0.602-0.179c0.156,0,0.305,0.029,0.441,0.094c0.139,0.064,0.258,0.15,0.357,0.264
		c0.1,0.11,0.18,0.24,0.236,0.391c0.057,0.148,0.084,0.311,0.084,0.484v1.834H377.188z"/>
	<path fill="#2B3E50" d="M380.178,26.794c-0.176,0.073-0.365,0.11-0.57,0.11c-0.215,0-0.414-0.038-0.598-0.118
		c-0.184-0.079-0.342-0.188-0.477-0.327c-0.133-0.141-0.236-0.305-0.313-0.495c-0.076-0.188-0.115-0.396-0.115-0.618
		c0-0.226,0.033-0.431,0.104-0.619c0.066-0.19,0.16-0.355,0.283-0.496s0.266-0.25,0.432-0.328c0.164-0.078,0.342-0.116,0.531-0.116
		c0.176,0,0.342,0.032,0.492,0.103c0.154,0.066,0.289,0.158,0.406,0.276c0.119,0.118,0.215,0.26,0.291,0.424
		c0.078,0.163,0.127,0.343,0.148,0.532c0.006,0.011,0.006,0.025,0.006,0.047h-2.621c-0.004,0.029-0.006,0.061-0.006,0.089
		c0,0.029,0,0.06,0,0.089c0,0.215,0.035,0.411,0.109,0.594c0.074,0.181,0.174,0.338,0.303,0.473
		c0.127,0.133,0.277,0.236,0.451,0.314c0.176,0.076,0.365,0.113,0.57,0.113c0.211,0,0.404-0.037,0.58-0.113
		c0.178-0.078,0.328-0.187,0.457-0.324v0.092C380.508,26.619,380.352,26.719,380.178,26.794z M380.576,24.598
		c-0.072-0.152-0.168-0.285-0.277-0.396c-0.111-0.111-0.238-0.197-0.385-0.26c-0.145-0.061-0.297-0.092-0.459-0.092
		c-0.16,0-0.314,0.031-0.459,0.092c-0.145,0.063-0.271,0.147-0.383,0.26c-0.113,0.111-0.205,0.244-0.279,0.396
		c-0.072,0.152-0.125,0.32-0.148,0.504h2.543C380.701,24.918,380.65,24.75,380.576,24.598z M379.338,23.385h-0.084l0.895-1.188h0.08
		L379.338,23.385z"/>
	<path fill="#2B3E50" d="M385.92,26.852v-1.828c0-0.17-0.027-0.326-0.082-0.469c-0.055-0.142-0.129-0.266-0.227-0.369
		c-0.096-0.105-0.207-0.188-0.334-0.248c-0.127-0.059-0.266-0.088-0.414-0.088s-0.287,0.029-0.416,0.088
		c-0.129,0.061-0.242,0.143-0.338,0.248c-0.096,0.104-0.172,0.229-0.227,0.369s-0.082,0.295-0.082,0.463v1.834h-0.064v-1.828
		c0-0.17-0.027-0.326-0.082-0.469c-0.055-0.142-0.131-0.266-0.227-0.369c-0.096-0.105-0.207-0.188-0.334-0.248
		c-0.127-0.059-0.266-0.088-0.414-0.088c-0.236,0-0.443,0.069-0.621,0.211c-0.18,0.14-0.307,0.328-0.381,0.563v2.228h-0.066v-3.016
		h0.066v0.604c0.092-0.195,0.227-0.354,0.402-0.476c0.178-0.118,0.377-0.179,0.6-0.179c0.137,0,0.264,0.021,0.381,0.066
		c0.117,0.047,0.227,0.111,0.32,0.193c0.098,0.084,0.178,0.182,0.244,0.296c0.064,0.113,0.113,0.237,0.145,0.373
		c0.061-0.276,0.189-0.499,0.387-0.672s0.434-0.258,0.707-0.258c0.158,0,0.307,0.03,0.443,0.094s0.256,0.149,0.355,0.263
		c0.102,0.111,0.18,0.241,0.236,0.391c0.057,0.148,0.084,0.311,0.084,0.484v1.836H385.92L385.92,26.852z"/>
	<path fill="#2B3E50" d="M389.348,26.852v-0.603c-0.213,0.231-0.416,0.397-0.609,0.501c-0.191,0.104-0.4,0.154-0.629,0.154
		c-0.184,0-0.354-0.037-0.508-0.11c-0.154-0.075-0.289-0.179-0.402-0.31s-0.203-0.287-0.266-0.469
		c-0.064-0.182-0.096-0.382-0.096-0.6c0-0.236,0.041-0.455,0.125-0.652c0.082-0.199,0.197-0.371,0.348-0.515
		c0.146-0.146,0.322-0.259,0.523-0.343c0.201-0.082,0.42-0.122,0.656-0.122c0.146,0,0.295,0.015,0.441,0.045s0.307,0.075,0.48,0.138
		v2.885H389.348L389.348,26.852z M389.348,24.014c-0.16-0.057-0.311-0.099-0.445-0.125c-0.135-0.025-0.271-0.039-0.412-0.039
		c-0.229,0-0.438,0.039-0.633,0.119c-0.195,0.077-0.361,0.188-0.502,0.327s-0.25,0.306-0.332,0.494
		c-0.08,0.19-0.119,0.399-0.119,0.627c0,0.21,0.029,0.401,0.09,0.576c0.063,0.176,0.146,0.325,0.254,0.448
		c0.105,0.125,0.234,0.223,0.383,0.291c0.148,0.072,0.309,0.105,0.479,0.105c0.219,0,0.426-0.054,0.617-0.16
		c0.191-0.107,0.4-0.283,0.623-0.527v-2.137H389.348z"/>
	<path fill="#2B3E50" d="M391.039,23.9v2.033c0,0.131,0.021,0.25,0.064,0.36c0.045,0.108,0.105,0.204,0.182,0.284
		c0.076,0.082,0.166,0.146,0.271,0.189c0.104,0.047,0.217,0.069,0.334,0.069c0.035,0,0.063-0.002,0.078-0.007v0.072h-0.078
		c-0.131,0-0.252-0.025-0.363-0.074c-0.111-0.053-0.207-0.118-0.289-0.205c-0.082-0.084-0.145-0.186-0.193-0.305
		c-0.047-0.117-0.07-0.246-0.07-0.387v-2.033h-0.846v-0.064h0.846v-1.01h0.064v1.01h0.879v0.064h-0.879V23.9z"/>
	<path fill="#2B3E50" d="M392.633,22.662v-0.53h0.064v0.53H392.633z M392.633,26.852v-3.016h0.064v3.016H392.633z"/>
	<path fill="#2B3E50" d="M396.061,28.445v-2.196c-0.213,0.231-0.416,0.397-0.609,0.501c-0.191,0.104-0.4,0.154-0.629,0.154
		c-0.184,0-0.354-0.037-0.508-0.11c-0.156-0.075-0.289-0.179-0.402-0.31s-0.203-0.287-0.266-0.469s-0.096-0.382-0.096-0.6
		c0-0.236,0.041-0.455,0.125-0.652c0.082-0.199,0.197-0.371,0.346-0.515c0.15-0.146,0.324-0.258,0.525-0.343
		c0.199-0.082,0.42-0.122,0.654-0.122c0.15,0,0.297,0.015,0.443,0.045c0.145,0.03,0.307,0.075,0.48,0.138v4.479H396.061z
		 M396.061,24.014c-0.16-0.057-0.311-0.099-0.445-0.125c-0.135-0.025-0.271-0.039-0.414-0.039c-0.227,0-0.438,0.039-0.631,0.119
		c-0.193,0.077-0.361,0.188-0.502,0.327s-0.25,0.306-0.332,0.494c-0.08,0.19-0.121,0.399-0.121,0.627
		c0,0.21,0.031,0.401,0.094,0.576c0.061,0.176,0.145,0.325,0.252,0.448c0.105,0.125,0.234,0.223,0.383,0.291
		c0.148,0.072,0.309,0.105,0.479,0.105c0.221,0,0.424-0.054,0.617-0.16c0.191-0.107,0.4-0.283,0.623-0.527v-2.137H396.061z"/>
	<path fill="#2B3E50" d="M399.293,26.852v-0.603c-0.092,0.194-0.227,0.354-0.4,0.476s-0.373,0.18-0.596,0.18
		c-0.162,0-0.313-0.03-0.449-0.094s-0.256-0.15-0.357-0.263c-0.1-0.112-0.18-0.243-0.234-0.394
		c-0.059-0.151-0.086-0.314-0.086-0.489v-1.829h0.064v1.829c0,0.171,0.027,0.327,0.082,0.469c0.055,0.144,0.131,0.267,0.227,0.371
		s0.211,0.188,0.34,0.245c0.127,0.061,0.266,0.089,0.414,0.089c0.234,0,0.441-0.069,0.621-0.209
		c0.176-0.142,0.301-0.327,0.375-0.563v-2.229h0.066v3.017h-0.066V26.852z"/>
	<path fill="#2B3E50" d="M402.281,26.794c-0.176,0.073-0.363,0.11-0.57,0.11c-0.215,0-0.412-0.038-0.596-0.118
		c-0.184-0.079-0.344-0.188-0.477-0.327c-0.133-0.141-0.238-0.305-0.314-0.495c-0.076-0.188-0.113-0.396-0.113-0.618
		c0-0.226,0.033-0.431,0.102-0.619c0.066-0.19,0.162-0.355,0.285-0.496s0.264-0.25,0.43-0.328c0.164-0.078,0.342-0.116,0.533-0.116
		c0.176,0,0.34,0.032,0.492,0.103c0.152,0.066,0.289,0.158,0.406,0.276s0.215,0.26,0.291,0.424c0.076,0.163,0.127,0.343,0.146,0.532
		c0.006,0.011,0.008,0.025,0.008,0.047h-2.623c-0.004,0.029-0.006,0.061-0.006,0.089c0,0.029,0,0.06,0,0.089
		c0,0.215,0.037,0.411,0.111,0.594c0.072,0.181,0.174,0.338,0.301,0.473c0.127,0.133,0.279,0.236,0.453,0.314
		c0.174,0.076,0.365,0.113,0.568,0.113c0.213,0,0.404-0.037,0.58-0.113c0.18-0.078,0.33-0.187,0.457-0.324v0.092
		C402.611,26.619,402.457,26.719,402.281,26.794z M402.682,24.598c-0.074-0.152-0.168-0.285-0.277-0.396
		c-0.111-0.111-0.24-0.197-0.385-0.26c-0.143-0.061-0.297-0.092-0.459-0.092s-0.314,0.031-0.459,0.092
		c-0.145,0.063-0.271,0.147-0.383,0.26c-0.111,0.111-0.205,0.244-0.279,0.396s-0.125,0.32-0.15,0.504h2.543
		C402.807,24.918,402.756,24.75,402.682,24.598z"/>
	<path fill="#2B3E50" d="M405.238,26.104c0,0.113-0.023,0.219-0.068,0.315s-0.109,0.181-0.191,0.252
		c-0.08,0.071-0.174,0.129-0.283,0.171c-0.109,0.041-0.229,0.063-0.354,0.063c-0.236,0-0.438-0.065-0.604-0.197
		c-0.166-0.13-0.262-0.299-0.289-0.504l0.061-0.038c0.018,0.19,0.104,0.353,0.256,0.481c0.154,0.127,0.346,0.191,0.578,0.191
		c0.117,0,0.227-0.02,0.33-0.055c0.102-0.038,0.189-0.09,0.266-0.154c0.074-0.064,0.131-0.145,0.174-0.234
		c0.041-0.088,0.063-0.186,0.063-0.291c0-0.16-0.057-0.285-0.168-0.369c-0.111-0.086-0.248-0.166-0.41-0.24
		c-0.088-0.038-0.174-0.077-0.262-0.117c-0.088-0.039-0.176-0.078-0.264-0.118c-0.082-0.038-0.16-0.079-0.23-0.12
		c-0.072-0.041-0.137-0.09-0.189-0.142c-0.053-0.054-0.094-0.11-0.123-0.179c-0.029-0.063-0.047-0.145-0.047-0.234
		c0-0.111,0.023-0.219,0.066-0.314s0.104-0.181,0.182-0.252c0.074-0.072,0.166-0.129,0.271-0.17c0.104-0.043,0.217-0.063,0.34-0.063
		c0.152,0,0.291,0.029,0.416,0.091s0.225,0.144,0.299,0.249v0.139c-0.064-0.123-0.16-0.223-0.283-0.3
		c-0.121-0.075-0.266-0.114-0.432-0.114c-0.113,0-0.221,0.02-0.318,0.057c-0.1,0.037-0.182,0.089-0.252,0.154
		c-0.07,0.064-0.125,0.144-0.164,0.231c-0.039,0.09-0.059,0.188-0.059,0.292c0,0.162,0.053,0.287,0.16,0.377
		c0.105,0.089,0.236,0.17,0.391,0.239c0.088,0.038,0.174,0.079,0.262,0.118c0.088,0.037,0.176,0.078,0.264,0.117
		c0.174,0.078,0.32,0.166,0.438,0.258C405.18,25.789,405.238,25.925,405.238,26.104z"/>
</g>
<g>
	<rect x="426.385" y="-5.08" fill="#DDEFF5" width="63.24" height="42.161"/>
</g>
<g>
	<path fill="#2B3E50" d="M450.926,22.3c-0.275-0.103-0.57-0.153-0.885-0.153c-0.342,0-0.66,0.061-0.961,0.181
		c-0.299,0.118-0.559,0.286-0.775,0.497c-0.219,0.213-0.393,0.462-0.52,0.746c-0.127,0.287-0.189,0.595-0.189,0.922
		c0,0.328,0.063,0.635,0.189,0.922c0.127,0.285,0.301,0.536,0.52,0.747c0.219,0.212,0.477,0.379,0.775,0.499
		c0.301,0.119,0.619,0.18,0.961,0.18c0.332,0,0.643-0.057,0.928-0.171c0.287-0.114,0.541-0.269,0.764-0.465v0.085
		c-0.223,0.197-0.479,0.35-0.768,0.455c-0.287,0.107-0.596,0.16-0.924,0.16c-0.35,0-0.678-0.061-0.982-0.188
		c-0.307-0.123-0.574-0.294-0.801-0.511c-0.229-0.216-0.404-0.472-0.533-0.763c-0.131-0.293-0.195-0.61-0.195-0.952
		c0-0.341,0.064-0.656,0.195-0.95c0.129-0.292,0.307-0.547,0.533-0.764s0.494-0.387,0.801-0.512
		c0.305-0.125,0.633-0.188,0.982-0.188c0.314,0,0.607,0.05,0.881,0.148s0.521,0.235,0.744,0.414v0.088
		C451.447,22.546,451.201,22.402,450.926,22.3z"/>
	<path fill="#2B3E50" d="M454.506,26.852v-1.828c0-0.17-0.027-0.326-0.082-0.469c-0.057-0.142-0.131-0.266-0.227-0.369
		c-0.098-0.105-0.209-0.188-0.336-0.248c-0.127-0.059-0.264-0.088-0.412-0.088c-0.234,0-0.443,0.069-0.623,0.211
		c-0.18,0.14-0.307,0.328-0.381,0.563v2.228h-0.064v-4.72h0.064v2.308c0.092-0.195,0.229-0.354,0.404-0.476
		c0.178-0.118,0.377-0.179,0.6-0.179c0.156,0,0.307,0.029,0.443,0.094s0.256,0.15,0.355,0.264c0.102,0.11,0.18,0.24,0.236,0.391
		c0.059,0.148,0.086,0.311,0.086,0.484v1.834H454.506z"/>
	<path fill="#2B3E50" d="M455.611,22.662v-0.53h0.066v0.53H455.611z M455.611,26.852v-3.016h0.066v3.016H455.611z"/>
	<path fill="#2B3E50" d="M461.027,26.852v-1.828c0-0.17-0.027-0.326-0.082-0.469c-0.055-0.142-0.131-0.266-0.227-0.369
		c-0.098-0.105-0.207-0.188-0.334-0.248c-0.127-0.059-0.266-0.088-0.412-0.088c-0.15,0-0.289,0.029-0.418,0.088
		c-0.127,0.061-0.24,0.143-0.338,0.248c-0.096,0.104-0.17,0.229-0.227,0.369c-0.055,0.141-0.082,0.295-0.082,0.463v1.834h-0.064
		v-1.828c0-0.17-0.027-0.326-0.082-0.469c-0.055-0.142-0.131-0.266-0.227-0.369c-0.096-0.105-0.207-0.188-0.334-0.248
		c-0.127-0.059-0.266-0.088-0.414-0.088c-0.234,0-0.441,0.069-0.621,0.211c-0.18,0.14-0.307,0.328-0.381,0.563v2.228h-0.066v-3.016
		h0.066v0.604c0.094-0.195,0.227-0.354,0.402-0.476c0.178-0.118,0.377-0.179,0.6-0.179c0.137,0,0.264,0.021,0.383,0.066
		c0.115,0.047,0.225,0.111,0.318,0.193c0.098,0.084,0.178,0.182,0.244,0.296c0.064,0.113,0.113,0.237,0.145,0.373
		c0.061-0.276,0.189-0.499,0.387-0.672s0.432-0.258,0.709-0.258c0.156,0,0.305,0.03,0.441,0.094
		c0.139,0.063,0.256,0.149,0.357,0.263c0.1,0.111,0.178,0.241,0.234,0.391c0.057,0.148,0.086,0.311,0.086,0.484v1.836H461.027
		L461.027,26.852z"/>
	<path fill="#2B3E50" d="M462.137,22.662v-0.53h0.064v0.53H462.137z M462.137,26.852v-3.016h0.064v3.016H462.137z"/>
	<path fill="#2B3E50" d="M465.125,26.794c-0.176,0.073-0.365,0.11-0.57,0.11c-0.213,0-0.412-0.038-0.598-0.118
		c-0.184-0.079-0.342-0.188-0.475-0.327c-0.133-0.141-0.238-0.305-0.314-0.495c-0.076-0.188-0.113-0.396-0.113-0.618
		c0-0.226,0.031-0.431,0.102-0.619c0.066-0.19,0.162-0.355,0.283-0.496c0.123-0.141,0.266-0.25,0.432-0.328
		c0.162-0.078,0.342-0.116,0.533-0.116c0.174,0,0.34,0.032,0.492,0.103c0.152,0.066,0.289,0.158,0.406,0.276s0.215,0.26,0.291,0.424
		c0.074,0.163,0.125,0.343,0.146,0.532c0.006,0.011,0.006,0.025,0.006,0.047h-2.621c-0.004,0.029-0.006,0.061-0.006,0.089
		c0,0.029,0,0.06,0,0.089c0,0.215,0.037,0.411,0.111,0.594c0.074,0.181,0.174,0.338,0.301,0.473
		c0.127,0.133,0.277,0.236,0.453,0.314c0.174,0.076,0.363,0.113,0.568,0.113c0.211,0,0.404-0.037,0.582-0.113
		c0.176-0.078,0.328-0.187,0.455-0.324v0.092C465.455,26.619,465.301,26.719,465.125,26.794z M465.523,24.598
		c-0.074-0.152-0.166-0.285-0.277-0.396s-0.238-0.197-0.385-0.26c-0.143-0.061-0.297-0.092-0.459-0.092s-0.313,0.031-0.457,0.092
		c-0.145,0.063-0.271,0.147-0.385,0.26c-0.111,0.111-0.205,0.244-0.279,0.396c-0.072,0.152-0.123,0.32-0.148,0.504h2.543
		C465.648,24.918,465.6,24.75,465.523,24.598z"/>
</g>
<g>
	<g>
		<g>
			<path fill="#2B3E50" d="M384.551,8.835c-0.836,0-1.518-0.68-1.518-1.516s0.682-1.517,1.518-1.517
				c0.838,0,1.518,0.681,1.518,1.517C386.066,8.155,385.389,8.835,384.551,8.835z M384.551,6.12c-0.66,0-1.197,0.538-1.197,1.199
				c0,0.661,0.537,1.199,1.197,1.199c0.662,0,1.197-0.538,1.197-1.199C385.748,6.658,385.213,6.12,384.551,6.12z"/>
		</g>
		<g>
			<path fill="#2B3E50" d="M384.551,8.024c-0.389,0-0.703-0.316-0.703-0.706c0-0.388,0.314-0.704,0.703-0.704
				s0.705,0.316,0.705,0.704C385.256,7.708,384.939,8.024,384.551,8.024z M384.551,6.933c-0.213,0-0.387,0.173-0.387,0.386
				c0,0.214,0.174,0.388,0.387,0.388c0.215,0,0.387-0.174,0.387-0.388C384.938,7.106,384.766,6.933,384.551,6.933z"/>
		</g>
		<g>
			<path fill="#2B3E50" d="M384.758,6.153c-0.043,0-0.08-0.015-0.105-0.025h-0.049c-0.068,0.028-0.219,0.025-0.27-0.08
				c-0.018-0.034-0.025-0.075-0.025-0.128V3.75c0-0.228,0.139-0.405,0.313-0.405c0.189,0,0.324,0.178,0.324,0.405v2.17
				C384.945,6.146,384.775,6.153,384.758,6.153z M384.627,5.802C384.629,5.802,384.629,5.802,384.627,5.802l0.002-2.053
				c0-0.007,0-0.015,0-0.021c0,0.006-0.002,0.013-0.002,0.021V5.802z"/>
		</g>
	</g>
	<g>
		
			<rect x="381.803" y="8.125" transform="matrix(-0.9583 -0.2857 0.2857 -0.9583 743.9515 136.9211)" fill="#2B3E50" width="0.318" height="12.153"/>
	</g>
	<g>
		
			<rect x="381.047" y="14.038" transform="matrix(-0.2886 -0.9574 0.9574 -0.2886 485.2729 388.9402)" fill="#2B3E50" width="12.153" height="0.318"/>
	</g>
	<g>
		<path fill="#2B3E50" d="M384.896,14.361c-2.482,0-4.469-1.389-4.5-1.41l0.184-0.259c0.045,0.031,4.332,3.018,8.059,0.006
			l0.201,0.247C387.523,14.006,386.146,14.361,384.896,14.361z"/>
	</g>
</g>
<g>
	
		<rect x="455.889" y="10.272" transform="matrix(-0.9935 -0.1136 0.1136 -0.9935 914.0876 72.9608)" fill="#2B3E50" width="6.468" height="0.318"/>
</g>
<g>
	
		<rect x="450.774" y="12.182" transform="matrix(-0.4613 -0.8872 0.8872 -0.4613 645.2733 422.6117)" fill="#2B3E50" width="0.318" height="6.466"/>
</g>
<g>
	
		<rect x="447.832" y="8.991" transform="matrix(-0.4636 -0.886 0.886 -0.4636 652.0714 413.056)" fill="#2B3E50" width="6.467" height="0.318"/>
</g>
<g>
	<path fill="#2B3E50" d="M456.002,14.079h-2.398l-1.199-2.078l1.199-2.079h2.398l1.199,2.079L456.002,14.079z M453.787,13.761h2.031
		l1.016-1.76l-1.016-1.761h-2.031l-1.018,1.761L453.787,13.761z"/>
</g>
<g>
	<path fill="#2B3E50" d="M464.637,11.134l-2.393-0.173l-1.047-2.16l1.348-1.984l2.393,0.173l1.047,2.16L464.637,11.134z
		 M462.449,10.657l2.027,0.147l1.139-1.682l-0.885-1.83l-2.025-0.147l-1.143,1.682L462.449,10.657z"/>
</g>
<g>
	<path fill="#2B3E50" d="M452.686,3.979c0,0.146-0.018,0.278-0.053,0.396c-0.035,0.117-0.086,0.217-0.154,0.299
		c-0.07,0.083-0.154,0.146-0.258,0.19c-0.105,0.044-0.227,0.067-0.361,0.067c-0.137,0-0.254-0.021-0.354-0.062
		c-0.102-0.041-0.184-0.099-0.246-0.177c-0.066-0.077-0.113-0.173-0.146-0.288c-0.029-0.114-0.047-0.246-0.047-0.395
		c0-0.143,0.02-0.272,0.051-0.389c0.035-0.116,0.086-0.215,0.156-0.297c0.068-0.081,0.154-0.145,0.258-0.189
		c0.105-0.044,0.227-0.066,0.363-0.066c0.133,0,0.248,0.02,0.348,0.06c0.1,0.041,0.182,0.099,0.246,0.176
		c0.066,0.077,0.113,0.172,0.146,0.285C452.668,3.704,452.686,3.833,452.686,3.979z M452.43,3.997c0-0.103-0.01-0.198-0.027-0.286
		s-0.047-0.165-0.09-0.229s-0.1-0.115-0.17-0.151s-0.158-0.055-0.262-0.055c-0.105,0-0.191,0.02-0.264,0.059
		c-0.07,0.039-0.129,0.091-0.172,0.156c-0.045,0.065-0.076,0.142-0.096,0.229c-0.02,0.086-0.029,0.178-0.029,0.274
		c0,0.107,0.01,0.204,0.027,0.293c0.018,0.09,0.047,0.167,0.09,0.231c0.041,0.064,0.098,0.115,0.168,0.151s0.158,0.054,0.264,0.054
		s0.193-0.019,0.268-0.059c0.068-0.039,0.129-0.092,0.172-0.158s0.076-0.144,0.094-0.231C452.42,4.187,452.43,4.095,452.43,3.997z"
		/>
	<path fill="#2B3E50" d="M453.684,3.815c0,0.027-0.004,0.047-0.008,0.062c-0.006,0.014-0.018,0.021-0.029,0.021h-0.656
		c-0.01,0-0.02-0.001-0.027-0.003s-0.014-0.005-0.02-0.011c-0.006-0.006-0.01-0.014-0.012-0.024
		c-0.002-0.01-0.004-0.023-0.004-0.039c0-0.015,0.002-0.027,0.004-0.038c0-0.01,0.002-0.02,0.008-0.029
		c0.002-0.008,0.008-0.017,0.014-0.025c0.008-0.008,0.016-0.017,0.023-0.027l0.213-0.209c0.047-0.044,0.084-0.085,0.113-0.122
		c0.027-0.037,0.051-0.069,0.066-0.1c0.016-0.029,0.025-0.057,0.029-0.082c0.006-0.025,0.008-0.049,0.008-0.071
		c0-0.043-0.016-0.08-0.045-0.108c-0.031-0.027-0.072-0.042-0.127-0.042c-0.035,0-0.066,0.005-0.094,0.014
		c-0.027,0.009-0.051,0.019-0.072,0.029c-0.021,0.01-0.039,0.021-0.053,0.029c-0.018,0.01-0.027,0.014-0.035,0.014
		c-0.004,0-0.008-0.001-0.012-0.004c-0.004-0.003-0.008-0.007-0.012-0.015c-0.002-0.007-0.004-0.016-0.006-0.026
		c-0.002-0.01-0.002-0.024-0.002-0.039c0-0.021,0.002-0.037,0.004-0.05c0.002-0.012,0.01-0.023,0.018-0.031
		c0.01-0.008,0.021-0.019,0.041-0.03c0.021-0.012,0.045-0.022,0.07-0.033c0.027-0.009,0.061-0.017,0.092-0.023
		c0.033-0.007,0.07-0.01,0.105-0.01c0.061,0,0.111,0.007,0.154,0.022c0.045,0.015,0.082,0.035,0.109,0.062
		c0.029,0.026,0.053,0.058,0.066,0.094c0.014,0.036,0.021,0.075,0.021,0.118c0,0.033-0.006,0.065-0.012,0.098
		c-0.006,0.032-0.02,0.067-0.041,0.107c-0.02,0.039-0.053,0.083-0.094,0.132c-0.039,0.048-0.094,0.104-0.162,0.167l-0.146,0.141
		h0.467c0.012,0,0.02,0.007,0.025,0.021C453.68,3.769,453.684,3.789,453.684,3.815z"/>
</g>
<g>
	<path fill="#2B3E50" d="M465.037,13.173c0,0.014,0,0.027,0,0.039c-0.002,0.011-0.002,0.021-0.006,0.029
		c-0.002,0.008-0.006,0.016-0.008,0.022c-0.004,0.007-0.012,0.014-0.021,0.023c-0.01,0.009-0.027,0.023-0.059,0.043
		c-0.029,0.018-0.066,0.038-0.111,0.056c-0.043,0.018-0.094,0.033-0.15,0.046c-0.059,0.013-0.121,0.019-0.189,0.019
		c-0.115,0-0.223-0.02-0.316-0.058c-0.094-0.04-0.176-0.097-0.24-0.174c-0.068-0.076-0.119-0.171-0.154-0.282
		c-0.037-0.112-0.055-0.241-0.055-0.388c0-0.15,0.02-0.284,0.059-0.401c0.037-0.118,0.094-0.217,0.162-0.299
		c0.07-0.082,0.154-0.144,0.252-0.187c0.098-0.042,0.203-0.064,0.322-0.064c0.053,0,0.105,0.005,0.152,0.015
		c0.051,0.01,0.096,0.022,0.137,0.038c0.043,0.014,0.08,0.032,0.111,0.051c0.033,0.02,0.057,0.036,0.068,0.048
		c0.014,0.013,0.021,0.022,0.023,0.029c0.004,0.006,0.008,0.014,0.01,0.023c0.002,0.009,0.004,0.019,0.006,0.031
		s0.002,0.026,0.002,0.043c0,0.018,0,0.034-0.004,0.047c-0.002,0.013-0.004,0.023-0.008,0.033c-0.004,0.009-0.008,0.015-0.012,0.02
		c-0.006,0.004-0.014,0.006-0.021,0.006c-0.014,0-0.031-0.009-0.055-0.027s-0.055-0.038-0.09-0.06
		c-0.037-0.022-0.082-0.042-0.137-0.061c-0.053-0.018-0.115-0.027-0.189-0.027c-0.08,0-0.154,0.016-0.221,0.048
		c-0.064,0.032-0.121,0.079-0.168,0.142s-0.084,0.138-0.109,0.229c-0.025,0.089-0.039,0.192-0.039,0.307
		c0,0.115,0.014,0.216,0.037,0.304s0.061,0.162,0.105,0.221c0.049,0.059,0.105,0.103,0.172,0.134
		c0.066,0.029,0.145,0.045,0.229,0.045c0.072,0,0.135-0.009,0.189-0.027c0.053-0.018,0.1-0.038,0.137-0.059
		c0.039-0.023,0.07-0.043,0.094-0.061c0.025-0.018,0.043-0.026,0.059-0.026c0.006,0,0.014,0.001,0.018,0.004
		s0.008,0.009,0.012,0.016c0.002,0.007,0.004,0.019,0.006,0.033C465.037,13.132,465.037,13.151,465.037,13.173z"/>
	<path fill="#2B3E50" d="M466.848,12.503c0,0.146-0.02,0.278-0.053,0.395s-0.088,0.218-0.154,0.3
		c-0.068,0.083-0.154,0.146-0.258,0.19s-0.225,0.066-0.361,0.066s-0.254-0.02-0.354-0.06c-0.1-0.041-0.182-0.1-0.246-0.177
		c-0.064-0.077-0.111-0.174-0.145-0.288c-0.033-0.116-0.047-0.247-0.047-0.396c0-0.142,0.016-0.272,0.051-0.388
		c0.033-0.116,0.086-0.215,0.154-0.297s0.156-0.145,0.26-0.188c0.104-0.045,0.225-0.067,0.361-0.067c0.133,0,0.25,0.02,0.348,0.061
		c0.1,0.039,0.182,0.098,0.246,0.174c0.066,0.077,0.115,0.173,0.146,0.286C466.83,12.227,466.848,12.356,466.848,12.503z
		 M466.592,12.519c0-0.102-0.008-0.198-0.025-0.285c-0.02-0.088-0.049-0.165-0.092-0.23c-0.043-0.064-0.098-0.115-0.17-0.152
		c-0.07-0.036-0.158-0.054-0.262-0.054c-0.105,0-0.191,0.02-0.264,0.058c-0.068,0.04-0.129,0.092-0.172,0.157
		c-0.045,0.065-0.076,0.141-0.096,0.228c-0.02,0.087-0.027,0.179-0.027,0.274c0,0.106,0.008,0.205,0.025,0.294
		s0.047,0.167,0.09,0.23c0.041,0.065,0.098,0.116,0.168,0.152c0.07,0.035,0.158,0.054,0.264,0.054c0.107,0,0.193-0.02,0.268-0.059
		c0.07-0.039,0.129-0.092,0.172-0.159c0.043-0.067,0.076-0.144,0.094-0.232C466.584,12.71,466.592,12.617,466.592,12.519z"/>
	<path fill="#2B3E50" d="M467.846,12.338c0,0.027-0.002,0.048-0.008,0.062c-0.006,0.014-0.016,0.021-0.027,0.021h-0.658
		c-0.008,0-0.02-0.001-0.025-0.003c-0.008-0.001-0.016-0.005-0.02-0.011c-0.006-0.006-0.01-0.013-0.012-0.023
		c-0.004-0.01-0.004-0.023-0.004-0.04c0-0.015,0-0.027,0.002-0.038c0.002-0.01,0.004-0.02,0.008-0.029
		c0.004-0.009,0.008-0.017,0.014-0.024c0.008-0.008,0.016-0.018,0.023-0.027l0.215-0.21c0.045-0.045,0.084-0.085,0.111-0.122
		c0.027-0.036,0.051-0.069,0.066-0.099c0.016-0.03,0.025-0.058,0.031-0.083c0.004-0.025,0.006-0.049,0.006-0.071
		c0-0.044-0.016-0.08-0.045-0.108c-0.029-0.028-0.072-0.042-0.127-0.042c-0.035,0-0.064,0.004-0.092,0.014
		c-0.027,0.01-0.053,0.02-0.072,0.029c-0.021,0.011-0.041,0.021-0.055,0.03c-0.016,0.009-0.027,0.014-0.035,0.014
		c-0.002,0-0.006-0.001-0.012-0.004c-0.004-0.003-0.008-0.008-0.01-0.015c-0.004-0.007-0.006-0.016-0.008-0.026
		c0-0.011,0-0.023,0-0.039c0-0.02,0-0.037,0.004-0.049c0.002-0.013,0.008-0.023,0.018-0.032c0.008-0.009,0.02-0.019,0.041-0.03
		c0.02-0.012,0.045-0.022,0.07-0.032c0.027-0.009,0.059-0.018,0.092-0.024c0.033-0.006,0.068-0.01,0.105-0.01
		c0.061,0,0.111,0.007,0.154,0.022c0.045,0.015,0.082,0.035,0.109,0.061c0.029,0.026,0.051,0.058,0.064,0.094
		c0.014,0.037,0.021,0.076,0.021,0.117c0,0.033-0.004,0.065-0.01,0.098c-0.006,0.032-0.02,0.068-0.041,0.108
		c-0.021,0.039-0.053,0.083-0.094,0.132c-0.041,0.048-0.096,0.104-0.162,0.167l-0.146,0.142h0.467c0.01,0,0.02,0.007,0.025,0.021
		C467.838,12.293,467.846,12.312,467.846,12.338z"/>
</g>
<g>
	<g>
		<rect x="167.104" y="1400.879" fill="#DDEFF5" width="198.984" height="132.656"/>
		<g>
			<path fill="none" stroke="#2B3E50" stroke-miterlimit="10" d="M275.193,1454.73c0,14.824-3.848,26.844-8.6,26.844
				c-4.746,0-8.595-12.02-8.595-26.844c0-14.828,3.849-26.846,8.595-26.846C271.346,1427.885,275.193,1439.902,275.193,1454.73z"/>
			
				<ellipse transform="matrix(0.779 -0.6271 0.6271 0.779 -853.9056 488.9045)" fill="none" stroke="#2B3E50" stroke-miterlimit="10" cx="266.532" cy="1455.672" rx="26.845" ry="8.598"/>
			<path fill="none" stroke="#2B3E50" stroke-miterlimit="10" d="M262.471,1462.271c-13.006-7.115-21.703-16.26-19.426-20.426
				c2.28-4.166,14.671-1.773,27.682,5.34c13.004,7.115,21.701,16.26,19.424,20.426
				C287.872,1471.777,275.479,1469.389,262.471,1462.271z"/>
		</g>
		<text transform="matrix(1 0 0 1 232.543 1501.3516)" fill="#2B3E50" font-family="'ArialMT'" font-size="20.6266">Sciences</text>
		<rect x="400.24" y="1400.879" fill="#DDEFF5" width="198.984" height="132.656"/>
		<g>
			<text transform="matrix(1 0 0 1 433.7695 1501.3516)" fill="#2B3E50" font-family="'ArialMT'" font-size="20.6266">Mathmatiques</text>
		</g>
		<rect x="631.385" y="1400.879" fill="#DDEFF5" width="198.986" height="132.656"/>
		<g>
			<text transform="matrix(1 0 0 1 696.8242 1501.3516)" fill="#2B3E50" font-family="'ArialMT'" font-size="20.6266">Chimie</text>
		</g>
		<rect x="864.52" y="1400.879" fill="#DDEFF5" width="198.986" height="132.656"/>
		<g>
			<g>
				<circle fill="none" stroke="#2B3E50" stroke-miterlimit="10" cx="499.758" cy="1439.893" r="4.271"/>
				<circle fill="none" stroke="#2B3E50" stroke-miterlimit="10" cx="499.758" cy="1439.894" r="1.716"/>
				<path fill="none" stroke="#2B3E50" stroke-miterlimit="10" d="M500.504,1435.492c0,0.432-0.217,0.127-0.48,0.127h-0.041
					c-0.266,0-0.482,0.305-0.482-0.127v-6.832c0-0.426,0.217-0.775,0.482-0.775h0.041c0.266,0,0.48,0.35,0.48,0.775V1435.492z"/>
			</g>
			<line fill="none" stroke="#2B3E50" stroke-miterlimit="10" x1="486.068" y1="1479.855" x2="497.107" y2="1443.242"/>
			<line fill="none" stroke="#2B3E50" stroke-miterlimit="10" x1="513.396" y1="1479.855" x2="502.355" y2="1443.242"/>
			<path fill="none" stroke="#2B3E50" stroke-miterlimit="10" d="M486.977,1457.203c0,0,13.785,9.838,25.955,0"/>
		</g>
		<line fill="none" stroke="#2B3E50" stroke-miterlimit="10" x1="744.537" y1="1450.871" x2="724.32" y2="1448.561"/>
		<line fill="none" stroke="#2B3E50" stroke-miterlimit="10" x1="717.621" y1="1460.66" x2="699.594" y2="1470.1"/>
		<line fill="none" stroke="#2B3E50" stroke-miterlimit="10" x1="713.828" y1="1454.623" x2="704.393" y2="1436.594"/>
		<polygon fill="none" stroke="#2B3E50" stroke-miterlimit="10" points="717.313,1460.66 713.828,1454.623 717.313,1448.582 
			724.285,1448.582 727.771,1454.623 724.285,1460.66 		"/>
		<polygon fill="none" stroke="#2B3E50" stroke-miterlimit="10" points="745.412,1438.828 752.367,1439.332 755.404,1445.607 
			751.49,1451.377 744.537,1450.871 741.498,1444.596 		"/>
		<text transform="matrix(1 0 0 1 708.6113 1432.2959)" fill="#2B3E50" font-family="'Calibri'" font-size="9.0046">O</text>
		<text transform="matrix(1 0 0 1 748.4531 1459.1133)" fill="#2B3E50" font-family="'Calibri'" font-size="9.0046">CO</text>
		<g>
			<text transform="matrix(1 0 0 1 934.373 1501.3516)" fill="#2B3E50" font-family="'ArialMT'" font-size="20.6266">Franais</text>
		</g>
		<g>
			
				<rect x="941.229" y="1442.072" fill="none" stroke="#2B3E50" stroke-width="0.25" stroke-miterlimit="10" width="45.572" height="29.824"/>
			<g>
				<path fill="#2B3E50" d="M964.014,1442.07c-12.277-3.604-18.889,0-18.889,0v27.092c0,0,6.609-3.604,18.889,0"/>
				<path fill="#2B3E50" d="M964.014,1442.07c12.273-3.604,18.889,0,18.889,0v27.092c0,0-6.613-3.604-18.889,0"/>
			</g>
		</g>
	</g>
	<rect x="1091.592" y="1400.879" fill="#DDEFF5" width="198.984" height="132.656"/>
	<g>
		<ellipse fill="none" stroke="#2B3E50" stroke-miterlimit="10" cx="1191.086" cy="1454.73" rx="8.598" ry="26.844"/>
		<path fill="none" stroke="#2B3E50" stroke-miterlimit="10" d="M1196.475,1462.33c-11.547,9.295-23.322,13.834-26.301,10.139
			c-2.98-3.701,3.973-14.236,15.518-23.531c11.551-9.297,23.326-13.838,26.303-10.141
			C1214.975,1442.496,1208.023,1453.033,1196.475,1462.33z"/>
		
			<ellipse transform="matrix(0.8773 0.48 -0.48 0.8773 844.4438 -393.1594)" fill="none" stroke="#2B3E50" stroke-miterlimit="10" cx="1191.024" cy="1454.686" rx="26.847" ry="8.599"/>
	</g>
	<text transform="matrix(1 0 0 1 1157.0313 1501.3516)" fill="#2B3E50" font-family="'ArialMT'" font-size="20.6266">Sciences</text>
	<rect x="1324.729" y="1400.879" fill="#DDEFF5" width="198.984" height="132.656"/>
	<g>
		<text transform="matrix(1 0 0 1 1358.2568 1501.3516)" fill="#2B3E50" font-family="'ArialMT'" font-size="20.6266">Mathmatiques</text>
	</g>
	<rect x="1555.871" y="1400.879" fill="#DDEFF5" width="198.984" height="132.656"/>
	<g>
		<text transform="matrix(1 0 0 1 1621.3125 1501.3516)" fill="#2B3E50" font-family="'ArialMT'" font-size="20.6266">Chimie</text>
	</g>
	<g>
		<g>
			<circle fill="none" stroke="#2B3E50" stroke-miterlimit="10" cx="1424.244" cy="1439.893" r="4.271"/>
			<circle fill="none" stroke="#2B3E50" stroke-miterlimit="10" cx="1424.244" cy="1439.893" r="1.717"/>
			<path fill="none" stroke="#2B3E50" stroke-miterlimit="10" d="M1424.99,1435.492c0,0.432-0.217,0.127-0.48,0.127h-0.039
				c-0.268,0-0.484,0.305-0.484-0.127v-6.832c0-0.426,0.217-0.775,0.484-0.775h0.039c0.266,0,0.48,0.35,0.48,0.775V1435.492z"/>
		</g>
		<line fill="none" stroke="#2B3E50" stroke-miterlimit="10" x1="1410.557" y1="1479.855" x2="1421.598" y2="1443.242"/>
		<line fill="none" stroke="#2B3E50" stroke-miterlimit="10" x1="1437.885" y1="1479.855" x2="1426.844" y2="1443.242"/>
		<path fill="none" stroke="#2B3E50" stroke-miterlimit="10" d="M1411.465,1457.203c0,0,13.785,9.838,25.953,0"/>
	</g>
	<line fill="none" stroke="#2B3E50" stroke-miterlimit="10" x1="1669.025" y1="1450.871" x2="1648.809" y2="1448.561"/>
	<line fill="none" stroke="#2B3E50" stroke-miterlimit="10" x1="1642.107" y1="1460.66" x2="1624.082" y2="1470.1"/>
	<line fill="none" stroke="#2B3E50" stroke-miterlimit="10" x1="1638.314" y1="1454.623" x2="1628.879" y2="1436.594"/>
	<polygon fill="none" stroke="#2B3E50" stroke-miterlimit="10" points="1641.803,1460.66 1638.314,1454.623 1641.803,1448.582 
		1648.771,1448.582 1652.26,1454.623 1648.771,1460.66 	"/>
	<polygon fill="none" stroke="#2B3E50" stroke-miterlimit="10" points="1669.898,1438.828 1676.854,1439.332 1679.893,1445.607 
		1675.979,1451.377 1669.025,1450.871 1665.982,1444.596 	"/>
	<text transform="matrix(1 0 0 1 1633.0986 1432.2959)" fill="#2B3E50" font-family="'Calibri'" font-size="9.0046">O</text>
	<text transform="matrix(1 0 0 1 1672.9395 1459.1133)" fill="#2B3E50" font-family="'Calibri'" font-size="9.0046">CO</text>
</g>
</svg>
