<?xml version="1.0" encoding="utf-8"?>
<!-- Generator: Adobe Illustrator 22.1.0, SVG Export Plug-In . SVG Version: 6.00 Build 0)  -->
<svg version="1.1" id="Calque_1" xmlns="http://www.w3.org/2000/svg" xmlns:xlink="http://www.w3.org/1999/xlink" x="0px" y="0px"
	 viewBox="0 0 35.6 32" style="enable-background:new 0 0 35.6 32;" xml:space="preserve">
<style type="text/css">
	.st0{display:none;}
	.st1{display:inline;fill:#435264;}
	.st2{display:inline;fill:none;}
	.st3{display:inline;fill:#7F98C2;}
	.st4{display:inline;fill:#FEFEFE;}
	.st5{display:inline;}
	.st6{fill:#435264;}
	.st7{display:inline;fill:none;stroke:#435264;stroke-width:1.1533;stroke-miterlimit:10;}
</style>
<g id="Calque_1_1_" class="st0">
	<path class="st1" d="M24.9,31.8c-1.1,0-2.2,0.1-3.2,0c-1.8,0-3.5-0.1-5.3-0.2c-0.6,0-1.2-0.1-1.9-0.2c-0.3-0.1-0.5,0.1-0.6,0.4
		c-0.1,0.3-0.1,0.3-0.4,0.3c-0.8,0-1.5,0-2.3,0c-0.5,0-0.7-0.1-0.7-0.6c0-0.3-0.2-0.6-0.5-0.7c-0.6-0.1-0.8-0.6-1-1.1
		c-0.3-0.8-0.3-1.7-0.4-2.5c-0.1-1-0.1-2,0-3.1c0.2-1.6,0.6-3.2,1.2-4.7c0.2-0.5,0.4-0.9,0.6-1.4c0.2,0.1,0.4,0.3,0.5,0.5
		c0,0.1,0,0.1,0,0.2c-0.1,0.1-0.1,0.1-0.2,0c-0.1-0.1-0.2-0.2-0.1-0.3c0,0,0.1-0.1,0-0.1s-0.1,0-0.1,0.1c-0.1,0.1-0.1,0.3,0.1,0.4
		c0.1,0.1,0.3,0.2,0.4,0.1c0.1-0.1,0.2-0.2,0.1-0.4c-0.1-0.2-0.3-0.4-0.6-0.5c0.3-0.8,0.8-1.6,1.2-2.5c0.7-1.4,1.5-2.8,2.3-4.1
		c0.3-0.6,0.4-1.2,0.6-1.8c0.1-0.4,0.2-0.9,0.4-1.4c0.2-0.4,0.5-0.6,1-0.7c0.4,0,0.9-0.1,1.3,0c0.4,0.1,0.6,0.3,0.7,0.7
		c0.1,0.5,0.2,1.1,0.3,1.6c0,0.2,0.1,0.2,0.3,0.2c2.4-0.1,4.7-0.1,7.1-0.1c0.4,0,0.8,0,1.2,0.1c0.1,0,0.2,0,0.2-0.2
		c0.1-0.6,0.2-1.1,0.4-1.7c0.1-0.3,0.3-0.6,0.6-0.6c0.5-0.1,1.1-0.1,1.6,0s0.7,0.5,0.9,0.9c0.2,0.6,0.3,1.2,0.5,1.8
		c0.1,0.5,0.3,1,0.6,1.5c1.5,2.5,2.9,5,3.9,7.7c0.9,2.3,1.4,4.6,1.2,7.1c-0.1,1.1-0.1,2.2-0.5,3.3c-0.2,0.5-0.4,0.9-1,1.1
		c-0.3,0.1-0.5,0.3-0.5,0.6c-0.1,0.6-0.2,0.7-0.8,0.7c-0.7,0-1.5,0-2.2,0c-0.4,0-0.4,0-0.5-0.4c-0.1-0.3-0.2-0.4-0.6-0.4
		c-1.6,0.2-3.2,0.3-4.8,0.3c-0.2,0-0.3,0-0.5,0c0-0.1-0.1-0.2,0.1-0.3c0.1,0,0,0.2,0.1,0.2s0.1-0.2,0-0.3c0-0.1-0.1-0.1-0.2,0
		c-0.2,0.1-0.2,0.3-0.1,0.5c-0.1,0-0.2,0-0.2,0C25,31.8,25,31.8,24.9,31.8z M11.7,31c0.2,0.6,1.1,0.9,1.8,0.6
		c0.5-0.3,0.8-0.7,0.8-1.3c0.1,0,0.2,0,0.3,0c0,0.4-0.1,0.7-0.3,1c0,0,0,0.1,0,0.2c0.1,0,0.1,0,0.2-0.1c0.3-0.3,0.4-0.6,0.4-1
		c0.1,0,0.2,0,0.3,0c1.9,0.2,3.8,0.3,5.6,0.3c2.3,0.1,4.5,0,6.8-0.1c0.9-0.1,1.9-0.1,2.8-0.3c0.5-0.1,1,0,1.4,0.4
		c0.3,0.4,0.6,0.4,1,0.4c0.2,0,0.4,0,0.5,0s0.2,0,0.2-0.2c0.2-0.4,0.4-0.8,0.8-0.9c0.5-0.2,0.6-0.5,0.7-0.9c0-0.1,0-0.2,0.1-0.3
		c0.1-0.6,0.1-1.2,0.2-1.8c0.1-1.1,0.1-2.2-0.1-3.3c-0.3-1.7-0.8-3.3-1.5-4.9c-0.9-2.1-2.1-4.2-3.2-6.2c-0.3-0.5-0.6-1-0.8-1.6
		c-0.1-0.6-0.3-1.1-0.4-1.7c-0.2-0.6,0-0.5-0.7-0.5c-0.1,0-0.2,0-0.2,0.2c-0.1,0.7-0.3,1.5-0.5,2.2c0,0.2-0.1,0.3-0.3,0.2
		c-1.3-0.1-2.7-0.1-4-0.2c-2.1,0-4.1,0-6.2,0.2c-0.2,0-0.2,0-0.2-0.2c-0.1-0.7-0.3-1.3-0.4-2c-0.1-0.5-0.1-0.5-0.6-0.5
		c-0.2,0-0.3,0.1-0.3,0.3c-0.1,0.6-0.3,1.3-0.5,1.9c-0.1,0.3-0.2,0.6-0.3,0.9c-0.4,0.7-0.9,1.5-1.3,2.2c-0.5,0.9-1,1.9-1.5,2.8
		c-0.4,0-0.5,0.1-0.5,0.4c0,0.1,0.1,0.2,0.2,0.2c-0.1,0.2-0.2,0.3-0.2,0.5c-0.1,0-0.3,0-0.3-0.1s-0.1-0.2,0.1-0.2
		c0.1,0,0,0.1,0.1,0.2c0,0.1,0.1,0.1,0.1,0s0.1-0.2,0-0.3c-0.1-0.1-0.2,0-0.3,0.1s-0.1,0.2-0.1,0.4c0,0,0.1,0,0.3,0
		c0,0.2-0.2,0.4-0.3,0.6c-0.3,0.7-0.6,1.4-0.9,2.2c-0.7,2-1,4-0.8,6.1c0.1,0.9,0.1,1.8,0.4,2.6c0,0.1,0.1,0.2,0.3,0.3
		c0.5,0.2,0.9,0.4,1.1,0.9C11.6,30.8,11.6,30.9,11.7,31z M26.4,31.2c-0.1,0-0.1,0-0.2,0c-0.1,0-0.2,0-0.3-0.1c0-0.1,0-0.2,0-0.2
		c0.1-0.1,0.2,0,0.3,0c0.1,0.1,0.1,0.1,0.2,0.2h0.1c0,0,0,0,0-0.1c-0.1-0.1-0.2-0.3-0.4-0.3s-0.3,0.1-0.3,0.2c0,0.2,0.1,0.4,0.3,0.4
		C26.2,31.4,26.4,31.4,26.4,31.2z M11.3,18.5c0-0.1-0.1-0.2-0.2-0.3C11,18.1,11,18.1,11,18s0.1-0.1,0-0.1S10.9,18,10.9,18
		C10.9,18.2,11.1,18.4,11.3,18.5z"/>
	<path class="st1" d="M12.1,1.7c0.5-0.2,1.1-0.3,1.6-0.4c0.2,0.2,0.4,0.3,0.6,0.5c0.1,0.2,0.2,0.4,0.3,0.5c-0.1,0-0.2,0.1-0.4,0.1
		c-0.3-0.8-1.1-1.1-1.7-0.6c-0.3,0.3-0.3,0.7-0.1,1c-0.1,0.1-0.3,0.1-0.4,0.1c-0.1-0.2-0.1-0.5-0.1-0.7C11.9,2,12.1,1.8,12.1,1.7z"
		/>
	<path class="st1" d="M12.1,1.7c0,0.2-0.2,0.4-0.2,0.6s0,0.5,0.1,0.7c-0.1,0-0.3,0-0.4,0.1c-0.2-0.4-0.2-0.8-0.1-1.2
		C11.7,1.7,11.9,1.7,12.1,1.7z"/>
	<path class="st1" d="M14.6,2.3c-0.2-0.2-0.2-0.4-0.3-0.5c-0.2-0.2-0.4-0.3-0.6-0.5c0.2-0.1,0.4-0.1,0.6-0.1
		c0.3,0.3,0.6,0.6,0.6,1.1C14.7,2.3,14.7,2.3,14.6,2.3z"/>
	<path class="st1" d="M10.4,18c0.2,0.1,0.4,0.3,0.6,0.5c0.1,0.2,0,0.3-0.1,0.4c-0.2,0.1-0.3,0-0.4-0.1c-0.1-0.1-0.2-0.2-0.1-0.4
		l0.1-0.1c0.1,0,0,0.1,0,0.1c-0.1,0.2,0,0.2,0.1,0.3c0.1,0,0.1,0,0.2,0c0.1-0.1,0.1-0.1,0-0.2c-0.1-0.2-0.3-0.4-0.5-0.5
		C10.3,18.1,10.3,18.1,10.4,18z"/>
	<path class="st1" d="M25.3,31.8c-0.1-0.2-0.1-0.4,0.1-0.5c0.1,0,0.2-0.1,0.2,0s0.1,0.3,0,0.3c-0.1,0.1-0.1-0.1-0.1-0.2
		c-0.1,0.1,0,0.2-0.1,0.3C25.4,31.9,25.3,31.8,25.3,31.8z"/>
	<path class="st1" d="M24.9,31.8L24.9,31.8C25,31.8,25,31.8,24.9,31.8z"/>
	<path class="st1" d="M11.7,31c0.2,0,0.4,0,0.6,0c0.2,0.3,0.6,0.4,1,0.3s0.6-0.4,0.6-0.7c0-0.1,0-0.2,0-0.3c0.1-0.1,0.2-0.1,0.4-0.1
		c0.1,0.6-0.2,1.1-0.8,1.3C12.8,31.9,11.9,31.6,11.7,31z"/>
	<path class="st1" d="M14.5,30.2c0.1,0,0.2,0,0.3,0c0,0.4-0.2,0.7-0.4,1c0,0-0.1,0.1-0.2,0.1c0,0,0-0.1,0-0.2
		C14.4,30.9,14.6,30.6,14.5,30.2z"/>
	<path class="st1" d="M26.4,31.2c0,0.2-0.1,0.2-0.3,0.2s-0.3-0.2-0.3-0.4c0-0.2,0.1-0.3,0.3-0.2c0.2,0,0.3,0.2,0.4,0.3
		c0,0,0,0,0,0.1H26.4c-0.1-0.1-0.1-0.1-0.2-0.2c-0.1-0.1-0.2-0.1-0.3,0s-0.1,0.2,0,0.2c0,0.1,0.2,0.1,0.3,0.1
		C26.3,31.2,26.3,31.2,26.4,31.2z"/>
	<path class="st1" d="M11.8,17.9c0,0.1,0,0.1,0,0.1c-0.2,0-0.3,0-0.4-0.2c-0.1-0.1-0.1-0.3,0.1-0.4c0.1-0.1,0.2-0.2,0.3-0.1
		s0.1,0.2,0,0.3c0,0.1-0.1,0-0.1,0s0-0.1-0.1-0.2c-0.1,0.1-0.1,0.2-0.1,0.2C11.5,17.9,11.6,17.9,11.8,17.9z"/>
	<path class="st1" d="M12,17.3v0.1c0-0.1-0.1-0.1-0.2-0.2c0-0.3,0.1-0.4,0.5-0.4c0,0,0,0.1-0.1,0.1C12,16.9,11.9,17,12,17.3z"/>
	<path class="st1" d="M11.3,18.5c-0.2-0.1-0.5-0.3-0.4-0.5c0-0.1,0-0.2,0.1-0.1c0.1,0,0,0.1,0,0.1c0,0.1,0,0.2,0.1,0.2
		C11.2,18.3,11.3,18.3,11.3,18.5z"/>
	<path class="st2" d="M28.2,1.2c-0.1,0,0,0.1,0,0.1c0,0.1,0,0.1,0,0.2c-0.1,0-0.1,0-0.2-0.1c-0.1-0.1-0.1-0.2,0-0.3
		c0,0,0.1-0.1,0.1-0.2c-0.1-0.1-0.1,0-0.2,0C27.8,1,27.8,1.1,27.6,1c0,0-0.1,0-0.1,0.1S28,1.6,28,1.6c0.1,0,0.2,0,0.3-0.1
		S28.3,1.3,28.2,1.2L28.2,1.2z"/>
	<path class="st2" d="M27.5,1.8C27.5,1.7,27.5,1.7,27.5,1.8c0-0.1,0.1-0.3,0-0.3s-0.1,0.1-0.2,0.2l0,0c-0.5,0-1-0.1-1.4-0.1
		c0.5,0,1,0.1,1.4,0.1C27.3,1.7,27.4,1.8,27.5,1.8z"/>
	<path class="st1" d="M25.5,3.5c-0.1,0.1-0.3,0.2-0.3,0.3s0.1,0.2,0.2,0.3c0.1,0.1,0.3,0.1,0.4-0.1c0.1-0.1,0.2-0.1,0.1-0.2
		c-0.1-0.1-0.1,0.1-0.2,0.1l0,0c-0.1,0.1-0.2,0.1-0.3,0S25.3,3.7,25.5,3.5c0,0.2-0.1,0.3,0,0.3S25.6,3.7,25.5,3.5
		c0.1,0,0.1,0,0.1-0.1C25.6,3.5,25.5,3.5,25.5,3.5z"/>
	<path class="st2" d="M28.2,0.7c0,0.1,0.3,0.5,0.4,0.5h0.1V1.1C28.5,1,28.4,0.8,28.2,0.7z"/>
	<path class="st1" d="M41.4,7.9c-0.5-1.8-1.6-3.2-3.1-4.2C37.2,3,36,2.5,34.7,2.1c-2.1-0.7-4.3-1.2-6.5-1.5
		c-1.6-0.2-3.2-0.4-4.9-0.4c-2.1,0-4.2,0.1-6.3,0.4c-0.9,0.1-1.8,0.3-2.8,0.5c0.3,0.3,0.6,0.6,0.6,1.1h0.1l0,0
		c1.3-0.2,2.6-0.4,3.8-0.6c2.4-0.2,4.7-0.2,7.1,0c0.5,0,1,0.1,1.4,0.1l0,0c0-0.1,0.1-0.3,0.2-0.2c0.1,0,0,0.2,0,0.2l0,0
		c0.8,0.1,1.5,0.2,2.3,0.4c1.7,0.3,3.4,0.8,5,1.4c0.9,0.3,1.8,0.7,2.7,1.3c1.7,1,2.6,2.5,2.9,4.4c0,0.2,0,0.5,0,0.7
		c0,0.5-0.4,0.6-0.7,0.7c-0.7,0.2-1.5,0.2-2.2,0.2c-1.2,0-2.5-0.2-3.6-0.7c-0.2-0.1-0.4-0.2-0.5-0.4C33,9.2,32.8,8.6,32.7,8
		c-0.4-1.1-1-2-2-2.7c-1.1-0.8-2.4-1.3-3.8-1.6c-0.1,0-0.3-0.1-0.4-0.1c-0.3-0.1-0.6-0.1-0.9-0.1l0,0c0,0.1,0,0.1,0,0.2
		c0,0.1,0.1,0.2-0.1,0.2c-0.1,0,0-0.1-0.1-0.2c-0.1,0.1-0.1,0.2,0,0.3c0.1,0.1,0.2,0,0.3,0l0,0c0.1,0,0.1-0.2,0.2-0.1
		C26,4,25.8,4.1,25.8,4.1c-0.1,0.1-0.2,0.1-0.4,0.1c-0.1-0.1-0.2-0.2-0.2-0.3c0-0.2,0.1-0.3,0.3-0.3c-1.2-0.2-2.3-0.1-3.5-0.1
		c-1,0-2,0-2.9,0.2c-1.3,0.2-2.5,0.5-3.7,1.1s-2.1,1.5-2.7,2.7c-0.2,0.5-0.4,1-0.5,1.5c-0.4,1.2-0.4,1.1-1.5,1.4
		c-1.5,0.4-3,0.5-4.5,0.4c-0.4,0-0.7-0.1-1-0.3C5,10.4,4.9,10.3,4.9,10c-0.1-0.6,0-1.2,0.2-1.7c0.4-1.6,1.4-2.7,2.8-3.5
		c1-0.6,2.2-1,3.3-1.4c0.2-0.1,0.4-0.1,0.5-0.2c-0.2-0.4-0.2-0.8-0.1-1.2C10,2.5,8.4,3.1,7,4S4.5,6.1,4,7.8
		c-0.2,0.8-0.4,1.5-0.3,2.3s0.4,1.3,1.2,1.6C5.3,11.9,5.7,12,6.1,12c2,0.2,3.9,0.1,5.8-0.6c0.6-0.2,1.1-0.6,1.3-1.2
		c0.3-0.6,0.5-1.2,0.7-1.8c0.3-1,1-1.8,1.9-2.3c1-0.6,2-0.9,3.1-1.1c0.9-0.2,1.8-0.2,2.7-0.2c1.2,0,2.5-0.1,3.7,0.1
		c0-0.1-0.1-0.2-0.2-0.3C25,4.5,25,4.5,25,4.4s0-0.2,0.1-0.2s0,0.1,0,0.2s0.1,0.2,0.2,0.3c0.1,0.1,0.2,0.1,0.1,0.3
		c1.3,0.1,2.6,0.4,3.8,1c1,0.5,1.8,1.1,2.2,2.2c0.1,0.2,0.3,0.8,0.5,1.4c0.1,0.4,0.3,0.7,0.5,1c0.4,0.5,1,0.7,1.5,0.8
		c1.4,0.4,2.9,0.6,4.4,0.5c0.6,0,1.2-0.1,1.7-0.3c1-0.3,1.4-0.9,1.5-1.9C41.6,9.1,41.5,8.5,41.4,7.9z M28.3,1.5
		c-0.1,0.1-0.1,0.1-0.3,0.1c-0.1,0-0.5-0.4-0.5-0.5c0,0,0-0.1,0.1-0.1c0.1,0.1,0.2,0,0.3-0.1c0,0,0.1-0.1,0.2,0
		C28.2,1,28.1,1,28,1.1s-0.1,0.2,0,0.3S28.1,1.5,28.3,1.5c0,0,0-0.1-0.1-0.2c0,0-0.1-0.1,0-0.1s0.1,0,0.1,0.1
		C28.3,1.4,28.4,1.4,28.3,1.5z M28.7,1.2C28.7,1.2,28.6,1.2,28.7,1.2c-0.1,0-0.4-0.4-0.5-0.5C28.4,0.8,28.5,1,28.7,1.2
		C28.7,1.1,28.7,1.2,28.7,1.2z"/>
	<path class="st1" d="M25.1,4.4c-0.1-0.1-0.2-0.1-0.2-0.3c0-0.1,0.1-0.1,0-0.2c-0.1,0-0.1,0.1-0.1,0.2c0,0.1,0.1,0.2,0.1,0.2
		c0.1,0.1,0.2,0.1,0.2,0.3l0,0C25.3,4.6,25.2,4.5,25.1,4.4z"/>
	<path class="st1" d="M25.5,3.5L25.5,3.5c0.1,0.1,0.1,0.1,0.1,0.2c0,0.1,0.1,0.2-0.1,0.2c-0.1,0,0-0.1-0.1-0.2
		c-0.1,0.1-0.1,0.2,0,0.3s0.2,0,0.3,0l0,0c0.1,0,0.1-0.2,0.2-0.1C26,4,25.8,4.1,25.8,4.1c-0.1,0.1-0.2,0.1-0.4,0.1
		c-0.1-0.1-0.2-0.2-0.2-0.3C25.2,3.6,25.3,3.5,25.5,3.5z"/>
	<path class="st1" d="M28.1,1.7c-0.1,0-0.5-0.4-0.5-0.5c0,0,0-0.1,0.1-0.1c0.1,0.1,0.2,0,0.3-0.1c0,0,0.1-0.1,0.2,0
		c0.1,0.1,0,0.1-0.1,0.2s-0.1,0.2,0,0.3c0.1,0.1,0.1,0.1,0.2,0.1c0.1,0,0.1-0.1,0-0.2c0,0-0.1-0.1,0-0.1s0.1,0,0.1,0.1
		c0.1,0.1,0.1,0.2,0,0.3C28.3,1.6,28.2,1.7,28.1,1.7z"/>
	<path class="st1" d="M28.2,0.7c0.2,0.1,0.3,0.3,0.5,0.4v0.1c0,0,0,0-0.1,0C28.5,1.2,28.2,0.8,28.2,0.7z"/>
	<path class="st1" d="M27.5,1.8c-0.1,0-0.1,0-0.2,0l0,0c0-0.1,0.1-0.3,0.2-0.2C27.6,1.5,27.4,1.6,27.5,1.8
		C27.5,1.7,27.5,1.7,27.5,1.8z"/>
	<path class="st3" d="M15,2.2L15,2.2L15,2.2z"/>
	<path class="st1" d="M12.7,2.7c-0.1,0-0.2,0.1-0.3,0.1c-0.2-0.2-0.2-0.7,0.1-1c0.6-0.5,1.4-0.3,1.7,0.6c-0.1,0-0.2,0.1-0.3,0.1
		c-0.2-0.2-0.2-0.4-0.4-0.5c-0.2-0.1-0.4-0.1-0.6,0.1C12.6,2.2,12.7,2.5,12.7,2.7z"/>
	<path class="st1" d="M26.4,14.8c-0.6-0.2-1.1-0.4-1.7-0.5c-2.7-0.5-5.3-0.1-7.6,1.6c-1.4,1-2.3,2.3-2.6,4c-0.2,1.2-0.1,2.4,0.5,3.5
		c0.8,1.6,2,2.7,3.6,3.5c1,0.5,2,0.8,3.1,0.9c1.6,0.2,3.2-0.1,4.7-0.7c0.2-0.1,0.2-0.1,0.3,0.1c0.1,0.3,0.2,0.5,0.3,0.7
		c0.1,0.1,0,0.2-0.1,0.3c-0.7,0.3-1.4,0.5-2.1,0.7c-1.9,0.4-3.7,0.3-5.5-0.3c-2.4-0.8-4.3-2.3-5.4-4.5c-1.2-2.4-1-4.7,0.3-6.9
		c1-1.7,2.6-2.8,4.4-3.5c1.9-0.8,3.9-0.9,6-0.6c2.4,0.4,4.4,1.5,6,3.4c2,2.4,2.1,5.7,0.4,8.3c-0.2,0.3-0.2,0.3-0.5,0.1
		c-0.2-0.1-0.4-0.2-0.6-0.3c-0.2-0.1-0.2-0.2-0.1-0.3c0.4-0.6,0.7-1.2,0.9-1.9c0.6-2.3-0.1-4.2-1.7-5.9c-0.1-0.1-0.1-0.1-0.2-0.2
		c0.1-1-0.8-1.9-2-1.7C26.7,14.7,26.5,14.6,26.4,14.8z"/>
	<path class="st1" d="M22.6,25.3c-1.6,0-3-0.5-4.1-1.8c-1.4-1.5-1.4-3.8,0-5.2c1.2-1.3,2.8-1.8,4.6-1.7c1.3,0.1,2.4,0.6,3.3,1.5
		c1.6,1.5,1.7,3.9,0.2,5.5C25.5,24.7,24.2,25.2,22.6,25.3z M22.6,24c1.1,0,2.1-0.3,2.9-1c1.3-1.1,1.4-2.9,0.1-4.1
		c-0.8-0.8-1.7-1.1-2.8-1.2c-1.3-0.1-2.4,0.3-3.3,1.2c-1.1,1.1-1.1,2.7,0,3.8C20.4,23.7,21.4,24,22.6,24z"/>
	<path class="st1" d="M26.4,24.7c0-0.5,0.5-0.8,1-0.6c0.9,0.5,1.8,0.9,2.7,1.4c0.5,0.3,0.6,0.8,0.1,1.2c-0.5,0.4-1,0.9-1.4,1.3
		c-0.3,0.3-0.8,0.2-1-0.2c-0.3-0.5-0.5-1-0.7-1.6c-0.2-0.4-0.4-0.8-0.6-1.3C26.4,25,26.4,24.9,26.4,24.7z M28.5,27
		c0.2-0.2,0.5-0.4,0.7-0.6c0.1,0,0.1-0.1,0-0.1c-0.4-0.2-0.8-0.4-1.3-0.7c0.2,0.4,0.3,0.7,0.5,1.1C28.3,26.8,28.4,26.9,28.5,27z"/>
	<path class="st1" d="M19.3,25c0.5,0,1,0.4,1,0.9s-0.4,0.9-1,0.9c-0.5,0-0.9-0.4-0.9-0.9C18.3,25.4,18.8,25,19.3,25z"/>
	<path class="st1" d="M28.6,17.7c0.5,0,0.9,0.4,1,0.9c0,0.5-0.4,0.9-0.9,1c-0.5,0-1-0.4-1-0.9C27.7,18.2,28.1,17.7,28.6,17.7z"/>
	<path class="st1" d="M29.2,20.8c0.5,0,0.9,0.4,0.9,0.9s-0.4,0.9-1,0.9c-0.5,0-0.9-0.4-0.9-0.9C28.2,21.2,28.7,20.8,29.2,20.8z"/>
	<path class="st1" d="M17.8,23.8c0,0.5-0.4,1-1,0.9c-0.5,0-0.9-0.4-0.9-0.9s0.4-1,0.9-1C17.4,22.9,17.8,23.3,17.8,23.8z"/>
	<path class="st1" d="M22.7,25.7c0.5,0,1,0.4,0.9,0.9c0,0.5-0.4,0.9-1,0.9c-0.5,0-0.9-0.4-0.9-0.9S22.2,25.7,22.7,25.7z"/>
	<path class="st1" d="M14.9,20.9c0-0.5,0.4-1,0.9-0.9c0.5,0,0.9,0.4,0.9,0.9s-0.4,0.9-1,0.9C15.4,21.8,14.9,21.4,14.9,20.9z"/>
	<path class="st1" d="M16,17.9c0-0.5,0.4-0.9,0.9-0.9s0.9,0.4,0.9,0.9s-0.4,0.9-0.9,0.9S16,18.4,16,17.9z"/>
	<path class="st1" d="M19.7,14.9c0.5,0,1,0.4,1,1c0,0.5-0.4,0.9-1,0.9c-0.5,0-0.9-0.4-0.9-1C18.8,15.3,19.2,14.9,19.7,14.9z"/>
	<path class="st1" d="M23.1,16.3c-0.5,0-0.9-0.4-0.9-0.9s0.4-0.9,0.9-1c0.5,0,0.9,0.4,0.9,0.9C24.1,15.8,23.6,16.3,23.1,16.3z"/>
	<path class="st1" d="M26.4,14.8c0.1-0.2,0.3-0.2,0.5-0.2c1.2-0.2,2,0.7,2,1.7c-0.1-0.1-0.3-0.2-0.4-0.3c0.1-0.1,0-0.2,0-0.2
		c-0.3-0.6-0.8-0.8-1.5-0.7C26.7,15,26.5,14.9,26.4,14.8z"/>
	<path class="st1" d="M26.1,15.4c0.2-0.1,0.4-0.1,0.6,0c0,0.1-0.1,0.1-0.2,0.2c-0.3,0.2-0.3,0.5-0.3,0.8c0.1,0.3,0.3,0.5,0.6,0.5
		c0.1,0,0.1,0,0.2,0.1c-0.2,0.1-0.4,0.2-0.7,0.2v-0.1c-0.3-0.3-0.4-0.6-0.4-1C25.9,15.9,26.1,15.7,26.1,15.4z"/>
	<path class="st1" d="M27,17.1c0-0.1-0.1-0.1-0.2-0.1c-0.3,0-0.5-0.2-0.6-0.5s0-0.6,0.3-0.8c0.1-0.1,0.2-0.1,0.2-0.2
		c0.2,0.1,0.3,0.2,0.4,0.3c-0.1,0-0.2,0.1-0.3,0.1c-0.3,0.2-0.3,0.6-0.1,0.8c0.1,0.1,0.2,0.1,0.3,0.1s0.1-0.1,0.1-0.2
		c0-0.2,0-0.3,0.2-0.2C27.4,16.6,27.3,16.9,27,17.1z"/>
	<path class="st1" d="M26.1,15.4c-0.1,0.2-0.2,0.4-0.2,0.7c0,0.4,0.1,0.7,0.4,1v0.1c-0.3,0-0.7-0.2-0.8-0.5
		c-0.2-0.4-0.1-0.8,0.2-1.1C25.9,15.6,26,15.5,26.1,15.4z"/>
	<path class="st1" d="M13.9,30.3c0,0.1,0,0.2,0,0.3c0,0.3-0.3,0.6-0.6,0.7c-0.4,0.1-0.8,0-1-0.3c0.2,0.1,0.4,0,0.7,0
		c0.1,0,0.1-0.1,0.2-0.1C13.3,30.6,13.5,30.4,13.9,30.3z"/>
	<path class="st1" d="M27.3,16.3c-0.2,0-0.3,0.1-0.2,0.2c0,0.1,0.1,0.2-0.1,0.2c-0.1,0-0.2,0-0.3-0.1c-0.2-0.2-0.2-0.6,0.1-0.8
		c0.1,0,0.2-0.1,0.3-0.1C27.3,15.9,27.3,16.1,27.3,16.3z"/>
	<path class="st1" d="M26.9,15.1c0.6-0.1,1.2,0.2,1.5,0.7c0,0.1,0.1,0.1,0,0.2C27.9,15.7,27.4,15.4,26.9,15.1z"/>
	<path class="st1" d="M12,17.3c-0.1-0.3-0.1-0.4,0.2-0.4C12.2,17.1,12.2,17.2,12,17.3z"/>
	<path class="st1" d="M12.7,2.7c-0.1-0.2-0.1-0.5,0.1-0.7c0.2-0.1,0.4-0.1,0.7,0c0.2,0.1,0.3,0.3,0.4,0.4c-0.1,0.1-0.2,0.1-0.3,0.1
		l0,0h-0.1c0-0.1-0.1-0.1-0.2-0.1c-0.1,0-0.1,0.1-0.1,0.2C13,2.6,12.9,2.7,12.7,2.7z"/>
	<path class="st1" d="M13.2,2.6c0-0.1,0-0.2,0.1-0.2s0.2,0,0.2,0.1C13.4,2.6,13.3,2.6,13.2,2.6z"/>
	<path class="st1" d="M13.6,2.5L13.6,2.5L13.6,2.5z"/>
	<path class="st4" d="M28.5,27c-0.1-0.1-0.1-0.2-0.2-0.3c-0.2-0.3-0.3-0.7-0.5-1.1c0.5,0.2,0.9,0.5,1.3,0.7c0.1,0,0.1,0.1,0,0.1
		C28.9,26.6,28.7,26.8,28.5,27z"/>
</g>
<g id="Calque_2_1_" class="st0">
	<g class="st5">
		<path class="st6" d="M38.7,8.2c0-0.1,0-0.2,0-0.3V7.8h-0.1h0.1c0-0.3,0-0.5,0-0.8s0-0.5,0-0.8c-0.3-1.3-1.2-2-2.6-2
			c-5.5,0-11,0-16.5,0c-0.1,0-0.1,0-0.2,0c-0.1,0-0.1,0-0.1-0.1c0-0.3,0-0.5,0-0.8c0-1.5-1.2-2.8-2.8-2.8c-1.1,0-2.2,0-3.3,0
			c-1.3,0-2.5,1-2.7,2.3c-0.1,0.4,0,0.8,0,1.2c0,0.2,0,0.2-0.2,0.2C9.5,4.3,8.9,4.7,8.5,5.4c0,0,0,0,0,0.1C8.2,6,8.2,6.5,8.2,7
			c0,0.1,0,0.2,0,0.3c0,0.2,0,0.4,0,0.6c0,0.1,0,0.1,0,0.2c0,0.1,0,0.1,0,0.2c-0.1,0.1,0,0.2,0,0.3s0,0.2,0,0.2c0,1.9,0,3.8,0,5.7
			c0,0.2,0,0.3-0.2,0.3s-0.3,0.1-0.5,0.1c-1.2,0.5-2,1.7-2,3c0,2.6,0,5.3,0,7.9c0,0.4,0,0.7,0,1.1c0,0.5,0,0.9,0.1,1.4
			c0.5,2.1,2.3,3.7,4.5,3.9c2,0.2,4.1-1,4.9-3c0.1-0.2,0.2-0.2,0.4-0.2c6.9,0,13.8,0,20.7,0c0.3,0,0.6,0,0.9-0.1
			c0.8-0.3,1.4-0.8,1.6-1.6l0.1-0.1c0-0.1,0.1-0.2,0-0.3l0,0c0.1-0.3,0-0.6,0.1-0.9c0-0.2,0-0.5,0-0.7c0-5.6,0-11.3,0-16.9
			C38.7,8.3,38.7,8.3,38.7,8.2z M19,8.3c0,0.1-0.1,0.1-0.2,0.1C18.8,8.4,18.9,8.3,19,8.3z M18.8,7.9c0.1,0,0.2,0,0.2,0.1l0,0l0,0
			c0,0.1,0,0.2,0,0.2c0-0.1,0-0.1,0-0.2C19,7.9,18.9,7.9,18.8,7.9z M19,7.9L19,7.9L19,7.9L19,7.9z M11.5,14.7c0-3.8,0-7.6,0-11.4
			c0-1,0.6-1.8,1.6-1.9c1.3-0.1,2.5-0.1,3.8,0c0.9,0.1,1.5,0.9,1.5,1.8c0,6.2,0,12.5,0,18.7c0,1-0.8,1.8-1.8,1.8c-1.1,0-2.2,0-3.3,0
			c-1,0-1.8-0.8-1.8-1.9c0-1.4,0-2.8,0-4.2c0-0.1,0-0.2,0-0.3c0-0.2,0-0.3,0-0.5c0.1-0.1,0-0.2,0-0.3c0-0.2,0-0.4,0-0.5
			c0.1-0.3,0.1-0.7,0-1C11.5,14.9,11.5,14.8,11.5,14.7z M11,17.8L11,17.8C11,17.8,11,17.8,11,17.8s0.1-0.1,0-0.3
			c-0.1,0-0.2-0.1-0.3-0.1c0.1,0,0.2,0.1,0.3,0.1l0,0l0,0C11.1,17.6,11.1,17.7,11,17.8z M11.1,17.4L11.1,17.4L11.1,17.4L11.1,17.4z
			 M13.9,29.2c-0.8,1.4-2.5,2.2-4,2c-1.7-0.3-3.1-1.5-3.4-3.2c-0.1-0.5-0.1-0.9-0.1-1.4c0-0.1,0-0.2,0-0.3c0.1-0.1,0-0.2,0-0.3
			c0-0.2,0-0.5,0-0.7c0-0.1,0-0.2,0-0.4c0-2.3,0-4.6,0-6.9c0-1.1,0.6-1.9,1.6-2.2c0.2-0.1,0.2,0,0.2,0.2c0,2.9,0,5.9,0,8.8
			c0,0.1,0,0.2,0,0.3c0.1,0,0.1,0,0.1,0.1c0,0-0.1,0-0.1-0.1c0,0.1,0,0.2,0,0.3c0,0.2,0,0.4,0,0.5c0,0,0.1,0,0.1,0.1
			c0,0-0.1,0-0.1-0.1c0,0.1,0,0.2,0,0.3c-0.1,0.2,0,0.4,0,0.6c0,0.1,0,0.1,0,0.1c0,0.1,0,0.2,0.1,0.3c0,0.1,0,0.2,0.1,0.2
			c0.3,0.9,1.2,1.5,2.2,1.5c1.1,0,2.1,0,3.2,0C14,28.9,14,29,13.9,29.2z M14.4,27.8c0,0.1-0.1,0.2-0.2,0.2c-1.2,0-2.4,0-3.6,0
			c-0.6,0-1-0.4-1.3-0.8v-0.1c0-0.1,0-0.1-0.1-0.2c-0.1-0.3,0-0.6-0.1-1c0,0-0.1,0-0.1-0.1c0,0,0.1,0,0.1,0.1c0-0.3,0-0.5,0-0.8
			c0-0.1,0-0.2,0-0.3c0-5.5,0-11,0-16.5c0-0.1,0-0.3,0-0.4c0-0.3,0-0.6,0-0.9s0-0.5,0.1-0.8c0.2-0.5,0.5-0.8,1.1-1
			c0.2-0.1,0.2,0,0.2,0.2c0,3.1,0,6.3,0,9.4v0.1c0,0.2,0,0.3,0,0.5v0.1c0,0.4,0,0.9,0,1.3l0,0c0,0.1,0,0.2,0,0.4l0,0
			c0,0.2-0.1,0.4,0,0.7c0,1.4,0,2.8,0,4.1c0,1.2,0.8,2.2,2,2.6c0.2,0.1,0.3,0.1,0.3,0.4c0,0.5,0.1,1,0.6,1.3
			c0.3,0.2,0.6,0.2,0.9,0.2c0.2,0,0.3,0,0.2,0.2C14.4,27,14.5,27.4,14.4,27.8z M37.7,27c-0.2,0.6-0.7,0.9-1.3,1c-0.1,0-0.2,0-0.3,0
			c-6.8,0-13.6,0-20.5,0c-0.3,0-0.3,0-0.3-0.3c0-0.4,0-0.7,0-1.1c0-0.1,0-0.2,0.2-0.2c1.2,0,1.5-0.4,1.5-1.5c0-0.2,0-0.2,0.2-0.3
			c1.2-0.4,2-1.4,2-2.7c0-4.5,0-8.9,0-13.4c0-0.1,0.1-0.2,0-0.3c0.1-0.3,0-0.6,0-0.9c0-0.1,0-0.3,0-0.4c0-0.2,0-0.3,0-0.5
			c0-0.3,0-0.6,0-0.9s0-0.3,0.4-0.3c5.5,0,10.9,0,16.4,0c0.7,0,1.2,0.3,1.5,0.9c0,0.1,0.1,0.3,0.1,0.4c0-0.1,0.1-0.1,0.2-0.1
			c-0.1,0-0.1,0.1-0.2,0.1c0,0.2,0,0.3,0,0.5h0.1h-0.1c0,0.1,0,0.3,0,0.4c0,0.2-0.1,0.4,0.1,0.6l0,0c-0.1,0.2-0.1,0.4-0.1,0.6
			c0,5.4,0,10.7,0,16.1c0,0.1,0,0.2,0,0.3c0,0.1,0,0.3,0,0.4l0,0c-0.1,0.2,0,0.4,0,0.5s0,0.3,0,0.4C37.7,26.5,37.8,26.8,37.7,27z"/>
		<path class="st6" d="M24.8,11.3c3,0,6,0,9,0c0.6,0,1.2,0,1.9,0c0.6,0,1.1-0.5,1.1-1.1c0-0.7,0-1.3,0-2c0-0.2,0-0.3,0-0.5
			c0-0.5-0.2-0.8-0.6-1c-0.1-0.1-0.2-0.1-0.4-0.1c-0.4,0-0.7,0-1.1,0c-0.1,0-0.3,0-0.4,0c-0.3,0-0.7,0-1,0c-2.7,0-5.3,0-8,0
			c-0.3,0-0.6-0.1-0.8,0c-0.1,0-0.2,0-0.3,0.1c-0.2,0.1-0.4,0.2-0.4,0.5c-0.1,0.1-0.1,0.3-0.1,0.4c0,0.8,0,1.6,0,2.4
			C23.6,10.9,24.1,11.3,24.8,11.3z M35.7,7.7c0.1,0,0.1,0,0.2,0C35.8,7.7,35.8,7.7,35.7,7.7s-0.2,0-0.2,0
			C35.6,7.7,35.6,7.7,35.7,7.7z"/>
		<path class="st6" d="M36.3,13.1c0.3,0,0.5-0.3,0.4-0.6c-0.1-0.2-0.3-0.4-0.6-0.4c-2.9,0-5.9,0-8.8,0c-0.9,0-1.9,0-2.8,0
			c-0.1,0-0.3,0-0.4,0.1c-0.2,0.1-0.2,0.3-0.2,0.5c0.1,0.2,0.3,0.3,0.5,0.3c1.9,0,3.9,0,5.8,0c1.8,0,3.7,0,5.5,0
			C36,13.1,36.1,13.1,36.3,13.1z"/>
		<path class="st6" d="M31,23.8c-0.6,0-1.1,0-1.7,0c-0.7,0-1.2,0.6-1.2,1.4c0,0.7,0.5,1.2,1.2,1.3c0.3,0,0.5,0,0.8,0s0.5,0,0.8,0
			c0.7,0,1.2-0.5,1.2-1.2C32.2,24.4,31.8,23.8,31,23.8z"/>
		<path class="st6" d="M34,23.1c0.3,0,0.5,0,0.8,0s0.5,0,0.8,0c0.7,0,1.2-0.5,1.2-1.2c0-0.8-0.4-1.4-1.1-1.5c-0.6,0-1.2,0-1.8,0
			c-0.7,0-1.1,0.6-1.1,1.4C32.8,22.6,33.3,23.1,34,23.1z M34.7,21.4c0.1,0,0.2,0,0.4,0C35,21.4,34.8,21.4,34.7,21.4
			c-0.2,0-0.5,0-0.7,0C34.3,21.4,34.5,21.4,34.7,21.4z"/>
		<path class="st6" d="M29.4,23.1c0.2,0,0.5,0,0.7,0s0.5,0,0.7,0c0.7,0,1.2-0.5,1.3-1.2c0-0.8-0.4-1.4-1.2-1.4c-0.5,0-1.1,0-1.6,0
			c-0.7,0-1.2,0.6-1.2,1.4C28.2,22.6,28.7,23.1,29.4,23.1z M30.2,21.4c0.2,0,0.5,0,0.7,0C30.7,21.4,30.4,21.4,30.2,21.4
			s-0.5,0-0.7,0C29.7,21.4,29.9,21.4,30.2,21.4z"/>
		<path class="st6" d="M24.8,23.1c0.3,0,0.5,0,0.8,0c0.2,0,0.5,0,0.7,0c0.8,0,1.3-0.5,1.3-1.3s-0.5-1.3-1.3-1.3c-0.4,0-0.9,0-1.3,0
			c-0.9,0-1.5,0.6-1.4,1.5C23.7,22.6,24.2,23.1,24.8,23.1z M25.7,21.4c0.2,0,0.5,0,0.7,0C26.1,21.4,25.9,21.4,25.7,21.4
			s-0.5,0-0.7,0C25.2,21.4,25.4,21.4,25.7,21.4z"/>
		<path class="st6" d="M33.7,19.8c0.2,0,0.4,0,0.6,0c0.4,0,0.9,0,1.3,0c0.7-0.1,1.1-0.6,1-1.4c0-0.6-0.5-1.2-1.1-1.2
			c-0.5,0-0.9,0-1.4,0c-0.4,0-0.8,0.1-1.1,0.3c0,0-0.1,0-0.1,0.1c0,0-0.1,0,0,0.1l0,0c-0.1,0-0.1,0.1-0.1,0.2
			C32.6,18.5,32.8,19.6,33.7,19.8z M34.7,18.1c0.2,0,0.5,0,0.7,0C35.2,18.1,35,18.1,34.7,18.1c-0.2,0-0.5,0-0.7,0
			C34.3,18.1,34.5,18.1,34.7,18.1z"/>
		<path class="st6" d="M24.8,16.5c0.5,0,1,0,1.6,0c0.1,0,0.3,0,0.4,0c0.3-0.1,0.5-0.2,0.6-0.4c0.1-0.1,0.2-0.2,0.2-0.3
			c0.1-0.1,0.1-0.3,0.1-0.4c0-0.1,0-0.2,0-0.3c-0.1-0.6-0.5-1.1-1.2-1.1c-0.5,0-1.1,0-1.6,0c-0.1,0-0.2,0-0.3,0
			c-0.6,0.2-1,0.7-0.9,1.5C23.7,16,24.2,16.5,24.8,16.5z"/>
		<path class="st6" d="M26.5,23.8c-0.5,0-1.1,0-1.6,0c-0.6,0-1.1,0.5-1.2,1.1c0,0.1,0,0.2,0,0.4c0,0.2,0.1,0.4,0.2,0.6
			c0.1,0.1,0.2,0.3,0.3,0.3c0.2,0.1,0.4,0.2,0.7,0.2c0.5,0,1,0,1.6,0c0.7,0,1.2-0.5,1.2-1.2C27.6,24.3,27.2,23.8,26.5,23.8z"/>
		<path class="st6" d="M35.6,23.8c-0.5,0-1.1,0-1.6,0c-0.7,0-1.2,0.6-1.2,1.4c0,0.7,0.5,1.2,1.2,1.2c0.5,0,1,0,1.6,0
			c0.4,0,0.8-0.2,1-0.5c0.3-0.4,0.3-0.9,0.1-1.3C36.4,24,36.1,23.8,35.6,23.8z M34.3,24.7L34.3,24.7c-0.1,0-0.2,0-0.3,0
			C34.1,24.7,34.2,24.7,34.3,24.7z"/>
		<path class="st6" d="M29.4,13.8c-0.2,0-0.4,0.1-0.6,0.2c-0.5,0.3-0.7,0.8-0.6,1.5c0.1,0.4,0.3,0.6,0.6,0.8
			c0.2,0.1,0.3,0.1,0.5,0.1c0.1,0,0.3,0,0.4,0c0.2,0,0.4,0,0.6,0c0.1,0.1,0.3,0,0.4,0h0.1c0.1,0,0.3,0,0.4-0.1
			c0.3,0,0.5-0.2,0.6-0.4c0.1-0.1,0.2-0.2,0.2-0.4c0-0.1,0-0.1,0-0.2c0.2-0.8-0.4-1.6-1.2-1.6C30.4,13.8,29.9,13.8,29.4,13.8z
			 M29.3,15.5c-0.1,0-0.1,0-0.2,0C29.2,15.5,29.2,15.5,29.3,15.5L29.3,15.5z M29.1,15.5L29.1,15.5C29.1,15.5,29.1,15.5,29.1,15.5z
			 M28.9,15.5L28.9,15.5L28.9,15.5z"/>
		<path class="st6" d="M33.1,16.1c0.2,0.3,0.5,0.4,0.9,0.4c0.5,0,1,0,1.5,0c0.7,0,1.3-0.5,1.3-1.3s-0.5-1.3-1.2-1.3
			c-0.5,0-1,0-1.5,0c-0.2,0-0.4,0-0.6,0.1c-0.6,0.3-0.9,1.1-0.6,1.8C32.9,15.9,32.9,16,33.1,16.1z"/>
		<path class="st6" d="M27,17.3c-0.2-0.1-0.4-0.2-0.7-0.2c-0.4,0-0.9,0-1.3,0c-0.9,0-1.4,0.6-1.3,1.5c0.1,0.7,0.6,1.1,1.2,1.1
			c0.5,0,1,0,1.6,0c0.1,0,0.2,0,0.2,0c1.1-0.2,1.2-1.5,0.7-2.1C27.3,17.5,27.2,17.4,27,17.3z M27,17.4C26.9,17.4,26.9,17.4,27,17.4
			C26.9,17.5,26.9,17.5,27,17.4C26.9,17.4,26.9,17.4,27,17.4z"/>
		<path class="st6" d="M31.6,17.3c-0.2-0.1-0.4-0.2-0.7-0.2c-0.5,0-0.9,0-1.4,0c-0.2,0-0.3,0-0.5,0.1c-0.1,0-0.1,0-0.1,0
			c-0.2,0.1-0.4,0.2-0.5,0.4l0,0c-0.3,0.4-0.3,0.9-0.1,1.3c0.2,0.5,0.5,0.7,1,0.7c0.2,0,0.4,0,0.5,0c0.3,0,0.7,0,1,0
			c0.6,0,1-0.2,1.2-0.7s0.2-1.1-0.2-1.5C31.8,17.4,31.7,17.4,31.6,17.3z"/>
		<path class="st6" d="M12.8,19.8c1.4,0,2.9,0,4.3,0c0.2,0,0.3-0.1,0.4-0.2c0.2-0.3,0-0.7-0.4-0.7c-0.7,0-1.4,0-2.1,0l0,0
			c-0.7,0-1.4,0-2.1,0c-0.3,0-0.5,0.2-0.5,0.5C12.3,19.6,12.5,19.8,12.8,19.8z"/>
		<path class="st6" d="M12.8,22c1.4,0,2.8,0,4.2,0c0.1,0,0.2,0,0.2,0c0.2-0.1,0.3-0.3,0.3-0.5c0-0.3-0.2-0.5-0.4-0.5
			c-0.7,0-1.4,0-2.1,0c-0.7,0-1.4,0-2.1,0c-0.3,0-0.5,0.2-0.5,0.5C12.3,21.8,12.5,22,12.8,22z"/>
	</g>
</g>
<g id="Calque_3" class="st0">
	<path class="st1" d="M13.8,11.2c0-0.1,0-0.2-0.1-0.4c0,0,0,0,0-0.1c-0.1-0.1,0-0.3,0-0.4c0-0.3-0.1-0.5-0.1-0.8l0,0c0,0,0,0,0-0.1
		c0,0,0,0,0-0.1s0-0.1,0-0.2c0,0,0,0,0-0.1c0-0.9,0.1-1.8,0.4-2.6c0.6-2.3,1.8-4,3.9-5.2c1.2-0.7,2.6-1.1,4-1.2c0.3,0,0.6,0,0.8,0
		l0,0c0.1,0,0.1,0,0.2,0c0,0,0,0,0.1,0c0.4,0,0.8,0.1,1.2,0.1c0.1,0,0.2,0,0.2,0c0.1,0,0.3,0.1,0.4,0.1h0.1l0,0c0,0,0,0,0.1,0
		c1.2,0.3,2.3,0.8,3.3,1.6c0.8,0.6,1.5,1.4,2,2.3c0.6,1.1,1,2.3,1.2,3.6c0.1,0.6,0.1,1.3,0.1,1.9c0,0.7-0.2,1.4-0.4,2.1
		c-0.5,1.5-1.2,2.8-2.1,4c-0.8,1.1-1.6,2.4-2,3.7c-0.3,0.8-0.5,1.5-0.4,2.4c0,0.1,0,0.2-0.2,0.2c-0.8,0-1.5,0-2.3,0
		c-1.8,0-3.6,0-5.4,0c-0.1,0-0.2,0-0.1-0.1c0-1.2-0.3-2.3-0.8-3.3c-0.5-1.1-1.2-2.1-1.9-3.1c-0.8-1.2-1.5-2.4-1.9-3.8c0,0,0,0,0-0.1
		C13.9,11.6,13.9,11.4,13.8,11.2z M24.6,21.6c0.3,0,0.7,0,1,0h0.1c0.1,0,0.2,0.1,0.2-0.1c0-0.7,0.2-1.5,0.5-2.2
		c0.5-1.3,1.2-2.5,2-3.6c0.9-1.2,1.6-2.5,2.1-3.9c0.3-0.8,0.4-1.6,0.4-2.5c0-0.6-0.1-1.2-0.2-1.8c-0.2-1-0.5-2-1-2.9
		c-0.7-1.2-1.6-2.1-2.8-2.7c-0.6-0.3-1.2-0.6-1.9-0.8c-0.2,0-0.4-0.1-0.6-0.1c-0.3-0.1-0.7-0.1-1-0.1c-0.2,0-0.4,0-0.5,0
		c-1.1,0-2.2,0.2-3.2,0.5c-1.2,0.4-2.3,1-3.1,1.9C15.7,4,15.2,4.9,14.8,6c-0.3,0.9-0.5,1.8-0.5,2.7c0,0.5-0.1,0.9,0,1.4
		c0.1,1,0.4,1.9,0.8,2.9c0.4,0.9,0.8,1.7,1.4,2.4c0.7,1,1.4,2,1.9,3s0.8,2,0.9,3c0,0.1,0,0.1,0.1,0.1c1.1,0,2.1,0,3.2,0
		C23.2,21.6,23.9,21.6,24.6,21.6L24.6,21.6z"/>
	<path class="st1" d="M22.6,29.7c-1,0-2.1,0-3.1,0c-0.5,0-0.9-0.2-1.1-0.7c-0.2-0.4-0.2-0.8,0.1-1.2c0.2-0.3,0.6-0.4,0.9-0.4
		c0.7,0,1.4,0,2.2,0c1.4,0,2.7,0,4.1,0c0.6,0,1.1,0.4,1.2,1c0.1,0.6-0.4,1.2-1.1,1.2C24.7,29.7,23.7,29.7,22.6,29.7L22.6,29.7z
		 M22.6,29.1c1,0,2,0,3.1,0c0.1,0,0.2,0,0.3,0c0.2-0.1,0.4-0.3,0.3-0.6c0-0.3-0.3-0.5-0.5-0.5c-1,0-2,0-2.9,0c-1.1,0-2.2,0-3.3,0
		c-0.2,0-0.3,0-0.4,0.2c-0.1,0.2-0.2,0.4-0.1,0.6c0.1,0.2,0.3,0.3,0.5,0.3C20.5,29,21.5,29.1,22.6,29.1z"/>
	<path class="st1" d="M22.6,24.7c-1.1,0-2.2,0-3.3,0c-0.3,0-0.5-0.2-0.7-0.4c-0.3-0.3-0.4-0.8-0.2-1.2c0.2-0.5,0.6-0.7,1.1-0.7
		c1.1,0,2.2,0,3.3,0c1,0,2,0,2.9,0c0.6,0,1.1,0.4,1.2,1c0.1,0.5-0.2,1-0.7,1.2c-0.1,0.1-0.3,0.1-0.4,0.1
		C24.7,24.7,23.6,24.7,22.6,24.7L22.6,24.7z M26.1,23.2C26,23,25.8,23,25.7,23c-0.9,0-1.8,0-2.7,0c-1.2,0-2.3,0-3.5,0
		c-0.2,0-0.3,0-0.4,0.2c-0.2,0.2-0.2,0.5,0,0.7c0.1,0.1,0.3,0.2,0.5,0.2c1.9,0,3.9,0,5.8,0c0.2,0,0.3,0,0.5,0s0.4-0.1,0.4-0.3
		C26.3,23.5,26.3,23.4,26.1,23.2L26.1,23.2z"/>
	<path class="st1" d="M26.3,25c0.3,0.2,0.5,0.5,0.6,0.9c0.1,0.7-0.4,1.3-1.1,1.3c-1,0-2.1,0-3.1,0c-1.1,0-2.1,0-3.2,0
		c-0.8,0-1.3-0.7-1.1-1.5c0.1-0.4,0.5-0.7,0.9-0.8c0.1,0,0.2,0,0.3,0c2,0,4,0,6.1,0C25.8,24.9,26.1,24.9,26.3,25z M22.6,25.5
		c-1,0-2.1,0-3.1,0c-0.3,0-0.6,0.2-0.6,0.5s0.3,0.6,0.6,0.6c2.1,0,4.1,0,6.2,0c0.1,0,0.1,0,0.2,0c0.3-0.1,0.5-0.3,0.4-0.6
		c0-0.3-0.2-0.5-0.5-0.5C24.7,25.5,23.6,25.5,22.6,25.5z"/>
	<path class="st1" d="M24.4,32.1L24.4,32.1c-0.1,0-0.2,0-0.3,0.1c-1,0-2,0-3,0c-0.5,0-1-0.4-1.1-0.9s0.1-1,0.6-1.3
		c0.2-0.1,0.3-0.1,0.5-0.1c0.9,0,1.9,0,2.8,0c0.7,0,1.2,0.5,1.2,1.2v0.1c0,0.1,0,0.1-0.1,0.2c0,0,0,0.1-0.1,0.1
		c0,0.1-0.1,0.1-0.1,0.2l0,0c0,0,0,0-0.1,0.1C24.7,31.9,24.6,32,24.4,32.1C24.5,32,24.5,32.1,24.4,32.1z M22.6,31.5L22.6,31.5
		c0.5,0,0.9,0,1.4,0c0.3,0,0.6-0.2,0.6-0.5s-0.2-0.6-0.6-0.6c-0.9,0-1.8,0-2.8,0c-0.3,0-0.6,0.2-0.6,0.5s0.2,0.5,0.6,0.5
		C21.7,31.5,22.1,31.5,22.6,31.5z"/>
	<path class="st1" d="M19.1,10c0-0.2,0.1-0.3,0.3-0.3s0.3,0.1,0.3,0.3c0.1,0.7,0.3,1.3,0.4,2c0.2,1,0.4,1.9,0.6,2.9
		c0.4,1.9,0.7,3.8,1.1,5.6c0,0.1,0,0.2,0.1,0.3c0,0.2-0.1,0.3-0.2,0.4c-0.2,0-0.3-0.1-0.4-0.3c-0.2-1-0.4-1.9-0.6-2.9
		c-0.3-1.4-0.5-2.7-0.8-4.1C19.6,12.6,19.4,11.4,19.1,10C19.1,10.1,19.1,10.1,19.1,10z"/>
	<path class="st1" d="M24,20.6c0,0.2-0.1,0.3-0.1,0.5c0,0-0.1,0-0.1,0.1c-0.3,0.1-0.5-0.1-0.4-0.4c0.3-1.3,0.5-2.7,0.8-4
		c0.3-1.6,0.6-3.2,0.9-4.7c0.1-0.6,0.2-1.1,0.3-1.7c0.1-0.1,0-0.3,0.1-0.4c0,0,0.1,0,0.1-0.1c0.1-0.1,0.2-0.1,0.3,0s0.2,0.2,0.1,0.4
		c-0.3,1.6-0.6,3.2-1,4.8c-0.3,1.7-0.7,3.4-1,5.1v0.1l0,0c0,0,0,0,0,0.1L24,20.6C24,20.5,24,20.5,24,20.6L24,20.6z"/>
	<path class="st1" d="M19.5,23.1C19.5,23.2,19.5,23.2,19.5,23.1C19.5,23.2,19.5,23.2,19.5,23.1L19.5,23.1L19.5,23.1z"/>
	<path class="st1" d="M10.8,12.6H0.9c-0.3,0-0.6-0.3-0.6-0.6l0,0c0-0.3,0.3-0.6,0.6-0.6h9.9c0.3,0,0.6,0.3,0.6,0.6l0,0
		C11.4,12.4,11.1,12.6,10.8,12.6z"/>
	<path class="st1" d="M44.2,12.6h-9.9c-0.3,0-0.6-0.3-0.6-0.6l0,0c0-0.3,0.3-0.6,0.6-0.6h9.9c0.3,0,0.6,0.3,0.6,0.6l0,0
		C44.8,12.4,44.5,12.6,44.2,12.6z"/>
	<path class="st1" d="M11.2,8.6l-7-7C4,1.4,4,1,4.2,0.8l0,0c0.2-0.2,0.6-0.2,0.8,0l7,7c0.2,0.2,0.2,0.6,0,0.8l0,0
		C11.8,8.8,11.4,8.8,11.2,8.6z"/>
	<path class="st1" d="M33.9,8.6l7-7c0.2-0.2,0.2-0.6,0-0.8l0,0c-0.2-0.2-0.6-0.2-0.8,0l-7,7c-0.2,0.2-0.2,0.6,0,0.8l0,0
		C33.3,8.8,33.7,8.8,33.9,8.6z"/>
	<path class="st1" d="M12.2,14.8l-7,7C5,22,5,22.4,5.2,22.6l0,0c0.2,0.2,0.6,0.2,0.8,0l7-7c0.2-0.2,0.2-0.6,0-0.8l0,0
		C12.8,14.6,12.4,14.6,12.2,14.8z"/>
	<path class="st1" d="M32.9,14.8l7,7c0.2,0.2,0.2,0.6,0,0.8l0,0c-0.2,0.2-0.6,0.2-0.8,0l-7-7c-0.2-0.2-0.2-0.6,0-0.8l0,0
		C32.3,14.6,32.7,14.6,32.9,14.8z"/>
</g>
<g id="Calque_4" class="st0">
	<path class="st1" d="M4.5,12.7c0.7,0,1.5,0,2.2,0c0.2,0,0.3,0,0.3-0.2c0.1-0.3,0.3-0.7,0.5-1c0.4-0.9,1-1.6,1.7-2.3
		c2-1.8,4.3-2.7,6.9-2.5c2.3,0.1,4.3,0.9,6,2.5c0.1,0.1,0.2,0.1,0.3,0c1.3-1.2,2.7-2,4.4-2.3c3-0.6,5.8,0,8.2,2
		c1.1,0.9,2,2.1,2.5,3.5c0.1,0.2,0.2,0.3,0.4,0.3c0.9,0,1.8,0,2.7,0c0.5,0,0.6,0.2,0.6,0.6c0,1.3,0,2.5,0,3.8c0,0.3-0.2,0.5-0.5,0.5
		c-1,0-2,0-3,0c-0.1,0-0.2,0-0.3,0.2c-0.9,2.5-2.6,4.1-5,5.1c-1.3,0.6-2.7,0.8-4.2,0.7c-2.3-0.2-4.3-0.9-5.9-2.5
		c-0.1-0.1-0.1-0.1-0.2,0c-2.1,1.9-4.6,2.7-7.4,2.5c-1-0.1-1.9-0.3-2.8-0.7c-2.2-1-3.9-2.6-4.8-4.9c-0.2-0.4-0.1-0.4-0.6-0.4
		c-1.3,0-2.5,0-3.8,0c-0.2,0-0.3,0-0.5,0c-0.3,0-0.5-0.2-0.5-0.5s0-0.5,0-0.8c0-1,0-1.9,0-2.9v-0.1c0-0.5,0.2-0.7,0.7-0.7
		C3.1,12.7,3.8,12.7,4.5,12.7z M16,7.6c-1,0-1.8,0.1-2.5,0.3C11,8.6,9.1,10.1,8,12.6c-1.1,2.7-0.4,5.7,1.7,7.9
		c1.5,1.4,3.2,2.2,5.2,2.4c2.5,0.2,4.7-0.6,6.5-2.3c0.1-0.1,0.1-0.2,0-0.3c-0.6-0.7-1-1.5-1.3-2.3c0-0.1,0-0.2-0.1-0.2
		s-0.2,0.1-0.3,0.2c-0.7,0.8-1.5,1.4-2.6,1.7c-2.1,0.6-4,0.2-5.5-1.4c-1.2-1.3-1.5-3.2-0.7-4.7c0.9-1.6,2.3-2.4,4.1-2.6
		c1.8-0.2,3.3,0.4,4.6,1.7c0.1,0.1,0.2,0.1,0.2,0c0.3-0.2,0.5-0.4,0.6-0.7c0.3-0.6,0.6-1.1,1-1.6c0.1-0.1,0.1-0.2,0-0.3
		C19.9,8.4,17.9,7.6,16,7.6z M34.8,12.7L34.8,12.7c0.5,0,1,0,1.5,0c0.2,0,0.2-0.1,0.1-0.2c-0.3-0.7-0.7-1.4-1.2-2
		c-1.5-1.7-3.4-2.7-5.7-2.9c-1.8-0.2-3.5,0.2-5.1,1.1c-1.4,0.8-2.4,1.9-3.1,3.4c-0.1,0.3-0.3,0.6-0.5,0.8c-0.1,0.1-0.1,0.2-0.1,0.3
		c0.1,0.3,0.2,0.7,0.3,1.1c0.1,0.3-0.1,0.5-0.3,0.6c-0.3,0.1-0.5-0.1-0.6-0.3s-0.1-0.5-0.2-0.7c0-0.2-0.1-0.3-0.3-0.2
		c-0.1,0-0.3,0-0.4,0c-0.5,0-1,0-1.6,0c-0.2,0-0.2,0-0.2,0.2c0.3,0.9,0.5,1.8,0.7,2.7c0,0.1,0.1,0.2,0.2,0.1c0.5,0,1,0,1.4,0
		c1.7-0.2,2.9-1,3.9-2.4c0.3-0.4,0.5-0.9,0.8-1.3c0.4-0.6,0.9-1.1,1.4-1.5c1.1-0.7,2.3-0.9,3.6-0.8c1.4,0.2,2.6,0.7,3.5,1.8
		c0.1,0.1,0.2,0.1,0.3,0.1C33.8,12.7,34.3,12.7,34.8,12.7z M23.9,15.6c-0.1,0-0.1,0.1-0.1,0.1c-0.7,0.8-1.5,1.3-2.5,1.6
		c-0.2,0.1-0.1,0.1-0.1,0.3c0.5,1.5,1.4,2.7,2.7,3.6c2.9,2.1,6.7,2.2,9.7,0.2c1.3-0.9,2.3-2,2.9-3.5c0-0.1,0.1-0.2-0.1-0.2
		c-1.1,0-2.1,0-3.2,0c-0.1,0-0.2,0-0.2,0.1c-0.9,1.1-2,1.7-3.4,1.9c-1.8,0.2-3.4-0.3-4.7-1.6C24.3,17.4,24,16.6,23.9,15.6z
		 M37.8,13.6L37.8,13.6c-0.8,0-1.6,0-2.4,0c-0.1,0-0.2,0-0.2,0.2c0.3,0.9,0.5,1.9,0.7,2.8c0,0.1,0.1,0.2,0.2,0.2c1.3,0,2.6,0,3.9,0
		c0.1,0,0.2,0,0.2-0.2c0-0.9,0-1.8,0-2.7c0-0.2,0-0.2-0.2-0.2C39.3,13.6,38.6,13.6,37.8,13.6z M26.7,16.7c0.4,0,0.9,0,1.3,0
		c0.1,0,0.2,0,0.2-0.2c-0.3-0.9-0.5-1.9-0.7-2.8c0-0.1-0.1-0.2-0.2-0.1c-0.6,0-1.2,0-1.8,0c-0.1,0-0.2,0-0.3,0.1
		c-0.2,0.3-0.3,0.6-0.5,0.8c-0.1,0.1-0.1,0.2,0,0.3c0.2,0.5,0.4,1.1,0.6,1.7c0,0.1,0.1,0.2,0.3,0.2S26.3,16.7,26.7,16.7z M17.3,16.7
		c-0.3-1-0.5-2-0.8-3c0-0.1-0.1-0.1-0.1-0.1c-0.8,0-1.6,0-2.4,0c0.3,1,0.5,2,0.8,3c0,0.1,0.1,0.1,0.1,0.1
		C15.7,16.7,16.5,16.7,17.3,16.7z M31.6,16.7c-0.3-1-0.5-2-0.8-3c0-0.1-0.1-0.1-0.2-0.1c-0.7,0-1.4,0-2.2,0c-0.2,0-0.2,0-0.1,0.2
		c0.2,0.7,0.4,1.5,0.6,2.2c0.1,0.2,0,0.5,0.2,0.6s0.5,0,0.7,0C30.4,16.7,31,16.7,31.6,16.7z M35.1,16.7c-0.3-1-0.5-2-0.8-3
		c0-0.1-0.1-0.1-0.2-0.1c-0.7,0-1.5,0-2.2,0c-0.1,0-0.2,0-0.1,0.2c0.3,0.9,0.5,1.9,0.7,2.8c0,0.1,0.1,0.1,0.2,0.1c0.6,0,1.3,0,1.9,0
		C34.8,16.7,34.9,16.7,35.1,16.7z M12.9,16.7c0.3,0,0.5,0,0.8,0c0.1,0,0.2,0,0.1-0.2c-0.3-0.9-0.5-1.9-0.7-2.8
		c0-0.1-0.1-0.1-0.2-0.1c-0.2,0-0.5,0-0.7,0s-0.2,0.1-0.3,0.2c-0.4,0.9-0.4,1.9,0,2.8c0,0.1,0.1,0.1,0.2,0.1
		C12.4,16.7,12.6,16.7,12.9,16.7z M2.7,15.2c0,0.4,0,0.9,0,1.3c0,0.1,0,0.2,0.2,0.2c0.5,0,1.1,0,1.6,0c0.1,0,0.2,0,0.1-0.2
		c-0.3-0.9-0.5-1.9-0.7-2.8c0-0.1-0.1-0.2-0.2-0.2c-0.3,0-0.5,0-0.8,0c-0.2,0-0.2,0.1-0.2,0.2C2.7,14.3,2.7,14.7,2.7,15.2z
		 M12.7,12.7c2,0,3.9,0,5.9,0C17.2,11.3,14.3,11.2,12.7,12.7z M5.8,13.6c-0.3,0-0.5,0-0.8,0c-0.1,0-0.2,0-0.1,0.2
		c0.3,0.9,0.5,1.9,0.7,2.8c0,0.1,0.1,0.1,0.2,0.1c0.3,0,0.6,0,0.9,0c0.1,0,0.1,0,0.1-0.1c-0.2-0.9-0.2-1.9,0-2.8
		c0-0.1,0-0.1-0.1-0.1C6.3,13.6,6,13.6,5.8,13.6z M26,12.7c1.9,0,3.9,0,5.8,0C30.1,11.1,27.2,11.4,26,12.7z M18.6,17.7
		c-0.3,0-5.7,0-5.8,0C14.4,19.1,17.1,19,18.6,17.7z M31.8,17.7c-2,0-3.9,0-5.8,0C27.6,19.1,30.3,19.1,31.8,17.7z"/>
</g>
<g id="Calque_5" class="st0">
	<path class="st1" d="M12.9,0.1c1.2,0.3,2.4,0.9,3.6,1.3c1.7,0.6,3.3,1.2,5,1.9c0.3,0.1,0.5,0.2,0.4,0.6c-0.1,0.3,0.1,0.4,0.4,0.4
		c0.3,0,0.5-0.1,0.5,0.3c0,0.2,0.2,0.2,0.3,0.2c2.5,0.2,4,1.7,4.9,3.9c0.5,1.2,0.6,2.4,0.7,3.6c0,0.3,0.1,0.5,0.4,0.7
		c0.5,0.3,0.8,0.9,1,1.4c0.6,1.5,0.8,3.1,1,4.7c0.2,1.9,0.3,3.9,0.3,5.8c0,0.8-0.3,1.1-1,1.2c-1.1,0.1-2.3,0.1-3.4,0
		c-0.8-0.1-1.1-0.4-1.1-1.3c0.1-2.7,0-5.4,0.4-8.1c0.1-0.8,0.3-1.7,0.5-2.5c0.1-0.4,0.3-0.8,0.6-1c0.4-0.3,0.5-0.7,0.4-1.1
		c-0.2-1.8-0.5-3.6-1.8-5c-0.7-0.8-1.6-1.2-2.7-1.3c-0.3,0-0.6,0-0.5,0.4c0.1,0.5-0.1,0.6-0.6,0.6c-0.2,0-0.4-0.1-0.4,0.2
		c0,0.2-0.1,0.5,0.3,0.6c2.3,0.9,3.3,2.5,3.3,5c0,5.6,0,11.1,0,16.7c0,0.3,0,0.7-0.1,1c-0.1,0.9-0.7,1.5-1.5,1.7c-0.3,0-0.7,0-1.1,0
		c-1.6,0.1-3.2,0.1-4.9,0c-1.7-0.1-2.4-0.9-2.4-2.6c0-5.8,0-11.5,0-17.3c0-2.2,1.1-3.7,3-4.5c0.4-0.2,0.5-0.3,0.5-0.7
		c0-1.2,0-1.2-1.2-1.2c-1.1,0-2.2,0-3.3,0c-0.4,0-0.5-0.1-0.5-0.5s0.1-0.5,0.5-0.5c1.1,0,2.2,0,3.3,0c0.1-0.1,0-0.1-0.1-0.2
		c-1.5-0.6-2.9-1.3-4.4-1.9c-0.1,0-0.2,0-0.3,0C12.9,1.8,12.9,0.9,12.9,0.1z M16.5,20.6c0,1.5,0,3,0,4.5c0,0.4,0.1,0.5,0.5,0.5
		c2.3,0,4.7,0,7,0c0.4,0,0.5-0.1,0.5-0.5c0-3,0-5.9,0-8.9c0-0.4-0.1-0.5-0.5-0.5c-2.3,0-4.7,0-7,0c-0.4,0-0.5,0.1-0.5,0.5
		C16.5,17.6,16.5,19.1,16.5,20.6z M20.4,14.7c1.2,0,2.4,0,3.5,0c0.2,0,0.5,0.1,0.5-0.2c0-1.2,0.2-2.5-0.2-3.7
		c-0.5-1.3-1.4-2-2.7-2.4c-0.4-0.1-0.7-0.3-0.6-0.8c0.1-0.5,0-1,0-1.5c0-0.4-0.2-0.3-0.5-0.3c-0.2,0-0.5-0.1-0.5,0.3
		c0,0.5,0,1,0,1.5c0.1,0.5-0.2,0.7-0.7,0.8c-1.7,0.5-2.7,1.9-2.7,3.7c0,0.7,0,1.4,0,2c0,0.4,0.1,0.5,0.5,0.5
		C18.1,14.6,19.3,14.7,20.4,14.7z M20.5,31.1c0.9,0,1.8,0,2.7-0.1c1-0.1,1.3-0.5,1.3-1.4s0-1.7,0-2.6c0-0.3-0.1-0.4-0.4-0.4
		c-2.4,0-4.8,0-7.1,0c-0.3,0-0.4,0.1-0.4,0.4c0,0.9,0,1.8,0,2.7c0,0.9,0.3,1.3,1.3,1.4C18.7,31.1,19.6,31.1,20.5,31.1z M26.8,22.2
		c0,0.8,0,1.5,0,2.3c0,0.2,0,0.4,0.3,0.5c0.9,0.1,1.9,0.1,2.8,0c0.3,0,0.4-0.1,0.4-0.4c0-2.9-0.1-5.7-0.7-8.5
		c-0.1-0.6-0.3-1.3-0.6-1.8c-0.2-0.3-0.3-0.7-0.7-0.6c-0.4,0-0.4,0.4-0.6,0.7c-0.1,0.3-0.2,0.7-0.3,1C27,17.6,26.9,19.9,26.8,22.2z
		 M20.9,4.4C21,4.1,20.8,4.1,20.6,4c-0.7-0.3-1.3-0.5-2-0.8c-1.4-0.5-2.9-1.1-4.3-1.6c-0.1,0-0.3-0.2-0.4,0c-0.1,0.2,0,0.3,0.2,0.3
		c0.1,0,0.1,0.1,0.2,0.1c1.9,0.8,3.9,1.7,5.8,2.5c0.1,0.1,0.3,0.1,0.4,0.1C20.8,4.8,21,4.7,20.9,4.4z"/>
</g>
<g id="Calque_6" class="st0">
	<path class="st1" d="M28.7,6.5L11.6,27.7c-1.7,2.1-4.7,2.7-6.5,1.2s-1.9-4.5-0.2-6.6L22,1.1l0,0l-0.5-0.4c-0.3,0.2-0.5,0.4-0.7,0.7
		L2.9,23.5c-1.8,2.2-1.5,5.5,0.8,7.4c2.2,1.8,5.5,1.5,7.4-0.8L28.9,8c0.2-0.3,0.4-0.5,0.6-0.8L28.7,6.5L28.7,6.5z"/>
	<circle class="st1" cx="23.8" cy="4.7" r="0.9"/>
	<circle class="st1" cx="20.8" cy="8.1" r="0.9"/>
	<circle class="st1" cx="25.3" cy="1.9" r="0.9"/>
	<circle class="st1" cx="27.7" cy="4" r="0.9"/>
	<circle class="st1" cx="28.5" cy="1" r="0.9"/>
	<circle class="st1" cx="24.2" cy="7.4" r="0.9"/>
	<circle class="st1" cx="26.6" cy="6.1" r="0.9"/>
	<line class="st7" x1="13" y1="11.6" x2="25.3" y2="11.5"/>
</g>
<g id="Calque_7" class="st0">
	<path class="st1" d="M1,16.1c0-8.8,7.2-16,16-16s16,7.2,15.9,16c0,8.8-7.2,16-16,16S0.9,24.9,1,16.1z M17,1.2
		c-4.1,0-7.7,1.5-10.6,4.4s-4.3,6.5-4.3,10.7C2.1,24.3,8.8,31,17,31s15-6.8,14.9-14.9c-0.1-5.3-2.3-9.4-6.6-12.4
		C22.8,2,20,1.1,17,1.2z"/>
	<path class="st1" d="M10.3,18.4c0-0.5,0-0.9,0-1.4c0-0.1,0.1-0.2,0.2-0.3c0.2-0.2,0.5-0.3,0.7-0.5c0.3-0.2,0.6-0.4,0.9-0.7
		c0.2-0.1,0.4-0.3,0.6-0.4c0.2-0.2,0.4-0.3,0.6-0.5c0.2-0.1,0.4-0.3,0.6-0.4c0.2-0.2,0.5-0.4,0.7-0.5s0.4-0.2,0.5-0.4
		c0.2-0.2,0.4-0.3,0.6-0.4c0.2-0.2,0.5-0.4,0.7-0.5s0.3-0.2,0.5-0.4c0.1,0,0.1,0,0.1,0c0.2,0.1,0.3,0.2,0.5,0.3
		c0.2,0.2,0.5,0.4,0.7,0.5c0.3,0.2,0.6,0.4,0.8,0.6c0.2,0.2,0.5,0.3,0.7,0.5s0.4,0.3,0.7,0.5s0.5,0.4,0.8,0.6
		c0.4,0.3,0.7,0.5,1.1,0.8c0.3,0.2,0.7,0.5,1,0.7c0.1,0.1,0.2,0.2,0.3,0.2s0.1,0.1,0.1,0.2c0,0.9,0,1.9,0,2.8c0,0.1,0,0.1-0.1,0.2
		c-0.1,0-0.2,0-0.2,0c-0.2-0.1-0.3-0.2-0.5-0.3c-0.2-0.1-0.4-0.3-0.6-0.4c-0.2-0.2-0.5-0.4-0.7-0.5s-0.3-0.2-0.5-0.4
		c-0.2-0.1-0.4-0.3-0.6-0.4c-0.2-0.1-0.3-0.2-0.5-0.4c-0.3-0.2-0.5-0.4-0.8-0.6c-0.1-0.1-0.2-0.1-0.3-0.2c-0.2-0.2-0.5-0.4-0.8-0.6
		c-0.2-0.1-0.3-0.2-0.5-0.4c-0.2-0.1-0.4-0.3-0.5-0.4c-0.1-0.1-0.2-0.1-0.2-0.2c0,0,0,0-0.1,0c-0.3,0.2-0.5,0.4-0.8,0.6
		c-0.4,0.3-0.8,0.6-1.1,0.9c-0.2,0.2-0.5,0.3-0.7,0.5c-0.3,0.2-0.7,0.5-1,0.7s-0.5,0.4-0.7,0.5c-0.3,0.2-0.7,0.5-1,0.7
		c-0.2,0.1-0.3,0.2-0.5,0.4c-0.2,0.1-0.4,0.3-0.6,0.4c0,0-0.1,0.1-0.2,0.1c-0.1,0,0-0.1,0-0.1C10.3,19.4,10.3,18.9,10.3,18.4z"/>
	<path class="st1" d="M10.3,14.4c0-0.1,0-0.1,0-0.2c0-0.9,0-1.9,0-2.8c0-0.1,0.1-0.2,0.2-0.3c0.2-0.2,0.5-0.3,0.7-0.5
		c0.3-0.2,0.6-0.5,0.9-0.7c0.2-0.1,0.4-0.3,0.6-0.4c0.2-0.2,0.5-0.3,0.7-0.5c0.2-0.1,0.4-0.3,0.5-0.4c0.2-0.1,0.4-0.3,0.6-0.4
		c0.2-0.1,0.4-0.3,0.5-0.4c0.2-0.2,0.5-0.4,0.7-0.5c0.1-0.1,0.2-0.1,0.3-0.2c0.3-0.2,0.5-0.4,0.8-0.6c0,0,0.1-0.1,0.1,0
		c0.2,0.2,0.4,0.3,0.6,0.5c0.2,0.2,0.4,0.3,0.6,0.5C18.4,7.7,18.7,8,19,8.2c0.2,0.2,0.5,0.3,0.7,0.5s0.5,0.4,0.8,0.6
		c0.2,0.2,0.4,0.3,0.6,0.4c0.3,0.2,0.6,0.4,0.9,0.7c0.1,0.1,0.2,0.2,0.4,0.2c0.2,0.2,0.5,0.4,0.7,0.5c0.1,0.1,0.2,0.2,0.3,0.2
		c0.1,0.1,0.1,0.1,0.1,0.2c0,0.9,0,1.9,0,2.8c0,0.1-0.1,0.2-0.2,0.1c-0.2-0.1-0.4-0.3-0.6-0.4c-0.2-0.2-0.5-0.3-0.7-0.5
		c-0.3-0.3-0.7-0.5-1-0.7c-0.2-0.1-0.3-0.2-0.5-0.4c-0.3-0.2-0.6-0.5-1-0.7c-0.3-0.2-0.5-0.4-0.8-0.6c-0.2-0.2-0.5-0.3-0.7-0.5
		c-0.2-0.1-0.4-0.3-0.5-0.4c0-0.2-0.3-0.4-0.5-0.6h-0.1c-0.3,0.3-0.7,0.5-1,0.7s-0.5,0.4-0.8,0.6c-0.2,0.2-0.5,0.4-0.7,0.5
		c-0.3,0.2-0.6,0.5-0.9,0.7c-0.3,0.2-0.5,0.4-0.8,0.6c-0.4,0.3-0.8,0.5-1.1,0.8c-0.2,0.1-0.4,0.3-0.6,0.4c-0.2,0.1-0.4,0.3-0.6,0.4
		C10.4,14.4,10.4,14.4,10.3,14.4z"/>
	<path class="st1" d="M10.3,24.2c0-0.5,0-1,0-1.4c0-0.1,0-0.2,0.1-0.2c0.3-0.2,0.5-0.4,0.8-0.6c0.2-0.1,0.4-0.3,0.6-0.4
		c0.3-0.2,0.6-0.4,0.9-0.7c0.2-0.2,0.5-0.4,0.8-0.6s0.5-0.4,0.8-0.6c0.2-0.2,0.5-0.3,0.7-0.5s0.5-0.3,0.7-0.5
		c0.1-0.1,0.3-0.2,0.5-0.3c0.2-0.2,0.5-0.4,0.7-0.5c0.1,0,0.1,0,0.2,0c0.3,0.2,0.5,0.4,0.8,0.6c0.2,0.1,0.4,0.2,0.5,0.4
		c0.3,0.2,0.5,0.4,0.8,0.6c0.2,0.1,0.3,0.3,0.5,0.4s0.3,0.3,0.5,0.4s0.4,0.2,0.5,0.4c0.2,0.2,0.5,0.4,0.7,0.5s0.4,0.2,0.5,0.4
		c0.3,0.2,0.7,0.5,1,0.7c0.2,0.1,0.4,0.3,0.6,0.4c0.2,0.1,0.3,0.2,0.2,0.4c0,0.9,0,1.7,0,2.6c0,0.1,0,0.2-0.1,0.2
		c-0.1,0.1-0.1,0-0.2-0.1c-0.4-0.3-0.8-0.6-1.2-0.9S21.4,24.3,21,24c-0.3-0.2-0.7-0.5-1-0.7c-0.2-0.2-0.5-0.3-0.7-0.5
		c-0.3-0.2-0.6-0.4-0.9-0.6c-0.3-0.3-0.7-0.5-1-0.8c-0.1-0.1-0.3-0.2-0.5-0.3h-0.1c-0.2,0.2-0.5,0.3-0.7,0.5s-0.5,0.4-0.8,0.6
		c-0.2,0.2-0.5,0.4-0.7,0.5s-0.4,0.2-0.6,0.4c-0.2,0.2-0.5,0.3-0.7,0.5c-0.2,0.1-0.3,0.2-0.5,0.4c-0.2,0.1-0.4,0.3-0.6,0.4
		c-0.2,0.1-0.4,0.3-0.5,0.4c-0.2,0.1-0.4,0.3-0.6,0.4c-0.1,0.1-0.3,0.2-0.4,0.3c-0.1,0.1-0.3,0.2-0.4,0.3h-0.1v-0.1
		C10.3,25.1,10.3,24.7,10.3,24.2z"/>
</g>
<g id="Calque_8" class="st0">
	<path class="st1" d="M43.6,25.5c-1.9-1.5-3.8-3-5.7-4.6c-1.1-0.9-1.9-2.4-1.8-3.6c0.2-2.3-3.5-4.8-4.1-5.3c0,0-0.9-0.7-1.6-1.3
		c-0.8-0.6-1.6-0.6-2.3,0.2c-0.1,0-0.2,0.1-0.2,0.1c-0.8,0.9-1.8,0.5-2.1-0.2c-0.4-1.1-6-5.7-7.4-6.5C17.8,4,17.1,3,16.5,3.5
		c-0.9,0.7-1.2-0.4-1.2-1.2c0-1.2,0.4-1.3-0.2-1.7c-0.5-0.3-0.8,0.6-0.8,0.6s-0.5,0.6-0.7,0.7c-0.2-0.1-0.3-0.1-0.4-0.1l0,0
		c0.4-0.4-0.9-1.1-1.4-1.6c-0.3-0.3-0.7-0.3-1,0.1c-0.4,0.4-0.2,0.7,0.1,1c0.6,0.5,1.4,1.6,2,1.2c0.1,0,0.2,0,0.2,0
		c0.2,0.2,0.7,0.6,0.8,0.7c0.6,0.6,1.3,1.1,1.2,2.1c-0.1,1.1,7.5,6.8,9,8.3c-1.3,1.4-5.2,5.5-4.7,5.8c-0.3,0.4,1.7,2.6,1.8,2.7
		c0.9,0.8,2.1-1.2,3.2-2.1c0.7-0.6,1.4-2.1,2.8-0.8c0.5,0.6-0.9,2,0.6,2c0.1-0.3,0.3-0.8,0.7-0.9c0.2,0,0.5,0.8,0.7,0.9
		c0.1,0,0.2,0.1,0.3,0.1c-0.1,0.1-0.6,0.2-0.8,0.4c0.9,0.8,0.6,3.9,0.6,4.4c0.1,1.1,0.1,1.6,1.8,1.7c1.1,0.1,1-0.4,1.1-1.7
		c0-0.8-0.1-1.6,0.2-2.4c0.4-1.2,1.6-2,2.6-1.3c1.3,0.9,2.7,1.9,2.9,3.8c0.1,1.1,0.3,2.1,0.4,3.2c0.1,1.2,1.2,1.7,2,2.1
		c0.9,0.5,1.2-0.6,1.6-1.1c0.8-0.8,1.4-1.8,2.2-2.6C44.8,27.1,44.7,26.3,43.6,25.5z M14.9,1.8c-0.1,0.1-0.1,0.1-0.2,0.2
		c0-0.1,0-0.3,0.1-0.4C14.8,1.7,14.9,1.7,14.9,1.8z M33.9,16.5c-1.8-1.5-3.5-2.8-5.2-4.2c-0.5-0.4-0.1-0.4-0.1-0.7
		c0.7-0.7,0.9-0.5,3.1,1.1C33.9,14.5,34.4,15.1,33.9,16.5z"/>
	<path class="st1" d="M-6.4,28.1c0.8,0.8,1.4,1.8,2.2,2.6c0.5,0.5,0.7,1.6,1.6,1.1c0.8-0.5,1.9-0.9,2-2.1c0.1-1.1,0.3-2.1,0.4-3.2
		c0.2-1.9,1.6-2.8,2.9-3.8c1-0.7,2.2,0,2.6,1.3c0.2,0.8,0.2,1.6,0.2,2.4c0,1.3-0.1,1.8,1.1,1.7c1.7-0.1,1.7-0.7,1.8-1.7
		C8.4,26,8.1,22.9,9,22c-0.1-0.2-0.7-0.3-0.8-0.4c0.1-0.1,0.2-0.1,0.3-0.1c0.2-0.1,0.5-0.9,0.7-0.9c0.4,0.1,0.6,0.6,0.7,0.9
		c1.5-0.1,0.1-1.4,0.6-2c1.3-1.3,2,0.2,2.8,0.8c1,0.9,2.3,2.9,3.2,2.1c0.1-0.1,2.1-2.3,1.8-2.7c0.4-0.3-3.5-4.4-4.7-5.8
		c1.5-1.5,9.1-7.2,9-8.3c-0.1-1,0.6-1.5,1.2-2.1c0.1-0.1,0.6-0.6,0.8-0.7c0-0.1,0.1-0.1,0.2,0c0.5,0.3,1.4-0.7,2-1.2
		c0.3-0.3,0.5-0.6,0.1-1C26.5,0,26.1,0,25.8,0.3c-0.5,0.5-1.9,1.1-1.4,1.6l0,0c-0.1,0-0.2,0-0.4,0.1c-0.2-0.2-0.7-0.7-0.7-0.7
		S23,0.4,22.5,0.7c-0.6,0.4-0.2,0.5-0.2,1.7c0,0.8-0.3,1.9-1.2,1.2c-0.7-0.6-1.4,0.4-2,0.7c-1.4,0.8-7,5.4-7.4,6.5
		c-0.2,0.7-1.3,1.1-2.1,0.2c-0.1,0-0.2,0-0.2-0.1c-0.8-0.9-1.5-0.8-2.3-0.2S5.5,12,5.5,12c-0.6,0.5-4.3,3-4.1,5.3
		c0.1,1.2-0.7,2.7-1.8,3.6c-1.9,1.6-3.8,3.1-5.7,4.6C-7.2,26.3-7.3,27.1-6.4,28.1z M22.7,1.6c0,0.1,0.1,0.2,0.1,0.4
		c-0.1-0.1-0.1-0.1-0.2-0.2C22.6,1.7,22.7,1.7,22.7,1.6z M5.7,12.6c2.1-1.6,2.4-1.8,3.1-1.1c0,0.3,0.4,0.3-0.1,0.7
		c-1.7,1.4-3.4,2.7-5.2,4.2C3.1,15.1,3.6,14.5,5.7,12.6z"/>
</g>
<g id="Calque_9" class="st0">
	<path class="st1" d="M2.7,14.9c0.1-0.2,0.1-0.4,0.2-0.7c4.6,0,9.3,0,14.1,0c0-0.3,0-0.6,0-0.8c0-3,0-6,0-9c0-1.5,0.1-1.5,1.5-1.5
		c1.7,0,1.5,0,1.6,1.6c0.1,2.9,0.1,5.9,0,8.8c0,0.7,0.1,0.9,0.9,0.9c4.2,0,8.4,0,12.6,0c0.2,0,0.4,0,0.6,0c0.1,0.3,0.2,0.5,0.2,0.8
		c0,0.8,0,1.6,0,2.4c-0.1,0.2-0.2,0.5-0.2,0.8c-4.7,0-9.3,0-14.1,0c0,0.3,0,0.6,0,0.9c0,4.1,0,8.2,0,12.3c0,0.3,0,0.6-0.4,0.8
		c-0.8,0-1.6,0-2.4,0c-0.4-0.1-0.4-0.4-0.4-0.8c0-4.1,0-8.1,0-12.2c0-0.3,0-0.6,0-1c-4.8,0-9.5,0-14.1,0c-0.1-0.3-0.2-0.5-0.2-0.7
		C2.7,16.5,2.7,15.7,2.7,14.9z"/>
	<path class="st1" d="M19.8,0.2c0.2,0.2,0.3,0.4,0.5,0.6c0,0.1-0.1,0.1-0.1,0.2c-1,0-2,0-3.1,0C17,0.6,17,0.3,17.4,0.2
		C18.2,0.2,19,0.2,19.8,0.2z"/>
	<path class="st1" d="M15.7,0.4c0.2,0.6,0.1,0.8-0.5,0.9c-2.1,0.5-4,1.4-5.7,2.7C9.3,4.2,9.1,4.4,9.1,4.6c0.5-0.1,1.1-0.2,1.5-0.4
		c1.4-0.7,2.9-0.9,4.5-1.1c0.5-0.1,0.7,0.1,0.7,0.6c0,2.7,0,5.5,0,8.3c-3.2-2-6.3-3.9-9.6-5.9C8.7,3,11.9,1.2,15.7,0.4z"/>
	<path class="st1" d="M28.4,4.7c-0.2-0.2-0.3-0.3-0.5-0.5c-1.8-1.4-3.8-2.4-6-2.9c-0.5-0.1-0.6-0.4-0.5-0.9c3.8,0.7,7,2.6,9.6,5.7
		c-3.2,2-6.3,3.9-9.5,5.9c-0.1-0.1-0.1-0.2-0.1-0.2c0-2.7,0-5.3,0-8c0-0.7,0.3-0.8,0.9-0.7c1.5,0.3,3,0.6,4.5,1
		c0.5,0.1,0.9,0.5,1.4,0.8c0,0,0.1,0,0.2,0C28.3,4.8,28.4,4.8,28.4,4.7z"/>
	<path class="st1" d="M22.1,12.5c3.1-1.9,6.2-3.8,9.3-5.8c0.2,0.3,0.5,0.6,0.7,1c-2.4,1.5-4.8,2.9-7.1,4.4
		C24,12.8,23.1,12.6,22.1,12.5z"/>
	<path class="st1" d="M4.1,9.4c1.7,1.1,3.4,2.1,5.2,3.2c-2.2,0-4.1,0-6.2,0C3.4,11.5,3.7,10.5,4.1,9.4z"/>
	<path class="st1" d="M28.2,12.5c1.6-1,3.2-2,4.9-3.1c0.4,1.1,0.7,2.1,1.1,3.2C32.1,12.6,30.2,12.6,28.2,12.5
		C28.2,12.6,28.2,12.5,28.2,12.5z"/>
	<path class="st1" d="M4.5,8.8c0.2-0.4,0.4-0.7,0.6-1.1c2.6,1.6,5.1,3.2,7.7,4.8c-1,0.1-1.9,0.3-2.8-0.3C8.2,11,6.3,10,4.5,8.8z"/>
	<path class="st1" d="M21.4,20.2c3.2,2,6.4,3.9,9.6,5.9c-2.5,3.1-5.7,4.9-9.6,5.7C21.4,27.9,21.4,24.1,21.4,20.2z"/>
	<path class="st1" d="M28.1,19.5c2,0,3.9,0,6,0c-0.4,1.1-0.7,2.1-1.1,3.2c-1.7-1.1-3.4-2.1-5-3.1C28.1,19.6,28.1,19.5,28.1,19.5z"/>
	<path class="st1" d="M32.7,23.4c-0.2,0.4-0.4,0.7-0.6,1c-2.6-1.6-5.1-3.2-7.7-4.8c1-0.1,1.9-0.3,2.8,0.3c1.6,1.1,3.2,2,4.8,3
		C32.3,23.1,32.5,23.2,32.7,23.4z"/>
	<path class="st1" d="M15.8,20.1c0,3.9,0,7.7,0,11.5c-3.1-0.3-7.2-2.5-9.6-5.6C9.4,24.1,12.5,22.1,15.8,20.1z"/>
	<path class="st1" d="M15.1,19.7c-3.1,1.9-6.2,3.8-9.3,5.8c-0.2-0.3-0.5-0.6-0.7-1c2-1.2,3.9-2.4,5.9-3.6c0.4-0.3,0.9-0.5,1.3-0.8
		C13.1,19.3,14,19.5,15.1,19.7z"/>
	<path class="st1" d="M3,19.5c2.1,0,4.1,0,6.2,0c-1.8,1.1-3.4,2.1-5.1,3.2C3.7,21.6,3.4,20.6,3,19.5z"/>
</g>
<g id="Calque_10">
	<path class="st6" d="M30.8,15.7c-1.1,0.1-2.2,0-3.3,0.1c-0.8,0.1-1.4,0-2-0.6c-0.3-0.3-0.4-0.7-0.5-1c-0.3-0.7-0.7-1.4-1-2
		c-0.1-0.3-0.2-0.1-0.3,0c-0.4,0.6-0.8,1.1-1.2,1.7c-0.7,1-1.3,2-2,2.9c-0.1,0.2-0.2,0.3,0.1,0.5c1.6,1,3.1,2,4.7,3
		c0.9,0.5,1.2,1.5,0.7,2.4c-0.8,1.4-1.6,2.8-2.4,4.2c-0.7,1.1-1.3,2.3-2.1,3.4c-0.4,0.6-0.8,1.2-1.5,1.4c-0.7,0.3-1.5,0-1.6-0.9
		c0-0.9,0.2-1.6,0.7-2.4c0.9-1.9,1.6-3.8,2.5-5.7c0.1-0.2,0.1-0.3-0.2-0.5c-1.3-0.8-2.6-1.6-3.9-2.5c-0.7-0.4-1.4-0.7-2.1-1.2
		c-1-0.7-1.5-1.7-1.1-2.9c0.3-0.9,0.9-1.7,1.5-2.5c1.2-1.5,2.3-3.1,3.4-4.6c0.1-0.2,0.1-0.3-0.1-0.3c-1,0-1.8-0.2-2.7-0.4
		C16,7.7,15.9,7.9,15.7,8c-0.7,0.3-1.3,0.6-2,1c-1,0.5-2,0.9-2.8,1.4c-0.4,0.2-0.9,0.3-1.3,0.2c-0.7,0-0.8-0.7-0.5-1.1
		c0.2-0.6,0.8-1,1.3-1.4c1-0.7,2-1.4,2.9-2.1c0.5-0.4,1.2-0.9,1.7-1.2c0.4-0.2,0.9-0.2,1.2-0.2c1.7,0.3,3.6,0.7,5.3,1
		c0.7,0.1,1.2,0.5,1.8,0.9c0.7,0.4,1.4,0.8,2.1,1.3c0.3,0.2,0.4,0.6,0.7,1c0.4,0.8,0.8,1.6,1.1,2.4c0.3,0.6,0.7,1.3,0.9,1.9
		c0,0.1,0,0.1,0.1,0.1c0.5,0,1.1,0.1,1.6,0.1c1,0.1,2,0.1,2.8,0.2c0.4,0,0.8,0.1,1.2,0.3c0.5,0.4,0.5,1.1,0,1.5
		c-0.4,0.3-1,0.3-1.4,0.4C31.9,15.7,31.3,15.8,30.8,15.7z"/>
	<path class="st6" d="M13,18.6c0.5,1,1.5,1.7,2.5,2.3c0.1,0.1,0.1,0.2,0.2,0.2c0.1,0.1,0.1,0.1,0,0.2c-0.7,0.8-1.2,1.7-1.8,2.5
		c-0.4,0.5-1,0.8-1.6,0.8c-1.1,0-2.1-0.1-3.1-0.1c-0.7,0-1.3-0.1-1.8-0.1c-1.2-0.1-2.4-0.1-3.6-0.3c-0.4-0.1-0.8-0.2-1.1-0.5
		c-0.5-0.5-0.4-1.4,0.2-1.7c0.4-0.2,0.9-0.4,1.4-0.4c1.1-0.1,2.2-0.1,3.1-0.2c0.7,0,1.3-0.1,2-0.1c0.5,0,1.1-0.1,1.7-0.1
		c0.2,0,0.3-0.2,0.4-0.4c0.4-0.6,1-1.2,1.4-1.8C12.8,18.7,12.9,18.6,13,18.6z"/>
	<path class="st6" d="M26.9,6c-1.7,0.1-3.3-1.3-3.1-3c0.1-1.6,1.4-2.9,3.3-2.9c1.7,0,3.3,1.3,3.1,3.1C30,4.7,28.6,6,26.9,6z"/>
</g>
</svg>
