<?xml version="1.0" encoding="utf-8"?>
<!-- Generator: Adobe Illustrator 16.0.3, SVG Export Plug-In . SVG Version: 6.00 Build 0)  -->
<!DOCTYPE svg PUBLIC "-//W3C//DTD SVG 1.1//EN" "http://www.w3.org/Graphics/SVG/1.1/DTD/svg11.dtd">
<svg version="1.1" id="Layer_1" xmlns="http://www.w3.org/2000/svg" xmlns:xlink="http://www.w3.org/1999/xlink" x="0px" y="0px"
	 width="120px" height="120px" viewBox="0 0 120 120" enable-background="new 0 0 120 120" xml:space="preserve">
<g>
	<polygon points="17.711,86.754 20.786,86.754 24.857,92.9 28.915,86.754 32.003,86.754 32.003,100.114 29.584,100.114 
		29.584,89.833 25.731,95.532 23.97,95.532 20.116,89.833 20.116,100.114 17.711,100.114 	"/>
	<path d="M41.252,86.754h3.196l5.738,13.36h-2.568l-1.558-3.738h-6.421l-1.558,3.738h-2.568L41.252,86.754L41.252,86.754z
		 M45.269,94.502l-2.418-5.786l-2.419,5.786H45.269L45.269,94.502z"/>
	<path d="M53.753,86.754h4.152c3.089,0,4.974,1.491,4.974,3.85c0,1.603-0.889,2.807-2.391,3.414l4.685,6.085H62.25l-4.098-5.651
		H56.13v5.651h-2.392V86.741L53.753,86.754z M56.143,88.641v3.936h1.886c1.49,0,2.351-0.719,2.351-2.01
		c0-1.206-0.861-1.926-2.351-1.926H56.143L56.143,88.641z"/>
	<rect x="68.303" y="86.754" width="2.392" height="13.36"/>
	<polygon points="76.063,86.754 79.179,86.754 86.733,97.232 86.733,86.754 89.151,86.754 89.151,100.114 86.023,100.114 
		78.468,89.635 78.468,100.114 76.063,100.114 	"/>
	<polygon points="94.507,86.754 102.691,86.754 102.691,88.653 96.898,88.653 96.898,92.367 101.857,92.367 101.857,94.253 
		96.898,94.253 96.898,98.228 102.691,98.228 102.691,100.114 94.507,100.114 	"/>
	<polygon points="17.78,106.932 19.078,106.932 25.8,115.462 25.8,106.932 26.757,106.932 26.757,116.48 25.458,116.48 
		18.751,107.936 18.751,116.48 17.78,116.48 	"/>
	<path d="M33.341,106.932h1.312l4.318,9.536h-1.011l-1.353-3.005h-5.232l-1.353,3.005h-1.024l4.331-9.536H33.341z M36.265,112.692
		l-2.267-5.078l-2.282,5.078H36.265z"/>
	<polygon points="39.011,106.932 47.222,106.932 47.222,107.738 43.601,107.738 43.601,116.48 42.632,116.48 42.632,107.738 
		39.011,107.738 	"/>
	<rect x="49.531" y="106.932" width="0.957" height="9.536"/>
	<path d="M64.025,111.699c0,2.732-2.213,5.041-5.464,5.041c-3.252,0-5.492-2.321-5.492-5.041s2.214-5.041,5.492-5.041
		C61.841,106.658,64.025,108.979,64.025,111.699 M63.029,111.699c0-2.322-1.859-4.222-4.454-4.222c-2.596,0-4.481,1.911-4.481,4.222
		c0,2.31,1.858,4.222,4.481,4.222S63.029,113.995,63.029,111.699"/>
	<polygon points="66.609,106.932 67.894,106.932 74.615,115.462 74.615,106.932 75.571,106.932 75.571,116.48 74.287,116.48 
		67.565,107.936 67.565,116.48 66.609,116.48 	"/>
	<path d="M82.154,106.932h1.313l4.317,9.536h-0.997l-1.352-3.005h-5.234l-1.352,3.005h-1.025L82.154,106.932z M85.08,112.692
		l-2.269-5.078l-2.282,5.078H85.08z"/>
	<polygon points="90.054,106.932 91.01,106.932 91.01,115.672 95.379,115.672 95.379,116.48 90.054,116.48 	"/>
	<polygon points="97.689,106.932 103.031,106.932 103.031,107.713 98.66,107.713 98.66,111.239 102.43,111.239 102.43,112.011 
		98.66,112.011 98.66,115.697 103.031,115.697 103.031,116.48 97.689,116.48 	"/>
	<rect x="17.521" y="103.145" width="85.415" height="0.931"/>
</g>
<path d="M81.527,23.353c-3.813,7.687-7.186,15.533-10.26,23.468l-3.498,9.536L63.629,68.65l-3.824,12.565V3.971h-0.083
	l-20.67,18.774L59.832,1.5L81.527,23.353z"/>
<path d="M91.146,60.182c0.15,0.932-0.069,1.826-0.22,2.706c-0.82,0.162-1.654,0.336-2.31,0.709
	c-0.082,0.819,0.096,1.714-0.177,2.433c-1.051,0.547-2.376,0.734-3.333,1.429c0.451-0.074,0.957-0.262,1.529-0.173
	c0.342,0.72,0.326,1.649,0.37,2.433v0.037c2.527-0.248,5.053-1.13,7.828-0.743c0.41,0.669,0.205,1.538,0.368,2.296
	c2.555-0.05,5.533-0.696,7.854,0.322c0.398,0.646-0.122,1.403-0.177,2.099c-0.301,0.608-0.409,1.428-1.038,1.85
	c-5.587-0.297-11.216,0.497-16.067,2.459c-0.86-0.262-0.695-1.092-0.996-1.714c-1.831,0.087-3.361,1.342-5.233,1.379
	c-0.6-0.771-1.093-1.665-1.133-2.67c0.067-0.347,0.478-0.472,0.738-0.695c-1.737,0.51-3.417,1.341-5.057,2.234
	c-0.395,0.124-0.764-0.322-0.956-0.607c-0.492-0.846-1.477-1.788-0.793-2.782c0.727-1.142,2.077-1.861,3.103-2.73
	c-2.46,1.141-5.014,2.83-7.351,4.594c-0.848,0.124-1.094-0.794-1.627-1.267c-0.354-0.62-0.928-1.217-0.82-1.925
	c1.777-2.185,4.306-3.812,6.712-5.303c5.436-3.128,11.174-5.6,17.526-6.617c0.466,0,0.956-0.038,1.271,0.248"/>
<path d="M41.675,62.293c5.396,2.036,10.862,5.252,14.305,9.809c0.069,0.956-0.861,1.651-1.353,2.422
	c-0.587,0.459-0.956,1.403-1.804,1.105c-1.325-1.181-2.841-2.471-4.262-3.179c0.273,0.683,1.53,0.869,1.215,1.775
	c-0.669,1.056-1.707,1.961-2.65,2.917c-0.916,0.361-1.667-0.782-2.432-1.204c-0.588-0.261-1.052-0.832-1.735-0.956
	c-0.67,0.894-1.093,1.963-2.021,2.646c-1.189-0.224-2.173-0.919-3.307-1.291c-0.697-0.212-1.38-0.447-2.104-0.634
	c-0.573,0.732-0.887,2.233-2.158,2.135c-4.754-2.507-10.206-3.476-15.506-4.805c-0.588-0.646-0.341-1.676-0.396-2.471
	c0.082-0.272,0.246-0.596,0.574-0.695c3.47-0.36,6.34,0.173,9.632,0.571l0.109-0.1c-0.437-0.497,0.014-1.093,0.014-1.627
	c0.136-0.273,0.136-0.658,0.519-0.794c2.104-0.249,4.345,0.459,6.366,0.77c-0.573-0.497-0.068-1.341,0.096-1.962
	c0.137-0.311,0.164-0.72,0.519-0.932c2.227-0.049,4.072,0.708,6.107,1.068v-0.099c-2.965-1.739-6.162-2.944-9.563-3.8
	c-0.151-0.833,0.191-1.714,0.286-2.571c0.479-0.472,1.161-0.063,1.749-0.123c2.65,0.52,5.273,1.066,7.747,2.011"/>
</svg>
