<?xml version="1.0" encoding="UTF-8"?>
<svg xmlns="http://www.w3.org/2000/svg" xmlns:xlink="http://www.w3.org/1999/xlink" width="85px" height="85px" viewBox="0 0 49 45" version="1.1">
<g id="surface1">
<rect x="0" y="0" width="49" height="45" style="fill:rgb(100%,100%,100%);fill-opacity:1;stroke:none;"/>
<path style=" stroke:none;fill-rule:nonzero;fill:rgb(100%,100%,100%);fill-opacity:1;" d="M 5.867188 5.960938 L 22.007812 5.960938 L 22.007812 11.921875 L 5.867188 11.921875 Z M 5.867188 5.960938 "/>
<path style=" stroke:none;fill-rule:evenodd;fill:rgb(0%,0%,56.862745%);fill-opacity:1;" d="M 12.539062 11.21875 C 12.601562 11.152344 12.667969 11.085938 12.730469 11.015625 C 12.84375 10.878906 12.964844 10.75 13.097656 10.632812 C 13.136719 10.597656 13.175781 10.566406 13.21875 10.535156 C 13.222656 10.527344 13.226562 10.519531 13.230469 10.511719 C 13.234375 10.503906 13.234375 10.496094 13.242188 10.488281 C 13.214844 10.5 13.191406 10.519531 13.167969 10.535156 C 13.148438 10.550781 13.125 10.566406 13.097656 10.578125 C 13.085938 10.578125 13.074219 10.566406 13.085938 10.558594 L 13.203125 10.46875 C 13.203125 10.46875 13.199219 10.46875 13.195312 10.46875 C 13.1875 10.46875 13.1875 10.457031 13.1875 10.445312 C 13.042969 10.421875 12.933594 10.523438 12.832031 10.609375 L 12.832031 10.613281 C 12.816406 10.621094 12.800781 10.613281 12.789062 10.609375 C 12.785156 10.605469 12.777344 10.601562 12.773438 10.601562 C 12.6875 10.632812 12.613281 10.6875 12.539062 10.742188 C 12.46875 10.789062 12.398438 10.839844 12.320312 10.871094 L 12.320312 10.851562 C 12.292969 10.859375 12.265625 10.871094 12.238281 10.882812 C 12.199219 10.902344 12.160156 10.917969 12.121094 10.929688 C 12.046875 10.945312 11.976562 10.945312 11.910156 10.941406 C 11.886719 10.941406 11.867188 10.941406 11.84375 10.941406 C 11.707031 10.957031 11.574219 10.980469 11.441406 11.011719 L 11.433594 11.015625 L 11.429688 11.015625 C 11.355469 11.035156 11.289062 11.0625 11.222656 11.101562 C 11.21875 11.101562 11.21875 11.101562 11.214844 11.105469 C 11.210938 11.113281 11.203125 11.117188 11.199219 11.125 C 11.179688 11.152344 11.152344 11.175781 11.121094 11.191406 C 11.074219 11.214844 11.03125 11.253906 10.992188 11.292969 C 10.972656 11.308594 10.957031 11.324219 10.9375 11.339844 C 10.933594 11.339844 10.925781 11.34375 10.921875 11.34375 C 10.902344 11.363281 10.882812 11.378906 10.867188 11.398438 C 10.824219 11.4375 10.785156 11.476562 10.742188 11.515625 C 10.730469 11.523438 10.71875 11.523438 10.707031 11.523438 C 10.710938 11.515625 10.714844 11.511719 10.714844 11.511719 C 10.726562 11.492188 10.734375 11.476562 10.746094 11.460938 C 10.753906 11.445312 10.765625 11.425781 10.777344 11.410156 C 10.792969 11.386719 10.808594 11.363281 10.824219 11.339844 C 10.828125 11.335938 10.828125 11.332031 10.824219 11.328125 C 10.820312 11.324219 10.8125 11.320312 10.808594 11.320312 C 10.867188 11.265625 10.925781 11.21875 10.996094 11.179688 C 10.988281 11.179688 10.976562 11.175781 10.980469 11.167969 C 10.984375 11.160156 10.988281 11.15625 10.992188 11.148438 C 10.996094 11.144531 11 11.140625 11 11.136719 C 11.003906 11.132812 11.003906 11.128906 11.003906 11.125 C 11.003906 11.125 11 11.121094 11 11.121094 L 10.996094 11.117188 C 10.976562 11.128906 10.960938 11.140625 10.945312 11.152344 C 10.9375 11.160156 10.929688 11.171875 10.921875 11.179688 C 10.902344 11.203125 10.886719 11.226562 10.855469 11.226562 C 10.851562 11.226562 10.84375 11.226562 10.839844 11.226562 C 10.835938 11.222656 10.832031 11.222656 10.828125 11.222656 L 10.828125 11.21875 L 10.832031 11.214844 L 10.832031 11.210938 L 10.839844 11.203125 L 10.839844 11.195312 L 10.84375 11.191406 L 10.847656 11.183594 C 10.851562 11.179688 10.851562 11.175781 10.855469 11.171875 L 10.859375 11.167969 L 10.859375 11.164062 L 10.863281 11.160156 C 10.863281 11.15625 10.867188 11.148438 10.871094 11.144531 L 10.875 11.136719 L 10.882812 11.125 L 10.886719 11.113281 L 10.890625 11.109375 L 10.894531 11.101562 C 10.898438 11.097656 10.898438 11.09375 10.894531 11.089844 C 10.894531 11.085938 10.890625 11.082031 10.886719 11.082031 C 10.90625 11.054688 10.933594 11.03125 10.960938 11.015625 L 10.957031 11.015625 C 10.988281 11 11.015625 10.984375 11.046875 10.964844 C 11.058594 10.957031 11.074219 10.949219 11.085938 10.945312 C 11.089844 10.941406 11.09375 10.9375 11.097656 10.933594 L 11.105469 10.925781 C 11.042969 10.949219 10.984375 10.980469 10.929688 11.015625 C 10.921875 11.019531 10.914062 11.023438 10.910156 11.027344 C 10.898438 11.027344 10.886719 11.023438 10.882812 11.015625 C 10.878906 11.011719 10.878906 11.011719 10.878906 11.007812 C 10.886719 10.996094 10.898438 10.984375 10.914062 10.976562 C 10.925781 10.96875 10.9375 10.960938 10.945312 10.953125 C 10.957031 10.953125 10.96875 10.953125 10.96875 10.960938 C 11.1875 10.789062 11.460938 10.746094 11.730469 10.707031 C 11.898438 10.683594 12.066406 10.65625 12.222656 10.601562 L 12.320312 10.535156 C 12.347656 10.523438 12.375 10.503906 12.402344 10.480469 C 12.425781 10.460938 12.453125 10.4375 12.488281 10.421875 C 12.578125 10.359375 12.644531 10.269531 12.675781 10.164062 C 12.675781 10.152344 12.671875 10.144531 12.664062 10.140625 C 12.523438 10.292969 12.359375 10.417969 12.175781 10.511719 C 12.007812 10.601562 11.828125 10.613281 11.652344 10.628906 C 11.582031 10.632812 11.511719 10.636719 11.445312 10.648438 C 11.457031 10.625 11.476562 10.625 11.5 10.625 C 11.5 10.597656 11.515625 10.585938 11.53125 10.570312 C 11.535156 10.566406 11.539062 10.5625 11.542969 10.558594 L 11.578125 10.558594 C 11.582031 10.558594 11.585938 10.550781 11.589844 10.546875 C 11.589844 10.539062 11.59375 10.535156 11.601562 10.535156 C 11.621094 10.535156 11.65625 10.523438 11.644531 10.523438 C 11.628906 10.5 11.601562 10.507812 11.574219 10.519531 C 11.546875 10.527344 11.515625 10.539062 11.488281 10.523438 C 11.5 10.511719 11.503906 10.5 11.503906 10.488281 C 11.507812 10.472656 11.511719 10.460938 11.523438 10.457031 L 11.566406 10.457031 C 11.570312 10.4375 11.578125 10.421875 11.589844 10.410156 C 11.6875 10.351562 11.78125 10.296875 11.875 10.246094 C 11.9375 10.210938 12.003906 10.175781 12.066406 10.140625 C 12.050781 10.140625 12.042969 10.144531 12.03125 10.148438 C 12.011719 10.15625 11.996094 10.164062 11.976562 10.152344 C 11.988281 10.152344 11.988281 10.144531 11.988281 10.136719 C 11.988281 10.125 11.988281 10.117188 12 10.117188 C 12.070312 10.097656 12.132812 10.066406 12.195312 10.039062 C 12.242188 10.015625 12.289062 9.992188 12.34375 9.972656 C 12.328125 9.972656 12.3125 9.976562 12.300781 9.980469 C 12.273438 9.988281 12.25 9.992188 12.222656 9.972656 C 12.226562 9.96875 12.234375 9.960938 12.242188 9.957031 C 12.253906 9.949219 12.265625 9.9375 12.289062 9.9375 L 12.289062 9.902344 C 12.289062 9.894531 12.296875 9.894531 12.308594 9.894531 C 12.300781 9.890625 12.292969 9.886719 12.289062 9.882812 C 12.292969 9.871094 12.304688 9.867188 12.316406 9.863281 C 12.328125 9.863281 12.34375 9.859375 12.355469 9.847656 C 12.34375 9.847656 12.320312 9.847656 12.320312 9.835938 C 12.355469 9.792969 12.410156 9.78125 12.464844 9.769531 C 12.460938 9.757812 12.449219 9.757812 12.4375 9.757812 C 12.429688 9.757812 12.421875 9.757812 12.421875 9.746094 C 12.421875 9.734375 12.429688 9.734375 12.441406 9.734375 L 12.421875 9.734375 C 12.402344 9.726562 12.40625 9.710938 12.40625 9.699219 C 12.410156 9.695312 12.410156 9.691406 12.410156 9.691406 C 12.453125 9.636719 12.46875 9.574219 12.484375 9.511719 C 12.492188 9.480469 12.496094 9.449219 12.507812 9.417969 C 12.496094 9.417969 12.488281 9.417969 12.488281 9.410156 C 12.378906 9.527344 12.207031 9.574219 12.046875 9.617188 L 12.03125 9.621094 L 11.976562 9.621094 C 11.914062 9.648438 11.847656 9.640625 11.789062 9.609375 C 11.761719 9.597656 11.742188 9.578125 11.722656 9.558594 C 11.710938 9.546875 11.695312 9.535156 11.675781 9.519531 C 11.589844 9.464844 11.496094 9.417969 11.398438 9.386719 C 11.125 9.292969 10.835938 9.253906 10.546875 9.261719 C 10.625 9.21875 10.710938 9.199219 10.796875 9.183594 C 10.84375 9.171875 10.890625 9.164062 10.933594 9.148438 C 10.960938 9.140625 10.988281 9.132812 11.015625 9.125 C 11.175781 9.074219 11.328125 9.027344 11.5 9.035156 C 11.476562 9.027344 11.449219 9.03125 11.425781 9.035156 C 11.410156 9.035156 11.398438 9.035156 11.390625 9.035156 C 11.265625 9.027344 11.140625 9.054688 11.007812 9.082031 C 10.976562 9.089844 10.945312 9.097656 10.914062 9.105469 C 10.855469 9.117188 10.804688 9.132812 10.75 9.148438 C 10.699219 9.164062 10.644531 9.183594 10.589844 9.195312 C 10.566406 9.203125 10.542969 9.21875 10.523438 9.234375 C 10.492188 9.257812 10.460938 9.28125 10.414062 9.273438 L 10.414062 9.238281 C 10.523438 9.105469 10.65625 8.96875 10.835938 8.957031 C 11.003906 8.929688 11.164062 8.949219 11.332031 8.96875 C 11.359375 8.972656 11.390625 8.976562 11.421875 8.980469 C 11.566406 8.996094 11.707031 9.023438 11.84375 9.058594 C 11.875 9.058594 11.890625 9.085938 11.90625 9.113281 C 11.921875 9.132812 11.933594 9.15625 11.953125 9.160156 C 11.980469 9.167969 12.007812 9.171875 12.035156 9.171875 C 12.074219 9.175781 12.113281 9.179688 12.152344 9.207031 C 12.152344 9.199219 12.152344 9.191406 12.152344 9.183594 C 12.148438 9.167969 12.148438 9.152344 12.152344 9.136719 C 12.179688 9.113281 12.207031 9.121094 12.234375 9.125 C 12.257812 9.132812 12.277344 9.136719 12.296875 9.125 C 12.359375 9.089844 12.300781 9.03125 12.246094 8.972656 C 12.21875 8.941406 12.191406 8.914062 12.175781 8.890625 C 12.175781 8.882812 12.179688 8.875 12.1875 8.867188 C 12.214844 8.890625 12.238281 8.914062 12.261719 8.941406 C 12.320312 8.996094 12.375 9.054688 12.453125 9.09375 C 12.507812 9.117188 12.640625 9.148438 12.621094 9.082031 C 12.582031 8.996094 12.515625 8.917969 12.449219 8.84375 C 12.417969 8.808594 12.390625 8.777344 12.363281 8.742188 L 12.363281 8.699219 C 12.347656 8.699219 12.34375 8.691406 12.339844 8.683594 C 12.335938 8.683594 12.335938 8.679688 12.332031 8.675781 L 12.332031 8.632812 C 12.304688 8.617188 12.296875 8.59375 12.292969 8.570312 C 12.289062 8.554688 12.285156 8.542969 12.277344 8.53125 C 12.257812 8.5 12.257812 8.460938 12.253906 8.421875 C 12.253906 8.390625 12.253906 8.355469 12.242188 8.328125 C 12.222656 8.265625 12.207031 8.199219 12.199219 8.136719 C 12.183594 8.058594 12.171875 7.988281 12.15625 7.917969 C 12.132812 7.808594 12.113281 7.703125 12.097656 7.59375 C 12.082031 7.429688 12.164062 7.292969 12.246094 7.148438 C 12.273438 7.109375 12.296875 7.066406 12.320312 7.019531 C 12.398438 6.886719 12.488281 6.75 12.628906 6.660156 C 12.664062 6.523438 12.753906 6.414062 12.839844 6.300781 C 12.929688 6.191406 13.078125 6.121094 13.183594 6.074219 C 13.28125 6.03125 13.378906 5.992188 13.476562 5.960938 L 5.867188 5.960938 L 5.867188 11.921875 L 11.257812 11.921875 C 11.40625 11.8125 11.550781 11.746094 11.726562 11.664062 C 11.804688 11.628906 11.886719 11.589844 11.972656 11.546875 C 11.992188 11.535156 12.011719 11.527344 12.035156 11.515625 C 12.191406 11.4375 12.445312 11.3125 12.539062 11.21875 Z M 10.777344 10.398438 C 10.785156 10.359375 10.828125 10.347656 10.867188 10.335938 C 10.882812 10.332031 10.898438 10.328125 10.914062 10.320312 L 10.917969 10.316406 L 10.921875 10.316406 C 10.945312 10.304688 10.972656 10.289062 10.988281 10.296875 C 11.003906 10.316406 11.019531 10.320312 11.035156 10.328125 C 11.046875 10.328125 11.058594 10.332031 11.066406 10.34375 C 11.027344 10.382812 10.980469 10.386719 10.929688 10.390625 C 10.898438 10.394531 10.867188 10.398438 10.835938 10.410156 C 10.828125 10.410156 10.824219 10.410156 10.816406 10.410156 C 10.792969 10.414062 10.769531 10.417969 10.777344 10.398438 Z M 9.480469 9.566406 C 9.382812 9.769531 9.261719 9.960938 9.125 10.140625 C 9.128906 10.148438 9.132812 10.15625 9.136719 10.164062 C 9.402344 9.859375 9.648438 9.601562 9.992188 9.386719 C 10 9.382812 9.996094 9.386719 9.992188 9.390625 C 9.984375 9.402344 9.976562 9.414062 10.003906 9.410156 C 10.117188 9.382812 10.167969 9.28125 10.21875 9.1875 C 10.230469 9.160156 10.246094 9.136719 10.257812 9.117188 C 10.308594 9.03125 10.382812 8.976562 10.457031 8.921875 C 10.511719 8.878906 10.566406 8.839844 10.613281 8.789062 C 10.613281 8.800781 10.609375 8.8125 10.601562 8.824219 C 10.609375 8.832031 10.621094 8.835938 10.636719 8.832031 C 10.652344 8.820312 10.675781 8.8125 10.695312 8.808594 C 10.722656 8.800781 10.75 8.792969 10.769531 8.765625 C 10.675781 8.730469 10.574219 8.726562 10.480469 8.753906 C 10.246094 8.867188 10.046875 9.046875 9.859375 9.25 C 9.746094 9.371094 9.625 9.488281 9.480469 9.566406 Z M 10.023438 9.464844 C 10.015625 9.484375 10 9.5 9.980469 9.507812 C 9.96875 9.507812 9.957031 9.507812 9.957031 9.5 C 9.96875 9.449219 10.003906 9.414062 10.046875 9.398438 C 10.058594 9.398438 10.058594 9.410156 10.058594 9.417969 C 10.050781 9.429688 10.046875 9.4375 10.039062 9.445312 C 10.035156 9.449219 10.03125 9.453125 10.023438 9.464844 Z M 10.5625 11.15625 C 10.570312 11.148438 10.558594 11.144531 10.546875 11.140625 C 10.558594 11.132812 10.566406 11.121094 10.574219 11.105469 C 10.582031 11.085938 10.523438 11.089844 10.515625 11.097656 C 10.503906 11.105469 10.496094 11.113281 10.492188 11.121094 C 10.476562 11.136719 10.460938 11.152344 10.445312 11.167969 C 10.433594 11.175781 10.421875 11.1875 10.410156 11.199219 C 10.394531 11.214844 10.378906 11.230469 10.363281 11.246094 C 10.34375 11.261719 10.40625 11.269531 10.417969 11.257812 C 10.433594 11.246094 10.445312 11.234375 10.460938 11.21875 C 10.464844 11.21875 10.472656 11.21875 10.476562 11.21875 C 10.507812 11.203125 10.539062 11.183594 10.5625 11.15625 Z M 10.371094 11.015625 L 10.359375 11.023438 C 10.320312 11.050781 10.285156 11.078125 10.246094 11.101562 C 10.210938 11.121094 10.171875 11.140625 10.136719 11.15625 C 10.125 11.164062 10.113281 11.167969 10.097656 11.175781 C 10.097656 11.171875 10.097656 11.171875 10.097656 11.171875 C 10.09375 11.164062 10.085938 11.164062 10.078125 11.167969 C 10.039062 11.191406 10 11.21875 9.96875 11.253906 C 9.960938 11.257812 9.957031 11.265625 9.953125 11.269531 C 9.945312 11.277344 9.941406 11.28125 9.933594 11.285156 L 9.933594 11.289062 C 9.925781 11.296875 9.917969 11.304688 9.90625 11.316406 C 9.902344 11.320312 9.898438 11.328125 9.894531 11.332031 C 9.886719 11.335938 9.867188 11.335938 9.867188 11.324219 L 9.867188 11.320312 C 9.863281 11.324219 9.855469 11.328125 9.847656 11.332031 C 9.84375 11.332031 9.839844 11.335938 9.832031 11.339844 C 9.828125 11.339844 9.828125 11.339844 9.824219 11.339844 C 9.820312 11.339844 9.820312 11.339844 9.816406 11.34375 C 9.800781 11.351562 9.789062 11.363281 9.777344 11.375 C 9.753906 11.398438 9.730469 11.421875 9.710938 11.445312 L 9.707031 11.449219 L 9.707031 11.453125 C 9.703125 11.457031 9.703125 11.457031 9.703125 11.460938 L 9.699219 11.460938 L 9.699219 11.464844 L 9.691406 11.472656 C 9.691406 11.476562 9.6875 11.476562 9.683594 11.476562 L 9.683594 11.472656 C 9.679688 11.472656 9.679688 11.472656 9.679688 11.46875 L 9.675781 11.46875 L 9.675781 11.464844 C 9.671875 11.460938 9.667969 11.453125 9.667969 11.445312 L 9.664062 11.445312 L 9.664062 11.441406 C 9.675781 11.425781 9.6875 11.414062 9.699219 11.398438 C 9.703125 11.390625 9.707031 11.386719 9.710938 11.382812 L 9.730469 11.359375 C 9.730469 11.355469 9.734375 11.355469 9.734375 11.351562 L 9.738281 11.351562 C 9.75 11.332031 9.761719 11.316406 9.773438 11.300781 L 9.773438 11.296875 C 9.777344 11.296875 9.777344 11.296875 9.777344 11.292969 C 9.78125 11.285156 9.789062 11.277344 9.792969 11.269531 C 9.796875 11.261719 9.800781 11.253906 9.804688 11.246094 L 9.808594 11.242188 C 9.808594 11.242188 9.808594 11.238281 9.808594 11.238281 C 9.8125 11.230469 9.816406 11.222656 9.820312 11.210938 L 9.820312 11.207031 C 9.820312 11.207031 9.824219 11.203125 9.824219 11.203125 C 9.824219 11.199219 9.824219 11.195312 9.828125 11.191406 C 9.828125 11.1875 9.828125 11.1875 9.828125 11.1875 L 9.828125 11.183594 C 9.828125 11.179688 9.832031 11.175781 9.832031 11.171875 C 9.832031 11.167969 9.832031 11.164062 9.828125 11.164062 C 9.84375 11.140625 9.855469 11.121094 9.875 11.101562 C 9.871094 11.101562 9.871094 11.101562 9.871094 11.105469 C 9.871094 11.105469 9.871094 11.105469 9.867188 11.105469 C 9.859375 11.109375 9.851562 11.117188 9.84375 11.125 C 9.839844 11.128906 9.832031 11.136719 9.828125 11.140625 C 9.816406 11.152344 9.792969 11.136719 9.808594 11.125 C 9.816406 11.117188 9.824219 11.109375 9.832031 11.101562 C 9.851562 11.078125 9.871094 11.058594 9.890625 11.042969 L 9.894531 11.039062 C 9.90625 11.03125 9.914062 11.023438 9.925781 11.015625 C 9.925781 11.015625 9.925781 11.015625 9.925781 11.011719 L 9.929688 11.011719 C 9.9375 11 9.945312 10.992188 9.953125 10.984375 C 9.953125 10.980469 9.953125 10.980469 9.957031 10.980469 C 10.019531 10.917969 10.113281 10.894531 10.207031 10.871094 C 10.265625 10.855469 10.324219 10.84375 10.378906 10.816406 C 10.410156 10.804688 10.445312 10.808594 10.480469 10.8125 C 10.507812 10.816406 10.53125 10.820312 10.558594 10.816406 C 10.59375 10.8125 10.628906 10.820312 10.65625 10.839844 C 10.582031 10.882812 10.507812 10.929688 10.4375 10.972656 C 10.417969 10.988281 10.394531 11 10.375 11.015625 Z M 10.558594 10.207031 L 10.644531 10.207031 C 10.640625 10.21875 10.621094 10.222656 10.613281 10.222656 C 10.601562 10.226562 10.597656 10.226562 10.601562 10.230469 C 10.636719 10.265625 10.703125 10.253906 10.746094 10.230469 C 10.78125 10.210938 10.820312 10.203125 10.855469 10.207031 C 10.867188 10.207031 10.867188 10.183594 10.867188 10.175781 C 10.898438 10.183594 10.925781 10.1875 10.957031 10.183594 C 11.222656 10.128906 11.476562 10.074219 11.722656 9.949219 C 11.476562 9.757812 11.171875 9.671875 10.875 9.585938 C 10.824219 9.574219 10.773438 9.558594 10.722656 9.542969 C 10.734375 9.542969 10.746094 9.546875 10.757812 9.550781 C 10.777344 9.558594 10.800781 9.566406 10.824219 9.542969 C 10.792969 9.519531 10.761719 9.515625 10.726562 9.511719 C 10.699219 9.507812 10.671875 9.503906 10.644531 9.488281 C 10.648438 9.488281 10.652344 9.488281 10.65625 9.488281 C 10.667969 9.492188 10.683594 9.492188 10.691406 9.476562 C 10.632812 9.445312 10.570312 9.4375 10.511719 9.425781 C 10.484375 9.421875 10.453125 9.414062 10.425781 9.410156 C 10.476562 9.398438 10.515625 9.351562 10.511719 9.296875 C 10.511719 9.285156 10.492188 9.285156 10.480469 9.285156 C 10.347656 9.351562 10.257812 9.476562 10.203125 9.621094 C 10.253906 9.652344 10.304688 9.648438 10.359375 9.644531 C 10.390625 9.640625 10.417969 9.640625 10.445312 9.644531 C 10.421875 9.667969 10.386719 9.675781 10.347656 9.683594 C 10.335938 9.683594 10.324219 9.6875 10.3125 9.691406 C 10.277344 9.699219 10.246094 9.722656 10.257812 9.746094 C 10.265625 9.753906 10.273438 9.761719 10.28125 9.761719 C 10.257812 9.769531 10.234375 9.785156 10.214844 9.800781 C 10.246094 9.828125 10.277344 9.820312 10.308594 9.816406 C 10.320312 9.816406 10.335938 9.8125 10.347656 9.8125 C 10.347656 9.828125 10.355469 9.832031 10.367188 9.839844 C 10.371094 9.839844 10.375 9.84375 10.378906 9.847656 C 10.332031 9.867188 10.292969 9.902344 10.269531 9.949219 C 10.253906 9.984375 10.230469 10.003906 10.207031 10.027344 C 10.1875 10.039062 10.171875 10.054688 10.15625 10.074219 L 10.15625 10.105469 C 10.121094 10.140625 10.082031 10.171875 10.042969 10.203125 C 9.96875 10.261719 9.894531 10.316406 9.835938 10.398438 C 9.847656 10.398438 9.847656 10.410156 9.847656 10.421875 C 9.835938 10.4375 9.824219 10.449219 9.808594 10.457031 C 9.792969 10.46875 9.777344 10.480469 9.769531 10.5 C 9.769531 10.511719 9.769531 10.523438 9.78125 10.523438 C 9.851562 10.5 9.910156 10.460938 9.972656 10.421875 C 10.023438 10.386719 10.078125 10.351562 10.136719 10.332031 C 10.183594 10.320312 10.222656 10.296875 10.265625 10.277344 C 10.300781 10.257812 10.332031 10.242188 10.367188 10.230469 C 10.398438 10.226562 10.425781 10.214844 10.457031 10.207031 C 10.488281 10.199219 10.519531 10.191406 10.546875 10.183594 C 10.546875 10.195312 10.546875 10.207031 10.558594 10.207031 Z M 11.070312 11.199219 L 11.074219 11.195312 C 11.089844 11.183594 11.105469 11.171875 11.117188 11.152344 C 11.117188 11.152344 11.117188 11.152344 11.113281 11.152344 C 11.097656 11.167969 11.082031 11.183594 11.070312 11.199219 Z M 13.230469 10.460938 L 13.207031 10.480469 C 13.222656 10.480469 13.230469 10.476562 13.230469 10.460938 Z M 13.230469 10.460938 "/>
<path style=" stroke:none;fill-rule:nonzero;fill:rgb(88.235294%,0%,5.882353%);fill-opacity:1;" d="M 22.003906 5.960938 L 15.695312 5.960938 C 15.714844 5.96875 15.734375 5.976562 15.753906 5.988281 C 15.804688 6.015625 15.871094 6.050781 15.914062 6.074219 C 15.996094 6.113281 16.070312 6.175781 16.125 6.253906 C 16.144531 6.289062 16.179688 6.355469 16.15625 6.402344 C 16.136719 6.457031 16.125 6.546875 16.070312 6.570312 C 16.003906 6.605469 15.914062 6.605469 15.835938 6.59375 C 15.789062 6.589844 15.746094 6.582031 15.703125 6.570312 C 15.867188 6.636719 16.023438 6.714844 16.136719 6.875 C 16.144531 6.898438 16.191406 6.90625 16.234375 6.90625 C 16.246094 6.90625 16.246094 6.929688 16.246094 6.941406 C 16.222656 6.964844 16.203125 6.976562 16.210938 7.007812 L 16.246094 7.007812 C 16.300781 6.988281 16.289062 6.875 16.367188 6.90625 C 16.425781 6.945312 16.445312 7.019531 16.414062 7.078125 C 16.371094 7.117188 16.324219 7.15625 16.277344 7.191406 C 16.269531 7.214844 16.269531 7.242188 16.277344 7.269531 C 16.308594 7.308594 16.324219 7.355469 16.335938 7.402344 C 16.367188 7.484375 16.378906 7.574219 16.410156 7.652344 C 16.457031 7.820312 16.5 7.988281 16.488281 8.160156 C 16.488281 8.25 16.445312 8.328125 16.480469 8.417969 C 16.5 8.507812 16.554688 8.574219 16.601562 8.652344 C 16.644531 8.722656 16.6875 8.765625 16.722656 8.835938 C 16.789062 8.945312 16.910156 9.058594 16.855469 9.195312 C 16.824219 9.273438 16.699219 9.261719 16.621094 9.308594 C 16.554688 9.363281 16.613281 9.453125 16.644531 9.511719 C 16.699219 9.609375 16.578125 9.679688 16.5 9.710938 C 16.523438 9.746094 16.566406 9.734375 16.578125 9.757812 C 16.589844 9.8125 16.644531 9.847656 16.613281 9.902344 C 16.566406 9.972656 16.433594 10.003906 16.5 10.105469 C 16.546875 10.1875 16.515625 10.273438 16.488281 10.355469 C 16.457031 10.457031 16.367188 10.5 16.289062 10.523438 C 16.222656 10.542969 16.148438 10.546875 16.078125 10.535156 C 16.058594 10.523438 16.035156 10.515625 16.011719 10.511719 C 15.824219 10.488281 15.636719 10.433594 15.449219 10.433594 C 15.394531 10.441406 15.34375 10.457031 15.292969 10.476562 C 15.242188 10.515625 15.199219 10.554688 15.15625 10.597656 L 15.15625 10.601562 C 15.148438 10.609375 15.140625 10.617188 15.132812 10.628906 C 15.128906 10.632812 15.121094 10.640625 15.117188 10.644531 C 15.113281 10.648438 15.113281 10.652344 15.109375 10.65625 C 15.078125 10.699219 15.046875 10.742188 15.023438 10.785156 C 15.019531 10.789062 15.019531 10.792969 15.015625 10.796875 C 15.015625 10.800781 15.011719 10.804688 15.007812 10.8125 C 14.972656 10.875 14.945312 10.945312 14.925781 11.015625 C 14.847656 11.273438 14.882812 11.496094 14.933594 11.550781 C 14.949219 11.566406 15.300781 11.675781 15.546875 11.785156 C 15.636719 11.824219 15.722656 11.871094 15.808594 11.921875 L 22.003906 11.921875 Z M 22.003906 5.960938 "/>
<path style=" stroke:none;fill-rule:nonzero;fill:rgb(50.196078%,50.196078%,50.196078%);fill-opacity:1;" d="M 16.070312 8.132812 C 16.113281 8.144531 16.179688 8.144531 16.179688 8.167969 C 16.15625 8.257812 16.023438 8.28125 15.957031 8.371094 L 15.925781 8.371094 C 15.890625 8.394531 15.902344 8.449219 15.871094 8.449219 C 15.835938 8.441406 15.800781 8.445312 15.769531 8.460938 C 15.8125 8.507812 15.871094 8.539062 15.9375 8.527344 C 15.953125 8.535156 15.96875 8.554688 15.96875 8.574219 C 15.976562 8.574219 15.984375 8.570312 15.992188 8.5625 C 16.003906 8.5625 16.011719 8.5625 16.011719 8.574219 L 16.011719 8.617188 C 15.980469 8.664062 15.925781 8.640625 15.878906 8.652344 C 15.964844 8.675781 16.050781 8.675781 16.136719 8.652344 C 16.203125 8.628906 16.136719 8.515625 16.179688 8.460938 C 16.15625 8.460938 16.179688 8.425781 16.15625 8.425781 C 16.179688 8.40625 16.203125 8.371094 16.222656 8.359375 C 16.25 8.359375 16.277344 8.347656 16.289062 8.324219 C 16.289062 8.304688 16.246094 8.292969 16.257812 8.269531 C 16.324219 8.226562 16.378906 8.15625 16.355469 8.089844 C 16.347656 8.054688 16.257812 8.054688 16.203125 8.035156 C 16.144531 8.011719 16.078125 8.035156 16.011719 8.042969 C 15.957031 8.042969 15.902344 8.078125 15.847656 8.089844 C 15.773438 8.117188 15.699219 8.152344 15.636719 8.203125 C 15.714844 8.171875 15.796875 8.152344 15.878906 8.132812 C 15.945312 8.132812 16.003906 8.117188 16.070312 8.132812 Z M 16.070312 8.132812 "/>
<path style=" stroke:none;fill-rule:nonzero;fill:rgb(11.764706%,11.764706%,11.764706%);fill-opacity:1;" d="M 5.886719 19.371094 L 6.71875 19.371094 L 6.71875 16.378906 L 7.632812 17.941406 L 8.222656 17.941406 L 9.136719 16.378906 L 9.136719 19.371094 L 9.96875 19.371094 L 9.96875 15.199219 L 8.929688 15.199219 L 7.929688 16.949219 L 6.925781 15.199219 L 5.886719 15.199219 Z M 11.203125 19.371094 L 12.039062 19.371094 L 12.039062 15.199219 L 11.203125 15.199219 Z M 13.273438 19.371094 L 14.109375 19.371094 L 14.109375 16.355469 L 15.945312 19.371094 L 17.011719 19.371094 L 17.011719 15.199219 L 16.179688 15.199219 L 16.179688 18.214844 L 14.34375 15.199219 L 13.273438 15.199219 Z M 18.25 19.371094 L 19.082031 19.371094 L 19.082031 15.199219 L 18.25 15.199219 Z M 19.949219 18.792969 C 20.3125 19.234375 20.777344 19.488281 21.46875 19.488281 C 22.226562 19.488281 22.824219 19.019531 22.835938 18.234375 C 22.835938 16.800781 20.96875 17.015625 20.96875 16.257812 C 20.96875 16.007812 21.164062 15.820312 21.457031 15.820312 C 21.769531 15.820312 22.039062 16.027344 22.277344 16.34375 L 22.890625 15.78125 C 22.535156 15.359375 22.066406 15.078125 21.453125 15.078125 C 20.664062 15.078125 20.125 15.628906 20.125 16.289062 C 20.125 17.703125 21.992188 17.492188 21.992188 18.261719 C 21.992188 18.558594 21.792969 18.738281 21.464844 18.738281 C 21.128906 18.738281 20.800781 18.546875 20.554688 18.226562 Z M 23.347656 15.96875 L 24.613281 15.96875 L 24.613281 19.371094 L 25.449219 19.371094 L 25.449219 15.96875 L 26.714844 15.96875 L 26.714844 15.199219 L 23.347656 15.199219 Z M 28.363281 14.839844 L 29.125 14.839844 L 28.460938 14.035156 L 27.605469 14.035156 Z M 27.535156 19.371094 L 29.929688 19.371094 L 29.929688 18.667969 L 28.367188 18.667969 L 28.367188 17.59375 L 29.695312 17.59375 L 29.695312 16.890625 L 28.367188 16.890625 L 28.367188 15.902344 L 29.929688 15.902344 L 29.929688 15.199219 L 27.535156 15.199219 Z M 30.984375 19.371094 L 31.820312 19.371094 L 31.820312 17.683594 L 32.246094 17.683594 L 33.34375 19.371094 L 34.324219 19.371094 L 33.039062 17.523438 C 33.460938 17.328125 33.703125 16.949219 33.703125 16.445312 C 33.703125 15.667969 33.144531 15.199219 32.242188 15.199219 L 30.984375 15.199219 Z M 32.289062 15.902344 C 32.640625 15.902344 32.847656 16.117188 32.847656 16.433594 C 32.847656 16.773438 32.640625 16.980469 32.289062 16.980469 L 31.820312 16.980469 L 31.820312 15.902344 Z M 34.941406 19.371094 L 37.335938 19.371094 L 37.335938 18.667969 L 35.773438 18.667969 L 35.773438 17.59375 L 37.101562 17.59375 L 37.101562 16.890625 L 35.773438 16.890625 L 35.773438 15.902344 L 37.335938 15.902344 L 37.335938 15.199219 L 34.941406 15.199219 Z M 5.886719 25.628906 L 7.5 25.628906 C 8.800781 25.628906 9.683594 24.667969 9.683594 23.542969 C 9.683594 22.417969 8.800781 21.457031 7.5 21.457031 L 5.886719 21.457031 Z M 7.511719 22.226562 C 8.273438 22.226562 8.824219 22.796875 8.824219 23.542969 C 8.824219 24.28125 8.273438 24.859375 7.511719 24.859375 L 6.71875 24.859375 L 6.71875 22.226562 Z M 10.574219 25.628906 L 12.96875 25.628906 L 12.96875 24.925781 L 11.40625 24.925781 L 11.40625 23.851562 L 12.734375 23.851562 L 12.734375 23.148438 L 11.40625 23.148438 L 11.40625 22.160156 L 12.96875 22.160156 L 12.96875 21.457031 L 10.574219 21.457031 Z M 13.65625 25.050781 C 14.019531 25.492188 14.484375 25.75 15.175781 25.75 C 15.933594 25.75 16.53125 25.277344 16.542969 24.492188 C 16.542969 23.058594 14.675781 23.273438 14.675781 22.519531 C 14.675781 22.265625 14.871094 22.078125 15.164062 22.078125 C 15.472656 22.078125 15.746094 22.285156 15.984375 22.601562 L 16.59375 22.042969 C 16.242188 21.617188 15.773438 21.335938 15.15625 21.335938 C 14.371094 21.335938 13.832031 21.886719 13.832031 22.546875 C 13.832031 23.960938 15.699219 23.75 15.699219 24.519531 C 15.699219 24.820312 15.496094 24.996094 15.167969 24.996094 C 14.835938 24.996094 14.507812 24.804688 14.257812 24.484375 Z M 18.597656 25.628906 L 19.484375 25.628906 L 19.878906 24.542969 L 21.519531 24.542969 L 21.914062 25.628906 L 22.800781 25.628906 L 21.246094 21.457031 L 20.152344 21.457031 Z M 20.136719 23.824219 L 20.699219 22.253906 L 21.261719 23.824219 Z M 23.523438 25.628906 L 24.355469 25.628906 L 24.355469 23.941406 L 24.785156 23.941406 L 25.882812 25.628906 L 26.863281 25.628906 L 25.578125 23.78125 C 26 23.585938 26.238281 23.210938 26.238281 22.703125 C 26.238281 21.929688 25.683594 21.457031 24.777344 21.457031 L 23.523438 21.457031 Z M 24.824219 22.160156 C 25.175781 22.160156 25.382812 22.375 25.382812 22.691406 C 25.382812 23.03125 25.175781 23.238281 24.824219 23.238281 L 24.355469 23.238281 L 24.355469 22.160156 Z M 27.476562 25.628906 L 28.3125 25.628906 L 28.3125 22.636719 L 29.226562 24.199219 L 29.8125 24.199219 L 30.730469 22.636719 L 30.730469 25.628906 L 31.5625 25.628906 L 31.5625 21.457031 L 30.523438 21.457031 L 29.519531 23.210938 L 28.515625 21.457031 L 27.476562 21.457031 Z M 34.363281 21.097656 L 35.125 20.292969 L 34.269531 20.292969 L 33.605469 21.097656 Z M 32.796875 25.628906 L 35.191406 25.628906 L 35.191406 24.925781 L 33.628906 24.925781 L 33.628906 23.851562 L 34.957031 23.851562 L 34.957031 23.148438 L 33.628906 23.148438 L 33.628906 22.160156 L 35.191406 22.160156 L 35.191406 21.457031 L 32.796875 21.457031 Z M 36.246094 25.628906 L 38.640625 25.628906 L 38.640625 24.925781 L 37.082031 24.925781 L 37.082031 23.851562 L 38.40625 23.851562 L 38.40625 23.148438 L 37.082031 23.148438 L 37.082031 22.160156 L 38.640625 22.160156 L 38.640625 21.457031 L 36.246094 21.457031 Z M 39.328125 25.050781 C 39.691406 25.492188 40.15625 25.75 40.847656 25.75 C 41.605469 25.75 42.203125 25.277344 42.214844 24.492188 C 42.214844 23.058594 40.347656 23.273438 40.347656 22.519531 C 40.347656 22.265625 40.542969 22.078125 40.835938 22.078125 C 41.148438 22.078125 41.417969 22.285156 41.65625 22.601562 L 42.269531 22.042969 C 41.914062 21.617188 41.445312 21.335938 40.832031 21.335938 C 40.042969 21.335938 39.503906 21.886719 39.503906 22.546875 C 39.503906 23.960938 41.371094 23.75 41.371094 24.519531 C 41.371094 24.820312 41.171875 24.996094 40.84375 24.996094 C 40.507812 24.996094 40.179688 24.804688 39.933594 24.484375 Z M 39.328125 25.050781 "/>
<path style=" stroke:none;fill-rule:evenodd;fill:rgb(0%,0%,0%);fill-opacity:1;" d="M 21.113281 36.269531 L 20.566406 36.773438 L 20.425781 36.773438 L 20.75 36.195312 L 21.113281 36.195312 Z M 20.722656 38.230469 L 20.601562 38.230469 C 20.457031 38.40625 20.292969 38.550781 20.132812 38.550781 C 19.96875 38.550781 19.886719 38.449219 19.886719 38.230469 C 19.886719 38.140625 19.898438 38.042969 19.917969 37.960938 L 20.875 37.640625 C 21.0625 37.1875 20.839844 36.988281 20.574219 36.988281 C 20.121094 36.988281 19.605469 37.792969 19.605469 38.4375 C 19.605469 38.742188 19.746094 38.910156 19.96875 38.910156 C 20.226562 38.902344 20.496094 38.644531 20.722656 38.230469 Z M 20.390625 37.25 C 20.519531 37.25 20.632812 37.351562 20.574219 37.585938 L 19.980469 37.746094 C 20.074219 37.460938 20.25 37.25 20.390625 37.25 Z M 18.527344 37.261719 L 18.84375 37.261719 L 18.339844 38.671875 C 18.292969 38.789062 18.355469 38.910156 18.480469 38.910156 C 18.835938 38.910156 19.265625 38.597656 19.429688 38.15625 L 19.339844 38.15625 C 19.210938 38.34375 18.929688 38.546875 18.71875 38.582031 L 19.183594 37.261719 L 19.660156 37.261719 L 19.71875 37.0625 L 19.253906 37.0625 L 19.429688 36.554688 L 19.246094 36.554688 L 18.917969 37.0625 L 18.527344 37.113281 Z M 18.085938 36.996094 C 18.152344 36.996094 18.238281 37.066406 18.199219 37.199219 L 17.628906 38.597656 C 17.773438 38.574219 17.925781 38.433594 18.015625 38.300781 L 18.109375 38.300781 C 17.972656 38.652344 17.667969 38.910156 17.40625 38.910156 C 17.339844 38.910156 17.246094 38.835938 17.292969 38.707031 L 17.820312 37.304688 C 17.675781 37.328125 17.523438 37.472656 17.433594 37.601562 L 17.347656 37.601562 C 17.480469 37.246094 17.808594 36.996094 18.085938 36.996094 Z M 18.25 36.636719 C 18.367188 36.636719 18.46875 36.542969 18.46875 36.417969 C 18.46875 36.296875 18.367188 36.195312 18.25 36.195312 C 18.128906 36.195312 18.03125 36.296875 18.03125 36.417969 C 18.03125 36.535156 18.132812 36.636719 18.25 36.636719 Z M 15.6875 37.800781 C 15.816406 37.515625 15.769531 37.382812 15.6875 37.382812 C 15.617188 37.382812 15.535156 37.460938 15.449219 37.601562 L 15.363281 37.601562 C 15.5 37.300781 15.675781 36.996094 15.867188 36.996094 C 16.03125 36.996094 16.089844 37.164062 16.089844 37.347656 L 16.089844 37.609375 C 16.117188 37.578125 16.144531 37.546875 16.167969 37.515625 C 16.417969 37.222656 16.605469 36.996094 16.824219 36.996094 C 16.996094 36.996094 17.082031 37.101562 17.082031 37.261719 C 17.082031 37.359375 17.054688 37.476562 16.988281 37.601562 L 16.5 38.597656 C 16.648438 38.574219 16.800781 38.433594 16.890625 38.300781 L 16.976562 38.300781 C 16.84375 38.660156 16.511719 38.910156 16.238281 38.910156 C 16.113281 38.910156 16.042969 38.777344 16.097656 38.671875 L 16.660156 37.566406 C 16.722656 37.441406 16.734375 37.359375 16.636719 37.359375 C 16.5 37.359375 16.183594 37.585938 16.015625 37.792969 L 15.644531 38.785156 C 15.605469 38.886719 15.5625 38.910156 15.46875 38.910156 C 15.316406 38.910156 15.238281 38.808594 15.308594 38.644531 Z M 15.304688 37.417969 C 15.367188 37.191406 15.332031 36.988281 15.164062 36.988281 C 14.953125 36.988281 14.886719 37.132812 14.679688 37.574219 L 14.664062 37.601562 L 14.664062 37.339844 C 14.664062 37.15625 14.605469 36.988281 14.441406 36.988281 C 14.25 36.988281 14.070312 37.292969 13.9375 37.597656 L 14.023438 37.597656 C 14.117188 37.460938 14.207031 37.375 14.277344 37.375 C 14.359375 37.375 14.40625 37.507812 14.277344 37.792969 L 13.902344 38.640625 C 13.832031 38.800781 13.90625 38.902344 14.058594 38.902344 C 14.152344 38.902344 14.195312 38.878906 14.238281 38.777344 L 14.605469 37.789062 C 14.710938 37.65625 14.804688 37.542969 14.921875 37.417969 Z M 13.449219 37.585938 C 13.507812 37.351562 13.398438 37.25 13.269531 37.25 C 13.128906 37.25 12.953125 37.460938 12.855469 37.746094 Z M 13.597656 38.230469 L 13.480469 38.230469 C 13.332031 38.40625 13.167969 38.550781 13.011719 38.550781 C 12.84375 38.550781 12.761719 38.449219 12.761719 38.230469 C 12.761719 38.140625 12.773438 38.042969 12.792969 37.960938 L 13.75 37.640625 C 13.9375 37.1875 13.714844 36.988281 13.449219 36.988281 C 13 36.988281 12.480469 37.792969 12.480469 38.4375 C 12.480469 38.742188 12.621094 38.910156 12.84375 38.910156 C 13.105469 38.902344 13.375 38.644531 13.597656 38.230469 Z M 11.71875 37.261719 L 11.402344 37.261719 L 11.402344 37.113281 L 11.796875 37.0625 L 12.125 36.554688 L 12.304688 36.554688 L 12.128906 37.0625 L 12.59375 37.0625 L 12.535156 37.261719 L 12.058594 37.261719 L 11.59375 38.582031 C 11.808594 38.546875 12.089844 38.34375 12.21875 38.15625 L 12.304688 38.15625 C 12.140625 38.597656 11.714844 38.910156 11.355469 38.910156 C 11.230469 38.910156 11.167969 38.789062 11.214844 38.671875 Z M 9.722656 38.355469 C 9.722656 37.917969 10.199219 37.335938 10.464844 37.335938 C 10.523438 37.335938 10.582031 37.339844 10.628906 37.359375 L 10.351562 38.109375 C 10.191406 38.304688 9.945312 38.546875 9.828125 38.546875 C 9.765625 38.546875 9.722656 38.484375 9.722656 38.355469 Z M 11.03125 36.898438 L 11.179688 36.910156 L 10.667969 38.105469 C 10.546875 38.390625 10.597656 38.519531 10.667969 38.519531 C 10.738281 38.519531 10.828125 38.4375 10.921875 38.300781 L 11.007812 38.300781 C 10.875 38.605469 10.699219 38.910156 10.503906 38.910156 C 10.339844 38.910156 10.238281 38.730469 10.269531 38.40625 L 10.28125 38.292969 L 10.25 38.339844 C 10.039062 38.636719 9.847656 38.910156 9.652344 38.910156 C 9.484375 38.910156 9.394531 38.800781 9.394531 38.640625 C 9.394531 37.949219 10.140625 37.066406 10.839844 37.066406 L 10.867188 37.066406 Z M 9.6875 37.417969 C 9.753906 37.191406 9.71875 36.988281 9.546875 36.988281 C 9.335938 36.988281 9.269531 37.132812 9.0625 37.574219 L 9.050781 37.601562 L 9.050781 37.339844 C 9.050781 37.15625 8.988281 36.988281 8.824219 36.988281 C 8.632812 36.988281 8.457031 37.292969 8.320312 37.597656 L 8.410156 37.597656 C 8.503906 37.460938 8.589844 37.375 8.65625 37.375 C 8.738281 37.375 8.785156 37.507812 8.65625 37.792969 L 8.28125 38.644531 C 8.210938 38.808594 8.285156 38.910156 8.4375 38.910156 C 8.53125 38.910156 8.574219 38.886719 8.613281 38.785156 L 8.984375 37.792969 C 9.089844 37.664062 9.183594 37.550781 9.300781 37.425781 L 9.6875 37.425781 Z M 7.269531 38.730469 L 7.234375 38.835938 L 5.867188 38.835938 L 5.902344 38.722656 C 6.324219 38.644531 6.394531 38.609375 6.574219 38.128906 L 6.953125 37.089844 C 7.125 36.609375 7.089844 36.570312 6.71875 36.496094 L 6.753906 36.386719 L 8.53125 36.386719 L 8.425781 36.964844 L 8.296875 36.964844 C 8.296875 36.621094 8.261719 36.53125 7.941406 36.53125 L 7.859375 36.53125 C 7.539062 36.53125 7.5 36.578125 7.410156 36.828125 L 7.160156 37.527344 L 7.527344 37.527344 C 7.777344 37.527344 7.871094 37.371094 7.980469 37.167969 L 8.109375 37.167969 L 7.804688 38.015625 L 7.675781 38.015625 C 7.703125 37.757812 7.703125 37.65625 7.476562 37.65625 L 7.105469 37.65625 L 6.9375 38.132812 C 6.753906 38.628906 6.804688 38.640625 7.242188 38.722656 C 7.253906 38.726562 7.261719 38.726562 7.269531 38.730469 Z M 7.269531 38.730469 "/>
<path style=" stroke:none;fill-rule:evenodd;fill:rgb(0%,0%,0%);fill-opacity:1;" d="M 8.433594 31.707031 L 7.886719 32.109375 L 7.886719 32.113281 L 7.746094 32.113281 L 8.070312 31.636719 L 8.433594 31.636719 Z M 12.246094 34.503906 L 13.121094 32.144531 L 13.09375 32.109375 L 12.488281 32.179688 L 12.488281 32.25 L 12.605469 32.339844 C 12.707031 32.417969 12.679688 32.492188 12.59375 32.722656 L 12.582031 32.761719 L 11.914062 34.574219 C 11.859375 34.683594 11.929688 34.8125 12.054688 34.8125 C 12.328125 34.8125 12.621094 34.558594 12.757812 34.207031 L 12.667969 34.207031 C 12.574219 34.335938 12.386719 34.480469 12.246094 34.503906 Z M 16.253906 32.6875 L 16.800781 32.179688 L 16.800781 32.109375 L 16.4375 32.109375 L 16.113281 32.6875 Z M 16.289062 34.132812 L 16.40625 34.132812 C 16.191406 34.558594 15.921875 34.8125 15.664062 34.8125 C 15.4375 34.8125 15.296875 34.648438 15.296875 34.34375 C 15.296875 33.699219 15.816406 32.894531 16.265625 32.894531 C 16.523438 32.894531 16.753906 33.089844 16.566406 33.542969 L 15.605469 33.867188 C 15.585938 33.949219 15.574219 34.046875 15.574219 34.132812 C 15.574219 34.355469 15.65625 34.457031 15.820312 34.457031 C 15.980469 34.457031 16.144531 34.3125 16.289062 34.132812 Z M 16.261719 33.492188 C 16.320312 33.265625 16.207031 33.164062 16.078125 33.164062 C 15.945312 33.164062 15.769531 33.371094 15.667969 33.652344 Z M 14.535156 33.175781 L 14.21875 33.175781 L 14.21875 33.027344 L 14.613281 32.972656 L 14.941406 32.464844 L 15.121094 32.464844 L 14.945312 32.972656 L 15.410156 32.972656 L 15.351562 33.175781 L 14.875 33.175781 L 14.414062 34.492188 C 14.625 34.457031 14.90625 34.253906 15.035156 34.070312 L 15.121094 34.070312 C 14.957031 34.511719 14.53125 34.820312 14.171875 34.820312 C 14.046875 34.820312 13.984375 34.699219 14.03125 34.582031 Z M 13.890625 33.101562 C 13.925781 32.972656 13.84375 32.902344 13.773438 32.902344 C 13.496094 32.902344 13.167969 33.15625 13.035156 33.507812 L 13.121094 33.507812 C 13.210938 33.378906 13.363281 33.234375 13.507812 33.210938 L 12.980469 34.609375 C 12.933594 34.742188 13.027344 34.8125 13.09375 34.8125 C 13.355469 34.8125 13.660156 34.558594 13.796875 34.207031 L 13.707031 34.207031 C 13.621094 34.335938 13.46875 34.480469 13.320312 34.503906 Z M 14.160156 32.328125 C 14.160156 32.449219 14.058594 32.550781 13.941406 32.550781 C 13.824219 32.550781 13.726562 32.449219 13.726562 32.328125 C 13.726562 32.210938 13.820312 32.109375 13.941406 32.109375 C 14.058594 32.109375 14.160156 32.210938 14.160156 32.328125 Z M 11.195312 33.246094 C 10.933594 33.246094 10.457031 33.832031 10.457031 34.265625 C 10.457031 34.398438 10.5 34.457031 10.570312 34.457031 C 10.679688 34.457031 10.925781 34.21875 11.085938 34.019531 L 11.359375 33.269531 C 11.308594 33.253906 11.253906 33.246094 11.195312 33.246094 Z M 11.914062 32.824219 L 11.765625 32.8125 L 11.601562 32.976562 L 11.570312 32.976562 C 10.875 32.976562 10.128906 33.859375 10.128906 34.550781 C 10.128906 34.710938 10.214844 34.820312 10.386719 34.820312 C 10.582031 34.820312 10.773438 34.550781 10.984375 34.25 L 11.015625 34.207031 L 11.003906 34.320312 C 10.972656 34.640625 11.074219 34.820312 11.238281 34.820312 C 11.429688 34.820312 11.609375 34.515625 11.742188 34.210938 L 11.65625 34.210938 C 11.558594 34.347656 11.472656 34.433594 11.402344 34.433594 C 11.332031 34.433594 11.277344 34.300781 11.402344 34.015625 Z M 8.953125 34.753906 C 8.703125 34.855469 8.527344 34.976562 8.527344 35.160156 C 8.527344 35.332031 8.683594 35.402344 9.011719 35.402344 C 9.453125 35.402344 9.695312 35.273438 9.695312 35.101562 C 9.695312 35.023438 9.59375 34.988281 9.332031 34.898438 C 9.160156 34.84375 9.039062 34.796875 8.953125 34.753906 Z M 9.25 34.019531 C 9.132812 34.019531 9.089844 33.917969 9.089844 33.8125 C 9.089844 33.46875 9.253906 33.039062 9.519531 33.039062 C 9.636719 33.039062 9.675781 33.140625 9.675781 33.246094 C 9.671875 33.597656 9.507812 34.019531 9.25 34.019531 Z M 9.472656 34.582031 C 9.792969 34.683594 9.992188 34.761719 9.992188 34.988281 C 9.992188 35.277344 9.464844 35.625 8.824219 35.617188 C 8.457031 35.617188 8.140625 35.515625 8.140625 35.273438 C 8.140625 35.039062 8.351562 34.851562 8.867188 34.695312 C 8.796875 34.648438 8.765625 34.585938 8.765625 34.503906 C 8.765625 34.359375 8.894531 34.246094 9.121094 34.140625 C 8.902344 34.109375 8.761719 33.945312 8.761719 33.699219 C 8.761719 33.324219 9.066406 32.894531 9.546875 32.894531 C 9.648438 32.894531 9.734375 32.917969 9.804688 32.964844 L 10.335938 32.964844 L 10.273438 33.167969 L 9.964844 33.167969 C 9.980469 33.222656 9.992188 33.28125 9.992188 33.347656 C 9.992188 33.710938 9.707031 34.128906 9.25 34.152344 C 9.132812 34.21875 9.074219 34.308594 9.074219 34.378906 C 9.074219 34.460938 9.167969 34.492188 9.378906 34.554688 C 9.410156 34.5625 9.4375 34.570312 9.472656 34.582031 Z M 7.609375 33.5625 C 7.839844 33.5625 7.847656 33.664062 7.8125 33.917969 L 7.941406 33.917969 L 8.246094 33.074219 L 8.117188 33.074219 C 8.003906 33.277344 7.910156 33.429688 7.664062 33.429688 L 7.160156 33.429688 L 7.40625 32.734375 C 7.492188 32.484375 7.535156 32.4375 7.851562 32.4375 L 8.074219 32.4375 C 8.398438 32.4375 8.433594 32.523438 8.433594 32.871094 L 8.5625 32.871094 L 8.667969 32.292969 L 6.753906 32.292969 L 6.71875 32.398438 C 7.089844 32.476562 7.125 32.511719 6.953125 32.996094 L 6.574219 34.039062 C 6.394531 34.523438 6.324219 34.558594 5.898438 34.636719 L 5.867188 34.75 L 7.992188 34.75 L 8.375 34.132812 L 8.226562 34.132812 C 7.980469 34.378906 7.734375 34.605469 7.253906 34.605469 C 6.722656 34.605469 6.734375 34.578125 6.890625 34.136719 C 6.902344 34.105469 6.914062 34.078125 6.925781 34.046875 L 7.101562 33.566406 L 7.609375 33.566406 Z M 7.609375 33.5625 "/>
<path style=" stroke:none;fill-rule:evenodd;fill:rgb(0%,0%,0%);fill-opacity:1;" d="M 9.367188 28.453125 C 9.484375 28.453125 9.582031 28.351562 9.582031 28.234375 C 9.582031 28.113281 9.484375 28.011719 9.367188 28.011719 C 9.242188 28.011719 9.148438 28.113281 9.148438 28.234375 C 9.148438 28.359375 9.242188 28.453125 9.367188 28.453125 Z M 9.875 30.71875 C 10.335938 30.726562 11.101562 29.867188 11.101562 29.207031 C 11.101562 28.917969 11.03125 28.8125 10.832031 28.8125 C 10.585938 28.8125 10.359375 29.082031 10.128906 29.402344 L 10.621094 28.0625 L 10.59375 28.019531 L 9.988281 28.089844 L 9.988281 28.164062 L 10.105469 28.25 C 10.207031 28.332031 10.175781 28.414062 10.089844 28.648438 L 10.082031 28.675781 L 9.546875 30.09375 C 9.5 30.210938 9.449219 30.355469 9.449219 30.390625 C 9.449219 30.558594 9.671875 30.71875 9.875 30.71875 Z M 16.191406 28.597656 L 16.734375 28.089844 L 16.734375 28.019531 L 16.371094 28.019531 L 16.050781 28.597656 Z M 16.226562 30.046875 L 16.34375 30.046875 C 16.121094 30.46875 15.851562 30.726562 15.59375 30.71875 C 15.367188 30.71875 15.226562 30.558594 15.226562 30.253906 C 15.226562 29.609375 15.746094 28.804688 16.195312 28.804688 C 16.453125 28.804688 16.683594 29.003906 16.496094 29.457031 L 15.539062 29.777344 C 15.523438 29.859375 15.511719 29.957031 15.511719 30.046875 C 15.511719 30.265625 15.59375 30.367188 15.757812 30.367188 C 15.914062 30.367188 16.078125 30.222656 16.226562 30.046875 Z M 16.195312 29.402344 C 16.253906 29.175781 16.144531 29.074219 16.015625 29.074219 C 15.875 29.074219 15.699219 29.28125 15.605469 29.5625 Z M 14.464844 29.085938 L 14.148438 29.085938 L 14.148438 28.9375 L 14.542969 28.882812 L 14.871094 28.375 L 15.050781 28.375 L 14.875 28.882812 L 15.339844 28.882812 L 15.28125 29.085938 L 14.804688 29.085938 L 14.34375 30.402344 C 14.554688 30.367188 14.835938 30.164062 14.964844 29.980469 L 15.050781 29.980469 C 14.886719 30.421875 14.460938 30.730469 14.101562 30.730469 C 13.976562 30.730469 13.914062 30.613281 13.960938 30.492188 Z M 13.984375 29.242188 C 14.046875 29.015625 14.011719 28.8125 13.84375 28.8125 C 13.632812 28.8125 13.566406 28.953125 13.359375 29.394531 L 13.34375 29.425781 L 13.34375 29.164062 C 13.34375 28.980469 13.285156 28.8125 13.121094 28.8125 C 12.929688 28.8125 12.75 29.117188 12.617188 29.417969 L 12.703125 29.417969 C 12.796875 29.28125 12.886719 29.199219 12.953125 29.199219 C 13.035156 29.199219 13.082031 29.332031 12.953125 29.617188 L 12.574219 30.464844 C 12.503906 30.625 12.582031 30.726562 12.734375 30.726562 C 12.828125 30.726562 12.867188 30.703125 12.910156 30.601562 L 13.28125 29.609375 C 13.386719 29.480469 13.480469 29.367188 13.597656 29.242188 Z M 12.125 29.402344 C 12.183594 29.175781 12.070312 29.074219 11.941406 29.074219 C 11.800781 29.074219 11.632812 29.28125 11.53125 29.5625 Z M 12.269531 30.046875 L 12.152344 30.046875 C 12.007812 30.222656 11.84375 30.367188 11.683594 30.367188 C 11.519531 30.367188 11.4375 30.265625 11.4375 30.046875 C 11.4375 29.957031 11.449219 29.859375 11.464844 29.777344 L 12.421875 29.457031 C 12.609375 29.003906 12.386719 28.804688 12.125 28.804688 C 11.671875 28.804688 11.15625 29.609375 11.15625 30.253906 C 11.15625 30.558594 11.296875 30.71875 11.519531 30.71875 C 11.777344 30.726562 12.046875 30.46875 12.269531 30.046875 Z M 9.804688 30.273438 C 9.804688 30.351562 9.941406 30.4375 10.035156 30.4375 C 10.417969 30.4375 10.773438 29.742188 10.769531 29.355469 C 10.769531 29.222656 10.703125 29.167969 10.617188 29.167969 C 10.476562 29.167969 10.214844 29.382812 10.050781 29.585938 L 9.898438 30.003906 C 9.847656 30.140625 9.804688 30.25 9.804688 30.273438 Z M 9.191406 28.8125 C 9.261719 28.8125 9.34375 28.882812 9.308594 29.015625 L 8.742188 30.414062 C 8.890625 30.390625 9.042969 30.25 9.132812 30.117188 L 9.21875 30.117188 C 9.085938 30.46875 8.777344 30.726562 8.515625 30.726562 C 8.445312 30.726562 8.351562 30.652344 8.398438 30.523438 L 8.925781 29.121094 C 8.777344 29.144531 8.625 29.289062 8.539062 29.417969 L 8.449219 29.417969 C 8.585938 29.066406 8.914062 28.8125 9.191406 28.8125 Z M 6.753906 28.191406 L 8.015625 28.191406 L 7.980469 28.304688 C 7.550781 28.382812 7.480469 28.417969 7.304688 28.902344 L 6.929688 29.949219 C 6.75 30.449219 6.796875 30.511719 7.117188 30.511719 C 7.515625 30.511719 7.777344 30.214844 8.007812 29.960938 C 8.023438 29.941406 8.039062 29.921875 8.058594 29.902344 L 8.203125 29.902344 L 7.789062 30.652344 L 5.867188 30.652344 L 5.902344 30.546875 C 6.324219 30.46875 6.394531 30.433594 6.574219 29.949219 L 6.953125 28.894531 C 7.125 28.414062 7.089844 28.375 6.71875 28.300781 Z M 6.753906 28.191406 "/>
</g>
</svg>
